999
DXF from OpenSCAD
  0
SECTION
  2
HEADER
  9
$ACADVER
  1
AC1006
  9
$INSBASE
 10
0.0
 20
0.0
 30
0.0
  9
$EXTMIN
 10
-395.5
 20
-343.2
  9
$EXTMAX
 10
265
 20
68
  9
$LINMIN
 10
-395.5
 20
-343.2
  9
$LINMAX
 10
265
 20
68
  0
ENDSEC
  0
SECTION
  2
TABLES
  0
TABLE
  2
LTYPE
 70
1
  0
LTYPE
  2
CONTINUOUS
 70
64
  3
Solid line
 72
65
 73
0
 40
0.000000
  0
ENDTAB
  0
TABLE
  2
LAYER
 70
6
  0
LAYER
  2
0
 70
64
 62
7
  6
CONTINUOUS
  0
ENDTAB
  0
TABLE
  2
STYLE
 70
0
  0
ENDTAB
  0
ENDSEC
  0
SECTION
  2
BLOCKS
  0
ENDSEC
  0
SECTION
  2
ENTITIES
  0
LWPOLYLINE
100
AcDbEntity
  8
0
100
AcDbPolyline
 90
4
 70
1
 10
25
 20
68
 10
-25
 20
68
 10
-25
 20
-156
 10
25
 20
-156
  0
LWPOLYLINE
100
AcDbEntity
  8
0
100
AcDbPolyline
 90
39
 70
1
 10
-0.850109
 20
47.8359
 10
-1.50707
 20
48.0262
 10
-2.125
 20
48.3194
 10
-2.68789
 20
48.7079
 10
-3.18117
 20
49.1817
 10
-3.59206
 20
49.7285
 10
-3.90991
 20
50.3341
 10
-4.1265
 20
50.9829
 10
-4.23622
 20
51.658
 10
-4.23622
 20
52.342
 10
-4.1265
 20
53.0171
 10
-3.90991
 20
53.6659
 10
-3.59206
 20
54.2715
 10
-3.18117
 20
54.8183
 10
-2.68789
 20
55.2921
 10
-2.125
 20
55.6806
 10
-1.50707
 20
55.9738
 10
-0.850109
 20
56.1641
 10
-0.17113
 20
56.2466
 10
0.512281
 20
56.219
 10
1.18242
 20
56.0822
 10
1.82194
 20
55.8397
 10
2.41428
 20
55.4977
 10
2.94408
 20
55.0651
 10
3.39763
 20
54.5532
 10
3.76319
 20
53.9751
 10
4.03128
 20
53.3458
 10
4.19496
 20
52.6817
 10
4.25
 20
52
 10
4.19496
 20
51.3183
 10
4.03128
 20
50.6542
 10
3.76319
 20
50.0249
 10
3.39763
 20
49.4468
 10
2.94408
 20
48.9349
 10
2.41428
 20
48.5023
 10
1.82194
 20
48.1603
 10
1.18242
 20
47.9178
 10
0.512281
 20
47.781
 10
-0.17113
 20
47.7534
  0
LWPOLYLINE
100
AcDbEntity
  8
0
100
AcDbPolyline
 90
35
 70
1
 10
-2.79803
 20
-4.38304
 10
-3.35726
 20
-3.97099
 10
-3.85659
 20
-3.48808
 10
-4.2871
 20
-2.94292
 10
-4.6411
 20
-2.34525
 10
-4.91228
 20
-1.70573
 10
-5.0958
 20
-1.03577
 10
-5.18839
 20
-0.347322
 10
-5.18839
 20
0.347322
 10
-5.0958
 20
1.03577
 10
-4.91228
 20
1.70573
 10
-4.6411
 20
2.34525
 10
-4.2871
 20
2.94292
 10
-3.85659
 20
3.48808
 10
-3.35726
 20
3.97099
 10
-2.79803
 20
4.38304
 10
-2.67584
 20
4.45
 10
2.67156
 20
4.45
 10
3.08453
 20
4.18636
 10
3.615
 20
3.73788
 10
4.08096
 20
3.2227
 10
4.47409
 20
2.65001
 10
4.78738
 20
2.03002
 10
5.01524
 20
1.37382
 10
5.1536
 20
0.693092
 10
5.2
 20
0
 10
5.1536
 20
-0.693092
 10
5.01524
 20
-1.37382
 10
4.78738
 20
-2.03002
 10
4.47409
 20
-2.65001
 10
4.08096
 20
-3.2227
 10
3.615
 20
-3.73788
 10
3.08453
 20
-4.18636
 10
2.67156
 20
-4.45
 10
-2.67584
 20
-4.45
  0
LWPOLYLINE
100
AcDbEntity
  8
0
100
AcDbPolyline
 90
72
 70
1
 10
-0.697246
 20
-139.97
 10
-1.38919
 20
-139.878
 10
-2.07055
 20
-139.727
 10
-2.73616
 20
-139.518
 10
-3.38095
 20
-139.25
 10
-4
 20
-138.928
 10
-4.58861
 20
-138.553
 10
-5.1423
 20
-138.128
 10
-5.65685
 20
-137.657
 10
-6.12836
 20
-137.142
 10
-6.55322
 20
-136.589
 10
-6.9282
 20
-136
 10
-7.25046
 20
-135.381
 10
-7.51754
 20
-134.736
 10
-7.72741
 20
-134.071
 10
-7.87846
 20
-133.389
 10
-7.96956
 20
-132.697
 10
-8
 20
-132
 10
-7.96956
 20
-131.303
 10
-7.87846
 20
-130.611
 10
-7.72741
 20
-129.929
 10
-7.51754
 20
-129.264
 10
-7.25046
 20
-128.619
 10
-6.9282
 20
-128
 10
-6.55322
 20
-127.411
 10
-6.12836
 20
-126.858
 10
-5.65685
 20
-126.343
 10
-5.1423
 20
-125.872
 10
-4.58861
 20
-125.447
 10
-4
 20
-125.072
 10
-3.38095
 20
-124.75
 10
-2.73616
 20
-124.482
 10
-2.07055
 20
-124.273
 10
-1.38919
 20
-124.122
 10
-0.697246
 20
-124.03
 10
0
 20
-124
 10
0.697246
 20
-124.03
 10
1.38919
 20
-124.122
 10
2.07055
 20
-124.273
 10
2.73616
 20
-124.482
 10
3.38095
 20
-124.75
 10
4
 20
-125.072
 10
4.58861
 20
-125.447
 10
5.1423
 20
-125.872
 10
5.65685
 20
-126.343
 10
6.12836
 20
-126.858
 10
6.55322
 20
-127.411
 10
6.9282
 20
-128
 10
7.25046
 20
-128.619
 10
7.51754
 20
-129.264
 10
7.72741
 20
-129.929
 10
7.87846
 20
-130.611
 10
7.96956
 20
-131.303
 10
8
 20
-132
 10
7.96956
 20
-132.697
 10
7.87846
 20
-133.389
 10
7.72741
 20
-134.071
 10
7.51754
 20
-134.736
 10
7.25046
 20
-135.381
 10
6.9282
 20
-136
 10
6.55322
 20
-136.589
 10
6.12836
 20
-137.142
 10
5.65685
 20
-137.657
 10
5.1423
 20
-138.128
 10
4.58861
 20
-138.553
 10
4
 20
-138.928
 10
3.38095
 20
-139.25
 10
2.73616
 20
-139.518
 10
2.07055
 20
-139.727
 10
1.38919
 20
-139.878
 10
0.697246
 20
-139.97
 10
0
 20
-140
  0
LWPOLYLINE
100
AcDbEntity
  8
0
100
AcDbPolyline
 90
4
 70
1
 10
182.2
 20
68
 10
132.2
 20
68
 10
132.2
 20
-156
 10
182.2
 20
-156
  0
LWPOLYLINE
100
AcDbEntity
  8
0
100
AcDbPolyline
 90
39
 70
1
 10
156.688
 20
47.781
 10
156.018
 20
47.9178
 10
155.378
 20
48.1603
 10
154.786
 20
48.5023
 10
154.256
 20
48.9349
 10
153.802
 20
49.4468
 10
153.437
 20
50.0249
 10
153.169
 20
50.6542
 10
153.005
 20
51.3183
 10
152.95
 20
52
 10
153.005
 20
52.6817
 10
153.169
 20
53.3458
 10
153.437
 20
53.9751
 10
153.802
 20
54.5532
 10
154.256
 20
55.0651
 10
154.786
 20
55.4977
 10
155.378
 20
55.8397
 10
156.018
 20
56.0822
 10
156.688
 20
56.219
 10
157.371
 20
56.2466
 10
158.05
 20
56.1641
 10
158.707
 20
55.9738
 10
159.325
 20
55.6806
 10
159.888
 20
55.2921
 10
160.381
 20
54.8183
 10
160.792
 20
54.2715
 10
161.11
 20
53.6659
 10
161.327
 20
53.0171
 10
161.436
 20
52.342
 10
161.436
 20
51.658
 10
161.327
 20
50.9829
 10
161.11
 20
50.3341
 10
160.792
 20
49.7285
 10
160.381
 20
49.1817
 10
159.888
 20
48.7079
 10
159.325
 20
48.3194
 10
158.707
 20
48.0262
 10
158.05
 20
47.8359
 10
157.371
 20
47.7534
  0
LWPOLYLINE
100
AcDbEntity
  8
0
100
AcDbPolyline
 90
35
 70
1
 10
154.115
 20
-4.18636
 10
153.585
 20
-3.73788
 10
153.119
 20
-3.2227
 10
152.726
 20
-2.65001
 10
152.413
 20
-2.03002
 10
152.185
 20
-1.37382
 10
152.046
 20
-0.693092
 10
152
 20
0
 10
152.046
 20
0.693092
 10
152.185
 20
1.37382
 10
152.413
 20
2.03002
 10
152.726
 20
2.65001
 10
153.119
 20
3.2227
 10
153.585
 20
3.73788
 10
154.115
 20
4.18636
 10
154.528
 20
4.45
 10
159.876
 20
4.45
 10
159.998
 20
4.38304
 10
160.557
 20
3.97099
 10
161.057
 20
3.48808
 10
161.487
 20
2.94292
 10
161.841
 20
2.34525
 10
162.112
 20
1.70573
 10
162.296
 20
1.03577
 10
162.388
 20
0.347322
 10
162.388
 20
-0.347322
 10
162.296
 20
-1.03577
 10
162.112
 20
-1.70573
 10
161.841
 20
-2.34525
 10
161.487
 20
-2.94292
 10
161.057
 20
-3.48808
 10
160.557
 20
-3.97099
 10
159.998
 20
-4.38304
 10
159.876
 20
-4.45
 10
154.528
 20
-4.45
  0
LWPOLYLINE
100
AcDbEntity
  8
0
100
AcDbPolyline
 90
72
 70
1
 10
156.503
 20
-139.97
 10
155.811
 20
-139.878
 10
155.129
 20
-139.727
 10
154.464
 20
-139.518
 10
153.819
 20
-139.25
 10
153.2
 20
-138.928
 10
152.611
 20
-138.553
 10
152.058
 20
-138.128
 10
151.543
 20
-137.657
 10
151.072
 20
-137.142
 10
150.647
 20
-136.589
 10
150.272
 20
-136
 10
149.95
 20
-135.381
 10
149.682
 20
-134.736
 10
149.473
 20
-134.071
 10
149.322
 20
-133.389
 10
149.23
 20
-132.697
 10
149.2
 20
-132
 10
149.23
 20
-131.303
 10
149.322
 20
-130.611
 10
149.473
 20
-129.929
 10
149.682
 20
-129.264
 10
149.95
 20
-128.619
 10
150.272
 20
-128
 10
150.647
 20
-127.411
 10
151.072
 20
-126.858
 10
151.543
 20
-126.343
 10
152.058
 20
-125.872
 10
152.611
 20
-125.447
 10
153.2
 20
-125.072
 10
153.819
 20
-124.75
 10
154.464
 20
-124.482
 10
155.129
 20
-124.273
 10
155.811
 20
-124.122
 10
156.503
 20
-124.03
 10
157.2
 20
-124
 10
157.897
 20
-124.03
 10
158.589
 20
-124.122
 10
159.271
 20
-124.273
 10
159.936
 20
-124.482
 10
160.581
 20
-124.75
 10
161.2
 20
-125.072
 10
161.789
 20
-125.447
 10
162.342
 20
-125.872
 10
162.857
 20
-126.343
 10
163.328
 20
-126.858
 10
163.753
 20
-127.411
 10
164.128
 20
-128
 10
164.45
 20
-128.619
 10
164.718
 20
-129.264
 10
164.927
 20
-129.929
 10
165.078
 20
-130.611
 10
165.17
 20
-131.303
 10
165.2
 20
-132
 10
165.17
 20
-132.697
 10
165.078
 20
-133.389
 10
164.927
 20
-134.071
 10
164.718
 20
-134.736
 10
164.45
 20
-135.381
 10
164.128
 20
-136
 10
163.753
 20
-136.589
 10
163.328
 20
-137.142
 10
162.857
 20
-137.657
 10
162.342
 20
-138.128
 10
161.789
 20
-138.553
 10
161.2
 20
-138.928
 10
160.581
 20
-139.25
 10
159.936
 20
-139.518
 10
159.271
 20
-139.727
 10
158.589
 20
-139.878
 10
157.897
 20
-139.97
 10
157.2
 20
-140
  0
LWPOLYLINE
100
AcDbEntity
  8
0
100
AcDbPolyline
 90
4
 70
1
 10
-355.5
 20
-48
 10
-395.5
 20
-48
 10
-395.5
 20
-222.635
 10
-355.5
 20
-222.635
  0
LWPOLYLINE
100
AcDbEntity
  8
0
100
AcDbPolyline
 90
70
 70
1
 10
-376.19
 20
-99.669
 10
-376.875
 20
-99.5763
 10
-377.548
 20
-99.4225
 10
-378.206
 20
-99.209
 10
-378.841
 20
-98.9375
 10
-379.449
 20
-98.6101
 10
-380.026
 20
-98.2294
 10
-380.566
 20
-97.7987
 10
-381.066
 20
-97.3212
 10
-381.52
 20
-96.8009
 10
-381.926
 20
-96.2419
 10
-382.281
 20
-95.6488
 10
-382.58
 20
-95.0263
 10
-382.823
 20
-94.3794
 10
-383.007
 20
-93.7134
 10
-383.13
 20
-93.0336
 10
-383.192
 20
-92.3455
 10
-383.192
 20
-66.6545
 10
-383.13
 20
-65.9664
 10
-383.007
 20
-65.2866
 10
-382.823
 20
-64.6206
 10
-382.58
 20
-63.9737
 10
-382.281
 20
-63.3512
 10
-381.926
 20
-62.7581
 10
-381.52
 20
-62.1991
 10
-381.066
 20
-61.6788
 10
-380.566
 20
-61.2013
 10
-380.026
 20
-60.7706
 10
-379.449
 20
-60.3899
 10
-378.841
 20
-60.0625
 10
-378.206
 20
-59.791
 10
-377.548
 20
-59.5775
 10
-376.875
 20
-59.4237
 10
-376.19
 20
-59.331
 10
-375.5
 20
-59.3
 10
-374.81
 20
-59.331
 10
-374.125
 20
-59.4237
 10
-373.452
 20
-59.5775
 10
-372.794
 20
-59.791
 10
-372.159
 20
-60.0625
 10
-371.551
 20
-60.3899
 10
-370.974
 20
-60.7706
 10
-370.434
 20
-61.2013
 10
-369.934
 20
-61.6788
 10
-369.48
 20
-62.1991
 10
-369.074
 20
-62.7581
 10
-368.719
 20
-63.3512
 10
-368.42
 20
-63.9737
 10
-368.177
 20
-64.6206
 10
-367.993
 20
-65.2866
 10
-367.87
 20
-65.9664
 10
-367.808
 20
-66.6545
 10
-367.808
 20
-92.3455
 10
-367.87
 20
-93.0336
 10
-367.993
 20
-93.7134
 10
-368.177
 20
-94.3794
 10
-368.42
 20
-95.0263
 10
-368.719
 20
-95.6488
 10
-369.074
 20
-96.2419
 10
-369.48
 20
-96.8009
 10
-369.934
 20
-97.3212
 10
-370.434
 20
-97.7987
 10
-370.974
 20
-98.2294
 10
-371.551
 20
-98.6101
 10
-372.159
 20
-98.9375
 10
-372.794
 20
-99.209
 10
-373.452
 20
-99.4225
 10
-374.125
 20
-99.5763
 10
-374.81
 20
-99.669
 10
-375.5
 20
-99.7
  0
LWPOLYLINE
100
AcDbEntity
  8
0
100
AcDbPolyline
 90
38
 70
1
 10
-376.191
 20
-157.739
 10
-376.864
 20
-157.568
 10
-377.499
 20
-157.29
 10
-378.08
 20
-156.91
 10
-378.59
 20
-156.441
 10
-379.016
 20
-155.893
 10
-379.346
 20
-155.283
 10
-379.571
 20
-154.627
 10
-379.686
 20
-153.943
 10
-379.686
 20
-153.249
 10
-379.571
 20
-152.565
 10
-379.346
 20
-151.909
 10
-379.016
 20
-151.299
 10
-378.59
 20
-150.751
 10
-378.08
 20
-150.282
 10
-377.499
 20
-149.902
 10
-376.864
 20
-149.624
 10
-376.191
 20
-149.453
 10
-375.5
 20
-149.396
 10
-374.809
 20
-149.453
 10
-374.136
 20
-149.624
 10
-373.501
 20
-149.902
 10
-372.92
 20
-150.282
 10
-372.41
 20
-150.751
 10
-371.984
 20
-151.299
 10
-371.654
 20
-151.909
 10
-371.429
 20
-152.565
 10
-371.314
 20
-153.249
 10
-371.314
 20
-153.943
 10
-371.429
 20
-154.627
 10
-371.654
 20
-155.283
 10
-371.984
 20
-155.893
 10
-372.41
 20
-156.441
 10
-372.92
 20
-156.91
 10
-373.501
 20
-157.29
 10
-374.136
 20
-157.568
 10
-374.809
 20
-157.739
 10
-375.5
 20
-157.796
  0
LWPOLYLINE
100
AcDbEntity
  8
0
100
AcDbPolyline
 90
90
 70
1
 10
-376.574
 20
-215.998
 10
-377.643
 20
-215.885
 10
-378.702
 20
-215.698
 10
-379.745
 20
-215.438
 10
-380.767
 20
-215.106
 10
-381.764
 20
-214.704
 10
-382.73
 20
-214.232
 10
-383.661
 20
-213.695
 10
-384.552
 20
-213.094
 10
-385.399
 20
-212.432
 10
-386.198
 20
-211.713
 10
-386.944
 20
-210.94
 10
-387.635
 20
-210.116
 10
-388.267
 20
-209.247
 10
-388.837
 20
-208.335
 10
-389.341
 20
-207.386
 10
-389.779
 20
-206.404
 10
-390.146
 20
-205.394
 10
-390.443
 20
-204.361
 10
-390.666
 20
-203.309
 10
-390.816
 20
-202.245
 10
-390.891
 20
-201.172
 10
-390.891
 20
-200.098
 10
-390.816
 20
-199.025
 10
-390.666
 20
-197.961
 10
-390.443
 20
-196.909
 10
-390.146
 20
-195.876
 10
-389.779
 20
-194.866
 10
-389.341
 20
-193.884
 10
-388.837
 20
-192.935
 10
-388.267
 20
-192.023
 10
-387.635
 20
-191.154
 10
-386.944
 20
-190.33
 10
-386.198
 20
-189.557
 10
-385.399
 20
-188.838
 10
-384.552
 20
-188.176
 10
-383.661
 20
-187.575
 10
-382.73
 20
-187.038
 10
-381.764
 20
-186.566
 10
-380.767
 20
-186.164
 10
-379.745
 20
-185.832
 10
-378.702
 20
-185.572
 10
-377.643
 20
-185.385
 10
-376.574
 20
-185.273
 10
-375.5
 20
-185.235
 10
-374.426
 20
-185.273
 10
-373.357
 20
-185.385
 10
-372.298
 20
-185.572
 10
-371.255
 20
-185.832
 10
-370.233
 20
-186.164
 10
-369.236
 20
-186.566
 10
-368.27
 20
-187.038
 10
-367.339
 20
-187.575
 10
-366.448
 20
-188.176
 10
-365.601
 20
-188.838
 10
-364.802
 20
-189.557
 10
-364.056
 20
-190.33
 10
-363.365
 20
-191.154
 10
-362.733
 20
-192.023
 10
-362.163
 20
-192.935
 10
-361.659
 20
-193.884
 10
-361.221
 20
-194.866
 10
-360.854
 20
-195.876
 10
-360.557
 20
-196.909
 10
-360.334
 20
-197.961
 10
-360.184
 20
-199.025
 10
-360.109
 20
-200.098
 10
-360.109
 20
-201.172
 10
-360.184
 20
-202.245
 10
-360.334
 20
-203.309
 10
-360.557
 20
-204.361
 10
-360.854
 20
-205.394
 10
-361.221
 20
-206.404
 10
-361.659
 20
-207.386
 10
-362.163
 20
-208.335
 10
-362.733
 20
-209.247
 10
-363.365
 20
-210.116
 10
-364.056
 20
-210.94
 10
-364.802
 20
-211.713
 10
-365.601
 20
-212.432
 10
-366.448
 20
-213.094
 10
-367.339
 20
-213.695
 10
-368.27
 20
-214.232
 10
-369.236
 20
-214.704
 10
-370.233
 20
-215.106
 10
-371.255
 20
-215.438
 10
-372.298
 20
-215.698
 10
-373.357
 20
-215.885
 10
-374.426
 20
-215.998
 10
-375.5
 20
-216.035
  0
LWPOLYLINE
100
AcDbEntity
  8
0
100
AcDbPolyline
 90
4
 70
1
 10
-265.5
 20
-48
 10
-305.5
 20
-48
 10
-305.5
 20
-222.635
 10
-265.5
 20
-222.635
  0
LWPOLYLINE
100
AcDbEntity
  8
0
100
AcDbPolyline
 90
70
 70
1
 10
-286.19
 20
-99.669
 10
-286.875
 20
-99.5763
 10
-287.548
 20
-99.4225
 10
-288.206
 20
-99.209
 10
-288.841
 20
-98.9375
 10
-289.449
 20
-98.6101
 10
-290.026
 20
-98.2294
 10
-290.566
 20
-97.7987
 10
-291.066
 20
-97.3212
 10
-291.52
 20
-96.8009
 10
-291.926
 20
-96.2419
 10
-292.281
 20
-95.6488
 10
-292.58
 20
-95.0263
 10
-292.823
 20
-94.3794
 10
-293.007
 20
-93.7134
 10
-293.13
 20
-93.0336
 10
-293.192
 20
-92.3455
 10
-293.192
 20
-66.6545
 10
-293.13
 20
-65.9664
 10
-293.007
 20
-65.2866
 10
-292.823
 20
-64.6206
 10
-292.58
 20
-63.9737
 10
-292.281
 20
-63.3512
 10
-291.926
 20
-62.7581
 10
-291.52
 20
-62.1991
 10
-291.066
 20
-61.6788
 10
-290.566
 20
-61.2013
 10
-290.026
 20
-60.7706
 10
-289.449
 20
-60.3899
 10
-288.841
 20
-60.0625
 10
-288.206
 20
-59.791
 10
-287.548
 20
-59.5775
 10
-286.875
 20
-59.4237
 10
-286.19
 20
-59.331
 10
-285.5
 20
-59.3
 10
-284.81
 20
-59.331
 10
-284.125
 20
-59.4237
 10
-283.452
 20
-59.5775
 10
-282.794
 20
-59.791
 10
-282.159
 20
-60.0625
 10
-281.551
 20
-60.3899
 10
-280.974
 20
-60.7706
 10
-280.434
 20
-61.2013
 10
-279.934
 20
-61.6788
 10
-279.48
 20
-62.1991
 10
-279.074
 20
-62.7581
 10
-278.719
 20
-63.3512
 10
-278.42
 20
-63.9737
 10
-278.177
 20
-64.6206
 10
-277.993
 20
-65.2866
 10
-277.87
 20
-65.9664
 10
-277.808
 20
-66.6545
 10
-277.808
 20
-92.3455
 10
-277.87
 20
-93.0336
 10
-277.993
 20
-93.7134
 10
-278.177
 20
-94.3794
 10
-278.42
 20
-95.0263
 10
-278.719
 20
-95.6488
 10
-279.074
 20
-96.2419
 10
-279.48
 20
-96.8009
 10
-279.934
 20
-97.3212
 10
-280.434
 20
-97.7987
 10
-280.974
 20
-98.2294
 10
-281.551
 20
-98.6101
 10
-282.159
 20
-98.9375
 10
-282.794
 20
-99.209
 10
-283.452
 20
-99.4225
 10
-284.125
 20
-99.5763
 10
-284.81
 20
-99.669
 10
-285.5
 20
-99.7
  0
LWPOLYLINE
100
AcDbEntity
  8
0
100
AcDbPolyline
 90
38
 70
1
 10
-286.191
 20
-157.739
 10
-286.864
 20
-157.568
 10
-287.499
 20
-157.29
 10
-288.08
 20
-156.91
 10
-288.59
 20
-156.441
 10
-289.016
 20
-155.893
 10
-289.346
 20
-155.283
 10
-289.571
 20
-154.627
 10
-289.686
 20
-153.943
 10
-289.686
 20
-153.249
 10
-289.571
 20
-152.565
 10
-289.346
 20
-151.909
 10
-289.016
 20
-151.299
 10
-288.59
 20
-150.751
 10
-288.08
 20
-150.282
 10
-287.499
 20
-149.902
 10
-286.864
 20
-149.624
 10
-286.191
 20
-149.453
 10
-285.5
 20
-149.396
 10
-284.809
 20
-149.453
 10
-284.136
 20
-149.624
 10
-283.501
 20
-149.902
 10
-282.92
 20
-150.282
 10
-282.41
 20
-150.751
 10
-281.984
 20
-151.299
 10
-281.654
 20
-151.909
 10
-281.429
 20
-152.565
 10
-281.314
 20
-153.249
 10
-281.314
 20
-153.943
 10
-281.429
 20
-154.627
 10
-281.654
 20
-155.283
 10
-281.984
 20
-155.893
 10
-282.41
 20
-156.441
 10
-282.92
 20
-156.91
 10
-283.501
 20
-157.29
 10
-284.136
 20
-157.568
 10
-284.809
 20
-157.739
 10
-285.5
 20
-157.796
  0
LWPOLYLINE
100
AcDbEntity
  8
0
100
AcDbPolyline
 90
90
 70
1
 10
-286.574
 20
-215.998
 10
-287.643
 20
-215.885
 10
-288.702
 20
-215.698
 10
-289.745
 20
-215.438
 10
-290.767
 20
-215.106
 10
-291.764
 20
-214.704
 10
-292.73
 20
-214.232
 10
-293.661
 20
-213.695
 10
-294.552
 20
-213.094
 10
-295.399
 20
-212.432
 10
-296.198
 20
-211.713
 10
-296.944
 20
-210.94
 10
-297.635
 20
-210.116
 10
-298.267
 20
-209.247
 10
-298.837
 20
-208.335
 10
-299.341
 20
-207.386
 10
-299.779
 20
-206.404
 10
-300.146
 20
-205.394
 10
-300.443
 20
-204.361
 10
-300.666
 20
-203.309
 10
-300.816
 20
-202.245
 10
-300.891
 20
-201.172
 10
-300.891
 20
-200.098
 10
-300.816
 20
-199.025
 10
-300.666
 20
-197.961
 10
-300.443
 20
-196.909
 10
-300.146
 20
-195.876
 10
-299.779
 20
-194.866
 10
-299.341
 20
-193.884
 10
-298.837
 20
-192.935
 10
-298.267
 20
-192.023
 10
-297.635
 20
-191.154
 10
-296.944
 20
-190.33
 10
-296.198
 20
-189.557
 10
-295.399
 20
-188.838
 10
-294.552
 20
-188.176
 10
-293.661
 20
-187.575
 10
-292.73
 20
-187.038
 10
-291.764
 20
-186.566
 10
-290.767
 20
-186.164
 10
-289.745
 20
-185.832
 10
-288.702
 20
-185.572
 10
-287.643
 20
-185.385
 10
-286.574
 20
-185.273
 10
-285.5
 20
-185.235
 10
-284.426
 20
-185.273
 10
-283.357
 20
-185.385
 10
-282.298
 20
-185.572
 10
-281.255
 20
-185.832
 10
-280.233
 20
-186.164
 10
-279.236
 20
-186.566
 10
-278.27
 20
-187.038
 10
-277.339
 20
-187.575
 10
-276.448
 20
-188.176
 10
-275.601
 20
-188.838
 10
-274.802
 20
-189.557
 10
-274.056
 20
-190.33
 10
-273.365
 20
-191.154
 10
-272.733
 20
-192.023
 10
-272.163
 20
-192.935
 10
-271.659
 20
-193.884
 10
-271.221
 20
-194.866
 10
-270.854
 20
-195.876
 10
-270.557
 20
-196.909
 10
-270.334
 20
-197.961
 10
-270.184
 20
-199.025
 10
-270.109
 20
-200.098
 10
-270.109
 20
-201.172
 10
-270.184
 20
-202.245
 10
-270.334
 20
-203.309
 10
-270.557
 20
-204.361
 10
-270.854
 20
-205.394
 10
-271.221
 20
-206.404
 10
-271.659
 20
-207.386
 10
-272.163
 20
-208.335
 10
-272.733
 20
-209.247
 10
-273.365
 20
-210.116
 10
-274.056
 20
-210.94
 10
-274.802
 20
-211.713
 10
-275.601
 20
-212.432
 10
-276.448
 20
-213.094
 10
-277.339
 20
-213.695
 10
-278.27
 20
-214.232
 10
-279.236
 20
-214.704
 10
-280.233
 20
-215.106
 10
-281.255
 20
-215.438
 10
-282.298
 20
-215.698
 10
-283.357
 20
-215.885
 10
-284.426
 20
-215.998
 10
-285.5
 20
-216.035
  0
LWPOLYLINE
100
AcDbEntity
  8
0
100
AcDbPolyline
 90
4
 70
1
 10
-175.5
 20
-66
 10
-215.5
 20
-66
 10
-215.5
 20
-222.635
 10
-175.5
 20
-222.635
  0
LWPOLYLINE
100
AcDbEntity
  8
0
100
AcDbPolyline
 90
70
 70
1
 10
-196.19
 20
-99.669
 10
-196.875
 20
-99.5763
 10
-197.548
 20
-99.4225
 10
-198.206
 20
-99.209
 10
-198.841
 20
-98.9375
 10
-199.449
 20
-98.6101
 10
-200.026
 20
-98.2294
 10
-200.566
 20
-97.7987
 10
-201.066
 20
-97.3212
 10
-201.52
 20
-96.8009
 10
-201.926
 20
-96.2419
 10
-202.281
 20
-95.6488
 10
-202.58
 20
-95.0263
 10
-202.823
 20
-94.3794
 10
-203.007
 20
-93.7134
 10
-203.13
 20
-93.0336
 10
-203.192
 20
-92.3455
 10
-203.192
 20
-91.6545
 10
-203.13
 20
-90.9664
 10
-203.007
 20
-90.2866
 10
-202.823
 20
-89.6206
 10
-202.58
 20
-88.9737
 10
-202.281
 20
-88.3512
 10
-201.926
 20
-87.7581
 10
-201.52
 20
-87.1991
 10
-201.066
 20
-86.6788
 10
-200.566
 20
-86.2013
 10
-200.026
 20
-85.7706
 10
-199.449
 20
-85.3899
 10
-198.841
 20
-85.0625
 10
-198.206
 20
-84.791
 10
-197.548
 20
-84.5775
 10
-196.875
 20
-84.4237
 10
-196.19
 20
-84.331
 10
-195.5
 20
-84.3
 10
-194.81
 20
-84.331
 10
-194.125
 20
-84.4237
 10
-193.452
 20
-84.5775
 10
-192.794
 20
-84.791
 10
-192.159
 20
-85.0625
 10
-191.551
 20
-85.3899
 10
-190.974
 20
-85.7706
 10
-190.434
 20
-86.2013
 10
-189.934
 20
-86.6788
 10
-189.48
 20
-87.1991
 10
-189.074
 20
-87.7581
 10
-188.719
 20
-88.3512
 10
-188.42
 20
-88.9737
 10
-188.177
 20
-89.6206
 10
-187.993
 20
-90.2866
 10
-187.87
 20
-90.9664
 10
-187.808
 20
-91.6545
 10
-187.808
 20
-92.3455
 10
-187.87
 20
-93.0336
 10
-187.993
 20
-93.7134
 10
-188.177
 20
-94.3794
 10
-188.42
 20
-95.0263
 10
-188.719
 20
-95.6488
 10
-189.074
 20
-96.2419
 10
-189.48
 20
-96.8009
 10
-189.934
 20
-97.3212
 10
-190.434
 20
-97.7987
 10
-190.974
 20
-98.2294
 10
-191.551
 20
-98.6101
 10
-192.159
 20
-98.9375
 10
-192.794
 20
-99.209
 10
-193.452
 20
-99.4225
 10
-194.125
 20
-99.5763
 10
-194.81
 20
-99.669
 10
-195.5
 20
-99.7
  0
LWPOLYLINE
100
AcDbEntity
  8
0
100
AcDbPolyline
 90
38
 70
1
 10
-196.191
 20
-157.739
 10
-196.864
 20
-157.568
 10
-197.499
 20
-157.29
 10
-198.08
 20
-156.91
 10
-198.59
 20
-156.441
 10
-199.016
 20
-155.893
 10
-199.346
 20
-155.283
 10
-199.571
 20
-154.627
 10
-199.686
 20
-153.943
 10
-199.686
 20
-153.249
 10
-199.571
 20
-152.565
 10
-199.346
 20
-151.909
 10
-199.016
 20
-151.299
 10
-198.59
 20
-150.751
 10
-198.08
 20
-150.282
 10
-197.499
 20
-149.902
 10
-196.864
 20
-149.624
 10
-196.191
 20
-149.453
 10
-195.5
 20
-149.396
 10
-194.809
 20
-149.453
 10
-194.136
 20
-149.624
 10
-193.501
 20
-149.902
 10
-192.92
 20
-150.282
 10
-192.41
 20
-150.751
 10
-191.984
 20
-151.299
 10
-191.654
 20
-151.909
 10
-191.429
 20
-152.565
 10
-191.314
 20
-153.249
 10
-191.314
 20
-153.943
 10
-191.429
 20
-154.627
 10
-191.654
 20
-155.283
 10
-191.984
 20
-155.893
 10
-192.41
 20
-156.441
 10
-192.92
 20
-156.91
 10
-193.501
 20
-157.29
 10
-194.136
 20
-157.568
 10
-194.809
 20
-157.739
 10
-195.5
 20
-157.796
  0
LWPOLYLINE
100
AcDbEntity
  8
0
100
AcDbPolyline
 90
90
 70
1
 10
-196.574
 20
-215.998
 10
-197.643
 20
-215.885
 10
-198.702
 20
-215.698
 10
-199.745
 20
-215.438
 10
-200.767
 20
-215.106
 10
-201.764
 20
-214.704
 10
-202.73
 20
-214.232
 10
-203.661
 20
-213.695
 10
-204.552
 20
-213.094
 10
-205.399
 20
-212.432
 10
-206.198
 20
-211.713
 10
-206.944
 20
-210.94
 10
-207.635
 20
-210.116
 10
-208.267
 20
-209.247
 10
-208.837
 20
-208.335
 10
-209.341
 20
-207.386
 10
-209.779
 20
-206.404
 10
-210.146
 20
-205.394
 10
-210.443
 20
-204.361
 10
-210.666
 20
-203.309
 10
-210.816
 20
-202.245
 10
-210.891
 20
-201.172
 10
-210.891
 20
-200.098
 10
-210.816
 20
-199.025
 10
-210.666
 20
-197.961
 10
-210.443
 20
-196.909
 10
-210.146
 20
-195.876
 10
-209.779
 20
-194.866
 10
-209.341
 20
-193.884
 10
-208.837
 20
-192.935
 10
-208.267
 20
-192.023
 10
-207.635
 20
-191.154
 10
-206.944
 20
-190.33
 10
-206.198
 20
-189.557
 10
-205.399
 20
-188.838
 10
-204.552
 20
-188.176
 10
-203.661
 20
-187.575
 10
-202.73
 20
-187.038
 10
-201.764
 20
-186.566
 10
-200.767
 20
-186.164
 10
-199.745
 20
-185.832
 10
-198.702
 20
-185.572
 10
-197.643
 20
-185.385
 10
-196.574
 20
-185.273
 10
-195.5
 20
-185.235
 10
-194.426
 20
-185.273
 10
-193.357
 20
-185.385
 10
-192.298
 20
-185.572
 10
-191.255
 20
-185.832
 10
-190.233
 20
-186.164
 10
-189.236
 20
-186.566
 10
-188.27
 20
-187.038
 10
-187.339
 20
-187.575
 10
-186.448
 20
-188.176
 10
-185.601
 20
-188.838
 10
-184.802
 20
-189.557
 10
-184.056
 20
-190.33
 10
-183.365
 20
-191.154
 10
-182.733
 20
-192.023
 10
-182.163
 20
-192.935
 10
-181.659
 20
-193.884
 10
-181.221
 20
-194.866
 10
-180.854
 20
-195.876
 10
-180.557
 20
-196.909
 10
-180.334
 20
-197.961
 10
-180.184
 20
-199.025
 10
-180.109
 20
-200.098
 10
-180.109
 20
-201.172
 10
-180.184
 20
-202.245
 10
-180.334
 20
-203.309
 10
-180.557
 20
-204.361
 10
-180.854
 20
-205.394
 10
-181.221
 20
-206.404
 10
-181.659
 20
-207.386
 10
-182.163
 20
-208.335
 10
-182.733
 20
-209.247
 10
-183.365
 20
-210.116
 10
-184.056
 20
-210.94
 10
-184.802
 20
-211.713
 10
-185.601
 20
-212.432
 10
-186.448
 20
-213.094
 10
-187.339
 20
-213.695
 10
-188.27
 20
-214.232
 10
-189.236
 20
-214.704
 10
-190.233
 20
-215.106
 10
-191.255
 20
-215.438
 10
-192.298
 20
-215.698
 10
-193.357
 20
-215.885
 10
-194.426
 20
-215.998
 10
-195.5
 20
-216.035
  0
LWPOLYLINE
100
AcDbEntity
  8
0
100
AcDbPolyline
 90
4
 70
1
 10
-85.5
 20
-66
 10
-125.5
 20
-66
 10
-125.5
 20
-222.635
 10
-85.5
 20
-222.635
  0
LWPOLYLINE
100
AcDbEntity
  8
0
100
AcDbPolyline
 90
70
 70
1
 10
-106.19
 20
-99.669
 10
-106.875
 20
-99.5763
 10
-107.548
 20
-99.4225
 10
-108.206
 20
-99.209
 10
-108.841
 20
-98.9375
 10
-109.449
 20
-98.6101
 10
-110.026
 20
-98.2294
 10
-110.566
 20
-97.7987
 10
-111.066
 20
-97.3212
 10
-111.52
 20
-96.8009
 10
-111.926
 20
-96.2419
 10
-112.281
 20
-95.6488
 10
-112.58
 20
-95.0263
 10
-112.823
 20
-94.3794
 10
-113.007
 20
-93.7134
 10
-113.13
 20
-93.0336
 10
-113.192
 20
-92.3455
 10
-113.192
 20
-91.6545
 10
-113.13
 20
-90.9664
 10
-113.007
 20
-90.2866
 10
-112.823
 20
-89.6206
 10
-112.58
 20
-88.9737
 10
-112.281
 20
-88.3512
 10
-111.926
 20
-87.7581
 10
-111.52
 20
-87.1991
 10
-111.066
 20
-86.6788
 10
-110.566
 20
-86.2013
 10
-110.026
 20
-85.7706
 10
-109.449
 20
-85.3899
 10
-108.841
 20
-85.0625
 10
-108.206
 20
-84.791
 10
-107.548
 20
-84.5775
 10
-106.875
 20
-84.4237
 10
-106.19
 20
-84.331
 10
-105.5
 20
-84.3
 10
-104.81
 20
-84.331
 10
-104.125
 20
-84.4237
 10
-103.452
 20
-84.5775
 10
-102.794
 20
-84.791
 10
-102.159
 20
-85.0625
 10
-101.551
 20
-85.3899
 10
-100.974
 20
-85.7706
 10
-100.434
 20
-86.2013
 10
-99.9345
 20
-86.6788
 10
-99.4799
 20
-87.1991
 10
-99.0738
 20
-87.7581
 10
-98.7194
 20
-88.3512
 10
-98.4196
 20
-88.9737
 10
-98.1769
 20
-89.6206
 10
-97.9931
 20
-90.2866
 10
-97.8697
 20
-90.9664
 10
-97.8078
 20
-91.6545
 10
-97.8078
 20
-92.3455
 10
-97.8697
 20
-93.0336
 10
-97.9931
 20
-93.7134
 10
-98.1769
 20
-94.3794
 10
-98.4196
 20
-95.0263
 10
-98.7194
 20
-95.6488
 10
-99.0738
 20
-96.2419
 10
-99.4799
 20
-96.8009
 10
-99.9345
 20
-97.3212
 10
-100.434
 20
-97.7987
 10
-100.974
 20
-98.2294
 10
-101.551
 20
-98.6101
 10
-102.159
 20
-98.9375
 10
-102.794
 20
-99.209
 10
-103.452
 20
-99.4225
 10
-104.125
 20
-99.5763
 10
-104.81
 20
-99.669
 10
-105.5
 20
-99.7
  0
LWPOLYLINE
100
AcDbEntity
  8
0
100
AcDbPolyline
 90
38
 70
1
 10
-106.191
 20
-157.739
 10
-106.864
 20
-157.568
 10
-107.499
 20
-157.29
 10
-108.08
 20
-156.91
 10
-108.59
 20
-156.441
 10
-109.016
 20
-155.893
 10
-109.346
 20
-155.283
 10
-109.571
 20
-154.627
 10
-109.686
 20
-153.943
 10
-109.686
 20
-153.249
 10
-109.571
 20
-152.565
 10
-109.346
 20
-151.909
 10
-109.016
 20
-151.299
 10
-108.59
 20
-150.751
 10
-108.08
 20
-150.282
 10
-107.499
 20
-149.902
 10
-106.864
 20
-149.624
 10
-106.191
 20
-149.453
 10
-105.5
 20
-149.396
 10
-104.809
 20
-149.453
 10
-104.136
 20
-149.624
 10
-103.501
 20
-149.902
 10
-102.92
 20
-150.282
 10
-102.41
 20
-150.751
 10
-101.984
 20
-151.299
 10
-101.654
 20
-151.909
 10
-101.429
 20
-152.565
 10
-101.314
 20
-153.249
 10
-101.314
 20
-153.943
 10
-101.429
 20
-154.627
 10
-101.654
 20
-155.283
 10
-101.984
 20
-155.893
 10
-102.41
 20
-156.441
 10
-102.92
 20
-156.91
 10
-103.501
 20
-157.29
 10
-104.136
 20
-157.568
 10
-104.809
 20
-157.739
 10
-105.5
 20
-157.796
  0
LWPOLYLINE
100
AcDbEntity
  8
0
100
AcDbPolyline
 90
90
 70
1
 10
-106.574
 20
-215.998
 10
-107.643
 20
-215.885
 10
-108.702
 20
-215.698
 10
-109.745
 20
-215.438
 10
-110.767
 20
-215.106
 10
-111.764
 20
-214.704
 10
-112.73
 20
-214.232
 10
-113.661
 20
-213.695
 10
-114.552
 20
-213.094
 10
-115.399
 20
-212.432
 10
-116.198
 20
-211.713
 10
-116.944
 20
-210.94
 10
-117.635
 20
-210.116
 10
-118.267
 20
-209.247
 10
-118.837
 20
-208.335
 10
-119.341
 20
-207.386
 10
-119.779
 20
-206.404
 10
-120.146
 20
-205.394
 10
-120.443
 20
-204.361
 10
-120.666
 20
-203.309
 10
-120.816
 20
-202.245
 10
-120.891
 20
-201.172
 10
-120.891
 20
-200.098
 10
-120.816
 20
-199.025
 10
-120.666
 20
-197.961
 10
-120.443
 20
-196.909
 10
-120.146
 20
-195.876
 10
-119.779
 20
-194.866
 10
-119.341
 20
-193.884
 10
-118.837
 20
-192.935
 10
-118.267
 20
-192.023
 10
-117.635
 20
-191.154
 10
-116.944
 20
-190.33
 10
-116.198
 20
-189.557
 10
-115.399
 20
-188.838
 10
-114.552
 20
-188.176
 10
-113.661
 20
-187.575
 10
-112.73
 20
-187.038
 10
-111.764
 20
-186.566
 10
-110.767
 20
-186.164
 10
-109.745
 20
-185.832
 10
-108.702
 20
-185.572
 10
-107.643
 20
-185.385
 10
-106.574
 20
-185.273
 10
-105.5
 20
-185.235
 10
-104.426
 20
-185.273
 10
-103.357
 20
-185.385
 10
-102.298
 20
-185.572
 10
-101.255
 20
-185.832
 10
-100.233
 20
-186.164
 10
-99.2363
 20
-186.566
 10
-98.2701
 20
-187.038
 10
-97.3392
 20
-187.575
 10
-96.4481
 20
-188.176
 10
-95.6011
 20
-188.838
 10
-94.8023
 20
-189.557
 10
-94.0556
 20
-190.33
 10
-93.3646
 20
-191.154
 10
-92.7328
 20
-192.023
 10
-92.1632
 20
-192.935
 10
-91.6586
 20
-193.884
 10
-91.2214
 20
-194.866
 10
-90.8537
 20
-195.876
 10
-90.5574
 20
-196.909
 10
-90.334
 20
-197.961
 10
-90.1844
 20
-199.025
 10
-90.1094
 20
-200.098
 10
-90.1094
 20
-201.172
 10
-90.1844
 20
-202.245
 10
-90.334
 20
-203.309
 10
-90.5574
 20
-204.361
 10
-90.8537
 20
-205.394
 10
-91.2214
 20
-206.404
 10
-91.6586
 20
-207.386
 10
-92.1632
 20
-208.335
 10
-92.7328
 20
-209.247
 10
-93.3646
 20
-210.116
 10
-94.0556
 20
-210.94
 10
-94.8023
 20
-211.713
 10
-95.6011
 20
-212.432
 10
-96.4481
 20
-213.094
 10
-97.3392
 20
-213.695
 10
-98.2701
 20
-214.232
 10
-99.2363
 20
-214.704
 10
-100.233
 20
-215.106
 10
-101.255
 20
-215.438
 10
-102.298
 20
-215.698
 10
-103.357
 20
-215.885
 10
-104.426
 20
-215.998
 10
-105.5
 20
-216.035
  0
LWPOLYLINE
100
AcDbEntity
  8
0
100
AcDbPolyline
 90
4
 70
1
 10
55
 20
-303.2
 10
0
 20
-303.2
 10
0
 20
-343.2
 10
55
 20
-343.2
  0
LWPOLYLINE
100
AcDbEntity
  8
0
100
AcDbPolyline
 90
38
 70
1
 10
41.0815
 20
-335.856
 10
40.4254
 20
-335.631
 10
39.8153
 20
-335.301
 10
39.2679
 20
-334.875
 10
38.7981
 20
-334.364
 10
38.4187
 20
-333.784
 10
38.1401
 20
-333.148
 10
37.9698
 20
-332.476
 10
37.9125
 20
-331.785
 10
37.9698
 20
-331.093
 10
38.1401
 20
-330.421
 10
38.4187
 20
-329.786
 10
38.7981
 20
-329.205
 10
39.2679
 20
-328.695
 10
39.8153
 20
-328.268
 10
40.4254
 20
-327.938
 10
41.0815
 20
-327.713
 10
41.7657
 20
-327.599
 10
42.4593
 20
-327.599
 10
43.1435
 20
-327.713
 10
43.7996
 20
-327.938
 10
44.4097
 20
-328.268
 10
44.9571
 20
-328.695
 10
45.4269
 20
-329.205
 10
45.8063
 20
-329.786
 10
46.0849
 20
-330.421
 10
46.2552
 20
-331.093
 10
46.3125
 20
-331.785
 10
46.2552
 20
-332.476
 10
46.0849
 20
-333.148
 10
45.8063
 20
-333.784
 10
45.4269
 20
-334.364
 10
44.9571
 20
-334.875
 10
44.4097
 20
-335.301
 10
43.7996
 20
-335.631
 10
43.1435
 20
-335.856
 10
42.4593
 20
-335.97
 10
41.7657
 20
-335.97
  0
LWPOLYLINE
100
AcDbEntity
  8
0
100
AcDbPolyline
 90
4
 70
1
 10
125
 20
-303.2
 10
70
 20
-303.2
 10
70
 20
-343.2
 10
125
 20
-343.2
  0
LWPOLYLINE
100
AcDbEntity
  8
0
100
AcDbPolyline
 90
38
 70
1
 10
111.081
 20
-335.856
 10
110.425
 20
-335.631
 10
109.815
 20
-335.301
 10
109.268
 20
-334.875
 10
108.798
 20
-334.364
 10
108.419
 20
-333.784
 10
108.14
 20
-333.148
 10
107.97
 20
-332.476
 10
107.912
 20
-331.785
 10
107.97
 20
-331.093
 10
108.14
 20
-330.421
 10
108.419
 20
-329.786
 10
108.798
 20
-329.205
 10
109.268
 20
-328.695
 10
109.815
 20
-328.268
 10
110.425
 20
-327.938
 10
111.081
 20
-327.713
 10
111.766
 20
-327.599
 10
112.459
 20
-327.599
 10
113.144
 20
-327.713
 10
113.8
 20
-327.938
 10
114.41
 20
-328.268
 10
114.957
 20
-328.695
 10
115.427
 20
-329.205
 10
115.806
 20
-329.786
 10
116.085
 20
-330.421
 10
116.255
 20
-331.093
 10
116.312
 20
-331.785
 10
116.255
 20
-332.476
 10
116.085
 20
-333.148
 10
115.806
 20
-333.784
 10
115.427
 20
-334.364
 10
114.957
 20
-334.875
 10
114.41
 20
-335.301
 10
113.8
 20
-335.631
 10
113.144
 20
-335.856
 10
112.459
 20
-335.97
 10
111.766
 20
-335.97
  0
LWPOLYLINE
100
AcDbEntity
  8
0
100
AcDbPolyline
 90
4
 70
1
 10
195
 20
-303.2
 10
140
 20
-303.2
 10
140
 20
-343.2
 10
195
 20
-343.2
  0
LWPOLYLINE
100
AcDbEntity
  8
0
100
AcDbPolyline
 90
38
 70
1
 10
181.081
 20
-335.856
 10
180.425
 20
-335.631
 10
179.815
 20
-335.301
 10
179.268
 20
-334.875
 10
178.798
 20
-334.364
 10
178.419
 20
-333.784
 10
178.14
 20
-333.148
 10
177.97
 20
-332.476
 10
177.912
 20
-331.785
 10
177.97
 20
-331.093
 10
178.14
 20
-330.421
 10
178.419
 20
-329.786
 10
178.798
 20
-329.205
 10
179.268
 20
-328.695
 10
179.815
 20
-328.268
 10
180.425
 20
-327.938
 10
181.081
 20
-327.713
 10
181.766
 20
-327.599
 10
182.459
 20
-327.599
 10
183.144
 20
-327.713
 10
183.8
 20
-327.938
 10
184.41
 20
-328.268
 10
184.957
 20
-328.695
 10
185.427
 20
-329.205
 10
185.806
 20
-329.786
 10
186.085
 20
-330.421
 10
186.255
 20
-331.093
 10
186.312
 20
-331.785
 10
186.255
 20
-332.476
 10
186.085
 20
-333.148
 10
185.806
 20
-333.784
 10
185.427
 20
-334.364
 10
184.957
 20
-334.875
 10
184.41
 20
-335.301
 10
183.8
 20
-335.631
 10
183.144
 20
-335.856
 10
182.459
 20
-335.97
 10
181.766
 20
-335.97
  0
LWPOLYLINE
100
AcDbEntity
  8
0
100
AcDbPolyline
 90
4
 70
1
 10
265
 20
-303.2
 10
210
 20
-303.2
 10
210
 20
-343.2
 10
265
 20
-343.2
  0
LWPOLYLINE
100
AcDbEntity
  8
0
100
AcDbPolyline
 90
38
 70
1
 10
251.081
 20
-335.856
 10
250.425
 20
-335.631
 10
249.815
 20
-335.301
 10
249.268
 20
-334.875
 10
248.798
 20
-334.364
 10
248.419
 20
-333.784
 10
248.14
 20
-333.148
 10
247.97
 20
-332.476
 10
247.912
 20
-331.785
 10
247.97
 20
-331.093
 10
248.14
 20
-330.421
 10
248.419
 20
-329.786
 10
248.798
 20
-329.205
 10
249.268
 20
-328.695
 10
249.815
 20
-328.268
 10
250.425
 20
-327.938
 10
251.081
 20
-327.713
 10
251.766
 20
-327.599
 10
252.459
 20
-327.599
 10
253.144
 20
-327.713
 10
253.8
 20
-327.938
 10
254.41
 20
-328.268
 10
254.957
 20
-328.695
 10
255.427
 20
-329.205
 10
255.806
 20
-329.786
 10
256.085
 20
-330.421
 10
256.255
 20
-331.093
 10
256.312
 20
-331.785
 10
256.255
 20
-332.476
 10
256.085
 20
-333.148
 10
255.806
 20
-333.784
 10
255.427
 20
-334.364
 10
254.957
 20
-334.875
 10
254.41
 20
-335.301
 10
253.8
 20
-335.631
 10
253.144
 20
-335.856
 10
252.459
 20
-335.97
 10
251.766
 20
-335.97
  0
ENDSEC
  0
EOF
