999
DXF from OpenSCAD
  0
SECTION
  2
HEADER
  9
$ACADVER
  1
AC1006
  9
$INSBASE
 10
0.0
 20
0.0
 30
0.0
  9
$EXTMIN
 10
-387.5
 20
-343.2
  9
$EXTMAX
 10
265
 20
68
  9
$LINMIN
 10
-387.5
 20
-343.2
  9
$LINMAX
 10
265
 20
68
  0
ENDSEC
  0
SECTION
  2
TABLES
  0
TABLE
  2
LTYPE
 70
1
  0
LTYPE
  2
CONTINUOUS
 70
64
  3
Solid line
 72
65
 73
0
 40
0.000000
  0
ENDTAB
  0
TABLE
  2
LAYER
 70
6
  0
LAYER
  2
0
 70
64
 62
7
  6
CONTINUOUS
  0
ENDTAB
  0
TABLE
  2
STYLE
 70
0
  0
ENDTAB
  0
ENDSEC
  0
SECTION
  2
BLOCKS
  0
ENDSEC
  0
SECTION
  2
ENTITIES
  0
LWPOLYLINE
100
AcDbEntity
  8
0
100
AcDbPolyline
 90
4
 70
1
 10
25
 20
68
 10
-25
 20
68
 10
-25
 20
-156
 10
25
 20
-156
  0
LWPOLYLINE
100
AcDbEntity
  8
0
100
AcDbPolyline
 90
39
 70
1
 10
-0.850109
 20
47.8359
 10
-1.50707
 20
48.0262
 10
-2.125
 20
48.3194
 10
-2.68789
 20
48.7079
 10
-3.18117
 20
49.1817
 10
-3.59206
 20
49.7285
 10
-3.90991
 20
50.3341
 10
-4.1265
 20
50.9829
 10
-4.23622
 20
51.658
 10
-4.23622
 20
52.342
 10
-4.1265
 20
53.0171
 10
-3.90991
 20
53.6659
 10
-3.59206
 20
54.2715
 10
-3.18117
 20
54.8183
 10
-2.68789
 20
55.2921
 10
-2.125
 20
55.6806
 10
-1.50707
 20
55.9738
 10
-0.850109
 20
56.1641
 10
-0.17113
 20
56.2466
 10
0.512281
 20
56.219
 10
1.18242
 20
56.0822
 10
1.82194
 20
55.8397
 10
2.41428
 20
55.4977
 10
2.94408
 20
55.0651
 10
3.39763
 20
54.5532
 10
3.76319
 20
53.9751
 10
4.03128
 20
53.3458
 10
4.19496
 20
52.6817
 10
4.25
 20
52
 10
4.19496
 20
51.3183
 10
4.03128
 20
50.6542
 10
3.76319
 20
50.0249
 10
3.39763
 20
49.4468
 10
2.94408
 20
48.9349
 10
2.41428
 20
48.5023
 10
1.82194
 20
48.1603
 10
1.18242
 20
47.9178
 10
0.512281
 20
47.781
 10
-0.17113
 20
47.7534
  0
LWPOLYLINE
100
AcDbEntity
  8
0
100
AcDbPolyline
 90
35
 70
1
 10
-2.79803
 20
-4.38304
 10
-3.35726
 20
-3.97099
 10
-3.85659
 20
-3.48808
 10
-4.2871
 20
-2.94292
 10
-4.6411
 20
-2.34525
 10
-4.91228
 20
-1.70573
 10
-5.0958
 20
-1.03577
 10
-5.18839
 20
-0.347322
 10
-5.18839
 20
0.347322
 10
-5.0958
 20
1.03577
 10
-4.91228
 20
1.70573
 10
-4.6411
 20
2.34525
 10
-4.2871
 20
2.94292
 10
-3.85659
 20
3.48808
 10
-3.35726
 20
3.97099
 10
-2.79803
 20
4.38304
 10
-2.67584
 20
4.45
 10
2.67156
 20
4.45
 10
3.08453
 20
4.18636
 10
3.615
 20
3.73788
 10
4.08096
 20
3.2227
 10
4.47409
 20
2.65001
 10
4.78738
 20
2.03002
 10
5.01524
 20
1.37382
 10
5.1536
 20
0.693092
 10
5.2
 20
0
 10
5.1536
 20
-0.693092
 10
5.01524
 20
-1.37382
 10
4.78738
 20
-2.03002
 10
4.47409
 20
-2.65001
 10
4.08096
 20
-3.2227
 10
3.615
 20
-3.73788
 10
3.08453
 20
-4.18636
 10
2.67156
 20
-4.45
 10
-2.67584
 20
-4.45
  0
LWPOLYLINE
100
AcDbEntity
  8
0
100
AcDbPolyline
 90
39
 70
1
 10
-0.850109
 20
-103.657
 10
-1.50707
 20
-103.467
 10
-2.125
 20
-103.174
 10
-2.68789
 20
-102.785
 10
-3.18117
 20
-102.311
 10
-3.59206
 20
-101.764
 10
-3.90991
 20
-101.159
 10
-4.1265
 20
-100.51
 10
-4.23622
 20
-99.8349
 10
-4.23622
 20
-99.151
 10
-4.1265
 20
-98.4759
 10
-3.90991
 20
-97.8271
 10
-3.59206
 20
-97.2215
 10
-3.18117
 20
-96.6747
 10
-2.68789
 20
-96.2009
 10
-2.125
 20
-95.8124
 10
-1.50707
 20
-95.5191
 10
-0.850109
 20
-95.3289
 10
-0.17113
 20
-95.2464
 10
0.512281
 20
-95.274
 10
1.18242
 20
-95.4108
 10
1.82194
 20
-95.6533
 10
2.41428
 20
-95.9953
 10
2.94408
 20
-96.4279
 10
3.39763
 20
-96.9398
 10
3.76319
 20
-97.5179
 10
4.03128
 20
-98.1471
 10
4.19496
 20
-98.8112
 10
4.25
 20
-99.493
 10
4.19496
 20
-100.175
 10
4.03128
 20
-100.839
 10
3.76319
 20
-101.468
 10
3.39763
 20
-102.046
 10
2.94408
 20
-102.558
 10
2.41428
 20
-102.991
 10
1.82194
 20
-103.333
 10
1.18242
 20
-103.575
 10
0.512281
 20
-103.712
 10
-0.17113
 20
-103.74
  0
LWPOLYLINE
100
AcDbEntity
  8
0
100
AcDbPolyline
 90
72
 70
1
 10
-0.697246
 20
-139.97
 10
-1.38919
 20
-139.878
 10
-2.07055
 20
-139.727
 10
-2.73616
 20
-139.518
 10
-3.38095
 20
-139.25
 10
-4
 20
-138.928
 10
-4.58861
 20
-138.553
 10
-5.1423
 20
-138.128
 10
-5.65685
 20
-137.657
 10
-6.12836
 20
-137.142
 10
-6.55322
 20
-136.589
 10
-6.9282
 20
-136
 10
-7.25046
 20
-135.381
 10
-7.51754
 20
-134.736
 10
-7.72741
 20
-134.071
 10
-7.87846
 20
-133.389
 10
-7.96956
 20
-132.697
 10
-8
 20
-132
 10
-7.96956
 20
-131.303
 10
-7.87846
 20
-130.611
 10
-7.72741
 20
-129.929
 10
-7.51754
 20
-129.264
 10
-7.25046
 20
-128.619
 10
-6.9282
 20
-128
 10
-6.55322
 20
-127.411
 10
-6.12836
 20
-126.858
 10
-5.65685
 20
-126.343
 10
-5.1423
 20
-125.872
 10
-4.58861
 20
-125.447
 10
-4
 20
-125.072
 10
-3.38095
 20
-124.75
 10
-2.73616
 20
-124.482
 10
-2.07055
 20
-124.273
 10
-1.38919
 20
-124.122
 10
-0.697246
 20
-124.03
 10
0
 20
-124
 10
0.697246
 20
-124.03
 10
1.38919
 20
-124.122
 10
2.07055
 20
-124.273
 10
2.73616
 20
-124.482
 10
3.38095
 20
-124.75
 10
4
 20
-125.072
 10
4.58861
 20
-125.447
 10
5.1423
 20
-125.872
 10
5.65685
 20
-126.343
 10
6.12836
 20
-126.858
 10
6.55322
 20
-127.411
 10
6.9282
 20
-128
 10
7.25046
 20
-128.619
 10
7.51754
 20
-129.264
 10
7.72741
 20
-129.929
 10
7.87846
 20
-130.611
 10
7.96956
 20
-131.303
 10
8
 20
-132
 10
7.96956
 20
-132.697
 10
7.87846
 20
-133.389
 10
7.72741
 20
-134.071
 10
7.51754
 20
-134.736
 10
7.25046
 20
-135.381
 10
6.9282
 20
-136
 10
6.55322
 20
-136.589
 10
6.12836
 20
-137.142
 10
5.65685
 20
-137.657
 10
5.1423
 20
-138.128
 10
4.58861
 20
-138.553
 10
4
 20
-138.928
 10
3.38095
 20
-139.25
 10
2.73616
 20
-139.518
 10
2.07055
 20
-139.727
 10
1.38919
 20
-139.878
 10
0.697246
 20
-139.97
 10
0
 20
-140
  0
LWPOLYLINE
100
AcDbEntity
  8
0
100
AcDbPolyline
 90
4
 70
1
 10
163
 20
68
 10
113
 20
68
 10
113
 20
-156
 10
163
 20
-156
  0
LWPOLYLINE
100
AcDbEntity
  8
0
100
AcDbPolyline
 90
39
 70
1
 10
137.488
 20
47.781
 10
136.818
 20
47.9178
 10
136.178
 20
48.1603
 10
135.586
 20
48.5023
 10
135.056
 20
48.9349
 10
134.602
 20
49.4468
 10
134.237
 20
50.0249
 10
133.969
 20
50.6542
 10
133.805
 20
51.3183
 10
133.75
 20
52
 10
133.805
 20
52.6817
 10
133.969
 20
53.3458
 10
134.237
 20
53.9751
 10
134.602
 20
54.5532
 10
135.056
 20
55.0651
 10
135.586
 20
55.4977
 10
136.178
 20
55.8397
 10
136.818
 20
56.0822
 10
137.488
 20
56.219
 10
138.171
 20
56.2466
 10
138.85
 20
56.1641
 10
139.507
 20
55.9738
 10
140.125
 20
55.6806
 10
140.688
 20
55.2921
 10
141.181
 20
54.8183
 10
141.592
 20
54.2715
 10
141.91
 20
53.6659
 10
142.127
 20
53.0171
 10
142.236
 20
52.342
 10
142.236
 20
51.658
 10
142.127
 20
50.9829
 10
141.91
 20
50.3341
 10
141.592
 20
49.7285
 10
141.181
 20
49.1817
 10
140.688
 20
48.7079
 10
140.125
 20
48.3194
 10
139.507
 20
48.0262
 10
138.85
 20
47.8359
 10
138.171
 20
47.7534
  0
LWPOLYLINE
100
AcDbEntity
  8
0
100
AcDbPolyline
 90
35
 70
1
 10
134.915
 20
-4.18636
 10
134.385
 20
-3.73788
 10
133.919
 20
-3.2227
 10
133.526
 20
-2.65001
 10
133.213
 20
-2.03002
 10
132.985
 20
-1.37382
 10
132.846
 20
-0.693092
 10
132.8
 20
0
 10
132.846
 20
0.693092
 10
132.985
 20
1.37382
 10
133.213
 20
2.03002
 10
133.526
 20
2.65001
 10
133.919
 20
3.2227
 10
134.385
 20
3.73788
 10
134.915
 20
4.18636
 10
135.328
 20
4.45
 10
140.676
 20
4.45
 10
140.798
 20
4.38304
 10
141.357
 20
3.97099
 10
141.857
 20
3.48808
 10
142.287
 20
2.94292
 10
142.641
 20
2.34525
 10
142.912
 20
1.70573
 10
143.096
 20
1.03577
 10
143.188
 20
0.347322
 10
143.188
 20
-0.347322
 10
143.096
 20
-1.03577
 10
142.912
 20
-1.70573
 10
142.641
 20
-2.34525
 10
142.287
 20
-2.94292
 10
141.857
 20
-3.48808
 10
141.357
 20
-3.97099
 10
140.798
 20
-4.38304
 10
140.676
 20
-4.45
 10
135.328
 20
-4.45
  0
LWPOLYLINE
100
AcDbEntity
  8
0
100
AcDbPolyline
 90
39
 70
1
 10
137.488
 20
-103.712
 10
136.818
 20
-103.575
 10
136.178
 20
-103.333
 10
135.586
 20
-102.991
 10
135.056
 20
-102.558
 10
134.602
 20
-102.046
 10
134.237
 20
-101.468
 10
133.969
 20
-100.839
 10
133.805
 20
-100.175
 10
133.75
 20
-99.493
 10
133.805
 20
-98.8112
 10
133.969
 20
-98.1471
 10
134.237
 20
-97.5179
 10
134.602
 20
-96.9398
 10
135.056
 20
-96.4279
 10
135.586
 20
-95.9953
 10
136.178
 20
-95.6533
 10
136.818
 20
-95.4108
 10
137.488
 20
-95.274
 10
138.171
 20
-95.2464
 10
138.85
 20
-95.3289
 10
139.507
 20
-95.5191
 10
140.125
 20
-95.8124
 10
140.688
 20
-96.2009
 10
141.181
 20
-96.6747
 10
141.592
 20
-97.2215
 10
141.91
 20
-97.8271
 10
142.127
 20
-98.4759
 10
142.236
 20
-99.151
 10
142.236
 20
-99.8349
 10
142.127
 20
-100.51
 10
141.91
 20
-101.159
 10
141.592
 20
-101.764
 10
141.181
 20
-102.311
 10
140.688
 20
-102.785
 10
140.125
 20
-103.174
 10
139.507
 20
-103.467
 10
138.85
 20
-103.657
 10
138.171
 20
-103.74
  0
LWPOLYLINE
100
AcDbEntity
  8
0
100
AcDbPolyline
 90
72
 70
1
 10
137.303
 20
-139.97
 10
136.611
 20
-139.878
 10
135.929
 20
-139.727
 10
135.264
 20
-139.518
 10
134.619
 20
-139.25
 10
134
 20
-138.928
 10
133.411
 20
-138.553
 10
132.858
 20
-138.128
 10
132.343
 20
-137.657
 10
131.872
 20
-137.142
 10
131.447
 20
-136.589
 10
131.072
 20
-136
 10
130.75
 20
-135.381
 10
130.482
 20
-134.736
 10
130.273
 20
-134.071
 10
130.122
 20
-133.389
 10
130.03
 20
-132.697
 10
130
 20
-132
 10
130.03
 20
-131.303
 10
130.122
 20
-130.611
 10
130.273
 20
-129.929
 10
130.482
 20
-129.264
 10
130.75
 20
-128.619
 10
131.072
 20
-128
 10
131.447
 20
-127.411
 10
131.872
 20
-126.858
 10
132.343
 20
-126.343
 10
132.858
 20
-125.872
 10
133.411
 20
-125.447
 10
134
 20
-125.072
 10
134.619
 20
-124.75
 10
135.264
 20
-124.482
 10
135.929
 20
-124.273
 10
136.611
 20
-124.122
 10
137.303
 20
-124.03
 10
138
 20
-124
 10
138.697
 20
-124.03
 10
139.389
 20
-124.122
 10
140.071
 20
-124.273
 10
140.736
 20
-124.482
 10
141.381
 20
-124.75
 10
142
 20
-125.072
 10
142.589
 20
-125.447
 10
143.142
 20
-125.872
 10
143.657
 20
-126.343
 10
144.128
 20
-126.858
 10
144.553
 20
-127.411
 10
144.928
 20
-128
 10
145.25
 20
-128.619
 10
145.518
 20
-129.264
 10
145.727
 20
-129.929
 10
145.878
 20
-130.611
 10
145.97
 20
-131.303
 10
146
 20
-132
 10
145.97
 20
-132.697
 10
145.878
 20
-133.389
 10
145.727
 20
-134.071
 10
145.518
 20
-134.736
 10
145.25
 20
-135.381
 10
144.928
 20
-136
 10
144.553
 20
-136.589
 10
144.128
 20
-137.142
 10
143.657
 20
-137.657
 10
143.142
 20
-138.128
 10
142.589
 20
-138.553
 10
142
 20
-138.928
 10
141.381
 20
-139.25
 10
140.736
 20
-139.518
 10
140.071
 20
-139.727
 10
139.389
 20
-139.878
 10
138.697
 20
-139.97
 10
138
 20
-140
  0
LWPOLYLINE
100
AcDbEntity
  8
0
100
AcDbPolyline
 90
4
 70
1
 10
-347.5
 20
-48
 10
-387.5
 20
-48
 10
-387.5
 20
-230.741
 10
-347.5
 20
-230.741
  0
LWPOLYLINE
100
AcDbEntity
  8
0
100
AcDbPolyline
 90
70
 70
1
 10
-368.19
 20
-99.669
 10
-368.875
 20
-99.5763
 10
-369.548
 20
-99.4225
 10
-370.206
 20
-99.209
 10
-370.841
 20
-98.9375
 10
-371.449
 20
-98.6101
 10
-372.026
 20
-98.2294
 10
-372.566
 20
-97.7987
 10
-373.066
 20
-97.3212
 10
-373.52
 20
-96.8009
 10
-373.926
 20
-96.2419
 10
-374.281
 20
-95.6488
 10
-374.58
 20
-95.0263
 10
-374.823
 20
-94.3794
 10
-375.007
 20
-93.7134
 10
-375.13
 20
-93.0336
 10
-375.192
 20
-92.3455
 10
-375.192
 20
-66.6545
 10
-375.13
 20
-65.9664
 10
-375.007
 20
-65.2866
 10
-374.823
 20
-64.6206
 10
-374.58
 20
-63.9737
 10
-374.281
 20
-63.3512
 10
-373.926
 20
-62.7581
 10
-373.52
 20
-62.1991
 10
-373.066
 20
-61.6788
 10
-372.566
 20
-61.2013
 10
-372.026
 20
-60.7706
 10
-371.449
 20
-60.3899
 10
-370.841
 20
-60.0625
 10
-370.206
 20
-59.791
 10
-369.548
 20
-59.5775
 10
-368.875
 20
-59.4237
 10
-368.19
 20
-59.331
 10
-367.5
 20
-59.3
 10
-366.81
 20
-59.331
 10
-366.125
 20
-59.4237
 10
-365.452
 20
-59.5775
 10
-364.794
 20
-59.791
 10
-364.159
 20
-60.0625
 10
-363.551
 20
-60.3899
 10
-362.974
 20
-60.7706
 10
-362.434
 20
-61.2013
 10
-361.934
 20
-61.6788
 10
-361.48
 20
-62.1991
 10
-361.074
 20
-62.7581
 10
-360.719
 20
-63.3512
 10
-360.42
 20
-63.9737
 10
-360.177
 20
-64.6206
 10
-359.993
 20
-65.2866
 10
-359.87
 20
-65.9664
 10
-359.808
 20
-66.6545
 10
-359.808
 20
-92.3455
 10
-359.87
 20
-93.0336
 10
-359.993
 20
-93.7134
 10
-360.177
 20
-94.3794
 10
-360.42
 20
-95.0263
 10
-360.719
 20
-95.6488
 10
-361.074
 20
-96.2419
 10
-361.48
 20
-96.8009
 10
-361.934
 20
-97.3212
 10
-362.434
 20
-97.7987
 10
-362.974
 20
-98.2294
 10
-363.551
 20
-98.6101
 10
-364.159
 20
-98.9375
 10
-364.794
 20
-99.209
 10
-365.452
 20
-99.4225
 10
-366.125
 20
-99.5763
 10
-366.81
 20
-99.669
 10
-367.5
 20
-99.7
  0
LWPOLYLINE
100
AcDbEntity
  8
0
100
AcDbPolyline
 90
38
 70
1
 10
-368.191
 20
-162.335
 10
-368.864
 20
-162.165
 10
-369.499
 20
-161.886
 10
-370.08
 20
-161.507
 10
-370.59
 20
-161.037
 10
-371.016
 20
-160.49
 10
-371.346
 20
-159.879
 10
-371.571
 20
-159.223
 10
-371.686
 20
-158.539
 10
-371.686
 20
-157.846
 10
-371.571
 20
-157.161
 10
-371.346
 20
-156.505
 10
-371.016
 20
-155.895
 10
-370.59
 20
-155.348
 10
-370.08
 20
-154.878
 10
-369.499
 20
-154.499
 10
-368.864
 20
-154.22
 10
-368.191
 20
-154.05
 10
-367.5
 20
-153.992
 10
-366.809
 20
-154.05
 10
-366.136
 20
-154.22
 10
-365.501
 20
-154.499
 10
-364.92
 20
-154.878
 10
-364.41
 20
-155.348
 10
-363.984
 20
-155.895
 10
-363.654
 20
-156.505
 10
-363.429
 20
-157.161
 10
-363.314
 20
-157.846
 10
-363.314
 20
-158.539
 10
-363.429
 20
-159.223
 10
-363.654
 20
-159.879
 10
-363.984
 20
-160.49
 10
-364.41
 20
-161.037
 10
-364.92
 20
-161.507
 10
-365.501
 20
-161.886
 10
-366.136
 20
-162.165
 10
-366.809
 20
-162.335
 10
-367.5
 20
-162.392
  0
LWPOLYLINE
100
AcDbEntity
  8
0
100
AcDbPolyline
 90
90
 70
1
 10
-368.574
 20
-224.104
 10
-369.643
 20
-223.991
 10
-370.702
 20
-223.805
 10
-371.745
 20
-223.545
 10
-372.767
 20
-223.213
 10
-373.764
 20
-222.81
 10
-374.73
 20
-222.339
 10
-375.661
 20
-221.801
 10
-376.552
 20
-221.2
 10
-377.399
 20
-220.538
 10
-378.198
 20
-219.819
 10
-378.944
 20
-219.046
 10
-379.635
 20
-218.223
 10
-380.267
 20
-217.353
 10
-380.837
 20
-216.441
 10
-381.341
 20
-215.492
 10
-381.779
 20
-214.51
 10
-382.146
 20
-213.5
 10
-382.443
 20
-212.467
 10
-382.666
 20
-211.416
 10
-382.816
 20
-210.351
 10
-382.891
 20
-209.279
 10
-382.891
 20
-208.204
 10
-382.816
 20
-207.132
 10
-382.666
 20
-206.067
 10
-382.443
 20
-205.016
 10
-382.146
 20
-203.982
 10
-381.779
 20
-202.972
 10
-381.341
 20
-201.99
 10
-380.837
 20
-201.041
 10
-380.267
 20
-200.13
 10
-379.635
 20
-199.26
 10
-378.944
 20
-198.437
 10
-378.198
 20
-197.664
 10
-377.399
 20
-196.944
 10
-376.552
 20
-196.282
 10
-375.661
 20
-195.681
 10
-374.73
 20
-195.144
 10
-373.764
 20
-194.673
 10
-372.767
 20
-194.27
 10
-371.745
 20
-193.938
 10
-370.702
 20
-193.678
 10
-369.643
 20
-193.491
 10
-368.574
 20
-193.379
 10
-367.5
 20
-193.341
 10
-366.426
 20
-193.379
 10
-365.357
 20
-193.491
 10
-364.298
 20
-193.678
 10
-363.255
 20
-193.938
 10
-362.233
 20
-194.27
 10
-361.236
 20
-194.673
 10
-360.27
 20
-195.144
 10
-359.339
 20
-195.681
 10
-358.448
 20
-196.282
 10
-357.601
 20
-196.944
 10
-356.802
 20
-197.664
 10
-356.056
 20
-198.437
 10
-355.365
 20
-199.26
 10
-354.733
 20
-200.13
 10
-354.163
 20
-201.041
 10
-353.659
 20
-201.99
 10
-353.221
 20
-202.972
 10
-352.854
 20
-203.982
 10
-352.557
 20
-205.016
 10
-352.334
 20
-206.067
 10
-352.184
 20
-207.132
 10
-352.109
 20
-208.204
 10
-352.109
 20
-209.279
 10
-352.184
 20
-210.351
 10
-352.334
 20
-211.416
 10
-352.557
 20
-212.467
 10
-352.854
 20
-213.5
 10
-353.221
 20
-214.51
 10
-353.659
 20
-215.492
 10
-354.163
 20
-216.441
 10
-354.733
 20
-217.353
 10
-355.365
 20
-218.223
 10
-356.056
 20
-219.046
 10
-356.802
 20
-219.819
 10
-357.601
 20
-220.538
 10
-358.448
 20
-221.2
 10
-359.339
 20
-221.801
 10
-360.27
 20
-222.339
 10
-361.236
 20
-222.81
 10
-362.233
 20
-223.213
 10
-363.255
 20
-223.545
 10
-364.298
 20
-223.805
 10
-365.357
 20
-223.991
 10
-366.426
 20
-224.104
 10
-367.5
 20
-224.141
  0
LWPOLYLINE
100
AcDbEntity
  8
0
100
AcDbPolyline
 90
4
 70
1
 10
-257.5
 20
-48
 10
-297.5
 20
-48
 10
-297.5
 20
-230.741
 10
-257.5
 20
-230.741
  0
LWPOLYLINE
100
AcDbEntity
  8
0
100
AcDbPolyline
 90
70
 70
1
 10
-278.19
 20
-99.669
 10
-278.875
 20
-99.5763
 10
-279.548
 20
-99.4225
 10
-280.206
 20
-99.209
 10
-280.841
 20
-98.9375
 10
-281.449
 20
-98.6101
 10
-282.026
 20
-98.2294
 10
-282.566
 20
-97.7987
 10
-283.066
 20
-97.3212
 10
-283.52
 20
-96.8009
 10
-283.926
 20
-96.2419
 10
-284.281
 20
-95.6488
 10
-284.58
 20
-95.0263
 10
-284.823
 20
-94.3794
 10
-285.007
 20
-93.7134
 10
-285.13
 20
-93.0336
 10
-285.192
 20
-92.3455
 10
-285.192
 20
-66.6545
 10
-285.13
 20
-65.9664
 10
-285.007
 20
-65.2866
 10
-284.823
 20
-64.6206
 10
-284.58
 20
-63.9737
 10
-284.281
 20
-63.3512
 10
-283.926
 20
-62.7581
 10
-283.52
 20
-62.1991
 10
-283.066
 20
-61.6788
 10
-282.566
 20
-61.2013
 10
-282.026
 20
-60.7706
 10
-281.449
 20
-60.3899
 10
-280.841
 20
-60.0625
 10
-280.206
 20
-59.791
 10
-279.548
 20
-59.5775
 10
-278.875
 20
-59.4237
 10
-278.19
 20
-59.331
 10
-277.5
 20
-59.3
 10
-276.81
 20
-59.331
 10
-276.125
 20
-59.4237
 10
-275.452
 20
-59.5775
 10
-274.794
 20
-59.791
 10
-274.159
 20
-60.0625
 10
-273.551
 20
-60.3899
 10
-272.974
 20
-60.7706
 10
-272.434
 20
-61.2013
 10
-271.934
 20
-61.6788
 10
-271.48
 20
-62.1991
 10
-271.074
 20
-62.7581
 10
-270.719
 20
-63.3512
 10
-270.42
 20
-63.9737
 10
-270.177
 20
-64.6206
 10
-269.993
 20
-65.2866
 10
-269.87
 20
-65.9664
 10
-269.808
 20
-66.6545
 10
-269.808
 20
-92.3455
 10
-269.87
 20
-93.0336
 10
-269.993
 20
-93.7134
 10
-270.177
 20
-94.3794
 10
-270.42
 20
-95.0263
 10
-270.719
 20
-95.6488
 10
-271.074
 20
-96.2419
 10
-271.48
 20
-96.8009
 10
-271.934
 20
-97.3212
 10
-272.434
 20
-97.7987
 10
-272.974
 20
-98.2294
 10
-273.551
 20
-98.6101
 10
-274.159
 20
-98.9375
 10
-274.794
 20
-99.209
 10
-275.452
 20
-99.4225
 10
-276.125
 20
-99.5763
 10
-276.81
 20
-99.669
 10
-277.5
 20
-99.7
  0
LWPOLYLINE
100
AcDbEntity
  8
0
100
AcDbPolyline
 90
38
 70
1
 10
-278.191
 20
-162.335
 10
-278.864
 20
-162.165
 10
-279.499
 20
-161.886
 10
-280.08
 20
-161.507
 10
-280.59
 20
-161.037
 10
-281.016
 20
-160.49
 10
-281.346
 20
-159.879
 10
-281.571
 20
-159.223
 10
-281.686
 20
-158.539
 10
-281.686
 20
-157.846
 10
-281.571
 20
-157.161
 10
-281.346
 20
-156.505
 10
-281.016
 20
-155.895
 10
-280.59
 20
-155.348
 10
-280.08
 20
-154.878
 10
-279.499
 20
-154.499
 10
-278.864
 20
-154.22
 10
-278.191
 20
-154.05
 10
-277.5
 20
-153.992
 10
-276.809
 20
-154.05
 10
-276.136
 20
-154.22
 10
-275.501
 20
-154.499
 10
-274.92
 20
-154.878
 10
-274.41
 20
-155.348
 10
-273.984
 20
-155.895
 10
-273.654
 20
-156.505
 10
-273.429
 20
-157.161
 10
-273.314
 20
-157.846
 10
-273.314
 20
-158.539
 10
-273.429
 20
-159.223
 10
-273.654
 20
-159.879
 10
-273.984
 20
-160.49
 10
-274.41
 20
-161.037
 10
-274.92
 20
-161.507
 10
-275.501
 20
-161.886
 10
-276.136
 20
-162.165
 10
-276.809
 20
-162.335
 10
-277.5
 20
-162.392
  0
LWPOLYLINE
100
AcDbEntity
  8
0
100
AcDbPolyline
 90
90
 70
1
 10
-278.574
 20
-224.104
 10
-279.643
 20
-223.991
 10
-280.702
 20
-223.805
 10
-281.745
 20
-223.545
 10
-282.767
 20
-223.213
 10
-283.764
 20
-222.81
 10
-284.73
 20
-222.339
 10
-285.661
 20
-221.801
 10
-286.552
 20
-221.2
 10
-287.399
 20
-220.538
 10
-288.198
 20
-219.819
 10
-288.944
 20
-219.046
 10
-289.635
 20
-218.223
 10
-290.267
 20
-217.353
 10
-290.837
 20
-216.441
 10
-291.341
 20
-215.492
 10
-291.779
 20
-214.51
 10
-292.146
 20
-213.5
 10
-292.443
 20
-212.467
 10
-292.666
 20
-211.416
 10
-292.816
 20
-210.351
 10
-292.891
 20
-209.279
 10
-292.891
 20
-208.204
 10
-292.816
 20
-207.132
 10
-292.666
 20
-206.067
 10
-292.443
 20
-205.016
 10
-292.146
 20
-203.982
 10
-291.779
 20
-202.972
 10
-291.341
 20
-201.99
 10
-290.837
 20
-201.041
 10
-290.267
 20
-200.13
 10
-289.635
 20
-199.26
 10
-288.944
 20
-198.437
 10
-288.198
 20
-197.664
 10
-287.399
 20
-196.944
 10
-286.552
 20
-196.282
 10
-285.661
 20
-195.681
 10
-284.73
 20
-195.144
 10
-283.764
 20
-194.673
 10
-282.767
 20
-194.27
 10
-281.745
 20
-193.938
 10
-280.702
 20
-193.678
 10
-279.643
 20
-193.491
 10
-278.574
 20
-193.379
 10
-277.5
 20
-193.341
 10
-276.426
 20
-193.379
 10
-275.357
 20
-193.491
 10
-274.298
 20
-193.678
 10
-273.255
 20
-193.938
 10
-272.233
 20
-194.27
 10
-271.236
 20
-194.673
 10
-270.27
 20
-195.144
 10
-269.339
 20
-195.681
 10
-268.448
 20
-196.282
 10
-267.601
 20
-196.944
 10
-266.802
 20
-197.664
 10
-266.056
 20
-198.437
 10
-265.365
 20
-199.26
 10
-264.733
 20
-200.13
 10
-264.163
 20
-201.041
 10
-263.659
 20
-201.99
 10
-263.221
 20
-202.972
 10
-262.854
 20
-203.982
 10
-262.557
 20
-205.016
 10
-262.334
 20
-206.067
 10
-262.184
 20
-207.132
 10
-262.109
 20
-208.204
 10
-262.109
 20
-209.279
 10
-262.184
 20
-210.351
 10
-262.334
 20
-211.416
 10
-262.557
 20
-212.467
 10
-262.854
 20
-213.5
 10
-263.221
 20
-214.51
 10
-263.659
 20
-215.492
 10
-264.163
 20
-216.441
 10
-264.733
 20
-217.353
 10
-265.365
 20
-218.223
 10
-266.056
 20
-219.046
 10
-266.802
 20
-219.819
 10
-267.601
 20
-220.538
 10
-268.448
 20
-221.2
 10
-269.339
 20
-221.801
 10
-270.27
 20
-222.339
 10
-271.236
 20
-222.81
 10
-272.233
 20
-223.213
 10
-273.255
 20
-223.545
 10
-274.298
 20
-223.805
 10
-275.357
 20
-223.991
 10
-276.426
 20
-224.104
 10
-277.5
 20
-224.141
  0
LWPOLYLINE
100
AcDbEntity
  8
0
100
AcDbPolyline
 90
4
 70
1
 10
-167.5
 20
-66
 10
-207.5
 20
-66
 10
-207.5
 20
-230.741
 10
-167.5
 20
-230.741
  0
LWPOLYLINE
100
AcDbEntity
  8
0
100
AcDbPolyline
 90
70
 70
1
 10
-188.19
 20
-99.669
 10
-188.875
 20
-99.5763
 10
-189.548
 20
-99.4225
 10
-190.206
 20
-99.209
 10
-190.841
 20
-98.9375
 10
-191.449
 20
-98.6101
 10
-192.026
 20
-98.2294
 10
-192.566
 20
-97.7987
 10
-193.066
 20
-97.3212
 10
-193.52
 20
-96.8009
 10
-193.926
 20
-96.2419
 10
-194.281
 20
-95.6488
 10
-194.58
 20
-95.0263
 10
-194.823
 20
-94.3794
 10
-195.007
 20
-93.7134
 10
-195.13
 20
-93.0336
 10
-195.192
 20
-92.3455
 10
-195.192
 20
-91.6545
 10
-195.13
 20
-90.9664
 10
-195.007
 20
-90.2866
 10
-194.823
 20
-89.6206
 10
-194.58
 20
-88.9737
 10
-194.281
 20
-88.3512
 10
-193.926
 20
-87.7581
 10
-193.52
 20
-87.1991
 10
-193.066
 20
-86.6788
 10
-192.566
 20
-86.2013
 10
-192.026
 20
-85.7706
 10
-191.449
 20
-85.3899
 10
-190.841
 20
-85.0625
 10
-190.206
 20
-84.791
 10
-189.548
 20
-84.5775
 10
-188.875
 20
-84.4237
 10
-188.19
 20
-84.331
 10
-187.5
 20
-84.3
 10
-186.81
 20
-84.331
 10
-186.125
 20
-84.4237
 10
-185.452
 20
-84.5775
 10
-184.794
 20
-84.791
 10
-184.159
 20
-85.0625
 10
-183.551
 20
-85.3899
 10
-182.974
 20
-85.7706
 10
-182.434
 20
-86.2013
 10
-181.934
 20
-86.6788
 10
-181.48
 20
-87.1991
 10
-181.074
 20
-87.7581
 10
-180.719
 20
-88.3512
 10
-180.42
 20
-88.9737
 10
-180.177
 20
-89.6206
 10
-179.993
 20
-90.2866
 10
-179.87
 20
-90.9664
 10
-179.808
 20
-91.6545
 10
-179.808
 20
-92.3455
 10
-179.87
 20
-93.0336
 10
-179.993
 20
-93.7134
 10
-180.177
 20
-94.3794
 10
-180.42
 20
-95.0263
 10
-180.719
 20
-95.6488
 10
-181.074
 20
-96.2419
 10
-181.48
 20
-96.8009
 10
-181.934
 20
-97.3212
 10
-182.434
 20
-97.7987
 10
-182.974
 20
-98.2294
 10
-183.551
 20
-98.6101
 10
-184.159
 20
-98.9375
 10
-184.794
 20
-99.209
 10
-185.452
 20
-99.4225
 10
-186.125
 20
-99.5763
 10
-186.81
 20
-99.669
 10
-187.5
 20
-99.7
  0
LWPOLYLINE
100
AcDbEntity
  8
0
100
AcDbPolyline
 90
38
 70
1
 10
-188.191
 20
-162.335
 10
-188.864
 20
-162.165
 10
-189.499
 20
-161.886
 10
-190.08
 20
-161.507
 10
-190.59
 20
-161.037
 10
-191.016
 20
-160.49
 10
-191.346
 20
-159.879
 10
-191.571
 20
-159.223
 10
-191.686
 20
-158.539
 10
-191.686
 20
-157.846
 10
-191.571
 20
-157.161
 10
-191.346
 20
-156.505
 10
-191.016
 20
-155.895
 10
-190.59
 20
-155.348
 10
-190.08
 20
-154.878
 10
-189.499
 20
-154.499
 10
-188.864
 20
-154.22
 10
-188.191
 20
-154.05
 10
-187.5
 20
-153.992
 10
-186.809
 20
-154.05
 10
-186.136
 20
-154.22
 10
-185.501
 20
-154.499
 10
-184.92
 20
-154.878
 10
-184.41
 20
-155.348
 10
-183.984
 20
-155.895
 10
-183.654
 20
-156.505
 10
-183.429
 20
-157.161
 10
-183.314
 20
-157.846
 10
-183.314
 20
-158.539
 10
-183.429
 20
-159.223
 10
-183.654
 20
-159.879
 10
-183.984
 20
-160.49
 10
-184.41
 20
-161.037
 10
-184.92
 20
-161.507
 10
-185.501
 20
-161.886
 10
-186.136
 20
-162.165
 10
-186.809
 20
-162.335
 10
-187.5
 20
-162.392
  0
LWPOLYLINE
100
AcDbEntity
  8
0
100
AcDbPolyline
 90
90
 70
1
 10
-188.574
 20
-224.104
 10
-189.643
 20
-223.991
 10
-190.702
 20
-223.805
 10
-191.745
 20
-223.545
 10
-192.767
 20
-223.213
 10
-193.764
 20
-222.81
 10
-194.73
 20
-222.339
 10
-195.661
 20
-221.801
 10
-196.552
 20
-221.2
 10
-197.399
 20
-220.538
 10
-198.198
 20
-219.819
 10
-198.944
 20
-219.046
 10
-199.635
 20
-218.223
 10
-200.267
 20
-217.353
 10
-200.837
 20
-216.441
 10
-201.341
 20
-215.492
 10
-201.779
 20
-214.51
 10
-202.146
 20
-213.5
 10
-202.443
 20
-212.467
 10
-202.666
 20
-211.416
 10
-202.816
 20
-210.351
 10
-202.891
 20
-209.279
 10
-202.891
 20
-208.204
 10
-202.816
 20
-207.132
 10
-202.666
 20
-206.067
 10
-202.443
 20
-205.016
 10
-202.146
 20
-203.982
 10
-201.779
 20
-202.972
 10
-201.341
 20
-201.99
 10
-200.837
 20
-201.041
 10
-200.267
 20
-200.13
 10
-199.635
 20
-199.26
 10
-198.944
 20
-198.437
 10
-198.198
 20
-197.664
 10
-197.399
 20
-196.944
 10
-196.552
 20
-196.282
 10
-195.661
 20
-195.681
 10
-194.73
 20
-195.144
 10
-193.764
 20
-194.673
 10
-192.767
 20
-194.27
 10
-191.745
 20
-193.938
 10
-190.702
 20
-193.678
 10
-189.643
 20
-193.491
 10
-188.574
 20
-193.379
 10
-187.5
 20
-193.341
 10
-186.426
 20
-193.379
 10
-185.357
 20
-193.491
 10
-184.298
 20
-193.678
 10
-183.255
 20
-193.938
 10
-182.233
 20
-194.27
 10
-181.236
 20
-194.673
 10
-180.27
 20
-195.144
 10
-179.339
 20
-195.681
 10
-178.448
 20
-196.282
 10
-177.601
 20
-196.944
 10
-176.802
 20
-197.664
 10
-176.056
 20
-198.437
 10
-175.365
 20
-199.26
 10
-174.733
 20
-200.13
 10
-174.163
 20
-201.041
 10
-173.659
 20
-201.99
 10
-173.221
 20
-202.972
 10
-172.854
 20
-203.982
 10
-172.557
 20
-205.016
 10
-172.334
 20
-206.067
 10
-172.184
 20
-207.132
 10
-172.109
 20
-208.204
 10
-172.109
 20
-209.279
 10
-172.184
 20
-210.351
 10
-172.334
 20
-211.416
 10
-172.557
 20
-212.467
 10
-172.854
 20
-213.5
 10
-173.221
 20
-214.51
 10
-173.659
 20
-215.492
 10
-174.163
 20
-216.441
 10
-174.733
 20
-217.353
 10
-175.365
 20
-218.223
 10
-176.056
 20
-219.046
 10
-176.802
 20
-219.819
 10
-177.601
 20
-220.538
 10
-178.448
 20
-221.2
 10
-179.339
 20
-221.801
 10
-180.27
 20
-222.339
 10
-181.236
 20
-222.81
 10
-182.233
 20
-223.213
 10
-183.255
 20
-223.545
 10
-184.298
 20
-223.805
 10
-185.357
 20
-223.991
 10
-186.426
 20
-224.104
 10
-187.5
 20
-224.141
  0
LWPOLYLINE
100
AcDbEntity
  8
0
100
AcDbPolyline
 90
4
 70
1
 10
-77.5
 20
-66
 10
-117.5
 20
-66
 10
-117.5
 20
-230.741
 10
-77.5
 20
-230.741
  0
LWPOLYLINE
100
AcDbEntity
  8
0
100
AcDbPolyline
 90
70
 70
1
 10
-98.1902
 20
-99.669
 10
-98.8749
 20
-99.5763
 10
-99.5485
 20
-99.4225
 10
-100.206
 20
-99.209
 10
-100.841
 20
-98.9375
 10
-101.449
 20
-98.6101
 10
-102.026
 20
-98.2294
 10
-102.566
 20
-97.7987
 10
-103.066
 20
-97.3212
 10
-103.52
 20
-96.8009
 10
-103.926
 20
-96.2419
 10
-104.281
 20
-95.6488
 10
-104.58
 20
-95.0263
 10
-104.823
 20
-94.3794
 10
-105.007
 20
-93.7134
 10
-105.13
 20
-93.0336
 10
-105.192
 20
-92.3455
 10
-105.192
 20
-91.6545
 10
-105.13
 20
-90.9664
 10
-105.007
 20
-90.2866
 10
-104.823
 20
-89.6206
 10
-104.58
 20
-88.9737
 10
-104.281
 20
-88.3512
 10
-103.926
 20
-87.7581
 10
-103.52
 20
-87.1991
 10
-103.066
 20
-86.6788
 10
-102.566
 20
-86.2013
 10
-102.026
 20
-85.7706
 10
-101.449
 20
-85.3899
 10
-100.841
 20
-85.0625
 10
-100.206
 20
-84.791
 10
-99.5485
 20
-84.5775
 10
-98.8749
 20
-84.4237
 10
-98.1902
 20
-84.331
 10
-97.5
 20
-84.3
 10
-96.8098
 20
-84.331
 10
-96.1251
 20
-84.4237
 10
-95.4515
 20
-84.5775
 10
-94.7944
 20
-84.791
 10
-94.1591
 20
-85.0625
 10
-93.5507
 20
-85.3899
 10
-92.9741
 20
-85.7706
 10
-92.4339
 20
-86.2013
 10
-91.9345
 20
-86.6788
 10
-91.4799
 20
-87.1991
 10
-91.0738
 20
-87.7581
 10
-90.7194
 20
-88.3512
 10
-90.4196
 20
-88.9737
 10
-90.1769
 20
-89.6206
 10
-89.9931
 20
-90.2866
 10
-89.8697
 20
-90.9664
 10
-89.8078
 20
-91.6545
 10
-89.8078
 20
-92.3455
 10
-89.8697
 20
-93.0336
 10
-89.9931
 20
-93.7134
 10
-90.1769
 20
-94.3794
 10
-90.4196
 20
-95.0263
 10
-90.7194
 20
-95.6488
 10
-91.0738
 20
-96.2419
 10
-91.4799
 20
-96.8009
 10
-91.9345
 20
-97.3212
 10
-92.4339
 20
-97.7987
 10
-92.9741
 20
-98.2294
 10
-93.5507
 20
-98.6101
 10
-94.1591
 20
-98.9375
 10
-94.7944
 20
-99.209
 10
-95.4515
 20
-99.4225
 10
-96.1251
 20
-99.5763
 10
-96.8098
 20
-99.669
 10
-97.5
 20
-99.7
  0
LWPOLYLINE
100
AcDbEntity
  8
0
100
AcDbPolyline
 90
38
 70
1
 10
-98.1913
 20
-162.335
 10
-98.8637
 20
-162.165
 10
-99.499
 20
-161.886
 10
-100.08
 20
-161.507
 10
-100.59
 20
-161.037
 10
-101.016
 20
-160.49
 10
-101.346
 20
-159.879
 10
-101.571
 20
-159.223
 10
-101.686
 20
-158.539
 10
-101.686
 20
-157.846
 10
-101.571
 20
-157.161
 10
-101.346
 20
-156.505
 10
-101.016
 20
-155.895
 10
-100.59
 20
-155.348
 10
-100.08
 20
-154.878
 10
-99.499
 20
-154.499
 10
-98.8637
 20
-154.22
 10
-98.1913
 20
-154.05
 10
-97.5
 20
-153.992
 10
-96.8087
 20
-154.05
 10
-96.1363
 20
-154.22
 10
-95.501
 20
-154.499
 10
-94.9203
 20
-154.878
 10
-94.41
 20
-155.348
 10
-93.9839
 20
-155.895
 10
-93.6538
 20
-156.505
 10
-93.4285
 20
-157.161
 10
-93.3143
 20
-157.846
 10
-93.3143
 20
-158.539
 10
-93.4285
 20
-159.223
 10
-93.6538
 20
-159.879
 10
-93.9839
 20
-160.49
 10
-94.41
 20
-161.037
 10
-94.9203
 20
-161.507
 10
-95.501
 20
-161.886
 10
-96.1363
 20
-162.165
 10
-96.8087
 20
-162.335
 10
-97.5
 20
-162.392
  0
LWPOLYLINE
100
AcDbEntity
  8
0
100
AcDbPolyline
 90
90
 70
1
 10
-98.5742
 20
-224.104
 10
-99.6433
 20
-223.991
 10
-100.702
 20
-223.805
 10
-101.745
 20
-223.545
 10
-102.767
 20
-223.213
 10
-103.764
 20
-222.81
 10
-104.73
 20
-222.339
 10
-105.661
 20
-221.801
 10
-106.552
 20
-221.2
 10
-107.399
 20
-220.538
 10
-108.198
 20
-219.819
 10
-108.944
 20
-219.046
 10
-109.635
 20
-218.223
 10
-110.267
 20
-217.353
 10
-110.837
 20
-216.441
 10
-111.341
 20
-215.492
 10
-111.779
 20
-214.51
 10
-112.146
 20
-213.5
 10
-112.443
 20
-212.467
 10
-112.666
 20
-211.416
 10
-112.816
 20
-210.351
 10
-112.891
 20
-209.279
 10
-112.891
 20
-208.204
 10
-112.816
 20
-207.132
 10
-112.666
 20
-206.067
 10
-112.443
 20
-205.016
 10
-112.146
 20
-203.982
 10
-111.779
 20
-202.972
 10
-111.341
 20
-201.99
 10
-110.837
 20
-201.041
 10
-110.267
 20
-200.13
 10
-109.635
 20
-199.26
 10
-108.944
 20
-198.437
 10
-108.198
 20
-197.664
 10
-107.399
 20
-196.944
 10
-106.552
 20
-196.282
 10
-105.661
 20
-195.681
 10
-104.73
 20
-195.144
 10
-103.764
 20
-194.673
 10
-102.767
 20
-194.27
 10
-101.745
 20
-193.938
 10
-100.702
 20
-193.678
 10
-99.6433
 20
-193.491
 10
-98.5742
 20
-193.379
 10
-97.5
 20
-193.341
 10
-96.4258
 20
-193.379
 10
-95.3567
 20
-193.491
 10
-94.2982
 20
-193.678
 10
-93.2552
 20
-193.938
 10
-92.2329
 20
-194.27
 10
-91.2363
 20
-194.673
 10
-90.2701
 20
-195.144
 10
-89.3392
 20
-195.681
 10
-88.4481
 20
-196.282
 10
-87.6011
 20
-196.944
 10
-86.8023
 20
-197.664
 10
-86.0556
 20
-198.437
 10
-85.3646
 20
-199.26
 10
-84.7328
 20
-200.13
 10
-84.1632
 20
-201.041
 10
-83.6586
 20
-201.99
 10
-83.2214
 20
-202.972
 10
-82.8537
 20
-203.982
 10
-82.5574
 20
-205.016
 10
-82.334
 20
-206.067
 10
-82.1844
 20
-207.132
 10
-82.1094
 20
-208.204
 10
-82.1094
 20
-209.279
 10
-82.1844
 20
-210.351
 10
-82.334
 20
-211.416
 10
-82.5574
 20
-212.467
 10
-82.8537
 20
-213.5
 10
-83.2214
 20
-214.51
 10
-83.6586
 20
-215.492
 10
-84.1632
 20
-216.441
 10
-84.7328
 20
-217.353
 10
-85.3646
 20
-218.223
 10
-86.0556
 20
-219.046
 10
-86.8023
 20
-219.819
 10
-87.6011
 20
-220.538
 10
-88.4481
 20
-221.2
 10
-89.3392
 20
-221.801
 10
-90.2701
 20
-222.339
 10
-91.2363
 20
-222.81
 10
-92.2329
 20
-223.213
 10
-93.2552
 20
-223.545
 10
-94.2982
 20
-223.805
 10
-95.3567
 20
-223.991
 10
-96.4258
 20
-224.104
 10
-97.5
 20
-224.141
  0
LWPOLYLINE
100
AcDbEntity
  8
0
100
AcDbPolyline
 90
4
 70
1
 10
55
 20
-303.2
 10
0
 20
-303.2
 10
0
 20
-343.2
 10
55
 20
-343.2
  0
LWPOLYLINE
100
AcDbEntity
  8
0
100
AcDbPolyline
 90
38
 70
1
 10
41.1992
 20
-335.747
 10
40.5431
 20
-335.521
 10
39.933
 20
-335.191
 10
39.3856
 20
-334.765
 10
38.9158
 20
-334.255
 10
38.5364
 20
-333.674
 10
38.2578
 20
-333.039
 10
38.0875
 20
-332.366
 10
38.0302
 20
-331.675
 10
38.0875
 20
-330.984
 10
38.2578
 20
-330.311
 10
38.5364
 20
-329.676
 10
38.9158
 20
-329.095
 10
39.3856
 20
-328.585
 10
39.933
 20
-328.159
 10
40.5431
 20
-327.829
 10
41.1992
 20
-327.604
 10
41.8834
 20
-327.49
 10
42.5771
 20
-327.49
 10
43.2613
 20
-327.604
 10
43.9174
 20
-327.829
 10
44.5274
 20
-328.159
 10
45.0748
 20
-328.585
 10
45.5446
 20
-329.095
 10
45.924
 20
-329.676
 10
46.2027
 20
-330.311
 10
46.3729
 20
-330.984
 10
46.4302
 20
-331.675
 10
46.3729
 20
-332.366
 10
46.2027
 20
-333.039
 10
45.924
 20
-333.674
 10
45.5446
 20
-334.255
 10
45.0748
 20
-334.765
 10
44.5274
 20
-335.191
 10
43.9174
 20
-335.521
 10
43.2613
 20
-335.747
 10
42.5771
 20
-335.861
 10
41.8834
 20
-335.861
  0
LWPOLYLINE
100
AcDbEntity
  8
0
100
AcDbPolyline
 90
4
 70
1
 10
125
 20
-303.2
 10
70
 20
-303.2
 10
70
 20
-343.2
 10
125
 20
-343.2
  0
LWPOLYLINE
100
AcDbEntity
  8
0
100
AcDbPolyline
 90
38
 70
1
 10
111.199
 20
-335.747
 10
110.543
 20
-335.521
 10
109.933
 20
-335.191
 10
109.386
 20
-334.765
 10
108.916
 20
-334.255
 10
108.536
 20
-333.674
 10
108.258
 20
-333.039
 10
108.088
 20
-332.366
 10
108.03
 20
-331.675
 10
108.088
 20
-330.984
 10
108.258
 20
-330.311
 10
108.536
 20
-329.676
 10
108.916
 20
-329.095
 10
109.386
 20
-328.585
 10
109.933
 20
-328.159
 10
110.543
 20
-327.829
 10
111.199
 20
-327.604
 10
111.883
 20
-327.49
 10
112.577
 20
-327.49
 10
113.261
 20
-327.604
 10
113.917
 20
-327.829
 10
114.527
 20
-328.159
 10
115.075
 20
-328.585
 10
115.545
 20
-329.095
 10
115.924
 20
-329.676
 10
116.203
 20
-330.311
 10
116.373
 20
-330.984
 10
116.43
 20
-331.675
 10
116.373
 20
-332.366
 10
116.203
 20
-333.039
 10
115.924
 20
-333.674
 10
115.545
 20
-334.255
 10
115.075
 20
-334.765
 10
114.527
 20
-335.191
 10
113.917
 20
-335.521
 10
113.261
 20
-335.747
 10
112.577
 20
-335.861
 10
111.883
 20
-335.861
  0
LWPOLYLINE
100
AcDbEntity
  8
0
100
AcDbPolyline
 90
4
 70
1
 10
195
 20
-303.2
 10
140
 20
-303.2
 10
140
 20
-343.2
 10
195
 20
-343.2
  0
LWPOLYLINE
100
AcDbEntity
  8
0
100
AcDbPolyline
 90
38
 70
1
 10
181.199
 20
-335.747
 10
180.543
 20
-335.521
 10
179.933
 20
-335.191
 10
179.386
 20
-334.765
 10
178.916
 20
-334.255
 10
178.536
 20
-333.674
 10
178.258
 20
-333.039
 10
178.088
 20
-332.366
 10
178.03
 20
-331.675
 10
178.088
 20
-330.984
 10
178.258
 20
-330.311
 10
178.536
 20
-329.676
 10
178.916
 20
-329.095
 10
179.386
 20
-328.585
 10
179.933
 20
-328.159
 10
180.543
 20
-327.829
 10
181.199
 20
-327.604
 10
181.883
 20
-327.49
 10
182.577
 20
-327.49
 10
183.261
 20
-327.604
 10
183.917
 20
-327.829
 10
184.527
 20
-328.159
 10
185.075
 20
-328.585
 10
185.545
 20
-329.095
 10
185.924
 20
-329.676
 10
186.203
 20
-330.311
 10
186.373
 20
-330.984
 10
186.43
 20
-331.675
 10
186.373
 20
-332.366
 10
186.203
 20
-333.039
 10
185.924
 20
-333.674
 10
185.545
 20
-334.255
 10
185.075
 20
-334.765
 10
184.527
 20
-335.191
 10
183.917
 20
-335.521
 10
183.261
 20
-335.747
 10
182.577
 20
-335.861
 10
181.883
 20
-335.861
  0
LWPOLYLINE
100
AcDbEntity
  8
0
100
AcDbPolyline
 90
4
 70
1
 10
265
 20
-303.2
 10
210
 20
-303.2
 10
210
 20
-343.2
 10
265
 20
-343.2
  0
LWPOLYLINE
100
AcDbEntity
  8
0
100
AcDbPolyline
 90
38
 70
1
 10
251.199
 20
-335.747
 10
250.543
 20
-335.521
 10
249.933
 20
-335.191
 10
249.386
 20
-334.765
 10
248.916
 20
-334.255
 10
248.536
 20
-333.674
 10
248.258
 20
-333.039
 10
248.088
 20
-332.366
 10
248.03
 20
-331.675
 10
248.088
 20
-330.984
 10
248.258
 20
-330.311
 10
248.536
 20
-329.676
 10
248.916
 20
-329.095
 10
249.386
 20
-328.585
 10
249.933
 20
-328.159
 10
250.543
 20
-327.829
 10
251.199
 20
-327.604
 10
251.883
 20
-327.49
 10
252.577
 20
-327.49
 10
253.261
 20
-327.604
 10
253.917
 20
-327.829
 10
254.527
 20
-328.159
 10
255.075
 20
-328.585
 10
255.545
 20
-329.095
 10
255.924
 20
-329.676
 10
256.203
 20
-330.311
 10
256.373
 20
-330.984
 10
256.43
 20
-331.675
 10
256.373
 20
-332.366
 10
256.203
 20
-333.039
 10
255.924
 20
-333.674
 10
255.545
 20
-334.255
 10
255.075
 20
-334.765
 10
254.527
 20
-335.191
 10
253.917
 20
-335.521
 10
253.261
 20
-335.747
 10
252.577
 20
-335.861
 10
251.883
 20
-335.861
  0
ENDSEC
  0
EOF
