999
DXF from OpenSCAD
  0
SECTION
  2
HEADER
  9
$ACADVER
  1
AC1006
  9
$INSBASE
 10
0.0
 20
0.0
 30
0.0
  9
$EXTMIN
 10
-395.5
 20
-332.8
  9
$EXTMAX
 10
265
 20
68
  9
$LINMIN
 10
-395.5
 20
-332.8
  9
$LINMAX
 10
265
 20
68
  0
ENDSEC
  0
SECTION
  2
TABLES
  0
TABLE
  2
LTYPE
 70
1
  0
LTYPE
  2
CONTINUOUS
 70
64
  3
Solid line
 72
65
 73
0
 40
0.000000
  0
ENDTAB
  0
TABLE
  2
LAYER
 70
6
  0
LAYER
  2
0
 70
64
 62
7
  6
CONTINUOUS
  0
ENDTAB
  0
TABLE
  2
STYLE
 70
0
  0
ENDTAB
  0
ENDSEC
  0
SECTION
  2
BLOCKS
  0
ENDSEC
  0
SECTION
  2
ENTITIES
  0
LWPOLYLINE
100
AcDbEntity
  8
0
100
AcDbPolyline
 90
4
 70
1
 10
25
 20
68
 10
-25
 20
68
 10
-25
 20
-152
 10
25
 20
-152
  0
LWPOLYLINE
100
AcDbEntity
  8
0
100
AcDbPolyline
 90
39
 70
1
 10
-0.850109
 20
47.8359
 10
-1.50707
 20
48.0262
 10
-2.125
 20
48.3194
 10
-2.68789
 20
48.7079
 10
-3.18117
 20
49.1817
 10
-3.59206
 20
49.7285
 10
-3.90991
 20
50.3341
 10
-4.1265
 20
50.9829
 10
-4.23622
 20
51.658
 10
-4.23622
 20
52.342
 10
-4.1265
 20
53.0171
 10
-3.90991
 20
53.6659
 10
-3.59206
 20
54.2715
 10
-3.18117
 20
54.8183
 10
-2.68789
 20
55.2921
 10
-2.125
 20
55.6806
 10
-1.50707
 20
55.9738
 10
-0.850109
 20
56.1641
 10
-0.17113
 20
56.2466
 10
0.512281
 20
56.219
 10
1.18242
 20
56.0822
 10
1.82194
 20
55.8397
 10
2.41428
 20
55.4977
 10
2.94408
 20
55.0651
 10
3.39763
 20
54.5532
 10
3.76319
 20
53.9751
 10
4.03128
 20
53.3458
 10
4.19496
 20
52.6817
 10
4.25
 20
52
 10
4.19496
 20
51.3183
 10
4.03128
 20
50.6542
 10
3.76319
 20
50.0249
 10
3.39763
 20
49.4468
 10
2.94408
 20
48.9349
 10
2.41428
 20
48.5023
 10
1.82194
 20
48.1603
 10
1.18242
 20
47.9178
 10
0.512281
 20
47.781
 10
-0.17113
 20
47.7534
  0
LWPOLYLINE
100
AcDbEntity
  8
0
100
AcDbPolyline
 90
35
 70
1
 10
-2.79803
 20
-4.38304
 10
-3.35726
 20
-3.97099
 10
-3.85659
 20
-3.48808
 10
-4.2871
 20
-2.94292
 10
-4.6411
 20
-2.34525
 10
-4.91228
 20
-1.70573
 10
-5.0958
 20
-1.03577
 10
-5.18839
 20
-0.347322
 10
-5.18839
 20
0.347322
 10
-5.0958
 20
1.03577
 10
-4.91228
 20
1.70573
 10
-4.6411
 20
2.34525
 10
-4.2871
 20
2.94292
 10
-3.85659
 20
3.48808
 10
-3.35726
 20
3.97099
 10
-2.79803
 20
4.38304
 10
-2.67584
 20
4.45
 10
2.67156
 20
4.45
 10
3.08453
 20
4.18636
 10
3.615
 20
3.73788
 10
4.08096
 20
3.2227
 10
4.47409
 20
2.65001
 10
4.78738
 20
2.03002
 10
5.01524
 20
1.37382
 10
5.1536
 20
0.693092
 10
5.2
 20
0
 10
5.1536
 20
-0.693092
 10
5.01524
 20
-1.37382
 10
4.78738
 20
-2.03002
 10
4.47409
 20
-2.65001
 10
4.08096
 20
-3.2227
 10
3.615
 20
-3.73788
 10
3.08453
 20
-4.18636
 10
2.67156
 20
-4.45
 10
-2.67584
 20
-4.45
  0
LWPOLYLINE
100
AcDbEntity
  8
0
100
AcDbPolyline
 90
72
 70
1
 10
-0.697246
 20
-135.97
 10
-1.38919
 20
-135.878
 10
-2.07055
 20
-135.727
 10
-2.73616
 20
-135.518
 10
-3.38095
 20
-135.25
 10
-4
 20
-134.928
 10
-4.58861
 20
-134.553
 10
-5.1423
 20
-134.128
 10
-5.65685
 20
-133.657
 10
-6.12836
 20
-133.142
 10
-6.55322
 20
-132.589
 10
-6.9282
 20
-132
 10
-7.25046
 20
-131.381
 10
-7.51754
 20
-130.736
 10
-7.72741
 20
-130.071
 10
-7.87846
 20
-129.389
 10
-7.96956
 20
-128.697
 10
-8
 20
-128
 10
-7.96956
 20
-127.303
 10
-7.87846
 20
-126.611
 10
-7.72741
 20
-125.929
 10
-7.51754
 20
-125.264
 10
-7.25046
 20
-124.619
 10
-6.9282
 20
-124
 10
-6.55322
 20
-123.411
 10
-6.12836
 20
-122.858
 10
-5.65685
 20
-122.343
 10
-5.1423
 20
-121.872
 10
-4.58861
 20
-121.447
 10
-4
 20
-121.072
 10
-3.38095
 20
-120.75
 10
-2.73616
 20
-120.482
 10
-2.07055
 20
-120.273
 10
-1.38919
 20
-120.122
 10
-0.697246
 20
-120.03
 10
0
 20
-120
 10
0.697246
 20
-120.03
 10
1.38919
 20
-120.122
 10
2.07055
 20
-120.273
 10
2.73616
 20
-120.482
 10
3.38095
 20
-120.75
 10
4
 20
-121.072
 10
4.58861
 20
-121.447
 10
5.1423
 20
-121.872
 10
5.65685
 20
-122.343
 10
6.12836
 20
-122.858
 10
6.55322
 20
-123.411
 10
6.9282
 20
-124
 10
7.25046
 20
-124.619
 10
7.51754
 20
-125.264
 10
7.72741
 20
-125.929
 10
7.87846
 20
-126.611
 10
7.96956
 20
-127.303
 10
8
 20
-128
 10
7.96956
 20
-128.697
 10
7.87846
 20
-129.389
 10
7.72741
 20
-130.071
 10
7.51754
 20
-130.736
 10
7.25046
 20
-131.381
 10
6.9282
 20
-132
 10
6.55322
 20
-132.589
 10
6.12836
 20
-133.142
 10
5.65685
 20
-133.657
 10
5.1423
 20
-134.128
 10
4.58861
 20
-134.553
 10
4
 20
-134.928
 10
3.38095
 20
-135.25
 10
2.73616
 20
-135.518
 10
2.07055
 20
-135.727
 10
1.38919
 20
-135.878
 10
0.697246
 20
-135.97
 10
0
 20
-136
  0
LWPOLYLINE
100
AcDbEntity
  8
0
100
AcDbPolyline
 90
4
 70
1
 10
182.2
 20
68
 10
132.2
 20
68
 10
132.2
 20
-152
 10
182.2
 20
-152
  0
LWPOLYLINE
100
AcDbEntity
  8
0
100
AcDbPolyline
 90
39
 70
1
 10
156.688
 20
47.781
 10
156.018
 20
47.9178
 10
155.378
 20
48.1603
 10
154.786
 20
48.5023
 10
154.256
 20
48.9349
 10
153.802
 20
49.4468
 10
153.437
 20
50.0249
 10
153.169
 20
50.6542
 10
153.005
 20
51.3183
 10
152.95
 20
52
 10
153.005
 20
52.6817
 10
153.169
 20
53.3458
 10
153.437
 20
53.9751
 10
153.802
 20
54.5532
 10
154.256
 20
55.0651
 10
154.786
 20
55.4977
 10
155.378
 20
55.8397
 10
156.018
 20
56.0822
 10
156.688
 20
56.219
 10
157.371
 20
56.2466
 10
158.05
 20
56.1641
 10
158.707
 20
55.9738
 10
159.325
 20
55.6806
 10
159.888
 20
55.2921
 10
160.381
 20
54.8183
 10
160.792
 20
54.2715
 10
161.11
 20
53.6659
 10
161.327
 20
53.0171
 10
161.436
 20
52.342
 10
161.436
 20
51.658
 10
161.327
 20
50.9829
 10
161.11
 20
50.3341
 10
160.792
 20
49.7285
 10
160.381
 20
49.1817
 10
159.888
 20
48.7079
 10
159.325
 20
48.3194
 10
158.707
 20
48.0262
 10
158.05
 20
47.8359
 10
157.371
 20
47.7534
  0
LWPOLYLINE
100
AcDbEntity
  8
0
100
AcDbPolyline
 90
35
 70
1
 10
154.115
 20
-4.18636
 10
153.585
 20
-3.73788
 10
153.119
 20
-3.2227
 10
152.726
 20
-2.65001
 10
152.413
 20
-2.03002
 10
152.185
 20
-1.37382
 10
152.046
 20
-0.693092
 10
152
 20
0
 10
152.046
 20
0.693092
 10
152.185
 20
1.37382
 10
152.413
 20
2.03002
 10
152.726
 20
2.65001
 10
153.119
 20
3.2227
 10
153.585
 20
3.73788
 10
154.115
 20
4.18636
 10
154.528
 20
4.45
 10
159.876
 20
4.45
 10
159.998
 20
4.38304
 10
160.557
 20
3.97099
 10
161.057
 20
3.48808
 10
161.487
 20
2.94292
 10
161.841
 20
2.34525
 10
162.112
 20
1.70573
 10
162.296
 20
1.03577
 10
162.388
 20
0.347322
 10
162.388
 20
-0.347322
 10
162.296
 20
-1.03577
 10
162.112
 20
-1.70573
 10
161.841
 20
-2.34525
 10
161.487
 20
-2.94292
 10
161.057
 20
-3.48808
 10
160.557
 20
-3.97099
 10
159.998
 20
-4.38304
 10
159.876
 20
-4.45
 10
154.528
 20
-4.45
  0
LWPOLYLINE
100
AcDbEntity
  8
0
100
AcDbPolyline
 90
72
 70
1
 10
156.503
 20
-135.97
 10
155.811
 20
-135.878
 10
155.129
 20
-135.727
 10
154.464
 20
-135.518
 10
153.819
 20
-135.25
 10
153.2
 20
-134.928
 10
152.611
 20
-134.553
 10
152.058
 20
-134.128
 10
151.543
 20
-133.657
 10
151.072
 20
-133.142
 10
150.647
 20
-132.589
 10
150.272
 20
-132
 10
149.95
 20
-131.381
 10
149.682
 20
-130.736
 10
149.473
 20
-130.071
 10
149.322
 20
-129.389
 10
149.23
 20
-128.697
 10
149.2
 20
-128
 10
149.23
 20
-127.303
 10
149.322
 20
-126.611
 10
149.473
 20
-125.929
 10
149.682
 20
-125.264
 10
149.95
 20
-124.619
 10
150.272
 20
-124
 10
150.647
 20
-123.411
 10
151.072
 20
-122.858
 10
151.543
 20
-122.343
 10
152.058
 20
-121.872
 10
152.611
 20
-121.447
 10
153.2
 20
-121.072
 10
153.819
 20
-120.75
 10
154.464
 20
-120.482
 10
155.129
 20
-120.273
 10
155.811
 20
-120.122
 10
156.503
 20
-120.03
 10
157.2
 20
-120
 10
157.897
 20
-120.03
 10
158.589
 20
-120.122
 10
159.271
 20
-120.273
 10
159.936
 20
-120.482
 10
160.581
 20
-120.75
 10
161.2
 20
-121.072
 10
161.789
 20
-121.447
 10
162.342
 20
-121.872
 10
162.857
 20
-122.343
 10
163.328
 20
-122.858
 10
163.753
 20
-123.411
 10
164.128
 20
-124
 10
164.45
 20
-124.619
 10
164.718
 20
-125.264
 10
164.927
 20
-125.929
 10
165.078
 20
-126.611
 10
165.17
 20
-127.303
 10
165.2
 20
-128
 10
165.17
 20
-128.697
 10
165.078
 20
-129.389
 10
164.927
 20
-130.071
 10
164.718
 20
-130.736
 10
164.45
 20
-131.381
 10
164.128
 20
-132
 10
163.753
 20
-132.589
 10
163.328
 20
-133.142
 10
162.857
 20
-133.657
 10
162.342
 20
-134.128
 10
161.789
 20
-134.553
 10
161.2
 20
-134.928
 10
160.581
 20
-135.25
 10
159.936
 20
-135.518
 10
159.271
 20
-135.727
 10
158.589
 20
-135.878
 10
157.897
 20
-135.97
 10
157.2
 20
-136
  0
LWPOLYLINE
100
AcDbEntity
  8
0
100
AcDbPolyline
 90
6
 70
1
 10
-355.5
 20
-217.653
 10
-355.5
 20
-44
 10
-395.5
 20
-44
 10
-395.5
 20
-217.653
 10
-385.5
 20
-227.653
 10
-365.5
 20
-227.653
  0
LWPOLYLINE
100
AcDbEntity
  8
0
100
AcDbPolyline
 90
70
 70
1
 10
-376.19
 20
-95.669
 10
-376.875
 20
-95.5763
 10
-377.548
 20
-95.4225
 10
-378.206
 20
-95.209
 10
-378.841
 20
-94.9375
 10
-379.449
 20
-94.6101
 10
-380.026
 20
-94.2294
 10
-380.566
 20
-93.7987
 10
-381.066
 20
-93.3212
 10
-381.52
 20
-92.8009
 10
-381.926
 20
-92.2419
 10
-382.281
 20
-91.6488
 10
-382.58
 20
-91.0263
 10
-382.823
 20
-90.3794
 10
-383.007
 20
-89.7134
 10
-383.13
 20
-89.0336
 10
-383.192
 20
-88.3455
 10
-383.192
 20
-62.6545
 10
-383.13
 20
-61.9664
 10
-383.007
 20
-61.2866
 10
-382.823
 20
-60.6206
 10
-382.58
 20
-59.9737
 10
-382.281
 20
-59.3512
 10
-381.926
 20
-58.7581
 10
-381.52
 20
-58.1991
 10
-381.066
 20
-57.6788
 10
-380.566
 20
-57.2013
 10
-380.026
 20
-56.7706
 10
-379.449
 20
-56.3899
 10
-378.841
 20
-56.0625
 10
-378.206
 20
-55.791
 10
-377.548
 20
-55.5775
 10
-376.875
 20
-55.4237
 10
-376.19
 20
-55.331
 10
-375.5
 20
-55.3
 10
-374.81
 20
-55.331
 10
-374.125
 20
-55.4237
 10
-373.452
 20
-55.5775
 10
-372.794
 20
-55.791
 10
-372.159
 20
-56.0625
 10
-371.551
 20
-56.3899
 10
-370.974
 20
-56.7706
 10
-370.434
 20
-57.2013
 10
-369.934
 20
-57.6788
 10
-369.48
 20
-58.1991
 10
-369.074
 20
-58.7581
 10
-368.719
 20
-59.3512
 10
-368.42
 20
-59.9737
 10
-368.177
 20
-60.6206
 10
-367.993
 20
-61.2866
 10
-367.87
 20
-61.9664
 10
-367.808
 20
-62.6545
 10
-367.808
 20
-88.3455
 10
-367.87
 20
-89.0336
 10
-367.993
 20
-89.7134
 10
-368.177
 20
-90.3794
 10
-368.42
 20
-91.0263
 10
-368.719
 20
-91.6488
 10
-369.074
 20
-92.2419
 10
-369.48
 20
-92.8009
 10
-369.934
 20
-93.3212
 10
-370.434
 20
-93.7987
 10
-370.974
 20
-94.2294
 10
-371.551
 20
-94.6101
 10
-372.159
 20
-94.9375
 10
-372.794
 20
-95.209
 10
-373.452
 20
-95.4225
 10
-374.125
 20
-95.5763
 10
-374.81
 20
-95.669
 10
-375.5
 20
-95.7
  0
LWPOLYLINE
100
AcDbEntity
  8
0
100
AcDbPolyline
 90
38
 70
1
 10
-376.191
 20
-158.734
 10
-376.864
 20
-158.564
 10
-377.499
 20
-158.285
 10
-378.08
 20
-157.906
 10
-378.59
 20
-157.436
 10
-379.016
 20
-156.889
 10
-379.346
 20
-156.279
 10
-379.571
 20
-155.622
 10
-379.686
 20
-154.938
 10
-379.686
 20
-154.245
 10
-379.571
 20
-153.56
 10
-379.346
 20
-152.904
 10
-379.016
 20
-152.294
 10
-378.59
 20
-151.747
 10
-378.08
 20
-151.277
 10
-377.499
 20
-150.898
 10
-376.864
 20
-150.619
 10
-376.191
 20
-150.449
 10
-375.5
 20
-150.391
 10
-374.809
 20
-150.449
 10
-374.136
 20
-150.619
 10
-373.501
 20
-150.898
 10
-372.92
 20
-151.277
 10
-372.41
 20
-151.747
 10
-371.984
 20
-152.294
 10
-371.654
 20
-152.904
 10
-371.429
 20
-153.56
 10
-371.314
 20
-154.245
 10
-371.314
 20
-154.938
 10
-371.429
 20
-155.622
 10
-371.654
 20
-156.279
 10
-371.984
 20
-156.889
 10
-372.41
 20
-157.436
 10
-372.92
 20
-157.906
 10
-373.501
 20
-158.285
 10
-374.136
 20
-158.564
 10
-374.809
 20
-158.734
 10
-375.5
 20
-158.791
  0
LWPOLYLINE
100
AcDbEntity
  8
0
100
AcDbPolyline
 90
90
 70
1
 10
-376.574
 20
-221.015
 10
-377.643
 20
-220.903
 10
-378.702
 20
-220.716
 10
-379.745
 20
-220.456
 10
-380.767
 20
-220.124
 10
-381.764
 20
-219.721
 10
-382.73
 20
-219.25
 10
-383.661
 20
-218.713
 10
-384.552
 20
-218.112
 10
-385.399
 20
-217.45
 10
-386.198
 20
-216.731
 10
-386.944
 20
-215.957
 10
-387.635
 20
-215.134
 10
-388.267
 20
-214.264
 10
-388.837
 20
-213.353
 10
-389.341
 20
-212.404
 10
-389.779
 20
-211.422
 10
-390.146
 20
-210.412
 10
-390.443
 20
-209.378
 10
-390.666
 20
-208.327
 10
-390.816
 20
-207.262
 10
-390.891
 20
-206.19
 10
-390.891
 20
-205.115
 10
-390.816
 20
-204.043
 10
-390.666
 20
-202.978
 10
-390.443
 20
-201.927
 10
-390.146
 20
-200.894
 10
-389.779
 20
-199.884
 10
-389.341
 20
-198.902
 10
-388.837
 20
-197.953
 10
-388.267
 20
-197.041
 10
-387.635
 20
-196.171
 10
-386.944
 20
-195.348
 10
-386.198
 20
-194.575
 10
-385.399
 20
-193.856
 10
-384.552
 20
-193.194
 10
-383.661
 20
-192.593
 10
-382.73
 20
-192.055
 10
-381.764
 20
-191.584
 10
-380.767
 20
-191.181
 10
-379.745
 20
-190.849
 10
-378.702
 20
-190.589
 10
-377.643
 20
-190.403
 10
-376.574
 20
-190.29
 10
-375.5
 20
-190.253
 10
-374.426
 20
-190.29
 10
-373.357
 20
-190.403
 10
-372.298
 20
-190.589
 10
-371.255
 20
-190.849
 10
-370.233
 20
-191.181
 10
-369.236
 20
-191.584
 10
-368.27
 20
-192.055
 10
-367.339
 20
-192.593
 10
-366.448
 20
-193.194
 10
-365.601
 20
-193.856
 10
-364.802
 20
-194.575
 10
-364.056
 20
-195.348
 10
-363.365
 20
-196.171
 10
-362.733
 20
-197.041
 10
-362.163
 20
-197.953
 10
-361.659
 20
-198.902
 10
-361.221
 20
-199.884
 10
-360.854
 20
-200.894
 10
-360.557
 20
-201.927
 10
-360.334
 20
-202.978
 10
-360.184
 20
-204.043
 10
-360.109
 20
-205.115
 10
-360.109
 20
-206.19
 10
-360.184
 20
-207.262
 10
-360.334
 20
-208.327
 10
-360.557
 20
-209.378
 10
-360.854
 20
-210.412
 10
-361.221
 20
-211.422
 10
-361.659
 20
-212.404
 10
-362.163
 20
-213.353
 10
-362.733
 20
-214.264
 10
-363.365
 20
-215.134
 10
-364.056
 20
-215.957
 10
-364.802
 20
-216.731
 10
-365.601
 20
-217.45
 10
-366.448
 20
-218.112
 10
-367.339
 20
-218.713
 10
-368.27
 20
-219.25
 10
-369.236
 20
-219.721
 10
-370.233
 20
-220.124
 10
-371.255
 20
-220.456
 10
-372.298
 20
-220.716
 10
-373.357
 20
-220.903
 10
-374.426
 20
-221.015
 10
-375.5
 20
-221.053
  0
LWPOLYLINE
100
AcDbEntity
  8
0
100
AcDbPolyline
 90
6
 70
1
 10
-265.5
 20
-217.653
 10
-265.5
 20
-44
 10
-305.5
 20
-44
 10
-305.5
 20
-217.653
 10
-295.5
 20
-227.653
 10
-275.5
 20
-227.653
  0
LWPOLYLINE
100
AcDbEntity
  8
0
100
AcDbPolyline
 90
70
 70
1
 10
-286.19
 20
-95.669
 10
-286.875
 20
-95.5763
 10
-287.548
 20
-95.4225
 10
-288.206
 20
-95.209
 10
-288.841
 20
-94.9375
 10
-289.449
 20
-94.6101
 10
-290.026
 20
-94.2294
 10
-290.566
 20
-93.7987
 10
-291.066
 20
-93.3212
 10
-291.52
 20
-92.8009
 10
-291.926
 20
-92.2419
 10
-292.281
 20
-91.6488
 10
-292.58
 20
-91.0263
 10
-292.823
 20
-90.3794
 10
-293.007
 20
-89.7134
 10
-293.13
 20
-89.0336
 10
-293.192
 20
-88.3455
 10
-293.192
 20
-62.6545
 10
-293.13
 20
-61.9664
 10
-293.007
 20
-61.2866
 10
-292.823
 20
-60.6206
 10
-292.58
 20
-59.9737
 10
-292.281
 20
-59.3512
 10
-291.926
 20
-58.7581
 10
-291.52
 20
-58.1991
 10
-291.066
 20
-57.6788
 10
-290.566
 20
-57.2013
 10
-290.026
 20
-56.7706
 10
-289.449
 20
-56.3899
 10
-288.841
 20
-56.0625
 10
-288.206
 20
-55.791
 10
-287.548
 20
-55.5775
 10
-286.875
 20
-55.4237
 10
-286.19
 20
-55.331
 10
-285.5
 20
-55.3
 10
-284.81
 20
-55.331
 10
-284.125
 20
-55.4237
 10
-283.452
 20
-55.5775
 10
-282.794
 20
-55.791
 10
-282.159
 20
-56.0625
 10
-281.551
 20
-56.3899
 10
-280.974
 20
-56.7706
 10
-280.434
 20
-57.2013
 10
-279.934
 20
-57.6788
 10
-279.48
 20
-58.1991
 10
-279.074
 20
-58.7581
 10
-278.719
 20
-59.3512
 10
-278.42
 20
-59.9737
 10
-278.177
 20
-60.6206
 10
-277.993
 20
-61.2866
 10
-277.87
 20
-61.9664
 10
-277.808
 20
-62.6545
 10
-277.808
 20
-88.3455
 10
-277.87
 20
-89.0336
 10
-277.993
 20
-89.7134
 10
-278.177
 20
-90.3794
 10
-278.42
 20
-91.0263
 10
-278.719
 20
-91.6488
 10
-279.074
 20
-92.2419
 10
-279.48
 20
-92.8009
 10
-279.934
 20
-93.3212
 10
-280.434
 20
-93.7987
 10
-280.974
 20
-94.2294
 10
-281.551
 20
-94.6101
 10
-282.159
 20
-94.9375
 10
-282.794
 20
-95.209
 10
-283.452
 20
-95.4225
 10
-284.125
 20
-95.5763
 10
-284.81
 20
-95.669
 10
-285.5
 20
-95.7
  0
LWPOLYLINE
100
AcDbEntity
  8
0
100
AcDbPolyline
 90
38
 70
1
 10
-286.191
 20
-158.734
 10
-286.864
 20
-158.564
 10
-287.499
 20
-158.285
 10
-288.08
 20
-157.906
 10
-288.59
 20
-157.436
 10
-289.016
 20
-156.889
 10
-289.346
 20
-156.279
 10
-289.571
 20
-155.622
 10
-289.686
 20
-154.938
 10
-289.686
 20
-154.245
 10
-289.571
 20
-153.56
 10
-289.346
 20
-152.904
 10
-289.016
 20
-152.294
 10
-288.59
 20
-151.747
 10
-288.08
 20
-151.277
 10
-287.499
 20
-150.898
 10
-286.864
 20
-150.619
 10
-286.191
 20
-150.449
 10
-285.5
 20
-150.391
 10
-284.809
 20
-150.449
 10
-284.136
 20
-150.619
 10
-283.501
 20
-150.898
 10
-282.92
 20
-151.277
 10
-282.41
 20
-151.747
 10
-281.984
 20
-152.294
 10
-281.654
 20
-152.904
 10
-281.429
 20
-153.56
 10
-281.314
 20
-154.245
 10
-281.314
 20
-154.938
 10
-281.429
 20
-155.622
 10
-281.654
 20
-156.279
 10
-281.984
 20
-156.889
 10
-282.41
 20
-157.436
 10
-282.92
 20
-157.906
 10
-283.501
 20
-158.285
 10
-284.136
 20
-158.564
 10
-284.809
 20
-158.734
 10
-285.5
 20
-158.791
  0
LWPOLYLINE
100
AcDbEntity
  8
0
100
AcDbPolyline
 90
90
 70
1
 10
-286.574
 20
-221.015
 10
-287.643
 20
-220.903
 10
-288.702
 20
-220.716
 10
-289.745
 20
-220.456
 10
-290.767
 20
-220.124
 10
-291.764
 20
-219.721
 10
-292.73
 20
-219.25
 10
-293.661
 20
-218.713
 10
-294.552
 20
-218.112
 10
-295.399
 20
-217.45
 10
-296.198
 20
-216.731
 10
-296.944
 20
-215.957
 10
-297.635
 20
-215.134
 10
-298.267
 20
-214.264
 10
-298.837
 20
-213.353
 10
-299.341
 20
-212.404
 10
-299.779
 20
-211.422
 10
-300.146
 20
-210.412
 10
-300.443
 20
-209.378
 10
-300.666
 20
-208.327
 10
-300.816
 20
-207.262
 10
-300.891
 20
-206.19
 10
-300.891
 20
-205.115
 10
-300.816
 20
-204.043
 10
-300.666
 20
-202.978
 10
-300.443
 20
-201.927
 10
-300.146
 20
-200.894
 10
-299.779
 20
-199.884
 10
-299.341
 20
-198.902
 10
-298.837
 20
-197.953
 10
-298.267
 20
-197.041
 10
-297.635
 20
-196.171
 10
-296.944
 20
-195.348
 10
-296.198
 20
-194.575
 10
-295.399
 20
-193.856
 10
-294.552
 20
-193.194
 10
-293.661
 20
-192.593
 10
-292.73
 20
-192.055
 10
-291.764
 20
-191.584
 10
-290.767
 20
-191.181
 10
-289.745
 20
-190.849
 10
-288.702
 20
-190.589
 10
-287.643
 20
-190.403
 10
-286.574
 20
-190.29
 10
-285.5
 20
-190.253
 10
-284.426
 20
-190.29
 10
-283.357
 20
-190.403
 10
-282.298
 20
-190.589
 10
-281.255
 20
-190.849
 10
-280.233
 20
-191.181
 10
-279.236
 20
-191.584
 10
-278.27
 20
-192.055
 10
-277.339
 20
-192.593
 10
-276.448
 20
-193.194
 10
-275.601
 20
-193.856
 10
-274.802
 20
-194.575
 10
-274.056
 20
-195.348
 10
-273.365
 20
-196.171
 10
-272.733
 20
-197.041
 10
-272.163
 20
-197.953
 10
-271.659
 20
-198.902
 10
-271.221
 20
-199.884
 10
-270.854
 20
-200.894
 10
-270.557
 20
-201.927
 10
-270.334
 20
-202.978
 10
-270.184
 20
-204.043
 10
-270.109
 20
-205.115
 10
-270.109
 20
-206.19
 10
-270.184
 20
-207.262
 10
-270.334
 20
-208.327
 10
-270.557
 20
-209.378
 10
-270.854
 20
-210.412
 10
-271.221
 20
-211.422
 10
-271.659
 20
-212.404
 10
-272.163
 20
-213.353
 10
-272.733
 20
-214.264
 10
-273.365
 20
-215.134
 10
-274.056
 20
-215.957
 10
-274.802
 20
-216.731
 10
-275.601
 20
-217.45
 10
-276.448
 20
-218.112
 10
-277.339
 20
-218.713
 10
-278.27
 20
-219.25
 10
-279.236
 20
-219.721
 10
-280.233
 20
-220.124
 10
-281.255
 20
-220.456
 10
-282.298
 20
-220.716
 10
-283.357
 20
-220.903
 10
-284.426
 20
-221.015
 10
-285.5
 20
-221.053
  0
LWPOLYLINE
100
AcDbEntity
  8
0
100
AcDbPolyline
 90
6
 70
1
 10
-175.5
 20
-217.653
 10
-175.5
 20
-62
 10
-215.5
 20
-62
 10
-215.5
 20
-217.653
 10
-205.5
 20
-227.653
 10
-185.5
 20
-227.653
  0
LWPOLYLINE
100
AcDbEntity
  8
0
100
AcDbPolyline
 90
70
 70
1
 10
-196.19
 20
-95.669
 10
-196.875
 20
-95.5763
 10
-197.548
 20
-95.4225
 10
-198.206
 20
-95.209
 10
-198.841
 20
-94.9375
 10
-199.449
 20
-94.6101
 10
-200.026
 20
-94.2294
 10
-200.566
 20
-93.7987
 10
-201.066
 20
-93.3212
 10
-201.52
 20
-92.8009
 10
-201.926
 20
-92.2419
 10
-202.281
 20
-91.6488
 10
-202.58
 20
-91.0263
 10
-202.823
 20
-90.3794
 10
-203.007
 20
-89.7134
 10
-203.13
 20
-89.0336
 10
-203.192
 20
-88.3455
 10
-203.192
 20
-87.6545
 10
-203.13
 20
-86.9664
 10
-203.007
 20
-86.2866
 10
-202.823
 20
-85.6206
 10
-202.58
 20
-84.9737
 10
-202.281
 20
-84.3512
 10
-201.926
 20
-83.7581
 10
-201.52
 20
-83.1991
 10
-201.066
 20
-82.6788
 10
-200.566
 20
-82.2013
 10
-200.026
 20
-81.7706
 10
-199.449
 20
-81.3899
 10
-198.841
 20
-81.0625
 10
-198.206
 20
-80.791
 10
-197.548
 20
-80.5775
 10
-196.875
 20
-80.4237
 10
-196.19
 20
-80.331
 10
-195.5
 20
-80.3
 10
-194.81
 20
-80.331
 10
-194.125
 20
-80.4237
 10
-193.452
 20
-80.5775
 10
-192.794
 20
-80.791
 10
-192.159
 20
-81.0625
 10
-191.551
 20
-81.3899
 10
-190.974
 20
-81.7706
 10
-190.434
 20
-82.2013
 10
-189.934
 20
-82.6788
 10
-189.48
 20
-83.1991
 10
-189.074
 20
-83.7581
 10
-188.719
 20
-84.3512
 10
-188.42
 20
-84.9737
 10
-188.177
 20
-85.6206
 10
-187.993
 20
-86.2866
 10
-187.87
 20
-86.9664
 10
-187.808
 20
-87.6545
 10
-187.808
 20
-88.3455
 10
-187.87
 20
-89.0336
 10
-187.993
 20
-89.7134
 10
-188.177
 20
-90.3794
 10
-188.42
 20
-91.0263
 10
-188.719
 20
-91.6488
 10
-189.074
 20
-92.2419
 10
-189.48
 20
-92.8009
 10
-189.934
 20
-93.3212
 10
-190.434
 20
-93.7987
 10
-190.974
 20
-94.2294
 10
-191.551
 20
-94.6101
 10
-192.159
 20
-94.9375
 10
-192.794
 20
-95.209
 10
-193.452
 20
-95.4225
 10
-194.125
 20
-95.5763
 10
-194.81
 20
-95.669
 10
-195.5
 20
-95.7
  0
LWPOLYLINE
100
AcDbEntity
  8
0
100
AcDbPolyline
 90
38
 70
1
 10
-196.191
 20
-158.734
 10
-196.864
 20
-158.564
 10
-197.499
 20
-158.285
 10
-198.08
 20
-157.906
 10
-198.59
 20
-157.436
 10
-199.016
 20
-156.889
 10
-199.346
 20
-156.279
 10
-199.571
 20
-155.622
 10
-199.686
 20
-154.938
 10
-199.686
 20
-154.245
 10
-199.571
 20
-153.56
 10
-199.346
 20
-152.904
 10
-199.016
 20
-152.294
 10
-198.59
 20
-151.747
 10
-198.08
 20
-151.277
 10
-197.499
 20
-150.898
 10
-196.864
 20
-150.619
 10
-196.191
 20
-150.449
 10
-195.5
 20
-150.391
 10
-194.809
 20
-150.449
 10
-194.136
 20
-150.619
 10
-193.501
 20
-150.898
 10
-192.92
 20
-151.277
 10
-192.41
 20
-151.747
 10
-191.984
 20
-152.294
 10
-191.654
 20
-152.904
 10
-191.429
 20
-153.56
 10
-191.314
 20
-154.245
 10
-191.314
 20
-154.938
 10
-191.429
 20
-155.622
 10
-191.654
 20
-156.279
 10
-191.984
 20
-156.889
 10
-192.41
 20
-157.436
 10
-192.92
 20
-157.906
 10
-193.501
 20
-158.285
 10
-194.136
 20
-158.564
 10
-194.809
 20
-158.734
 10
-195.5
 20
-158.791
  0
LWPOLYLINE
100
AcDbEntity
  8
0
100
AcDbPolyline
 90
90
 70
1
 10
-196.574
 20
-221.015
 10
-197.643
 20
-220.903
 10
-198.702
 20
-220.716
 10
-199.745
 20
-220.456
 10
-200.767
 20
-220.124
 10
-201.764
 20
-219.721
 10
-202.73
 20
-219.25
 10
-203.661
 20
-218.713
 10
-204.552
 20
-218.112
 10
-205.399
 20
-217.45
 10
-206.198
 20
-216.731
 10
-206.944
 20
-215.957
 10
-207.635
 20
-215.134
 10
-208.267
 20
-214.264
 10
-208.837
 20
-213.353
 10
-209.341
 20
-212.404
 10
-209.779
 20
-211.422
 10
-210.146
 20
-210.412
 10
-210.443
 20
-209.378
 10
-210.666
 20
-208.327
 10
-210.816
 20
-207.262
 10
-210.891
 20
-206.19
 10
-210.891
 20
-205.115
 10
-210.816
 20
-204.043
 10
-210.666
 20
-202.978
 10
-210.443
 20
-201.927
 10
-210.146
 20
-200.894
 10
-209.779
 20
-199.884
 10
-209.341
 20
-198.902
 10
-208.837
 20
-197.953
 10
-208.267
 20
-197.041
 10
-207.635
 20
-196.171
 10
-206.944
 20
-195.348
 10
-206.198
 20
-194.575
 10
-205.399
 20
-193.856
 10
-204.552
 20
-193.194
 10
-203.661
 20
-192.593
 10
-202.73
 20
-192.055
 10
-201.764
 20
-191.584
 10
-200.767
 20
-191.181
 10
-199.745
 20
-190.849
 10
-198.702
 20
-190.589
 10
-197.643
 20
-190.403
 10
-196.574
 20
-190.29
 10
-195.5
 20
-190.253
 10
-194.426
 20
-190.29
 10
-193.357
 20
-190.403
 10
-192.298
 20
-190.589
 10
-191.255
 20
-190.849
 10
-190.233
 20
-191.181
 10
-189.236
 20
-191.584
 10
-188.27
 20
-192.055
 10
-187.339
 20
-192.593
 10
-186.448
 20
-193.194
 10
-185.601
 20
-193.856
 10
-184.802
 20
-194.575
 10
-184.056
 20
-195.348
 10
-183.365
 20
-196.171
 10
-182.733
 20
-197.041
 10
-182.163
 20
-197.953
 10
-181.659
 20
-198.902
 10
-181.221
 20
-199.884
 10
-180.854
 20
-200.894
 10
-180.557
 20
-201.927
 10
-180.334
 20
-202.978
 10
-180.184
 20
-204.043
 10
-180.109
 20
-205.115
 10
-180.109
 20
-206.19
 10
-180.184
 20
-207.262
 10
-180.334
 20
-208.327
 10
-180.557
 20
-209.378
 10
-180.854
 20
-210.412
 10
-181.221
 20
-211.422
 10
-181.659
 20
-212.404
 10
-182.163
 20
-213.353
 10
-182.733
 20
-214.264
 10
-183.365
 20
-215.134
 10
-184.056
 20
-215.957
 10
-184.802
 20
-216.731
 10
-185.601
 20
-217.45
 10
-186.448
 20
-218.112
 10
-187.339
 20
-218.713
 10
-188.27
 20
-219.25
 10
-189.236
 20
-219.721
 10
-190.233
 20
-220.124
 10
-191.255
 20
-220.456
 10
-192.298
 20
-220.716
 10
-193.357
 20
-220.903
 10
-194.426
 20
-221.015
 10
-195.5
 20
-221.053
  0
LWPOLYLINE
100
AcDbEntity
  8
0
100
AcDbPolyline
 90
6
 70
1
 10
-85.5
 20
-217.653
 10
-85.5
 20
-62
 10
-125.5
 20
-62
 10
-125.5
 20
-217.653
 10
-115.5
 20
-227.653
 10
-95.5
 20
-227.653
  0
LWPOLYLINE
100
AcDbEntity
  8
0
100
AcDbPolyline
 90
70
 70
1
 10
-106.19
 20
-95.669
 10
-106.875
 20
-95.5763
 10
-107.548
 20
-95.4225
 10
-108.206
 20
-95.209
 10
-108.841
 20
-94.9375
 10
-109.449
 20
-94.6101
 10
-110.026
 20
-94.2294
 10
-110.566
 20
-93.7987
 10
-111.066
 20
-93.3212
 10
-111.52
 20
-92.8009
 10
-111.926
 20
-92.2419
 10
-112.281
 20
-91.6488
 10
-112.58
 20
-91.0263
 10
-112.823
 20
-90.3794
 10
-113.007
 20
-89.7134
 10
-113.13
 20
-89.0336
 10
-113.192
 20
-88.3455
 10
-113.192
 20
-87.6545
 10
-113.13
 20
-86.9664
 10
-113.007
 20
-86.2866
 10
-112.823
 20
-85.6206
 10
-112.58
 20
-84.9737
 10
-112.281
 20
-84.3512
 10
-111.926
 20
-83.7581
 10
-111.52
 20
-83.1991
 10
-111.066
 20
-82.6788
 10
-110.566
 20
-82.2013
 10
-110.026
 20
-81.7706
 10
-109.449
 20
-81.3899
 10
-108.841
 20
-81.0625
 10
-108.206
 20
-80.791
 10
-107.548
 20
-80.5775
 10
-106.875
 20
-80.4237
 10
-106.19
 20
-80.331
 10
-105.5
 20
-80.3
 10
-104.81
 20
-80.331
 10
-104.125
 20
-80.4237
 10
-103.452
 20
-80.5775
 10
-102.794
 20
-80.791
 10
-102.159
 20
-81.0625
 10
-101.551
 20
-81.3899
 10
-100.974
 20
-81.7706
 10
-100.434
 20
-82.2013
 10
-99.9345
 20
-82.6788
 10
-99.4799
 20
-83.1991
 10
-99.0738
 20
-83.7581
 10
-98.7194
 20
-84.3512
 10
-98.4196
 20
-84.9737
 10
-98.1769
 20
-85.6206
 10
-97.9931
 20
-86.2866
 10
-97.8697
 20
-86.9664
 10
-97.8078
 20
-87.6545
 10
-97.8078
 20
-88.3455
 10
-97.8697
 20
-89.0336
 10
-97.9931
 20
-89.7134
 10
-98.1769
 20
-90.3794
 10
-98.4196
 20
-91.0263
 10
-98.7194
 20
-91.6488
 10
-99.0738
 20
-92.2419
 10
-99.4799
 20
-92.8009
 10
-99.9345
 20
-93.3212
 10
-100.434
 20
-93.7987
 10
-100.974
 20
-94.2294
 10
-101.551
 20
-94.6101
 10
-102.159
 20
-94.9375
 10
-102.794
 20
-95.209
 10
-103.452
 20
-95.4225
 10
-104.125
 20
-95.5763
 10
-104.81
 20
-95.669
 10
-105.5
 20
-95.7
  0
LWPOLYLINE
100
AcDbEntity
  8
0
100
AcDbPolyline
 90
38
 70
1
 10
-106.191
 20
-158.734
 10
-106.864
 20
-158.564
 10
-107.499
 20
-158.285
 10
-108.08
 20
-157.906
 10
-108.59
 20
-157.436
 10
-109.016
 20
-156.889
 10
-109.346
 20
-156.279
 10
-109.571
 20
-155.622
 10
-109.686
 20
-154.938
 10
-109.686
 20
-154.245
 10
-109.571
 20
-153.56
 10
-109.346
 20
-152.904
 10
-109.016
 20
-152.294
 10
-108.59
 20
-151.747
 10
-108.08
 20
-151.277
 10
-107.499
 20
-150.898
 10
-106.864
 20
-150.619
 10
-106.191
 20
-150.449
 10
-105.5
 20
-150.391
 10
-104.809
 20
-150.449
 10
-104.136
 20
-150.619
 10
-103.501
 20
-150.898
 10
-102.92
 20
-151.277
 10
-102.41
 20
-151.747
 10
-101.984
 20
-152.294
 10
-101.654
 20
-152.904
 10
-101.429
 20
-153.56
 10
-101.314
 20
-154.245
 10
-101.314
 20
-154.938
 10
-101.429
 20
-155.622
 10
-101.654
 20
-156.279
 10
-101.984
 20
-156.889
 10
-102.41
 20
-157.436
 10
-102.92
 20
-157.906
 10
-103.501
 20
-158.285
 10
-104.136
 20
-158.564
 10
-104.809
 20
-158.734
 10
-105.5
 20
-158.791
  0
LWPOLYLINE
100
AcDbEntity
  8
0
100
AcDbPolyline
 90
90
 70
1
 10
-106.574
 20
-221.015
 10
-107.643
 20
-220.903
 10
-108.702
 20
-220.716
 10
-109.745
 20
-220.456
 10
-110.767
 20
-220.124
 10
-111.764
 20
-219.721
 10
-112.73
 20
-219.25
 10
-113.661
 20
-218.713
 10
-114.552
 20
-218.112
 10
-115.399
 20
-217.45
 10
-116.198
 20
-216.731
 10
-116.944
 20
-215.957
 10
-117.635
 20
-215.134
 10
-118.267
 20
-214.264
 10
-118.837
 20
-213.353
 10
-119.341
 20
-212.404
 10
-119.779
 20
-211.422
 10
-120.146
 20
-210.412
 10
-120.443
 20
-209.378
 10
-120.666
 20
-208.327
 10
-120.816
 20
-207.262
 10
-120.891
 20
-206.19
 10
-120.891
 20
-205.115
 10
-120.816
 20
-204.043
 10
-120.666
 20
-202.978
 10
-120.443
 20
-201.927
 10
-120.146
 20
-200.894
 10
-119.779
 20
-199.884
 10
-119.341
 20
-198.902
 10
-118.837
 20
-197.953
 10
-118.267
 20
-197.041
 10
-117.635
 20
-196.171
 10
-116.944
 20
-195.348
 10
-116.198
 20
-194.575
 10
-115.399
 20
-193.856
 10
-114.552
 20
-193.194
 10
-113.661
 20
-192.593
 10
-112.73
 20
-192.055
 10
-111.764
 20
-191.584
 10
-110.767
 20
-191.181
 10
-109.745
 20
-190.849
 10
-108.702
 20
-190.589
 10
-107.643
 20
-190.403
 10
-106.574
 20
-190.29
 10
-105.5
 20
-190.253
 10
-104.426
 20
-190.29
 10
-103.357
 20
-190.403
 10
-102.298
 20
-190.589
 10
-101.255
 20
-190.849
 10
-100.233
 20
-191.181
 10
-99.2363
 20
-191.584
 10
-98.2701
 20
-192.055
 10
-97.3392
 20
-192.593
 10
-96.4481
 20
-193.194
 10
-95.6011
 20
-193.856
 10
-94.8023
 20
-194.575
 10
-94.0556
 20
-195.348
 10
-93.3646
 20
-196.171
 10
-92.7328
 20
-197.041
 10
-92.1632
 20
-197.953
 10
-91.6586
 20
-198.902
 10
-91.2214
 20
-199.884
 10
-90.8537
 20
-200.894
 10
-90.5574
 20
-201.927
 10
-90.334
 20
-202.978
 10
-90.1844
 20
-204.043
 10
-90.1094
 20
-205.115
 10
-90.1094
 20
-206.19
 10
-90.1844
 20
-207.262
 10
-90.334
 20
-208.327
 10
-90.5574
 20
-209.378
 10
-90.8537
 20
-210.412
 10
-91.2214
 20
-211.422
 10
-91.6586
 20
-212.404
 10
-92.1632
 20
-213.353
 10
-92.7328
 20
-214.264
 10
-93.3646
 20
-215.134
 10
-94.0556
 20
-215.957
 10
-94.8023
 20
-216.731
 10
-95.6011
 20
-217.45
 10
-96.4481
 20
-218.112
 10
-97.3392
 20
-218.713
 10
-98.2701
 20
-219.25
 10
-99.2363
 20
-219.721
 10
-100.233
 20
-220.124
 10
-101.255
 20
-220.456
 10
-102.298
 20
-220.716
 10
-103.357
 20
-220.903
 10
-104.426
 20
-221.015
 10
-105.5
 20
-221.053
  0
LWPOLYLINE
100
AcDbEntity
  8
0
100
AcDbPolyline
 90
4
 70
1
 10
55
 20
-292.8
 10
0
 20
-292.8
 10
0
 20
-332.8
 10
55
 20
-332.8
  0
LWPOLYLINE
100
AcDbEntity
  8
0
100
AcDbPolyline
 90
38
 70
1
 10
43.0287
 20
-314.432
 10
42.3726
 20
-314.207
 10
41.7625
 20
-313.877
 10
41.2151
 20
-313.451
 10
40.7453
 20
-312.941
 10
40.3659
 20
-312.36
 10
40.0873
 20
-311.725
 10
39.917
 20
-311.052
 10
39.8597
 20
-310.361
 10
39.917
 20
-309.67
 10
40.0873
 20
-308.997
 10
40.3659
 20
-308.362
 10
40.7453
 20
-307.781
 10
41.2151
 20
-307.271
 10
41.7625
 20
-306.845
 10
42.3726
 20
-306.515
 10
43.0287
 20
-306.289
 10
43.7129
 20
-306.175
 10
44.4065
 20
-306.175
 10
45.0908
 20
-306.289
 10
45.7468
 20
-306.515
 10
46.3569
 20
-306.845
 10
46.9043
 20
-307.271
 10
47.3741
 20
-307.781
 10
47.7535
 20
-308.362
 10
48.0321
 20
-308.997
 10
48.2024
 20
-309.67
 10
48.2597
 20
-310.361
 10
48.2024
 20
-311.052
 10
48.0321
 20
-311.725
 10
47.7535
 20
-312.36
 10
47.3741
 20
-312.941
 10
46.9043
 20
-313.451
 10
46.3569
 20
-313.877
 10
45.7468
 20
-314.207
 10
45.0908
 20
-314.432
 10
44.4065
 20
-314.547
 10
43.7129
 20
-314.547
  0
LWPOLYLINE
100
AcDbEntity
  8
0
100
AcDbPolyline
 90
4
 70
1
 10
125
 20
-292.8
 10
70
 20
-292.8
 10
70
 20
-332.8
 10
125
 20
-332.8
  0
LWPOLYLINE
100
AcDbEntity
  8
0
100
AcDbPolyline
 90
38
 70
1
 10
113.029
 20
-314.432
 10
112.373
 20
-314.207
 10
111.763
 20
-313.877
 10
111.215
 20
-313.451
 10
110.745
 20
-312.941
 10
110.366
 20
-312.36
 10
110.087
 20
-311.725
 10
109.917
 20
-311.052
 10
109.86
 20
-310.361
 10
109.917
 20
-309.67
 10
110.087
 20
-308.997
 10
110.366
 20
-308.362
 10
110.745
 20
-307.781
 10
111.215
 20
-307.271
 10
111.763
 20
-306.845
 10
112.373
 20
-306.515
 10
113.029
 20
-306.289
 10
113.713
 20
-306.175
 10
114.407
 20
-306.175
 10
115.091
 20
-306.289
 10
115.747
 20
-306.515
 10
116.357
 20
-306.845
 10
116.904
 20
-307.271
 10
117.374
 20
-307.781
 10
117.754
 20
-308.362
 10
118.032
 20
-308.997
 10
118.202
 20
-309.67
 10
118.26
 20
-310.361
 10
118.202
 20
-311.052
 10
118.032
 20
-311.725
 10
117.754
 20
-312.36
 10
117.374
 20
-312.941
 10
116.904
 20
-313.451
 10
116.357
 20
-313.877
 10
115.747
 20
-314.207
 10
115.091
 20
-314.432
 10
114.407
 20
-314.547
 10
113.713
 20
-314.547
  0
LWPOLYLINE
100
AcDbEntity
  8
0
100
AcDbPolyline
 90
4
 70
1
 10
195
 20
-292.8
 10
140
 20
-292.8
 10
140
 20
-332.8
 10
195
 20
-332.8
  0
LWPOLYLINE
100
AcDbEntity
  8
0
100
AcDbPolyline
 90
38
 70
1
 10
183.029
 20
-314.432
 10
182.373
 20
-314.207
 10
181.763
 20
-313.877
 10
181.215
 20
-313.451
 10
180.745
 20
-312.941
 10
180.366
 20
-312.36
 10
180.087
 20
-311.725
 10
179.917
 20
-311.052
 10
179.86
 20
-310.361
 10
179.917
 20
-309.67
 10
180.087
 20
-308.997
 10
180.366
 20
-308.362
 10
180.745
 20
-307.781
 10
181.215
 20
-307.271
 10
181.763
 20
-306.845
 10
182.373
 20
-306.515
 10
183.029
 20
-306.289
 10
183.713
 20
-306.175
 10
184.407
 20
-306.175
 10
185.091
 20
-306.289
 10
185.747
 20
-306.515
 10
186.357
 20
-306.845
 10
186.904
 20
-307.271
 10
187.374
 20
-307.781
 10
187.754
 20
-308.362
 10
188.032
 20
-308.997
 10
188.202
 20
-309.67
 10
188.26
 20
-310.361
 10
188.202
 20
-311.052
 10
188.032
 20
-311.725
 10
187.754
 20
-312.36
 10
187.374
 20
-312.941
 10
186.904
 20
-313.451
 10
186.357
 20
-313.877
 10
185.747
 20
-314.207
 10
185.091
 20
-314.432
 10
184.407
 20
-314.547
 10
183.713
 20
-314.547
  0
LWPOLYLINE
100
AcDbEntity
  8
0
100
AcDbPolyline
 90
4
 70
1
 10
265
 20
-292.8
 10
210
 20
-292.8
 10
210
 20
-332.8
 10
265
 20
-332.8
  0
LWPOLYLINE
100
AcDbEntity
  8
0
100
AcDbPolyline
 90
38
 70
1
 10
253.029
 20
-314.432
 10
252.373
 20
-314.207
 10
251.763
 20
-313.877
 10
251.215
 20
-313.451
 10
250.745
 20
-312.941
 10
250.366
 20
-312.36
 10
250.087
 20
-311.725
 10
249.917
 20
-311.052
 10
249.86
 20
-310.361
 10
249.917
 20
-309.67
 10
250.087
 20
-308.997
 10
250.366
 20
-308.362
 10
250.745
 20
-307.781
 10
251.215
 20
-307.271
 10
251.763
 20
-306.845
 10
252.373
 20
-306.515
 10
253.029
 20
-306.289
 10
253.713
 20
-306.175
 10
254.407
 20
-306.175
 10
255.091
 20
-306.289
 10
255.747
 20
-306.515
 10
256.357
 20
-306.845
 10
256.904
 20
-307.271
 10
257.374
 20
-307.781
 10
257.754
 20
-308.362
 10
258.032
 20
-308.997
 10
258.202
 20
-309.67
 10
258.26
 20
-310.361
 10
258.202
 20
-311.052
 10
258.032
 20
-311.725
 10
257.754
 20
-312.36
 10
257.374
 20
-312.941
 10
256.904
 20
-313.451
 10
256.357
 20
-313.877
 10
255.747
 20
-314.207
 10
255.091
 20
-314.432
 10
254.407
 20
-314.547
 10
253.713
 20
-314.547
  0
ENDSEC
  0
EOF
