999
DXF from OpenSCAD
  0
SECTION
  2
HEADER
  9
$ACADVER
  1
AC1006
  9
$INSBASE
 10
0.0
 20
0.0
 30
0.0
  9
$EXTMIN
 10
5
 20
-270
  9
$EXTMAX
 10
461
 20
42.038
  9
$LINMIN
 10
5
 20
-270
  9
$LINMAX
 10
461
 20
42.038
  0
ENDSEC
  0
SECTION
  2
TABLES
  0
TABLE
  2
LTYPE
 70
1
  0
LTYPE
  2
CONTINUOUS
 70
64
  3
Solid line
 72
65
 73
0
 40
0.000000
  0
ENDTAB
  0
TABLE
  2
LAYER
 70
6
  0
LAYER
  2
0
 70
64
 62
7
  6
CONTINUOUS
  0
ENDTAB
  0
TABLE
  2
STYLE
 70
0
  0
ENDTAB
  0
ENDSEC
  0
SECTION
  2
BLOCKS
  0
ENDSEC
  0
SECTION
  2
ENTITIES
  0
LWPOLYLINE
100
AcDbEntity
  8
0
100
AcDbPolyline
 90
59
 70
1
 10
95.6497
 20
34.5219
 10
95.4555
 20
34.7727
 10
95.2784
 20
35.0271
 10
95.1182
 20
35.2852
 10
94.9751
 20
35.5469
 10
94.849
 20
35.8123
 10
94.74
 20
36.0814
 10
94.6466
 20
36.3559
 10
94.5676
 20
36.6377
 10
94.5029
 20
36.9269
 10
94.4526
 20
37.2233
 10
94.4167
 20
37.527
 10
94.3952
 20
37.8381
 10
94.388
 20
38.1565
 10
94.3953
 20
38.476
 10
94.4171
 20
38.7882
 10
94.4534
 20
39.0931
 10
94.5042
 20
39.3907
 10
94.5696
 20
39.681
 10
94.6495
 20
39.964
 10
94.744
 20
40.2397
 10
94.854
 20
40.5095
 10
94.9805
 20
40.7751
 10
95.1235
 20
41.0363
 10
95.2831
 20
41.2932
 10
95.4591
 20
41.5458
 10
95.6518
 20
41.7941
 10
95.8609
 20
42.038
 10
95.1529
 20
42.038
 10
94.9425
 20
41.7998
 10
94.7482
 20
41.5571
 10
94.5701
 20
41.3099
 10
94.4083
 20
41.0582
 10
94.2626
 20
40.802
 10
94.1331
 20
40.5414
 10
94.0198
 20
40.2763
 10
93.9221
 20
40.004
 10
93.8394
 20
39.7219
 10
93.7718
 20
39.43
 10
93.7192
 20
39.1284
 10
93.6816
 20
38.8169
 10
93.6591
 20
38.4956
 10
93.6516
 20
38.1646
 10
93.6516
 20
38.1483
 10
93.659
 20
37.8194
 10
93.6815
 20
37.4998
 10
93.7188
 20
37.1896
 10
93.7711
 20
36.8888
 10
93.8384
 20
36.5974
 10
93.9206
 20
36.3154
 10
94.0177
 20
36.0427
 10
94.1306
 20
35.777
 10
94.2599
 20
35.5156
 10
94.4056
 20
35.2586
 10
94.5678
 20
35.0061
 10
94.7464
 20
34.7579
 10
94.9414
 20
34.5142
 10
95.1529
 20
34.2748
 10
95.8609
 20
34.2748
  0
LWPOLYLINE
100
AcDbEntity
  8
0
100
AcDbPolyline
 90
59
 70
1
 10
105.91
 20
34.5131
 10
106.105
 20
34.7558
 10
106.283
 20
35.003
 10
106.445
 20
35.2546
 10
106.59
 20
35.5108
 10
106.72
 20
35.7715
 10
106.833
 20
36.0366
 10
106.931
 20
36.3089
 10
107.013
 20
36.591
 10
107.081
 20
36.8828
 10
107.134
 20
37.1845
 10
107.171
 20
37.496
 10
107.194
 20
37.8172
 10
107.201
 20
38.1483
 10
107.201
 20
38.1646
 10
107.194
 20
38.4935
 10
107.171
 20
38.8131
 10
107.134
 20
39.1232
 10
107.082
 20
39.424
 10
107.014
 20
39.7155
 10
106.932
 20
39.9975
 10
106.835
 20
40.2701
 10
106.722
 20
40.5359
 10
106.593
 20
40.7973
 10
106.447
 20
41.0542
 10
106.285
 20
41.3068
 10
106.106
 20
41.5549
 10
105.911
 20
41.7987
 10
105.7
 20
42.038
 10
104.992
 20
42.038
 10
105.201
 20
41.7931
 10
105.394
 20
41.5441
 10
105.57
 20
41.2912
 10
105.729
 20
41.0343
 10
105.872
 20
40.7734
 10
105.999
 20
40.5085
 10
106.109
 20
40.2396
 10
106.203
 20
39.9649
 10
106.283
 20
39.6826
 10
106.349
 20
39.3927
 10
106.399
 20
39.0951
 10
106.436
 20
38.7898
 10
106.458
 20
38.477
 10
106.465
 20
38.1565
 10
106.458
 20
37.836
 10
106.436
 20
37.5232
 10
106.4
 20
37.2182
 10
106.349
 20
36.9209
 10
106.284
 20
36.6313
 10
106.205
 20
36.3494
 10
106.111
 20
36.0752
 10
106.001
 20
35.8068
 10
105.875
 20
35.5422
 10
105.732
 20
35.2812
 10
105.572
 20
35.024
 10
105.396
 20
34.7706
 10
105.202
 20
34.5208
 10
104.992
 20
34.2748
 10
105.7
 20
34.2748
  0
LWPOLYLINE
100
AcDbEntity
  8
0
100
AcDbPolyline
 90
125
 70
1
 10
8.5265
 20
35.9238
 10
8.74052
 20
35.9394
 10
8.94997
 20
35.9653
 10
9.15486
 20
36.0017
 10
9.35517
 20
36.0484
 10
9.55092
 20
36.1055
 10
9.7421
 20
36.1729
 10
9.92682
 20
36.2498
 10
10.1032
 20
36.3353
 10
10.2711
 20
36.4294
 10
10.4307
 20
36.532
 10
10.5818
 20
36.6431
 10
10.7246
 20
36.7628
 10
10.859
 20
36.8911
 10
10.859
 20
38.8685
 10
8.42996
 20
38.8685
 10
8.42996
 20
38.2175
 10
10.1429
 20
38.2175
 10
10.1429
 20
37.184
 10
10.0531
 20
37.1028
 10
9.95574
 20
37.0266
 10
9.85082
 20
36.9553
 10
9.73835
 20
36.8891
 10
9.61832
 20
36.8278
 10
9.49073
 20
36.7715
 10
9.35558
 20
36.7202
 10
9.21513
 20
36.6748
 10
9.07162
 20
36.6365
 10
8.92502
 20
36.6051
 10
8.77536
 20
36.5807
 10
8.62262
 20
36.5632
 10
8.46681
 20
36.5528
 10
8.30792
 20
36.5493
 10
8.03531
 20
36.5621
 10
7.78013
 20
36.6006
 10
7.54239
 20
36.6648
 10
7.32209
 20
36.7546
 10
7.11922
 20
36.87
 10
6.93379
 20
37.0111
 10
6.7658
 20
37.1779
 10
6.61792
 20
37.3669
 10
6.49279
 20
37.5745
 10
6.39041
 20
37.8008
 10
6.31078
 20
38.0458
 10
6.2539
 20
38.3095
 10
6.21978
 20
38.5919
 10
6.2084
 20
38.8929
 10
6.21911
 20
39.1944
 10
6.25125
 20
39.476
 10
6.30481
 20
39.7375
 10
6.37979
 20
39.979
 10
6.4762
 20
40.2005
 10
6.59403
 20
40.4019
 10
6.73328
 20
40.5834
 10
6.89279
 20
40.7426
 10
7.07141
 20
40.8774
 10
7.26911
 20
40.9876
 10
7.48592
 20
41.0733
 10
7.72182
 20
41.1346
 10
7.97682
 20
41.1713
 10
8.25092
 20
41.1836
 10
8.42916
 20
41.179
 10
8.59885
 20
41.1653
 10
8.75999
 20
41.1425
 10
8.91257
 20
41.1105
 10
9.05659
 20
41.0694
 10
9.19206
 20
41.0192
 10
9.31898
 20
40.9598
 10
9.43784
 20
40.8905
 10
9.54915
 20
40.8103
 10
9.6529
 20
40.7194
 10
9.7491
 20
40.6177
 10
9.83774
 20
40.5052
 10
9.91883
 20
40.3819
 10
9.99236
 20
40.2478
 10
10.7329
 20
40.4675
 10
10.6355
 20
40.6619
 10
10.527
 20
40.8405
 10
10.4073
 20
41.0033
 10
10.2765
 20
41.1504
 10
10.1346
 20
41.2817
 10
9.98157
 20
41.3972
 10
9.8174
 20
41.4969
 10
9.64036
 20
41.5822
 10
9.44871
 20
41.6543
 10
9.24245
 20
41.7134
 10
9.02157
 20
41.7593
 10
8.78608
 20
41.7921
 10
8.53598
 20
41.8118
 10
8.27126
 20
41.8183
 10
7.89653
 20
41.8027
 10
7.54654
 20
41.7559
 10
7.22129
 20
41.6778
 10
6.92078
 20
41.5685
 10
6.64502
 20
41.428
 10
6.394
 20
41.2563
 10
6.16772
 20
41.0534
 10
5.96911
 20
40.822
 10
5.80105
 20
40.5648
 10
5.66355
 20
40.2819
 10
5.5566
 20
39.9733
 10
5.48021
 20
39.6389
 10
5.43438
 20
39.2788
 10
5.4191
 20
38.8929
 10
5.42612
 20
38.6374
 10
5.44717
 20
38.3915
 10
5.48225
 20
38.1554
 10
5.53136
 20
37.929
 10
5.59451
 20
37.7123
 10
5.67169
 20
37.5054
 10
5.7629
 20
37.3081
 10
5.8674
 20
37.1222
 10
5.98443
 20
36.9491
 10
6.11401
 20
36.7888
 10
6.25612
 20
36.6415
 10
6.41078
 20
36.507
 10
6.57797
 20
36.3854
 10
6.7577
 20
36.2767
 10
6.94877
 20
36.1817
 10
7.14996
 20
36.1013
 10
7.36129
 20
36.0355
 10
7.58275
 20
35.9844
 10
7.81434
 20
35.9479
 10
8.05607
 20
35.9259
 10
8.30792
 20
35.9186
  0
LWPOLYLINE
100
AcDbEntity
  8
0
100
AcDbPolyline
 90
125
 70
1
 10
76.9063
 20
35.9238
 10
77.1203
 20
35.9394
 10
77.3298
 20
35.9653
 10
77.5346
 20
36.0017
 10
77.735
 20
36.0484
 10
77.9307
 20
36.1055
 10
78.1219
 20
36.1729
 10
78.3066
 20
36.2498
 10
78.4829
 20
36.3353
 10
78.6509
 20
36.4294
 10
78.8104
 20
36.532
 10
78.9616
 20
36.6431
 10
79.1044
 20
36.7628
 10
79.2388
 20
36.8911
 10
79.2388
 20
38.8685
 10
76.8097
 20
38.8685
 10
76.8097
 20
38.2175
 10
78.5227
 20
38.2175
 10
78.5227
 20
37.184
 10
78.4329
 20
37.1028
 10
78.3355
 20
37.0266
 10
78.2306
 20
36.9553
 10
78.1181
 20
36.8891
 10
77.9981
 20
36.8278
 10
77.8705
 20
36.7715
 10
77.7354
 20
36.7202
 10
77.5949
 20
36.6748
 10
77.4514
 20
36.6365
 10
77.3048
 20
36.6051
 10
77.1551
 20
36.5807
 10
77.0024
 20
36.5632
 10
76.8466
 20
36.5528
 10
76.6877
 20
36.5493
 10
76.4151
 20
36.5621
 10
76.1599
 20
36.6006
 10
75.9222
 20
36.6648
 10
75.7019
 20
36.7546
 10
75.499
 20
36.87
 10
75.3136
 20
37.0111
 10
75.1456
 20
37.1779
 10
74.9977
 20
37.3669
 10
74.8726
 20
37.5745
 10
74.7702
 20
37.8008
 10
74.6906
 20
38.0458
 10
74.6337
 20
38.3095
 10
74.5996
 20
38.5919
 10
74.5882
 20
38.8929
 10
74.5989
 20
39.1944
 10
74.631
 20
39.476
 10
74.6846
 20
39.7375
 10
74.7596
 20
39.979
 10
74.856
 20
40.2005
 10
74.9738
 20
40.4019
 10
75.1131
 20
40.5834
 10
75.2726
 20
40.7426
 10
75.4512
 20
40.8774
 10
75.6489
 20
40.9876
 10
75.8657
 20
41.0733
 10
76.1016
 20
41.1346
 10
76.3566
 20
41.1713
 10
76.6307
 20
41.1836
 10
76.8089
 20
41.179
 10
76.9786
 20
41.1653
 10
77.1398
 20
41.1425
 10
77.2923
 20
41.1105
 10
77.4364
 20
41.0694
 10
77.5718
 20
41.0192
 10
77.6988
 20
40.9598
 10
77.8176
 20
40.8905
 10
77.9289
 20
40.8103
 10
78.0327
 20
40.7194
 10
78.1289
 20
40.6177
 10
78.2175
 20
40.5052
 10
78.2986
 20
40.3819
 10
78.3721
 20
40.2478
 10
79.1127
 20
40.4675
 10
79.0153
 20
40.6619
 10
78.9067
 20
40.8405
 10
78.7871
 20
41.0033
 10
78.6563
 20
41.1504
 10
78.5144
 20
41.2817
 10
78.3613
 20
41.3972
 10
78.1972
 20
41.4969
 10
78.0201
 20
41.5822
 10
77.8285
 20
41.6543
 10
77.6222
 20
41.7134
 10
77.4013
 20
41.7593
 10
77.1659
 20
41.7921
 10
76.9158
 20
41.8118
 10
76.651
 20
41.8183
 10
76.2763
 20
41.8027
 10
75.9263
 20
41.7559
 10
75.6011
 20
41.6778
 10
75.3006
 20
41.5685
 10
75.0248
 20
41.428
 10
74.7738
 20
41.2563
 10
74.5475
 20
41.0534
 10
74.3489
 20
40.822
 10
74.1808
 20
40.5648
 10
74.0433
 20
40.2819
 10
73.9364
 20
39.9733
 10
73.86
 20
39.6389
 10
73.8142
 20
39.2788
 10
73.7989
 20
38.8929
 10
73.8059
 20
38.6374
 10
73.8269
 20
38.3915
 10
73.862
 20
38.1554
 10
73.9111
 20
37.929
 10
73.9743
 20
37.7123
 10
74.0515
 20
37.5054
 10
74.1427
 20
37.3081
 10
74.2472
 20
37.1222
 10
74.3642
 20
36.9491
 10
74.4938
 20
36.7888
 10
74.6359
 20
36.6415
 10
74.7906
 20
36.507
 10
74.9577
 20
36.3854
 10
75.1375
 20
36.2767
 10
75.3285
 20
36.1817
 10
75.5297
 20
36.1013
 10
75.7411
 20
36.0355
 10
75.9625
 20
35.9844
 10
76.1941
 20
35.9479
 10
76.4358
 20
35.9259
 10
76.6877
 20
35.9186
  0
LWPOLYLINE
100
AcDbEntity
  8
0
100
AcDbPolyline
 90
226
 70
1
 10
143.711
 20
35.9275
 10
144.002
 20
35.9542
 10
144.272
 20
35.9986
 10
144.522
 20
36.0608
 10
144.751
 20
36.1408
 10
144.959
 20
36.2385
 10
145.147
 20
36.354
 10
145.311
 20
36.4857
 10
145.451
 20
36.632
 10
145.565
 20
36.7929
 10
145.653
 20
36.9685
 10
145.717
 20
37.1586
 10
145.755
 20
37.3634
 10
145.767
 20
37.5827
 10
145.765
 20
37.6706
 10
145.76
 20
37.7551
 10
145.751
 20
37.8363
 10
145.739
 20
37.9142
 10
145.723
 20
37.9888
 10
145.703
 20
38.06
 10
145.68
 20
38.128
 10
145.653
 20
38.193
 10
145.624
 20
38.2555
 10
145.592
 20
38.3155
 10
145.558
 20
38.3731
 10
145.521
 20
38.4281
 10
145.48
 20
38.4807
 10
145.438
 20
38.5307
 10
145.392
 20
38.5785
 10
145.345
 20
38.6241
 10
145.295
 20
38.6675
 10
145.243
 20
38.7088
 10
145.189
 20
38.7479
 10
145.132
 20
38.7849
 10
145.073
 20
38.8196
 10
145.013
 20
38.8527
 10
144.951
 20
38.8846
 10
144.888
 20
38.9152
 10
144.824
 20
38.9445
 10
144.759
 20
38.9727
 10
144.692
 20
38.9995
 10
144.624
 20
39.0251
 10
144.555
 20
39.0496
 10
144.485
 20
39.0731
 10
144.414
 20
39.0956
 10
144.342
 20
39.1171
 10
144.27
 20
39.1377
 10
144.196
 20
39.1572
 10
144.121
 20
39.1757
 10
144.046
 20
39.1937
 10
143.971
 20
39.2115
 10
143.896
 20
39.2294
 10
143.821
 20
39.2471
 10
143.745
 20
39.2647
 10
143.67
 20
39.2823
 10
143.595
 20
39.2998
 10
143.38
 20
39.3486
 10
143.186
 20
39.3953
 10
143.014
 20
39.4396
 10
142.864
 20
39.4818
 10
142.735
 20
39.5217
 10
142.627
 20
39.5593
 10
142.541
 20
39.5947
 10
142.468
 20
39.6301
 10
142.4
 20
39.6676
 10
142.337
 20
39.7073
 10
142.279
 20
39.7492
 10
142.226
 20
39.7932
 10
142.178
 20
39.8394
 10
142.136
 20
39.8877
 10
142.099
 20
39.939
 10
142.067
 20
39.994
 10
142.041
 20
40.0527
 10
142.021
 20
40.1152
 10
142.007
 20
40.1814
 10
141.998
 20
40.2514
 10
141.995
 20
40.3251
 10
142.003
 20
40.4496
 10
142.025
 20
40.5649
 10
142.062
 20
40.6711
 10
142.114
 20
40.7682
 10
142.18
 20
40.8561
 10
142.262
 20
40.9349
 10
142.358
 20
41.0045
 10
142.468
 20
41.065
 10
142.591
 20
41.1162
 10
142.728
 20
41.158
 10
142.878
 20
41.1906
 10
143.041
 20
41.2138
 10
143.218
 20
41.2278
 10
143.407
 20
41.2324
 10
143.581
 20
41.2282
 10
143.743
 20
41.2156
 10
143.894
 20
41.1947
 10
144.034
 20
41.1653
 10
144.163
 20
41.1276
 10
144.281
 20
41.0814
 10
144.388
 20
41.0269
 10
144.484
 20
40.9631
 10
144.572
 20
40.8891
 10
144.649
 20
40.8049
 10
144.718
 20
40.7104
 10
144.777
 20
40.6058
 10
144.827
 20
40.4909
 10
144.868
 20
40.3658
 10
145.633
 20
40.5001
 10
145.567
 20
40.6972
 10
145.489
 20
40.8772
 10
145.398
 20
41.04
 10
145.295
 20
41.1856
 10
145.179
 20
41.314
 10
145.05
 20
41.4252
 10
144.909
 20
41.5192
 10
144.752
 20
41.5986
 10
144.576
 20
41.6657
 10
144.381
 20
41.7207
 10
144.168
 20
41.7634
 10
143.936
 20
41.7939
 10
143.685
 20
41.8122
 10
143.416
 20
41.8183
 10
143.125
 20
41.8102
 10
142.855
 20
41.7858
 10
142.605
 20
41.7451
 10
142.375
 20
41.6881
 10
142.164
 20
41.6149
 10
141.973
 20
41.5254
 10
141.802
 20
41.4196
 10
141.653
 20
41.2988
 10
141.526
 20
41.1642
 10
141.423
 20
41.0158
 10
141.342
 20
40.8536
 10
141.285
 20
40.6777
 10
141.25
 20
40.4879
 10
141.239
 20
40.2844
 10
141.241
 20
40.1941
 10
141.248
 20
40.1067
 10
141.259
 20
40.0223
 10
141.274
 20
39.9409
 10
141.294
 20
39.8625
 10
141.318
 20
39.7871
 10
141.347
 20
39.7147
 10
141.379
 20
39.6451
 10
141.416
 20
39.5781
 10
141.457
 20
39.5136
 10
141.501
 20
39.4517
 10
141.549
 20
39.3923
 10
141.602
 20
39.3356
 10
141.658
 20
39.2814
 10
141.719
 20
39.2292
 10
141.786
 20
39.1784
 10
141.859
 20
39.1291
 10
141.939
 20
39.0811
 10
142.024
 20
39.0346
 10
142.116
 20
38.9895
 10
142.213
 20
38.9458
 10
142.32
 20
38.9027
 10
142.441
 20
38.8597
 10
142.575
 20
38.8167
 10
142.722
 20
38.7737
 10
142.883
 20
38.7307
 10
143.057
 20
38.6877
 10
143.245
 20
38.6447
 10
143.355
 20
38.6194
 10
143.462
 20
38.5945
 10
143.567
 20
38.5702
 10
143.668
 20
38.5463
 10
143.767
 20
38.523
 10
143.863
 20
38.5002
 10
143.957
 20
38.4778
 10
144.047
 20
38.455
 10
144.133
 20
38.4307
 10
144.216
 20
38.4048
 10
144.295
 20
38.3775
 10
144.37
 20
38.3487
 10
144.442
 20
38.3184
 10
144.51
 20
38.2866
 10
144.574
 20
38.2528
 10
144.634
 20
38.2165
 10
144.69
 20
38.1778
 10
144.741
 20
38.1365
 10
144.788
 20
38.0928
 10
144.831
 20
38.0465
 10
144.87
 20
37.9978
 10
144.904
 20
37.9456
 10
144.933
 20
37.8891
 10
144.956
 20
37.8284
 10
144.975
 20
37.7633
 10
144.988
 20
37.6938
 10
144.996
 20
37.6201
 10
144.998
 20
37.5421
 10
144.99
 20
37.404
 10
144.965
 20
37.2758
 10
144.923
 20
37.1576
 10
144.865
 20
37.0492
 10
144.79
 20
36.9506
 10
144.698
 20
36.862
 10
144.589
 20
36.7832
 10
144.465
 20
36.7147
 10
144.328
 20
36.6567
 10
144.176
 20
36.6092
 10
144.01
 20
36.5723
 10
143.83
 20
36.546
 10
143.636
 20
36.5302
 10
143.428
 20
36.5249
 10
143.226
 20
36.5298
 10
143.036
 20
36.5446
 10
142.859
 20
36.5693
 10
142.695
 20
36.6039
 10
142.543
 20
36.6484
 10
142.403
 20
36.7027
 10
142.276
 20
36.767
 10
142.161
 20
36.8418
 10
142.058
 20
36.9277
 10
141.967
 20
37.0249
 10
141.888
 20
37.1333
 10
141.821
 20
37.2529
 10
141.766
 20
37.3838
 10
141.723
 20
37.5258
 10
140.97
 20
37.3753
 10
141.101
 20
36.9888
 10
141.305
 20
36.6618
 10
141.58
 20
36.3943
 10
141.927
 20
36.1862
 10
142.346
 20
36.0375
 10
142.836
 20
35.9484
 10
143.399
 20
35.9186
  0
LWPOLYLINE
100
AcDbEntity
  8
0
100
AcDbPolyline
 90
77
 70
1
 10
155.648
 20
35.926
 10
155.884
 20
35.9482
 10
156.11
 20
35.9851
 10
156.327
 20
36.0369
 10
156.534
 20
36.1034
 10
156.732
 20
36.1847
 10
156.92
 20
36.2807
 10
157.098
 20
36.3906
 10
157.263
 20
36.5132
 10
157.417
 20
36.6487
 10
157.557
 20
36.7969
 10
157.686
 20
36.9579
 10
157.803
 20
37.1317
 10
157.907
 20
37.3183
 10
157.998
 20
37.5158
 10
158.075
 20
37.7225
 10
158.139
 20
37.9383
 10
158.188
 20
38.1632
 10
158.223
 20
38.3973
 10
158.244
 20
38.6405
 10
158.251
 20
38.8929
 10
158.244
 20
39.1461
 10
158.223
 20
39.3894
 10
158.189
 20
39.623
 10
158.14
 20
39.8468
 10
158.078
 20
40.0608
 10
158.001
 20
40.2649
 10
157.911
 20
40.4593
 10
157.808
 20
40.6424
 10
157.692
 20
40.8126
 10
157.564
 20
40.9699
 10
157.424
 20
41.1143
 10
157.271
 20
41.2459
 10
157.106
 20
41.3646
 10
156.929
 20
41.4704
 10
156.74
 20
41.5627
 10
156.542
 20
41.6408
 10
156.335
 20
41.7047
 10
156.118
 20
41.7544
 10
155.892
 20
41.7899
 10
155.656
 20
41.8112
 10
155.411
 20
41.8183
 10
155.039
 20
41.8025
 10
154.692
 20
41.755
 10
154.368
 20
41.6759
 10
154.069
 20
41.5652
 10
153.794
 20
41.4228
 10
153.543
 20
41.2488
 10
153.315
 20
41.0432
 10
153.116
 20
40.8095
 10
152.947
 20
40.5513
 10
152.809
 20
40.2686
 10
152.701
 20
39.9614
 10
152.624
 20
39.6297
 10
152.578
 20
39.2736
 10
152.563
 20
38.8929
 10
152.57
 20
38.6394
 10
152.59
 20
38.3952
 10
152.625
 20
38.1601
 10
152.673
 20
37.9343
 10
152.735
 20
37.7177
 10
152.811
 20
37.5103
 10
152.9
 20
37.3121
 10
153.003
 20
37.1251
 10
153.118
 20
36.9511
 10
153.246
 20
36.7902
 10
153.385
 20
36.6422
 10
153.538
 20
36.5073
 10
153.702
 20
36.3855
 10
153.879
 20
36.2767
 10
154.067
 20
36.1817
 10
154.265
 20
36.1013
 10
154.473
 20
36.0355
 10
154.69
 20
35.9844
 10
154.918
 20
35.9479
 10
155.155
 20
35.9259
 10
155.403
 20
35.9186
  0
LWPOLYLINE
100
AcDbEntity
  8
0
100
AcDbPolyline
 90
56
 70
1
 10
155.136
 20
36.5622
 10
154.886
 20
36.6009
 10
154.654
 20
36.6655
 10
154.438
 20
36.7559
 10
154.24
 20
36.8721
 10
154.059
 20
37.0141
 10
153.895
 20
37.1819
 10
153.751
 20
37.3718
 10
153.629
 20
37.5799
 10
153.529
 20
37.8061
 10
153.452
 20
38.0505
 10
153.396
 20
38.3131
 10
153.363
 20
38.5939
 10
153.352
 20
38.8929
 10
153.363
 20
39.1934
 10
153.396
 20
39.4742
 10
153.451
 20
39.7351
 10
153.527
 20
39.9763
 10
153.626
 20
40.1978
 10
153.747
 20
40.3995
 10
153.889
 20
40.5814
 10
154.052
 20
40.7412
 10
154.233
 20
40.8764
 10
154.432
 20
40.987
 10
154.649
 20
41.073
 10
154.885
 20
41.1344
 10
155.139
 20
41.1713
 10
155.411
 20
41.1836
 10
155.681
 20
41.1711
 10
155.933
 20
41.1338
 10
156.167
 20
41.0715
 10
156.383
 20
40.9843
 10
156.581
 20
40.8722
 10
156.761
 20
40.7352
 10
156.922
 20
40.5733
 10
157.064
 20
40.3895
 10
157.185
 20
40.187
 10
157.283
 20
39.9657
 10
157.359
 20
39.7256
 10
157.414
 20
39.4668
 10
157.447
 20
39.1892
 10
157.457
 20
38.8929
 10
157.447
 20
38.5835
 10
157.414
 20
38.2949
 10
157.36
 20
38.0269
 10
157.284
 20
37.7795
 10
157.187
 20
37.5529
 10
157.067
 20
37.3469
 10
156.926
 20
37.1616
 10
156.765
 20
36.9992
 10
156.585
 20
36.8617
 10
156.387
 20
36.7492
 10
156.169
 20
36.6618
 10
155.932
 20
36.5993
 10
155.677
 20
36.5618
 10
155.403
 20
36.5493
  0
LWPOLYLINE
100
AcDbEntity
  8
0
100
AcDbPolyline
 90
114
 70
1
 10
162.106
 20
35.9265
 10
162.335
 20
35.9502
 10
162.556
 20
35.9896
 10
162.769
 20
36.0449
 10
162.973
 20
36.1158
 10
163.168
 20
36.2026
 10
163.356
 20
36.3052
 10
163.533
 20
36.4228
 10
163.698
 20
36.5549
 10
163.852
 20
36.7015
 10
163.994
 20
36.8625
 10
164.125
 20
37.0379
 10
164.243
 20
37.2278
 10
164.35
 20
37.4322
 10
163.716
 20
37.7495
 10
163.53
 20
37.4333
 10
163.32
 20
37.1656
 10
163.086
 20
36.9467
 10
162.828
 20
36.7764
 10
162.544
 20
36.6547
 10
162.237
 20
36.5817
 10
161.905
 20
36.5574
 10
161.644
 20
36.5705
 10
161.4
 20
36.6097
 10
161.171
 20
36.6751
 10
160.958
 20
36.7666
 10
160.761
 20
36.8843
 10
160.579
 20
37.0282
 10
160.414
 20
37.1982
 10
160.268
 20
37.3897
 10
160.144
 20
37.5981
 10
160.043
 20
37.8234
 10
159.964
 20
38.0655
 10
159.908
 20
38.3244
 10
159.874
 20
38.6002
 10
159.863
 20
38.8929
 10
159.873
 20
39.1882
 10
159.906
 20
39.465
 10
159.96
 20
39.7233
 10
160.035
 20
39.9631
 10
160.132
 20
40.1843
 10
160.251
 20
40.387
 10
160.391
 20
40.5712
 10
160.551
 20
40.7337
 10
160.728
 20
40.8712
 10
160.923
 20
40.9836
 10
161.134
 20
41.0711
 10
161.363
 20
41.1336
 10
161.609
 20
41.1711
 10
161.873
 20
41.1836
 10
162.042
 20
41.1782
 10
162.205
 20
41.162
 10
162.362
 20
41.135
 10
162.512
 20
41.0972
 10
162.654
 20
41.0486
 10
162.791
 20
40.9893
 10
162.92
 20
40.9191
 10
163.041
 20
40.8387
 10
163.153
 20
40.7487
 10
163.254
 20
40.6491
 10
163.346
 20
40.5398
 10
163.427
 20
40.4209
 10
163.499
 20
40.2924
 10
163.561
 20
40.1542
 10
164.297
 20
40.3983
 10
164.208
 20
40.5924
 10
164.106
 20
40.7723
 10
163.99
 20
40.9381
 10
163.861
 20
41.0898
 10
163.719
 20
41.2274
 10
163.563
 20
41.3509
 10
163.394
 20
41.4602
 10
163.213
 20
41.5552
 10
163.019
 20
41.6356
 10
162.812
 20
41.7014
 10
162.594
 20
41.7526
 10
162.363
 20
41.7891
 10
162.12
 20
41.811
 10
161.864
 20
41.8183
 10
161.502
 20
41.8025
 10
161.162
 20
41.7549
 10
160.846
 20
41.6756
 10
160.553
 20
41.5646
 10
160.283
 20
41.4218
 10
160.037
 20
41.2474
 10
159.814
 20
41.0412
 10
159.617
 20
40.807
 10
159.451
 20
40.5486
 10
159.315
 20
40.266
 10
159.209
 20
39.9591
 10
159.134
 20
39.6279
 10
159.088
 20
39.2725
 10
159.073
 20
38.8929
 10
159.08
 20
38.6364
 10
159.1
 20
38.3899
 10
159.134
 20
38.1534
 10
159.181
 20
37.927
 10
159.242
 20
37.7107
 10
159.317
 20
37.5044
 10
159.405
 20
37.3081
 10
159.506
 20
37.1232
 10
159.619
 20
36.9509
 10
159.744
 20
36.7912
 10
159.882
 20
36.6442
 10
160.032
 20
36.5097
 10
160.194
 20
36.3879
 10
160.369
 20
36.2787
 10
160.555
 20
36.1832
 10
160.75
 20
36.1023
 10
160.954
 20
36.0362
 10
161.169
 20
35.9848
 10
161.392
 20
35.948
 10
161.626
 20
35.926
 10
161.868
 20
35.9186
  0
LWPOLYLINE
100
AcDbEntity
  8
0
100
AcDbPolyline
 90
36
 70
1
 10
12.9426
 20
38.3802
 10
14.7288
 20
38.3802
 10
16.218
 20
36
 10
17.1131
 20
36
 10
15.4856
 20
38.4697
 10
15.667
 20
38.5088
 10
15.8368
 20
38.5611
 10
15.9951
 20
38.6264
 10
16.1419
 20
38.7049
 10
16.2771
 20
38.7965
 10
16.4008
 20
38.9012
 10
16.5129
 20
39.019
 10
16.6117
 20
39.1476
 10
16.6953
 20
39.2844
 10
16.7637
 20
39.4295
 10
16.8168
 20
39.583
 10
16.8548
 20
39.7447
 10
16.8776
 20
39.9148
 10
16.8852
 20
40.0931
 10
16.8745
 20
40.3071
 10
16.8422
 20
40.5072
 10
16.7884
 20
40.6934
 10
16.7132
 20
40.8657
 10
16.6164
 20
41.0242
 10
16.4981
 20
41.1688
 10
16.3583
 20
41.2996
 10
16.1988
 20
41.4145
 10
16.0212
 20
41.5118
 10
15.8256
 20
41.5914
 10
15.612
 20
41.6533
 10
15.3804
 20
41.6975
 10
15.1307
 20
41.724
 10
14.863
 20
41.7329
 10
12.1655
 20
41.7329
 10
12.1655
 20
36
 10
12.9426
 20
36
  0
LWPOLYLINE
100
AcDbEntity
  8
0
100
AcDbPolyline
 90
31
 70
1
 10
12.9426
 20
41.1104
 10
14.7858
 20
41.1104
 10
14.9622
 20
41.105
 10
15.1264
 20
41.089
 10
15.2783
 20
41.0622
 10
15.4181
 20
41.0247
 10
15.5457
 20
40.9765
 10
15.6611
 20
40.9176
 10
15.7642
 20
40.8479
 10
15.8544
 20
40.7681
 10
15.9307
 20
40.6785
 10
15.9931
 20
40.5793
 10
16.0416
 20
40.4703
 10
16.0763
 20
40.3516
 10
16.0971
 20
40.2232
 10
16.104
 20
40.085
 10
16.0972
 20
39.9421
 10
16.0766
 20
39.8085
 10
16.0424
 20
39.6844
 10
15.9944
 20
39.5696
 10
15.9327
 20
39.4641
 10
15.8574
 20
39.3681
 10
15.7683
 20
39.2815
 10
15.6667
 20
39.2054
 10
15.5538
 20
39.141
 10
15.4294
 20
39.0883
 10
15.2937
 20
39.0473
 10
15.1466
 20
39.018
 10
14.9881
 20
39.0005
 10
14.8183
 20
38.9946
 10
12.9426
 20
38.9946
  0
LWPOLYLINE
100
AcDbEntity
  8
0
100
AcDbPolyline
 90
12
 70
1
 10
22.6998
 20
36.6347
 10
18.9607
 20
36.6347
 10
18.9607
 20
38.6325
 10
22.2889
 20
38.6325
 10
22.2889
 20
39.2591
 10
18.9607
 20
39.2591
 10
18.9607
 20
41.0981
 10
22.533
 20
41.0981
 10
22.533
 20
41.7329
 10
18.1836
 20
41.7329
 10
18.1836
 20
36
 10
22.6998
 20
36
  0
LWPOLYLINE
100
AcDbEntity
  8
0
100
AcDbPolyline
 90
12
 70
1
 10
28.2581
 20
36.6347
 10
24.519
 20
36.6347
 10
24.519
 20
38.6325
 10
27.8472
 20
38.6325
 10
27.8472
 20
39.2591
 10
24.519
 20
39.2591
 10
24.519
 20
41.0981
 10
28.0913
 20
41.0981
 10
28.0913
 20
41.7329
 10
23.7418
 20
41.7329
 10
23.7418
 20
36
 10
28.2581
 20
36
  0
LWPOLYLINE
100
AcDbEntity
  8
0
100
AcDbPolyline
 90
19
 70
1
 10
29.9918
 20
39.8084
 10
29.9715
 20
40.4878
 10
29.9511
 20
40.8825
 10
33.0189
 20
36
 10
33.9547
 20
36
 10
33.9547
 20
41.7329
 10
33.2549
 20
41.7329
 10
33.2549
 20
37.9733
 10
33.2559
 20
37.8621
 10
33.2589
 20
37.7329
 10
33.2639
 20
37.5857
 10
33.2708
 20
37.4207
 10
33.2798
 20
37.2376
 10
33.2908
 20
37.0367
 10
33.3037
 20
36.8178
 10
30.2034
 20
41.7329
 10
29.3001
 20
41.7329
 10
29.3001
 20
36
 10
29.9918
 20
36
  0
LWPOLYLINE
100
AcDbEntity
  8
0
100
AcDbPolyline
 90
33
 70
1
 10
38.4106
 20
38.2337
 10
40.095
 20
38.2337
 10
40.3477
 20
38.2435
 10
40.5848
 20
38.2729
 10
40.8063
 20
38.3219
 10
41.0124
 20
38.3905
 10
41.2029
 20
38.4787
 10
41.3779
 20
38.5865
 10
41.5374
 20
38.7139
 10
41.6782
 20
38.8578
 10
41.7974
 20
39.0154
 10
41.895
 20
39.1867
 10
41.9708
 20
39.3715
 10
42.025
 20
39.5699
 10
42.0575
 20
39.782
 10
42.0684
 20
40.0077
 10
42.0576
 20
40.235
 10
42.0252
 20
40.4471
 10
41.9712
 20
40.6442
 10
41.8956
 20
40.8261
 10
41.7985
 20
40.9929
 10
41.6797
 20
41.1446
 10
41.5394
 20
41.2812
 10
41.3794
 20
41.401
 10
41.2016
 20
41.5024
 10
41.0061
 20
41.5854
 10
40.7928
 20
41.6499
 10
40.5617
 20
41.696
 10
40.3128
 20
41.7237
 10
40.0462
 20
41.7329
 10
37.6335
 20
41.7329
 10
37.6335
 20
36
 10
38.4106
 20
36
  0
LWPOLYLINE
100
AcDbEntity
  8
0
100
AcDbPolyline
 90
17
 70
1
 10
38.4106
 20
41.1104
 10
39.9526
 20
41.1104
 10
40.3067
 20
41.0877
 10
40.6063
 20
41.0197
 10
40.8514
 20
40.9064
 10
41.042
 20
40.7477
 10
41.1782
 20
40.5437
 10
41.2599
 20
40.2943
 10
41.2872
 20
39.9996
 10
41.2606
 20
39.6941
 10
41.1809
 20
39.4356
 10
41.048
 20
39.2241
 10
40.862
 20
39.0596
 10
40.6229
 20
38.9421
 10
40.3306
 20
38.8716
 10
39.9852
 20
38.8481
 10
38.4106
 20
38.8481
  0
LWPOLYLINE
100
AcDbEntity
  8
0
100
AcDbPolyline
 90
6
 70
1
 10
46.8658
 20
36.6347
 10
43.9689
 20
36.6347
 10
43.9689
 20
41.7329
 10
43.1917
 20
41.7329
 10
43.1917
 20
36
 10
46.8658
 20
36
  0
LWPOLYLINE
100
AcDbEntity
  8
0
100
AcDbPolyline
 90
8
 70
1
 10
48.6238
 20
37.6763
 10
51.2359
 20
37.6763
 10
51.891
 20
36
 10
52.6844
 20
36
 10
50.3815
 20
41.7329
 10
49.4985
 20
41.7329
 10
47.159
 20
36
 10
47.9646
 20
36
  0
LWPOLYLINE
100
AcDbEntity
  8
0
100
AcDbPolyline
 90
19
 70
1
 10
49.5921
 20
40.1664
 10
49.6471
 20
40.3136
 10
49.6981
 20
40.453
 10
49.7451
 20
40.5847
 10
49.7881
 20
40.7085
 10
49.8271
 20
40.8245
 10
49.8621
 20
40.9327
 10
49.8932
 20
41.033
 10
49.9299
 20
41.147
 10
50.0397
 20
40.8092
 10
50.0723
 20
40.7096
 10
50.1048
 20
40.613
 10
50.1373
 20
40.5193
 10
50.1699
 20
40.4286
 10
50.2024
 20
40.341
 10
50.235
 20
40.2563
 10
50.2675
 20
40.1746
 10
51.004
 20
38.2826
 10
48.8598
 20
38.2826
  0
LWPOLYLINE
100
AcDbEntity
  8
0
100
AcDbPolyline
 90
8
 70
1
 10
55.012
 20
41.0981
 10
56.9813
 20
41.0981
 10
56.9813
 20
41.7329
 10
52.2697
 20
41.7329
 10
52.2697
 20
41.0981
 10
54.239
 20
41.0981
 10
54.239
 20
36
 10
55.012
 20
36
  0
LWPOLYLINE
100
AcDbEntity
  8
0
100
AcDbPolyline
 90
12
 70
1
 10
62.3727
 20
36.6347
 10
58.6336
 20
36.6347
 10
58.6336
 20
38.6325
 10
61.9618
 20
38.6325
 10
61.9618
 20
39.2591
 10
58.6336
 20
39.2591
 10
58.6336
 20
41.0981
 10
62.2059
 20
41.0981
 10
62.2059
 20
41.7329
 10
57.8565
 20
41.7329
 10
57.8565
 20
36
 10
62.3727
 20
36
  0
LWPOLYLINE
100
AcDbEntity
  8
0
100
AcDbPolyline
 90
36
 70
1
 10
66.5071
 20
38.3802
 10
68.2933
 20
38.3802
 10
69.7825
 20
36
 10
70.6776
 20
36
 10
69.0501
 20
38.4697
 10
69.2315
 20
38.5088
 10
69.4013
 20
38.5611
 10
69.5596
 20
38.6264
 10
69.7064
 20
38.7049
 10
69.8416
 20
38.7965
 10
69.9653
 20
38.9012
 10
70.0774
 20
39.019
 10
70.1762
 20
39.1476
 10
70.2598
 20
39.2844
 10
70.3282
 20
39.4295
 10
70.3814
 20
39.583
 10
70.4193
 20
39.7447
 10
70.4421
 20
39.9148
 10
70.4497
 20
40.0931
 10
70.439
 20
40.3071
 10
70.4067
 20
40.5072
 10
70.353
 20
40.6934
 10
70.2777
 20
40.8657
 10
70.1809
 20
41.0242
 10
70.0626
 20
41.1688
 10
69.9228
 20
41.2996
 10
69.7633
 20
41.4145
 10
69.5857
 20
41.5118
 10
69.3901
 20
41.5914
 10
69.1765
 20
41.6533
 10
68.9449
 20
41.6975
 10
68.6952
 20
41.724
 10
68.4276
 20
41.7329
 10
65.73
 20
41.7329
 10
65.73
 20
36
 10
66.5071
 20
36
  0
LWPOLYLINE
100
AcDbEntity
  8
0
100
AcDbPolyline
 90
31
 70
1
 10
66.5071
 20
41.1104
 10
68.3503
 20
41.1104
 10
68.5267
 20
41.105
 10
68.6909
 20
41.089
 10
68.8429
 20
41.0622
 10
68.9826
 20
41.0247
 10
69.1102
 20
40.9765
 10
69.2256
 20
40.9176
 10
69.3288
 20
40.8479
 10
69.4189
 20
40.7681
 10
69.4952
 20
40.6785
 10
69.5576
 20
40.5793
 10
69.6061
 20
40.4703
 10
69.6408
 20
40.3516
 10
69.6616
 20
40.2232
 10
69.6685
 20
40.085
 10
69.6617
 20
39.9421
 10
69.6411
 20
39.8085
 10
69.6069
 20
39.6844
 10
69.5589
 20
39.5696
 10
69.4973
 20
39.4641
 10
69.4219
 20
39.3681
 10
69.3328
 20
39.2815
 10
69.2313
 20
39.2054
 10
69.1183
 20
39.141
 10
68.9939
 20
39.0883
 10
68.8582
 20
39.0473
 10
68.7111
 20
39.018
 10
68.5527
 20
39.0005
 10
68.3828
 20
38.9946
 10
66.5071
 20
38.9946
  0
LWPOLYLINE
100
AcDbEntity
  8
0
100
AcDbPolyline
 90
4
 70
1
 10
72.6106
 20
41.7329
 10
71.8335
 20
41.7329
 10
71.8335
 20
36
 10
72.6106
 20
36
  0
LWPOLYLINE
100
AcDbEntity
  8
0
100
AcDbPolyline
 90
12
 70
1
 10
81.3224
 20
38.6569
 10
84.4228
 20
38.6569
 10
84.4228
 20
36
 10
85.1999
 20
36
 10
85.1999
 20
41.7329
 10
84.4228
 20
41.7329
 10
84.4228
 20
39.3079
 10
81.3224
 20
39.3079
 10
81.3224
 20
41.7329
 10
80.5453
 20
41.7329
 10
80.5453
 20
36
 10
81.3224
 20
36
  0
LWPOLYLINE
100
AcDbEntity
  8
0
100
AcDbPolyline
 90
8
 70
1
 10
88.8093
 20
41.0981
 10
90.7785
 20
41.0981
 10
90.7785
 20
41.7329
 10
86.0669
 20
41.7329
 10
86.0669
 20
41.0981
 10
88.0362
 20
41.0981
 10
88.0362
 20
36
 10
88.8093
 20
36
  0
LWPOLYLINE
100
AcDbEntity
  8
0
100
AcDbPolyline
 90
36
 70
1
 10
116.585
 20
38.3802
 10
118.371
 20
38.3802
 10
119.86
 20
36
 10
120.755
 20
36
 10
119.127
 20
38.4697
 10
119.309
 20
38.5088
 10
119.479
 20
38.5611
 10
119.637
 20
38.6264
 10
119.784
 20
38.7049
 10
119.919
 20
38.7965
 10
120.043
 20
38.9012
 10
120.155
 20
39.019
 10
120.254
 20
39.1476
 10
120.337
 20
39.2844
 10
120.406
 20
39.4295
 10
120.459
 20
39.583
 10
120.497
 20
39.7447
 10
120.52
 20
39.9148
 10
120.527
 20
40.0931
 10
120.516
 20
40.3071
 10
120.484
 20
40.5072
 10
120.43
 20
40.6934
 10
120.355
 20
40.8657
 10
120.258
 20
41.0242
 10
120.14
 20
41.1688
 10
120
 20
41.2996
 10
119.841
 20
41.4145
 10
119.663
 20
41.5118
 10
119.468
 20
41.5914
 10
119.254
 20
41.6533
 10
119.022
 20
41.6975
 10
118.773
 20
41.724
 10
118.505
 20
41.7329
 10
115.807
 20
41.7329
 10
115.807
 20
36
 10
116.585
 20
36
  0
LWPOLYLINE
100
AcDbEntity
  8
0
100
AcDbPolyline
 90
31
 70
1
 10
116.585
 20
41.1104
 10
118.428
 20
41.1104
 10
118.604
 20
41.105
 10
118.768
 20
41.089
 10
118.92
 20
41.0622
 10
119.06
 20
41.0247
 10
119.188
 20
40.9765
 10
119.303
 20
40.9176
 10
119.406
 20
40.8479
 10
119.496
 20
40.7681
 10
119.573
 20
40.6785
 10
119.635
 20
40.5793
 10
119.684
 20
40.4703
 10
119.718
 20
40.3516
 10
119.739
 20
40.2232
 10
119.746
 20
40.085
 10
119.739
 20
39.9421
 10
119.719
 20
39.8085
 10
119.684
 20
39.6844
 10
119.636
 20
39.5696
 10
119.575
 20
39.4641
 10
119.499
 20
39.3681
 10
119.41
 20
39.2815
 10
119.309
 20
39.2054
 10
119.196
 20
39.141
 10
119.071
 20
39.0883
 10
118.936
 20
39.0473
 10
118.789
 20
39.018
 10
118.63
 20
39.0005
 10
118.46
 20
38.9946
 10
116.585
 20
38.9946
  0
LWPOLYLINE
100
AcDbEntity
  8
0
100
AcDbPolyline
 90
12
 70
1
 10
126.342
 20
36.6347
 10
122.603
 20
36.6347
 10
122.603
 20
38.6325
 10
125.931
 20
38.6325
 10
125.931
 20
39.2591
 10
122.603
 20
39.2591
 10
122.603
 20
41.0981
 10
126.175
 20
41.0981
 10
126.175
 20
41.7329
 10
121.825
 20
41.7329
 10
121.825
 20
36
 10
126.342
 20
36
  0
LWPOLYLINE
100
AcDbEntity
  8
0
100
AcDbPolyline
 90
8
 70
1
 10
128.181
 20
37.6763
 10
130.793
 20
37.6763
 10
131.448
 20
36
 10
132.242
 20
36
 10
129.939
 20
41.7329
 10
129.056
 20
41.7329
 10
126.716
 20
36
 10
127.522
 20
36
  0
LWPOLYLINE
100
AcDbEntity
  8
0
100
AcDbPolyline
 90
19
 70
1
 10
129.15
 20
40.1664
 10
129.205
 20
40.3136
 10
129.255
 20
40.453
 10
129.302
 20
40.5847
 10
129.346
 20
40.7085
 10
129.385
 20
40.8245
 10
129.42
 20
40.9327
 10
129.451
 20
41.033
 10
129.487
 20
41.147
 10
129.597
 20
40.8092
 10
129.63
 20
40.7096
 10
129.662
 20
40.613
 10
129.695
 20
40.5193
 10
129.727
 20
40.4286
 10
129.76
 20
40.341
 10
129.792
 20
40.2563
 10
129.825
 20
40.1746
 10
130.561
 20
38.2826
 10
128.417
 20
38.2826
  0
LWPOLYLINE
100
AcDbEntity
  8
0
100
AcDbPolyline
 90
36
 70
1
 10
133.719
 20
38.3802
 10
135.505
 20
38.3802
 10
136.994
 20
36
 10
137.89
 20
36
 10
136.262
 20
38.4697
 10
136.443
 20
38.5088
 10
136.613
 20
38.5611
 10
136.772
 20
38.6264
 10
136.918
 20
38.7049
 10
137.054
 20
38.7965
 10
137.177
 20
38.9012
 10
137.289
 20
39.019
 10
137.388
 20
39.1476
 10
137.472
 20
39.2844
 10
137.54
 20
39.4295
 10
137.593
 20
39.583
 10
137.631
 20
39.7447
 10
137.654
 20
39.9148
 10
137.662
 20
40.0931
 10
137.651
 20
40.3071
 10
137.619
 20
40.5072
 10
137.565
 20
40.6934
 10
137.49
 20
40.8657
 10
137.393
 20
41.0242
 10
137.275
 20
41.1688
 10
137.135
 20
41.2996
 10
136.975
 20
41.4145
 10
136.798
 20
41.5118
 10
136.602
 20
41.5914
 10
136.389
 20
41.6533
 10
136.157
 20
41.6975
 10
135.907
 20
41.724
 10
135.64
 20
41.7329
 10
132.942
 20
41.7329
 10
132.942
 20
36
 10
133.719
 20
36
  0
LWPOLYLINE
100
AcDbEntity
  8
0
100
AcDbPolyline
 90
31
 70
1
 10
133.719
 20
41.1104
 10
135.562
 20
41.1104
 10
135.739
 20
41.105
 10
135.903
 20
41.089
 10
136.055
 20
41.0622
 10
136.195
 20
41.0247
 10
136.322
 20
40.9765
 10
136.438
 20
40.9176
 10
136.541
 20
40.8479
 10
136.631
 20
40.7681
 10
136.707
 20
40.6785
 10
136.77
 20
40.5793
 10
136.818
 20
40.4703
 10
136.853
 20
40.3516
 10
136.874
 20
40.2232
 10
136.881
 20
40.085
 10
136.874
 20
39.9421
 10
136.853
 20
39.8085
 10
136.819
 20
39.6844
 10
136.771
 20
39.5696
 10
136.709
 20
39.4641
 10
136.634
 20
39.3681
 10
136.545
 20
39.2815
 10
136.443
 20
39.2054
 10
136.33
 20
39.141
 10
136.206
 20
39.0883
 10
136.07
 20
39.0473
 10
135.923
 20
39.018
 10
135.765
 20
39.0005
 10
135.595
 20
38.9946
 10
133.719
 20
38.9946
  0
LWPOLYLINE
100
AcDbEntity
  8
0
100
AcDbPolyline
 90
12
 70
1
 10
147.611
 20
38.6569
 10
150.711
 20
38.6569
 10
150.711
 20
36
 10
151.488
 20
36
 10
151.488
 20
41.7329
 10
150.711
 20
41.7329
 10
150.711
 20
39.3079
 10
147.611
 20
39.3079
 10
147.611
 20
41.7329
 10
146.834
 20
41.7329
 10
146.834
 20
36
 10
147.611
 20
36
  0
LWPOLYLINE
100
AcDbEntity
  8
0
100
AcDbPolyline
 90
12
 70
1
 10
166.129
 20
38.1971
 10
166.877
 20
38.7668
 10
169.168
 20
36
 10
170.132
 20
36
 10
167.366
 20
39.2428
 10
169.807
 20
41.7329
 10
168.891
 20
41.7329
 10
166.129
 20
38.8603
 10
166.129
 20
41.7329
 10
165.352
 20
41.7329
 10
165.352
 20
36
 10
166.129
 20
36
  0
LWPOLYLINE
100
AcDbEntity
  8
0
100
AcDbPolyline
 90
12
 70
1
 10
177.741
 20
36.6347
 10
174.002
 20
36.6347
 10
174.002
 20
38.6325
 10
177.331
 20
38.6325
 10
177.331
 20
39.2591
 10
174.002
 20
39.2591
 10
174.002
 20
41.0981
 10
177.575
 20
41.0981
 10
177.575
 20
41.7329
 10
173.225
 20
41.7329
 10
173.225
 20
36
 10
177.741
 20
36
  0
LWPOLYLINE
100
AcDbEntity
  8
0
100
AcDbPolyline
 90
9
 70
1
 10
181.261
 20
38.3762
 10
183.475
 20
41.7329
 10
182.62
 20
41.7329
 10
180.883
 20
39.0028
 10
179.137
 20
41.7329
 10
178.283
 20
41.7329
 10
180.488
 20
38.3762
 10
180.488
 20
36
 10
181.261
 20
36
  0
LWPOLYLINE
100
AcDbEntity
  8
0
100
AcDbPolyline
 90
12
 70
1
 10
188.858
 20
36.6347
 10
185.119
 20
36.6347
 10
185.119
 20
38.6325
 10
188.447
 20
38.6325
 10
188.447
 20
39.2591
 10
185.119
 20
39.2591
 10
185.119
 20
41.0981
 10
188.691
 20
41.0981
 10
188.691
 20
41.7329
 10
184.342
 20
41.7329
 10
184.342
 20
36
 10
188.858
 20
36
  0
LWPOLYLINE
100
AcDbEntity
  8
0
100
AcDbPolyline
 90
12
 70
1
 10
98.64
 20
38.4738
 10
100.365
 20
38.4738
 10
100.365
 20
39.0679
 10
98.64
 20
39.0679
 10
98.64
 20
40.8092
 10
98.0419
 20
40.8092
 10
98.0419
 20
39.0679
 10
96.3168
 20
39.0679
 10
96.3168
 20
38.4738
 10
98.0419
 20
38.4738
 10
98.0419
 20
36.7324
 10
98.64
 20
36.7324
  0
LWPOLYLINE
100
AcDbEntity
  8
0
100
AcDbPolyline
 90
10
 70
1
 10
104.528
 20
36.5656
 10
101.977
 20
36.5656
 10
104.442
 20
39.845
 10
104.442
 20
40.4024
 10
101.252
 20
40.4024
 10
101.252
 20
39.8368
 10
103.576
 20
39.8368
 10
101.114
 20
36.5574
 10
101.114
 20
36
 10
104.528
 20
36
  0
LWPOLYLINE
100
AcDbEntity
  8
0
100
AcDbPolyline
 90
4
 70
1
 10
112.438
 20
38.5389
 10
110.404
 20
38.5389
 10
110.404
 20
37.8879
 10
112.438
 20
37.8879
  0
LWPOLYLINE
100
AcDbEntity
  8
0
100
AcDbPolyline
 90
6
 70
1
 10
219.06
 20
-9.56088
 10
265
 20
-9.56088
 10
265
 20
30
 10
5
 20
30
 10
5
 20
-30
 10
219.06
 20
-30
  0
LWPOLYLINE
100
AcDbEntity
  8
0
100
AcDbPolyline
 90
38
 70
1
 10
191.969
 20
7.92852
 10
191.313
 20
8.15375
 10
190.703
 20
8.4839
 10
190.155
 20
8.90996
 10
189.686
 20
9.42031
 10
189.306
 20
10.001
 10
189.028
 20
10.6363
 10
188.857
 20
11.3087
 10
188.8
 20
12
 10
188.857
 20
12.6913
 10
189.028
 20
13.3637
 10
189.306
 20
13.999
 10
189.686
 20
14.5797
 10
190.155
 20
15.09
 10
190.703
 20
15.5161
 10
191.313
 20
15.8462
 10
191.969
 20
16.0715
 10
192.653
 20
16.1857
 10
193.347
 20
16.1857
 10
194.031
 20
16.0715
 10
194.687
 20
15.8462
 10
195.297
 20
15.5161
 10
195.845
 20
15.09
 10
196.314
 20
14.5797
 10
196.694
 20
13.999
 10
196.972
 20
13.3637
 10
197.143
 20
12.6913
 10
197.2
 20
12
 10
197.143
 20
11.3087
 10
196.972
 20
10.6363
 10
196.694
 20
10.001
 10
196.314
 20
9.42031
 10
195.845
 20
8.90996
 10
195.297
 20
8.4839
 10
194.687
 20
8.15375
 10
194.031
 20
7.92852
 10
193.347
 20
7.81435
 10
192.653
 20
7.81435
  0
LWPOLYLINE
100
AcDbEntity
  8
0
100
AcDbPolyline
 90
38
 70
1
 10
244.029
 20
-1.63236
 10
243.373
 20
-1.40713
 10
242.763
 20
-1.07698
 10
242.215
 20
-0.650922
 10
241.745
 20
-0.140575
 10
241.366
 20
0.44014
 10
241.087
 20
1.07538
 10
240.917
 20
1.74782
 10
240.86
 20
2.43912
 10
240.917
 20
3.13042
 10
241.087
 20
3.80286
 10
241.366
 20
4.4381
 10
241.745
 20
5.01881
 10
242.215
 20
5.52916
 10
242.763
 20
5.95522
 10
243.373
 20
6.28537
 10
244.029
 20
6.5106
 10
244.713
 20
6.62477
 10
245.407
 20
6.62477
 10
246.091
 20
6.5106
 10
246.747
 20
6.28537
 10
247.357
 20
5.95522
 10
247.904
 20
5.52916
 10
248.374
 20
5.01881
 10
248.754
 20
4.4381
 10
249.032
 20
3.80286
 10
249.202
 20
3.13042
 10
249.26
 20
2.43912
 10
249.202
 20
1.74782
 10
249.032
 20
1.07538
 10
248.754
 20
0.44014
 10
248.374
 20
-0.140575
 10
247.904
 20
-0.650922
 10
247.357
 20
-1.07698
 10
246.747
 20
-1.40713
 10
246.091
 20
-1.63236
 10
245.407
 20
-1.74654
 10
244.713
 20
-1.74654
  0
LWPOLYLINE
100
AcDbEntity
  8
0
100
AcDbPolyline
 90
48
 70
1
 10
22.3147
 20
-5.20509
 10
21.6412
 20
-5.07111
 10
20.9909
 20
-4.85037
 10
20.375
 20
-4.54663
 10
19.804
 20
-4.16511
 10
19.2877
 20
-3.71231
 10
18.8349
 20
-3.196
 10
18.4534
 20
-2.625
 10
18.1496
 20
-2.00909
 10
17.9289
 20
-1.3588
 10
17.7949
 20
-0.685263
 10
17.75
 20
0
 10
17.7949
 20
0.685263
 10
17.9289
 20
1.3588
 10
18.1496
 20
2.00909
 10
18.4534
 20
2.625
 10
18.8349
 20
3.196
 10
19.2877
 20
3.71231
 10
19.804
 20
4.16511
 10
20.375
 20
4.54663
 10
20.9909
 20
4.85037
 10
21.6412
 20
5.07111
 10
22.3147
 20
5.20509
 10
23
 20
5.25
 10
23.6853
 20
5.20509
 10
24.3588
 20
5.07111
 10
25.0091
 20
4.85037
 10
25.625
 20
4.54663
 10
26.196
 20
4.16511
 10
26.7123
 20
3.71231
 10
27.1651
 20
3.196
 10
27.5466
 20
2.625
 10
27.8504
 20
2.00909
 10
28.0711
 20
1.3588
 10
28.2051
 20
0.685263
 10
28.25
 20
0
 10
28.2051
 20
-0.685263
 10
28.0711
 20
-1.3588
 10
27.8504
 20
-2.00909
 10
27.5466
 20
-2.625
 10
27.1651
 20
-3.196
 10
26.7123
 20
-3.71231
 10
26.196
 20
-4.16511
 10
25.625
 20
-4.54663
 10
25.0091
 20
-4.85037
 10
24.3588
 20
-5.07111
 10
23.6853
 20
-5.20509
 10
23
 20
-5.25
  0
LWPOLYLINE
100
AcDbEntity
  8
0
100
AcDbPolyline
 90
48
 70
1
 10
87.3147
 20
-5.20509
 10
86.6412
 20
-5.07111
 10
85.9909
 20
-4.85037
 10
85.375
 20
-4.54663
 10
84.804
 20
-4.16511
 10
84.2877
 20
-3.71231
 10
83.8349
 20
-3.196
 10
83.4534
 20
-2.625
 10
83.1496
 20
-2.00909
 10
82.9289
 20
-1.3588
 10
82.7949
 20
-0.685263
 10
82.75
 20
0
 10
82.7949
 20
0.685263
 10
82.9289
 20
1.3588
 10
83.1496
 20
2.00909
 10
83.4534
 20
2.625
 10
83.8349
 20
3.196
 10
84.2877
 20
3.71231
 10
84.804
 20
4.16511
 10
85.375
 20
4.54663
 10
85.9909
 20
4.85037
 10
86.6412
 20
5.07111
 10
87.3147
 20
5.20509
 10
88
 20
5.25
 10
88.6853
 20
5.20509
 10
89.3588
 20
5.07111
 10
90.0091
 20
4.85037
 10
90.625
 20
4.54663
 10
91.196
 20
4.16511
 10
91.7123
 20
3.71231
 10
92.1651
 20
3.196
 10
92.5466
 20
2.625
 10
92.8504
 20
2.00909
 10
93.0711
 20
1.3588
 10
93.2051
 20
0.685263
 10
93.25
 20
0
 10
93.2051
 20
-0.685263
 10
93.0711
 20
-1.3588
 10
92.8504
 20
-2.00909
 10
92.5466
 20
-2.625
 10
92.1651
 20
-3.196
 10
91.7123
 20
-3.71231
 10
91.196
 20
-4.16511
 10
90.625
 20
-4.54663
 10
90.0091
 20
-4.85037
 10
89.3588
 20
-5.07111
 10
88.6853
 20
-5.20509
 10
88
 20
-5.25
  0
LWPOLYLINE
100
AcDbEntity
  8
0
100
AcDbPolyline
 90
35
 70
1
 10
190.202
 20
-4.38304
 10
189.643
 20
-3.97099
 10
189.143
 20
-3.48808
 10
188.713
 20
-2.94292
 10
188.359
 20
-2.34525
 10
188.088
 20
-1.70573
 10
187.904
 20
-1.03577
 10
187.812
 20
-0.347322
 10
187.812
 20
0.347322
 10
187.904
 20
1.03577
 10
188.088
 20
1.70573
 10
188.359
 20
2.34525
 10
188.713
 20
2.94292
 10
189.143
 20
3.48808
 10
189.643
 20
3.97099
 10
190.202
 20
4.38304
 10
190.324
 20
4.45
 10
195.672
 20
4.45
 10
196.085
 20
4.18636
 10
196.615
 20
3.73788
 10
197.081
 20
3.2227
 10
197.474
 20
2.65001
 10
197.787
 20
2.03002
 10
198.015
 20
1.37382
 10
198.154
 20
0.693092
 10
198.2
 20
0
 10
198.154
 20
-0.693092
 10
198.015
 20
-1.37382
 10
197.787
 20
-2.03002
 10
197.474
 20
-2.65001
 10
197.081
 20
-3.2227
 10
196.615
 20
-3.73788
 10
196.085
 20
-4.18636
 10
195.672
 20
-4.45
 10
190.324
 20
-4.45
  0
LWPOLYLINE
100
AcDbEntity
  8
0
100
AcDbPolyline
 90
38
 70
1
 10
191.969
 20
-16.0715
 10
191.313
 20
-15.8462
 10
190.703
 20
-15.5161
 10
190.155
 20
-15.09
 10
189.686
 20
-14.5797
 10
189.306
 20
-13.999
 10
189.028
 20
-13.3637
 10
188.857
 20
-12.6913
 10
188.8
 20
-12
 10
188.857
 20
-11.3087
 10
189.028
 20
-10.6363
 10
189.306
 20
-10.001
 10
189.686
 20
-9.42031
 10
190.155
 20
-8.90996
 10
190.703
 20
-8.4839
 10
191.313
 20
-8.15375
 10
191.969
 20
-7.92852
 10
192.653
 20
-7.81435
 10
193.347
 20
-7.81435
 10
194.031
 20
-7.92852
 10
194.687
 20
-8.15375
 10
195.297
 20
-8.4839
 10
195.845
 20
-8.90996
 10
196.314
 20
-9.42031
 10
196.694
 20
-10.001
 10
196.972
 20
-10.6363
 10
197.143
 20
-11.3087
 10
197.2
 20
-12
 10
197.143
 20
-12.6913
 10
196.972
 20
-13.3637
 10
196.694
 20
-13.999
 10
196.314
 20
-14.5797
 10
195.845
 20
-15.09
 10
195.297
 20
-15.5161
 10
194.687
 20
-15.8462
 10
194.031
 20
-16.0715
 10
193.347
 20
-16.1857
 10
192.653
 20
-16.1857
  0
LWPOLYLINE
100
AcDbEntity
  8
0
100
AcDbPolyline
 90
59
 70
1
 10
90.0996
 20
-45.4781
 10
89.9054
 20
-45.2273
 10
89.7282
 20
-44.9729
 10
89.5681
 20
-44.7148
 10
89.425
 20
-44.4531
 10
89.2989
 20
-44.1877
 10
89.1898
 20
-43.9186
 10
89.0965
 20
-43.6441
 10
89.0175
 20
-43.3623
 10
88.9528
 20
-43.0731
 10
88.9025
 20
-42.7767
 10
88.8666
 20
-42.473
 10
88.8451
 20
-42.1619
 10
88.8379
 20
-41.8435
 10
88.8451
 20
-41.524
 10
88.8669
 20
-41.2118
 10
88.9033
 20
-40.9069
 10
88.9541
 20
-40.6093
 10
89.0195
 20
-40.319
 10
89.0994
 20
-40.036
 10
89.1939
 20
-39.7603
 10
89.3038
 20
-39.4905
 10
89.4304
 20
-39.2249
 10
89.5734
 20
-38.9637
 10
89.7329
 20
-38.7068
 10
89.909
 20
-38.4542
 10
90.1016
 20
-38.2059
 10
90.3108
 20
-37.962
 10
89.6028
 20
-37.962
 10
89.3924
 20
-38.2002
 10
89.1981
 20
-38.4429
 10
89.02
 20
-38.6901
 10
88.8581
 20
-38.9418
 10
88.7125
 20
-39.198
 10
88.583
 20
-39.4586
 10
88.4697
 20
-39.7237
 10
88.372
 20
-39.996
 10
88.2893
 20
-40.2781
 10
88.2217
 20
-40.57
 10
88.1691
 20
-40.8716
 10
88.1315
 20
-41.1831
 10
88.109
 20
-41.5044
 10
88.1014
 20
-41.8354
 10
88.1014
 20
-41.8517
 10
88.1089
 20
-42.1806
 10
88.1313
 20
-42.5002
 10
88.1687
 20
-42.8104
 10
88.221
 20
-43.1112
 10
88.2883
 20
-43.4026
 10
88.3705
 20
-43.6846
 10
88.4676
 20
-43.9573
 10
88.5805
 20
-44.223
 10
88.7098
 20
-44.4844
 10
88.8555
 20
-44.7414
 10
89.0177
 20
-44.9939
 10
89.1963
 20
-45.2421
 10
89.3913
 20
-45.4858
 10
89.6028
 20
-45.7252
 10
90.3108
 20
-45.7252
  0
LWPOLYLINE
100
AcDbEntity
  8
0
100
AcDbPolyline
 90
59
 70
1
 10
98.2688
 20
-45.4869
 10
98.463
 20
-45.2442
 10
98.6411
 20
-44.997
 10
98.803
 20
-44.7454
 10
98.9487
 20
-44.4892
 10
99.0782
 20
-44.2285
 10
99.1915
 20
-43.9634
 10
99.2892
 20
-43.6911
 10
99.3718
 20
-43.409
 10
99.4395
 20
-43.1172
 10
99.4921
 20
-42.8155
 10
99.5296
 20
-42.504
 10
99.5522
 20
-42.1828
 10
99.5597
 20
-41.8517
 10
99.5597
 20
-41.8354
 10
99.5522
 20
-41.5065
 10
99.5298
 20
-41.1869
 10
99.4924
 20
-40.8768
 10
99.4401
 20
-40.576
 10
99.3729
 20
-40.2845
 10
99.2907
 20
-40.0025
 10
99.1935
 20
-39.7299
 10
99.0807
 20
-39.4641
 10
98.9514
 20
-39.2027
 10
98.8057
 20
-38.9458
 10
98.6435
 20
-38.6932
 10
98.4649
 20
-38.4451
 10
98.2698
 20
-38.2013
 10
98.0583
 20
-37.962
 10
97.3504
 20
-37.962
 10
97.5595
 20
-38.2069
 10
97.7521
 20
-38.4559
 10
97.9282
 20
-38.7088
 10
98.0877
 20
-38.9657
 10
98.2308
 20
-39.2266
 10
98.3572
 20
-39.4915
 10
98.4672
 20
-39.7604
 10
98.5617
 20
-40.0351
 10
98.6416
 20
-40.3174
 10
98.707
 20
-40.6073
 10
98.7579
 20
-40.9049
 10
98.7942
 20
-41.2102
 10
98.816
 20
-41.523
 10
98.8233
 20
-41.8435
 10
98.816
 20
-42.164
 10
98.7944
 20
-42.4768
 10
98.7582
 20
-42.7818
 10
98.7077
 20
-43.0791
 10
98.6426
 20
-43.3687
 10
98.5632
 20
-43.6506
 10
98.4693
 20
-43.9248
 10
98.3597
 20
-44.1932
 10
98.2335
 20
-44.4578
 10
98.0904
 20
-44.7188
 10
97.9306
 20
-44.976
 10
97.7539
 20
-45.2294
 10
97.5605
 20
-45.4792
 10
97.3504
 20
-45.7252
 10
98.0583
 20
-45.7252
  0
LWPOLYLINE
100
AcDbEntity
  8
0
100
AcDbPolyline
 90
125
 70
1
 10
8.5265
 20
-44.0762
 10
8.74052
 20
-44.0606
 10
8.94997
 20
-44.0347
 10
9.15486
 20
-43.9983
 10
9.35517
 20
-43.9516
 10
9.55092
 20
-43.8945
 10
9.7421
 20
-43.8271
 10
9.92682
 20
-43.7502
 10
10.1032
 20
-43.6647
 10
10.2711
 20
-43.5706
 10
10.4307
 20
-43.468
 10
10.5818
 20
-43.3569
 10
10.7246
 20
-43.2372
 10
10.859
 20
-43.1089
 10
10.859
 20
-41.1315
 10
8.42996
 20
-41.1315
 10
8.42996
 20
-41.7825
 10
10.1429
 20
-41.7825
 10
10.1429
 20
-42.816
 10
10.0531
 20
-42.8972
 10
9.95574
 20
-42.9734
 10
9.85082
 20
-43.0447
 10
9.73835
 20
-43.1109
 10
9.61832
 20
-43.1722
 10
9.49073
 20
-43.2285
 10
9.35558
 20
-43.2798
 10
9.21513
 20
-43.3252
 10
9.07162
 20
-43.3635
 10
8.92502
 20
-43.3949
 10
8.77536
 20
-43.4193
 10
8.62262
 20
-43.4368
 10
8.46681
 20
-43.4472
 10
8.30792
 20
-43.4507
 10
8.03531
 20
-43.4379
 10
7.78013
 20
-43.3994
 10
7.54239
 20
-43.3352
 10
7.32209
 20
-43.2454
 10
7.11922
 20
-43.13
 10
6.93379
 20
-42.9889
 10
6.7658
 20
-42.8221
 10
6.61792
 20
-42.6331
 10
6.49279
 20
-42.4255
 10
6.39041
 20
-42.1992
 10
6.31078
 20
-41.9542
 10
6.2539
 20
-41.6905
 10
6.21978
 20
-41.4081
 10
6.2084
 20
-41.1071
 10
6.21911
 20
-40.8056
 10
6.25125
 20
-40.524
 10
6.30481
 20
-40.2625
 10
6.37979
 20
-40.021
 10
6.4762
 20
-39.7995
 10
6.59403
 20
-39.5981
 10
6.73328
 20
-39.4166
 10
6.89279
 20
-39.2574
 10
7.07141
 20
-39.1226
 10
7.26911
 20
-39.0124
 10
7.48592
 20
-38.9267
 10
7.72182
 20
-38.8654
 10
7.97682
 20
-38.8287
 10
8.25092
 20
-38.8164
 10
8.42916
 20
-38.821
 10
8.59885
 20
-38.8347
 10
8.75999
 20
-38.8575
 10
8.91257
 20
-38.8895
 10
9.05659
 20
-38.9306
 10
9.19206
 20
-38.9808
 10
9.31898
 20
-39.0402
 10
9.43784
 20
-39.1095
 10
9.54915
 20
-39.1897
 10
9.6529
 20
-39.2806
 10
9.7491
 20
-39.3823
 10
9.83774
 20
-39.4948
 10
9.91883
 20
-39.6181
 10
9.99236
 20
-39.7522
 10
10.7329
 20
-39.5325
 10
10.6355
 20
-39.3381
 10
10.527
 20
-39.1595
 10
10.4073
 20
-38.9967
 10
10.2765
 20
-38.8496
 10
10.1346
 20
-38.7183
 10
9.98157
 20
-38.6028
 10
9.8174
 20
-38.5031
 10
9.64036
 20
-38.4178
 10
9.44871
 20
-38.3457
 10
9.24245
 20
-38.2866
 10
9.02157
 20
-38.2407
 10
8.78608
 20
-38.2079
 10
8.53598
 20
-38.1882
 10
8.27126
 20
-38.1817
 10
7.89653
 20
-38.1973
 10
7.54654
 20
-38.2441
 10
7.22129
 20
-38.3222
 10
6.92078
 20
-38.4315
 10
6.64502
 20
-38.572
 10
6.394
 20
-38.7437
 10
6.16772
 20
-38.9466
 10
5.96911
 20
-39.178
 10
5.80105
 20
-39.4352
 10
5.66355
 20
-39.7181
 10
5.5566
 20
-40.0267
 10
5.48021
 20
-40.3611
 10
5.43438
 20
-40.7212
 10
5.4191
 20
-41.1071
 10
5.42612
 20
-41.3626
 10
5.44717
 20
-41.6085
 10
5.48225
 20
-41.8446
 10
5.53136
 20
-42.071
 10
5.59451
 20
-42.2877
 10
5.67169
 20
-42.4946
 10
5.7629
 20
-42.6919
 10
5.8674
 20
-42.8778
 10
5.98443
 20
-43.0509
 10
6.11401
 20
-43.2112
 10
6.25612
 20
-43.3585
 10
6.41078
 20
-43.493
 10
6.57797
 20
-43.6146
 10
6.7577
 20
-43.7233
 10
6.94877
 20
-43.8183
 10
7.14996
 20
-43.8987
 10
7.36129
 20
-43.9645
 10
7.58275
 20
-44.0156
 10
7.81434
 20
-44.0521
 10
8.05607
 20
-44.0741
 10
8.30792
 20
-44.0814
  0
LWPOLYLINE
100
AcDbEntity
  8
0
100
AcDbPolyline
 90
77
 70
1
 10
122.07
 20
-44.074
 10
122.306
 20
-44.0518
 10
122.533
 20
-44.0149
 10
122.749
 20
-43.9631
 10
122.957
 20
-43.8966
 10
123.155
 20
-43.8153
 10
123.343
 20
-43.7193
 10
123.52
 20
-43.6094
 10
123.686
 20
-43.4868
 10
123.839
 20
-43.3513
 10
123.98
 20
-43.2031
 10
124.109
 20
-43.0421
 10
124.225
 20
-42.8683
 10
124.33
 20
-42.6817
 10
124.421
 20
-42.4842
 10
124.498
 20
-42.2775
 10
124.561
 20
-42.0617
 10
124.61
 20
-41.8368
 10
124.645
 20
-41.6027
 10
124.666
 20
-41.3595
 10
124.673
 20
-41.1071
 10
124.666
 20
-40.8539
 10
124.646
 20
-40.6106
 10
124.611
 20
-40.377
 10
124.562
 20
-40.1532
 10
124.5
 20
-39.9392
 10
124.424
 20
-39.7351
 10
124.334
 20
-39.5407
 10
124.23
 20
-39.3576
 10
124.115
 20
-39.1874
 10
123.987
 20
-39.0301
 10
123.846
 20
-38.8857
 10
123.694
 20
-38.7541
 10
123.529
 20
-38.6354
 10
123.351
 20
-38.5296
 10
123.163
 20
-38.4373
 10
122.965
 20
-38.3592
 10
122.757
 20
-38.2953
 10
122.541
 20
-38.2456
 10
122.314
 20
-38.2101
 10
122.079
 20
-38.1888
 10
121.833
 20
-38.1817
 10
121.462
 20
-38.1975
 10
121.114
 20
-38.245
 10
120.791
 20
-38.3241
 10
120.492
 20
-38.4348
 10
120.216
 20
-38.5772
 10
119.965
 20
-38.7512
 10
119.738
 20
-38.9568
 10
119.538
 20
-39.1905
 10
119.369
 20
-39.4487
 10
119.231
 20
-39.7314
 10
119.124
 20
-40.0386
 10
119.047
 20
-40.3703
 10
119.001
 20
-40.7264
 10
118.985
 20
-41.1071
 10
118.992
 20
-41.3606
 10
119.013
 20
-41.6048
 10
119.047
 20
-41.8399
 10
119.096
 20
-42.0657
 10
119.158
 20
-42.2823
 10
119.233
 20
-42.4897
 10
119.323
 20
-42.6879
 10
119.426
 20
-42.8749
 10
119.541
 20
-43.0489
 10
119.668
 20
-43.2098
 10
119.808
 20
-43.3578
 10
119.96
 20
-43.4927
 10
120.125
 20
-43.6145
 10
120.302
 20
-43.7233
 10
120.49
 20
-43.8183
 10
120.687
 20
-43.8987
 10
120.895
 20
-43.9645
 10
121.113
 20
-44.0156
 10
121.341
 20
-44.0521
 10
121.578
 20
-44.0741
 10
121.825
 20
-44.0814
  0
LWPOLYLINE
100
AcDbEntity
  8
0
100
AcDbPolyline
 90
56
 70
1
 10
121.558
 20
-43.4378
 10
121.309
 20
-43.3991
 10
121.076
 20
-43.3345
 10
120.861
 20
-43.2441
 10
120.663
 20
-43.1279
 10
120.482
 20
-42.9859
 10
120.318
 20
-42.8181
 10
120.174
 20
-42.6282
 10
120.052
 20
-42.4201
 10
119.952
 20
-42.1939
 10
119.874
 20
-41.9495
 10
119.819
 20
-41.6869
 10
119.786
 20
-41.4061
 10
119.775
 20
-41.1071
 10
119.786
 20
-40.8066
 10
119.818
 20
-40.5258
 10
119.873
 20
-40.2649
 10
119.95
 20
-40.0237
 10
120.049
 20
-39.8022
 10
120.169
 20
-39.6005
 10
120.312
 20
-39.4186
 10
120.474
 20
-39.2588
 10
120.655
 20
-39.1236
 10
120.854
 20
-39.013
 10
121.072
 20
-38.927
 10
121.307
 20
-38.8656
 10
121.561
 20
-38.8287
 10
121.833
 20
-38.8164
 10
122.103
 20
-38.8289
 10
122.355
 20
-38.8662
 10
122.589
 20
-38.9285
 10
122.805
 20
-39.0157
 10
123.003
 20
-39.1278
 10
123.183
 20
-39.2648
 10
123.345
 20
-39.4267
 10
123.487
 20
-39.6105
 10
123.607
 20
-39.813
 10
123.705
 20
-40.0343
 10
123.782
 20
-40.2744
 10
123.836
 20
-40.5332
 10
123.869
 20
-40.8108
 10
123.88
 20
-41.1071
 10
123.869
 20
-41.4165
 10
123.837
 20
-41.7051
 10
123.782
 20
-41.9731
 10
123.707
 20
-42.2205
 10
123.609
 20
-42.4471
 10
123.49
 20
-42.6531
 10
123.349
 20
-42.8384
 10
123.188
 20
-43.0008
 10
123.008
 20
-43.1383
 10
122.809
 20
-43.2508
 10
122.591
 20
-43.3382
 10
122.355
 20
-43.4007
 10
122.1
 20
-43.4382
 10
121.825
 20
-43.4507
  0
LWPOLYLINE
100
AcDbEntity
  8
0
100
AcDbPolyline
 90
226
 70
1
 10
141.465
 20
-44.0725
 10
141.756
 20
-44.0458
 10
142.026
 20
-44.0014
 10
142.276
 20
-43.9392
 10
142.505
 20
-43.8592
 10
142.713
 20
-43.7615
 10
142.901
 20
-43.646
 10
143.065
 20
-43.5143
 10
143.205
 20
-43.368
 10
143.319
 20
-43.2071
 10
143.407
 20
-43.0315
 10
143.471
 20
-42.8414
 10
143.508
 20
-42.6366
 10
143.521
 20
-42.4173
 10
143.519
 20
-42.3294
 10
143.514
 20
-42.2449
 10
143.505
 20
-42.1637
 10
143.493
 20
-42.0858
 10
143.477
 20
-42.0112
 10
143.457
 20
-41.94
 10
143.434
 20
-41.872
 10
143.407
 20
-41.807
 10
143.378
 20
-41.7445
 10
143.346
 20
-41.6845
 10
143.312
 20
-41.6269
 10
143.274
 20
-41.5719
 10
143.234
 20
-41.5193
 10
143.192
 20
-41.4693
 10
143.146
 20
-41.4215
 10
143.099
 20
-41.3759
 10
143.049
 20
-41.3325
 10
142.997
 20
-41.2912
 10
142.943
 20
-41.2521
 10
142.886
 20
-41.2151
 10
142.827
 20
-41.1804
 10
142.767
 20
-41.1473
 10
142.705
 20
-41.1154
 10
142.642
 20
-41.0848
 10
142.578
 20
-41.0555
 10
142.512
 20
-41.0273
 10
142.446
 20
-41.0005
 10
142.378
 20
-40.9749
 10
142.309
 20
-40.9504
 10
142.239
 20
-40.9269
 10
142.168
 20
-40.9044
 10
142.096
 20
-40.8829
 10
142.023
 20
-40.8623
 10
141.95
 20
-40.8428
 10
141.875
 20
-40.8243
 10
141.8
 20
-40.8063
 10
141.725
 20
-40.7885
 10
141.65
 20
-40.7706
 10
141.575
 20
-40.7529
 10
141.499
 20
-40.7353
 10
141.424
 20
-40.7177
 10
141.348
 20
-40.7002
 10
141.134
 20
-40.6514
 10
140.94
 20
-40.6047
 10
140.768
 20
-40.5604
 10
140.618
 20
-40.5182
 10
140.489
 20
-40.4783
 10
140.381
 20
-40.4407
 10
140.295
 20
-40.4053
 10
140.222
 20
-40.3699
 10
140.154
 20
-40.3324
 10
140.091
 20
-40.2927
 10
140.033
 20
-40.2508
 10
139.98
 20
-40.2068
 10
139.932
 20
-40.1606
 10
139.89
 20
-40.1123
 10
139.852
 20
-40.061
 10
139.821
 20
-40.006
 10
139.795
 20
-39.9473
 10
139.775
 20
-39.8848
 10
139.761
 20
-39.8186
 10
139.752
 20
-39.7486
 10
139.749
 20
-39.6749
 10
139.757
 20
-39.5504
 10
139.779
 20
-39.4351
 10
139.816
 20
-39.3289
 10
139.868
 20
-39.2318
 10
139.934
 20
-39.1439
 10
140.015
 20
-39.0651
 10
140.111
 20
-38.9955
 10
140.222
 20
-38.935
 10
140.345
 20
-38.8838
 10
140.482
 20
-38.842
 10
140.632
 20
-38.8094
 10
140.795
 20
-38.7862
 10
140.971
 20
-38.7722
 10
141.161
 20
-38.7676
 10
141.335
 20
-38.7718
 10
141.497
 20
-38.7844
 10
141.648
 20
-38.8053
 10
141.788
 20
-38.8347
 10
141.917
 20
-38.8724
 10
142.035
 20
-38.9186
 10
142.142
 20
-38.9731
 10
142.238
 20
-39.0369
 10
142.326
 20
-39.1109
 10
142.403
 20
-39.1951
 10
142.472
 20
-39.2896
 10
142.531
 20
-39.3942
 10
142.581
 20
-39.5091
 10
142.622
 20
-39.6342
 10
143.387
 20
-39.4999
 10
143.321
 20
-39.3028
 10
143.243
 20
-39.1228
 10
143.152
 20
-38.96
 10
143.049
 20
-38.8144
 10
142.933
 20
-38.686
 10
142.804
 20
-38.5748
 10
142.663
 20
-38.4808
 10
142.506
 20
-38.4014
 10
142.33
 20
-38.3343
 10
142.135
 20
-38.2793
 10
141.922
 20
-38.2366
 10
141.69
 20
-38.2061
 10
141.439
 20
-38.1878
 10
141.169
 20
-38.1817
 10
140.879
 20
-38.1898
 10
140.609
 20
-38.2142
 10
140.359
 20
-38.2549
 10
140.128
 20
-38.3119
 10
139.918
 20
-38.3851
 10
139.727
 20
-38.4746
 10
139.556
 20
-38.5804
 10
139.407
 20
-38.7012
 10
139.28
 20
-38.8358
 10
139.177
 20
-38.9842
 10
139.096
 20
-39.1464
 10
139.039
 20
-39.3223
 10
139.004
 20
-39.5121
 10
138.993
 20
-39.7156
 10
138.995
 20
-39.8059
 10
139.001
 20
-39.8933
 10
139.012
 20
-39.9777
 10
139.028
 20
-40.0591
 10
139.048
 20
-40.1375
 10
139.072
 20
-40.2129
 10
139.1
 20
-40.2853
 10
139.133
 20
-40.3549
 10
139.17
 20
-40.4219
 10
139.21
 20
-40.4864
 10
139.255
 20
-40.5483
 10
139.303
 20
-40.6077
 10
139.356
 20
-40.6644
 10
139.412
 20
-40.7186
 10
139.473
 20
-40.7708
 10
139.54
 20
-40.8216
 10
139.613
 20
-40.8709
 10
139.693
 20
-40.9189
 10
139.778
 20
-40.9654
 10
139.87
 20
-41.0105
 10
139.967
 20
-41.0542
 10
140.074
 20
-41.0973
 10
140.195
 20
-41.1403
 10
140.329
 20
-41.1833
 10
140.476
 20
-41.2263
 10
140.637
 20
-41.2693
 10
140.811
 20
-41.3123
 10
140.999
 20
-41.3553
 10
141.109
 20
-41.3806
 10
141.216
 20
-41.4055
 10
141.321
 20
-41.4298
 10
141.422
 20
-41.4537
 10
141.521
 20
-41.477
 10
141.617
 20
-41.4998
 10
141.711
 20
-41.5222
 10
141.801
 20
-41.545
 10
141.887
 20
-41.5693
 10
141.97
 20
-41.5952
 10
142.049
 20
-41.6225
 10
142.124
 20
-41.6513
 10
142.196
 20
-41.6816
 10
142.264
 20
-41.7134
 10
142.328
 20
-41.7472
 10
142.388
 20
-41.7835
 10
142.444
 20
-41.8222
 10
142.495
 20
-41.8635
 10
142.542
 20
-41.9072
 10
142.585
 20
-41.9535
 10
142.624
 20
-42.0022
 10
142.658
 20
-42.0544
 10
142.687
 20
-42.1109
 10
142.71
 20
-42.1716
 10
142.729
 20
-42.2367
 10
142.742
 20
-42.3062
 10
142.75
 20
-42.3799
 10
142.752
 20
-42.4579
 10
142.744
 20
-42.596
 10
142.719
 20
-42.7242
 10
142.677
 20
-42.8424
 10
142.619
 20
-42.9508
 10
142.544
 20
-43.0494
 10
142.452
 20
-43.138
 10
142.343
 20
-43.2168
 10
142.219
 20
-43.2853
 10
142.082
 20
-43.3433
 10
141.93
 20
-43.3908
 10
141.764
 20
-43.4277
 10
141.584
 20
-43.454
 10
141.39
 20
-43.4698
 10
141.182
 20
-43.4751
 10
140.98
 20
-43.4702
 10
140.79
 20
-43.4554
 10
140.613
 20
-43.4307
 10
140.449
 20
-43.3961
 10
140.297
 20
-43.3516
 10
140.157
 20
-43.2973
 10
140.03
 20
-43.233
 10
139.915
 20
-43.1582
 10
139.812
 20
-43.0723
 10
139.721
 20
-42.9751
 10
139.642
 20
-42.8667
 10
139.575
 20
-42.7471
 10
139.52
 20
-42.6162
 10
139.477
 20
-42.4742
 10
138.724
 20
-42.6247
 10
138.855
 20
-43.0112
 10
139.059
 20
-43.3382
 10
139.334
 20
-43.6057
 10
139.681
 20
-43.8138
 10
140.1
 20
-43.9625
 10
140.59
 20
-44.0516
 10
141.153
 20
-44.0814
  0
LWPOLYLINE
100
AcDbEntity
  8
0
100
AcDbPolyline
 90
77
 70
1
 10
153.402
 20
-44.074
 10
153.638
 20
-44.0518
 10
153.864
 20
-44.0149
 10
154.081
 20
-43.9631
 10
154.288
 20
-43.8966
 10
154.486
 20
-43.8153
 10
154.674
 20
-43.7193
 10
154.852
 20
-43.6094
 10
155.017
 20
-43.4868
 10
155.17
 20
-43.3513
 10
155.311
 20
-43.2031
 10
155.44
 20
-43.0421
 10
155.557
 20
-42.8683
 10
155.661
 20
-42.6817
 10
155.752
 20
-42.4842
 10
155.829
 20
-42.2775
 10
155.893
 20
-42.0617
 10
155.942
 20
-41.8368
 10
155.977
 20
-41.6027
 10
155.998
 20
-41.3595
 10
156.005
 20
-41.1071
 10
155.998
 20
-40.8539
 10
155.977
 20
-40.6106
 10
155.942
 20
-40.377
 10
155.894
 20
-40.1532
 10
155.831
 20
-39.9392
 10
155.755
 20
-39.7351
 10
155.665
 20
-39.5407
 10
155.562
 20
-39.3576
 10
155.446
 20
-39.1874
 10
155.318
 20
-39.0301
 10
155.178
 20
-38.8857
 10
155.025
 20
-38.7541
 10
154.86
 20
-38.6354
 10
154.682
 20
-38.5296
 10
154.494
 20
-38.4373
 10
154.296
 20
-38.3592
 10
154.089
 20
-38.2953
 10
153.872
 20
-38.2456
 10
153.646
 20
-38.2101
 10
153.41
 20
-38.1888
 10
153.165
 20
-38.1817
 10
152.793
 20
-38.1975
 10
152.446
 20
-38.245
 10
152.122
 20
-38.3241
 10
151.823
 20
-38.4348
 10
151.548
 20
-38.5772
 10
151.296
 20
-38.7512
 10
151.069
 20
-38.9568
 10
150.87
 20
-39.1905
 10
150.701
 20
-39.4487
 10
150.562
 20
-39.7314
 10
150.455
 20
-40.0386
 10
150.378
 20
-40.3703
 10
150.332
 20
-40.7264
 10
150.317
 20
-41.1071
 10
150.324
 20
-41.3606
 10
150.344
 20
-41.6048
 10
150.379
 20
-41.8399
 10
150.427
 20
-42.0657
 10
150.489
 20
-42.2823
 10
150.565
 20
-42.4897
 10
150.654
 20
-42.6879
 10
150.757
 20
-42.8749
 10
150.872
 20
-43.0489
 10
151
 20
-43.2098
 10
151.139
 20
-43.3578
 10
151.291
 20
-43.4927
 10
151.456
 20
-43.6145
 10
151.633
 20
-43.7233
 10
151.821
 20
-43.8183
 10
152.019
 20
-43.8987
 10
152.227
 20
-43.9645
 10
152.444
 20
-44.0156
 10
152.672
 20
-44.0521
 10
152.909
 20
-44.0741
 10
153.157
 20
-44.0814
  0
LWPOLYLINE
100
AcDbEntity
  8
0
100
AcDbPolyline
 90
56
 70
1
 10
152.89
 20
-43.4378
 10
152.64
 20
-43.3991
 10
152.407
 20
-43.3345
 10
152.192
 20
-43.2441
 10
151.994
 20
-43.1279
 10
151.813
 20
-42.9859
 10
151.649
 20
-42.8181
 10
151.505
 20
-42.6282
 10
151.383
 20
-42.4201
 10
151.283
 20
-42.1939
 10
151.206
 20
-41.9495
 10
151.15
 20
-41.6869
 10
151.117
 20
-41.4061
 10
151.106
 20
-41.1071
 10
151.117
 20
-40.8066
 10
151.15
 20
-40.5258
 10
151.205
 20
-40.2649
 10
151.281
 20
-40.0237
 10
151.38
 20
-39.8022
 10
151.501
 20
-39.6005
 10
151.643
 20
-39.4186
 10
151.806
 20
-39.2588
 10
151.987
 20
-39.1236
 10
152.186
 20
-39.013
 10
152.403
 20
-38.927
 10
152.639
 20
-38.8656
 10
152.893
 20
-38.8287
 10
153.165
 20
-38.8164
 10
153.435
 20
-38.8289
 10
153.687
 20
-38.8662
 10
153.921
 20
-38.9285
 10
154.137
 20
-39.0157
 10
154.335
 20
-39.1278
 10
154.514
 20
-39.2648
 10
154.676
 20
-39.4267
 10
154.818
 20
-39.6105
 10
154.938
 20
-39.813
 10
155.037
 20
-40.0343
 10
155.113
 20
-40.2744
 10
155.168
 20
-40.5332
 10
155.2
 20
-40.8108
 10
155.211
 20
-41.1071
 10
155.201
 20
-41.4165
 10
155.168
 20
-41.7051
 10
155.114
 20
-41.9731
 10
155.038
 20
-42.2205
 10
154.94
 20
-42.4471
 10
154.821
 20
-42.6531
 10
154.68
 20
-42.8384
 10
154.519
 20
-43.0008
 10
154.339
 20
-43.1383
 10
154.14
 20
-43.2508
 10
153.923
 20
-43.3382
 10
153.686
 20
-43.4007
 10
153.431
 20
-43.4382
 10
153.157
 20
-43.4507
  0
LWPOLYLINE
100
AcDbEntity
  8
0
100
AcDbPolyline
 90
114
 70
1
 10
159.86
 20
-44.0735
 10
160.089
 20
-44.0498
 10
160.31
 20
-44.0104
 10
160.522
 20
-43.9551
 10
160.726
 20
-43.8842
 10
160.922
 20
-43.7974
 10
161.109
 20
-43.6948
 10
161.287
 20
-43.5772
 10
161.452
 20
-43.4451
 10
161.606
 20
-43.2985
 10
161.748
 20
-43.1375
 10
161.879
 20
-42.9621
 10
161.997
 20
-42.7722
 10
162.104
 20
-42.5678
 10
161.47
 20
-42.2505
 10
161.284
 20
-42.5667
 10
161.074
 20
-42.8344
 10
160.84
 20
-43.0533
 10
160.581
 20
-43.2236
 10
160.298
 20
-43.3453
 10
159.991
 20
-43.4183
 10
159.659
 20
-43.4426
 10
159.398
 20
-43.4295
 10
159.154
 20
-43.3903
 10
158.925
 20
-43.3249
 10
158.712
 20
-43.2334
 10
158.514
 20
-43.1157
 10
158.333
 20
-42.9718
 10
158.168
 20
-42.8018
 10
158.021
 20
-42.6103
 10
157.898
 20
-42.4019
 10
157.796
 20
-42.1766
 10
157.718
 20
-41.9345
 10
157.661
 20
-41.6756
 10
157.628
 20
-41.3998
 10
157.616
 20
-41.1071
 10
157.627
 20
-40.8118
 10
157.66
 20
-40.535
 10
157.714
 20
-40.2767
 10
157.789
 20
-40.0369
 10
157.886
 20
-39.8157
 10
158.005
 20
-39.613
 10
158.145
 20
-39.4288
 10
158.305
 20
-39.2663
 10
158.482
 20
-39.1288
 10
158.676
 20
-39.0164
 10
158.888
 20
-38.9289
 10
159.117
 20
-38.8664
 10
159.363
 20
-38.8289
 10
159.626
 20
-38.8164
 10
159.796
 20
-38.8218
 10
159.959
 20
-38.838
 10
160.116
 20
-38.865
 10
160.265
 20
-38.9028
 10
160.408
 20
-38.9514
 10
160.545
 20
-39.0107
 10
160.674
 20
-39.0809
 10
160.795
 20
-39.1613
 10
160.907
 20
-39.2513
 10
161.008
 20
-39.3509
 10
161.1
 20
-39.4602
 10
161.181
 20
-39.5791
 10
161.253
 20
-39.7076
 10
161.315
 20
-39.8458
 10
162.051
 20
-39.6017
 10
161.962
 20
-39.4076
 10
161.86
 20
-39.2277
 10
161.744
 20
-39.0619
 10
161.615
 20
-38.9102
 10
161.473
 20
-38.7726
 10
161.317
 20
-38.6491
 10
161.148
 20
-38.5398
 10
160.966
 20
-38.4448
 10
160.772
 20
-38.3644
 10
160.566
 20
-38.2986
 10
160.348
 20
-38.2474
 10
160.117
 20
-38.2109
 10
159.874
 20
-38.189
 10
159.618
 20
-38.1817
 10
159.256
 20
-38.1975
 10
158.916
 20
-38.2451
 10
158.6
 20
-38.3244
 10
158.307
 20
-38.4354
 10
158.037
 20
-38.5782
 10
157.791
 20
-38.7526
 10
157.568
 20
-38.9588
 10
157.371
 20
-39.193
 10
157.205
 20
-39.4514
 10
157.069
 20
-39.734
 10
156.963
 20
-40.0409
 10
156.888
 20
-40.3721
 10
156.842
 20
-40.7275
 10
156.827
 20
-41.1071
 10
156.834
 20
-41.3636
 10
156.854
 20
-41.6101
 10
156.888
 20
-41.8466
 10
156.935
 20
-42.073
 10
156.996
 20
-42.2893
 10
157.071
 20
-42.4956
 10
157.159
 20
-42.6919
 10
157.26
 20
-42.8768
 10
157.373
 20
-43.0491
 10
157.498
 20
-43.2088
 10
157.636
 20
-43.3558
 10
157.786
 20
-43.4903
 10
157.948
 20
-43.6121
 10
158.123
 20
-43.7213
 10
158.309
 20
-43.8168
 10
158.504
 20
-43.8977
 10
158.708
 20
-43.9638
 10
158.922
 20
-44.0152
 10
159.146
 20
-44.052
 10
159.38
 20
-44.074
 10
159.622
 20
-44.0814
  0
LWPOLYLINE
100
AcDbEntity
  8
0
100
AcDbPolyline
 90
36
 70
1
 10
12.9426
 20
-41.6198
 10
14.7288
 20
-41.6198
 10
16.218
 20
-44
 10
17.1131
 20
-44
 10
15.4856
 20
-41.5303
 10
15.667
 20
-41.4912
 10
15.8368
 20
-41.4389
 10
15.9951
 20
-41.3736
 10
16.1419
 20
-41.2951
 10
16.2771
 20
-41.2035
 10
16.4008
 20
-41.0988
 10
16.5129
 20
-40.981
 10
16.6117
 20
-40.8524
 10
16.6953
 20
-40.7156
 10
16.7637
 20
-40.5705
 10
16.8168
 20
-40.417
 10
16.8548
 20
-40.2553
 10
16.8776
 20
-40.0852
 10
16.8852
 20
-39.9069
 10
16.8745
 20
-39.6929
 10
16.8422
 20
-39.4928
 10
16.7884
 20
-39.3066
 10
16.7132
 20
-39.1343
 10
16.6164
 20
-38.9758
 10
16.4981
 20
-38.8312
 10
16.3583
 20
-38.7004
 10
16.1988
 20
-38.5855
 10
16.0212
 20
-38.4882
 10
15.8256
 20
-38.4086
 10
15.612
 20
-38.3467
 10
15.3804
 20
-38.3025
 10
15.1307
 20
-38.276
 10
14.863
 20
-38.2671
 10
12.1655
 20
-38.2671
 10
12.1655
 20
-44
 10
12.9426
 20
-44
  0
LWPOLYLINE
100
AcDbEntity
  8
0
100
AcDbPolyline
 90
31
 70
1
 10
12.9426
 20
-38.8896
 10
14.7858
 20
-38.8896
 10
14.9622
 20
-38.895
 10
15.1264
 20
-38.911
 10
15.2783
 20
-38.9378
 10
15.4181
 20
-38.9753
 10
15.5457
 20
-39.0235
 10
15.6611
 20
-39.0824
 10
15.7642
 20
-39.1521
 10
15.8544
 20
-39.2319
 10
15.9307
 20
-39.3215
 10
15.9931
 20
-39.4207
 10
16.0416
 20
-39.5297
 10
16.0763
 20
-39.6484
 10
16.0971
 20
-39.7768
 10
16.104
 20
-39.915
 10
16.0972
 20
-40.0579
 10
16.0766
 20
-40.1915
 10
16.0424
 20
-40.3156
 10
15.9944
 20
-40.4304
 10
15.9327
 20
-40.5359
 10
15.8574
 20
-40.6319
 10
15.7683
 20
-40.7185
 10
15.6667
 20
-40.7946
 10
15.5538
 20
-40.859
 10
15.4294
 20
-40.9117
 10
15.2937
 20
-40.9527
 10
15.1466
 20
-40.982
 10
14.9881
 20
-40.9995
 10
14.8183
 20
-41.0054
 10
12.9426
 20
-41.0054
  0
LWPOLYLINE
100
AcDbEntity
  8
0
100
AcDbPolyline
 90
12
 70
1
 10
22.6998
 20
-43.3653
 10
18.9607
 20
-43.3653
 10
18.9607
 20
-41.3675
 10
22.2889
 20
-41.3675
 10
22.2889
 20
-40.7409
 10
18.9607
 20
-40.7409
 10
18.9607
 20
-38.9019
 10
22.533
 20
-38.9019
 10
22.533
 20
-38.2671
 10
18.1836
 20
-38.2671
 10
18.1836
 20
-44
 10
22.6998
 20
-44
  0
LWPOLYLINE
100
AcDbEntity
  8
0
100
AcDbPolyline
 90
12
 70
1
 10
28.2581
 20
-43.3653
 10
24.519
 20
-43.3653
 10
24.519
 20
-41.3675
 10
27.8472
 20
-41.3675
 10
27.8472
 20
-40.7409
 10
24.519
 20
-40.7409
 10
24.519
 20
-38.9019
 10
28.0913
 20
-38.9019
 10
28.0913
 20
-38.2671
 10
23.7418
 20
-38.2671
 10
23.7418
 20
-44
 10
28.2581
 20
-44
  0
LWPOLYLINE
100
AcDbEntity
  8
0
100
AcDbPolyline
 90
19
 70
1
 10
29.9918
 20
-40.1916
 10
29.9715
 20
-39.5122
 10
29.9511
 20
-39.1175
 10
33.0189
 20
-44
 10
33.9547
 20
-44
 10
33.9547
 20
-38.2671
 10
33.2549
 20
-38.2671
 10
33.2549
 20
-42.0267
 10
33.2559
 20
-42.1379
 10
33.2589
 20
-42.2671
 10
33.2639
 20
-42.4143
 10
33.2708
 20
-42.5793
 10
33.2798
 20
-42.7624
 10
33.2908
 20
-42.9633
 10
33.3037
 20
-43.1822
 10
30.2034
 20
-38.2671
 10
29.3001
 20
-38.2671
 10
29.3001
 20
-44
 10
29.9918
 20
-44
  0
LWPOLYLINE
100
AcDbEntity
  8
0
100
AcDbPolyline
 90
33
 70
1
 10
38.4106
 20
-41.7663
 10
40.095
 20
-41.7663
 10
40.3477
 20
-41.7565
 10
40.5848
 20
-41.7271
 10
40.8063
 20
-41.6781
 10
41.0124
 20
-41.6095
 10
41.2029
 20
-41.5213
 10
41.3779
 20
-41.4135
 10
41.5374
 20
-41.2861
 10
41.6782
 20
-41.1422
 10
41.7974
 20
-40.9846
 10
41.895
 20
-40.8133
 10
41.9708
 20
-40.6285
 10
42.025
 20
-40.4301
 10
42.0575
 20
-40.218
 10
42.0684
 20
-39.9923
 10
42.0576
 20
-39.765
 10
42.0252
 20
-39.5529
 10
41.9712
 20
-39.3558
 10
41.8956
 20
-39.1739
 10
41.7985
 20
-39.0071
 10
41.6797
 20
-38.8554
 10
41.5394
 20
-38.7188
 10
41.3794
 20
-38.599
 10
41.2016
 20
-38.4976
 10
41.0061
 20
-38.4146
 10
40.7928
 20
-38.3501
 10
40.5617
 20
-38.304
 10
40.3128
 20
-38.2763
 10
40.0462
 20
-38.2671
 10
37.6335
 20
-38.2671
 10
37.6335
 20
-44
 10
38.4106
 20
-44
  0
LWPOLYLINE
100
AcDbEntity
  8
0
100
AcDbPolyline
 90
17
 70
1
 10
38.4106
 20
-38.8896
 10
39.9526
 20
-38.8896
 10
40.3067
 20
-38.9123
 10
40.6063
 20
-38.9803
 10
40.8514
 20
-39.0936
 10
41.042
 20
-39.2523
 10
41.1782
 20
-39.4563
 10
41.2599
 20
-39.7057
 10
41.2872
 20
-40.0004
 10
41.2606
 20
-40.3059
 10
41.1809
 20
-40.5644
 10
41.048
 20
-40.7759
 10
40.862
 20
-40.9404
 10
40.6229
 20
-41.0579
 10
40.3306
 20
-41.1284
 10
39.9852
 20
-41.1519
 10
38.4106
 20
-41.1519
  0
LWPOLYLINE
100
AcDbEntity
  8
0
100
AcDbPolyline
 90
6
 70
1
 10
46.8658
 20
-43.3653
 10
43.9689
 20
-43.3653
 10
43.9689
 20
-38.2671
 10
43.1917
 20
-38.2671
 10
43.1917
 20
-44
 10
46.8658
 20
-44
  0
LWPOLYLINE
100
AcDbEntity
  8
0
100
AcDbPolyline
 90
8
 70
1
 10
48.6238
 20
-42.3237
 10
51.2359
 20
-42.3237
 10
51.891
 20
-44
 10
52.6844
 20
-44
 10
50.3815
 20
-38.2671
 10
49.4985
 20
-38.2671
 10
47.159
 20
-44
 10
47.9646
 20
-44
  0
LWPOLYLINE
100
AcDbEntity
  8
0
100
AcDbPolyline
 90
19
 70
1
 10
49.5921
 20
-39.8336
 10
49.6471
 20
-39.6864
 10
49.6981
 20
-39.547
 10
49.7451
 20
-39.4153
 10
49.7881
 20
-39.2915
 10
49.8271
 20
-39.1755
 10
49.8621
 20
-39.0673
 10
49.8932
 20
-38.967
 10
49.9299
 20
-38.853
 10
50.0397
 20
-39.1908
 10
50.0723
 20
-39.2904
 10
50.1048
 20
-39.387
 10
50.1373
 20
-39.4807
 10
50.1699
 20
-39.5714
 10
50.2024
 20
-39.659
 10
50.235
 20
-39.7437
 10
50.2675
 20
-39.8254
 10
51.004
 20
-41.7174
 10
48.8598
 20
-41.7174
  0
LWPOLYLINE
100
AcDbEntity
  8
0
100
AcDbPolyline
 90
8
 70
1
 10
55.012
 20
-38.9019
 10
56.9813
 20
-38.9019
 10
56.9813
 20
-38.2671
 10
52.2697
 20
-38.2671
 10
52.2697
 20
-38.9019
 10
54.239
 20
-38.9019
 10
54.239
 20
-44
 10
55.012
 20
-44
  0
LWPOLYLINE
100
AcDbEntity
  8
0
100
AcDbPolyline
 90
12
 70
1
 10
62.3727
 20
-43.3653
 10
58.6336
 20
-43.3653
 10
58.6336
 20
-41.3675
 10
61.9618
 20
-41.3675
 10
61.9618
 20
-40.7409
 10
58.6336
 20
-40.7409
 10
58.6336
 20
-38.9019
 10
62.2059
 20
-38.9019
 10
62.2059
 20
-38.2671
 10
57.8565
 20
-38.2671
 10
57.8565
 20
-44
 10
62.3727
 20
-44
  0
LWPOLYLINE
100
AcDbEntity
  8
0
100
AcDbPolyline
 90
6
 70
1
 10
69.4041
 20
-43.3653
 10
66.5071
 20
-43.3653
 10
66.5071
 20
-38.2671
 10
65.73
 20
-38.2671
 10
65.73
 20
-44
 10
69.4041
 20
-44
  0
LWPOLYLINE
100
AcDbEntity
  8
0
100
AcDbPolyline
 90
12
 70
1
 10
74.8809
 20
-43.3653
 10
71.1417
 20
-43.3653
 10
71.1417
 20
-41.3675
 10
74.4699
 20
-41.3675
 10
74.4699
 20
-40.7409
 10
71.1417
 20
-40.7409
 10
71.1417
 20
-38.9019
 10
74.7141
 20
-38.9019
 10
74.7141
 20
-38.2671
 10
70.3646
 20
-38.2671
 10
70.3646
 20
-44
 10
74.8809
 20
-44
  0
LWPOLYLINE
100
AcDbEntity
  8
0
100
AcDbPolyline
 90
10
 70
1
 10
76.7
 20
-41.6767
 10
79.898
 20
-41.6767
 10
79.898
 20
-41.0339
 10
76.7
 20
-41.0339
 10
76.7
 20
-38.9019
 10
79.9957
 20
-38.9019
 10
79.9957
 20
-38.2671
 10
75.9229
 20
-38.2671
 10
75.9229
 20
-44
 10
76.7
 20
-44
  0
LWPOLYLINE
100
AcDbEntity
  8
0
100
AcDbPolyline
 90
8
 70
1
 10
83.2591
 20
-38.9019
 10
85.2284
 20
-38.9019
 10
85.2284
 20
-38.2671
 10
80.5168
 20
-38.2671
 10
80.5168
 20
-38.9019
 10
82.4861
 20
-38.9019
 10
82.4861
 20
-44
 10
83.2591
 20
-44
  0
LWPOLYLINE
100
AcDbEntity
  8
0
100
AcDbPolyline
 90
10
 70
1
 10
108.943
 20
-41.6767
 10
112.141
 20
-41.6767
 10
112.141
 20
-41.0339
 10
108.943
 20
-41.0339
 10
108.943
 20
-38.9019
 10
112.239
 20
-38.9019
 10
112.239
 20
-38.2671
 10
108.166
 20
-38.2671
 10
108.166
 20
-44
 10
108.943
 20
-44
  0
LWPOLYLINE
100
AcDbEntity
  8
0
100
AcDbPolyline
 90
36
 70
1
 10
114.033
 20
-41.6198
 10
115.819
 20
-41.6198
 10
117.309
 20
-44
 10
118.204
 20
-44
 10
116.576
 20
-41.5303
 10
116.758
 20
-41.4912
 10
116.927
 20
-41.4389
 10
117.086
 20
-41.3736
 10
117.233
 20
-41.2951
 10
117.368
 20
-41.2035
 10
117.491
 20
-41.0988
 10
117.604
 20
-40.981
 10
117.702
 20
-40.8524
 10
117.786
 20
-40.7156
 10
117.854
 20
-40.5705
 10
117.907
 20
-40.417
 10
117.945
 20
-40.2553
 10
117.968
 20
-40.0852
 10
117.976
 20
-39.9069
 10
117.965
 20
-39.6929
 10
117.933
 20
-39.4928
 10
117.879
 20
-39.3066
 10
117.804
 20
-39.1343
 10
117.707
 20
-38.9758
 10
117.589
 20
-38.8312
 10
117.449
 20
-38.7004
 10
117.289
 20
-38.5855
 10
117.112
 20
-38.4882
 10
116.916
 20
-38.4086
 10
116.703
 20
-38.3467
 10
116.471
 20
-38.3025
 10
116.221
 20
-38.276
 10
115.954
 20
-38.2671
 10
113.256
 20
-38.2671
 10
113.256
 20
-44
 10
114.033
 20
-44
  0
LWPOLYLINE
100
AcDbEntity
  8
0
100
AcDbPolyline
 90
31
 70
1
 10
114.033
 20
-38.8896
 10
115.876
 20
-38.8896
 10
116.053
 20
-38.895
 10
116.217
 20
-38.911
 10
116.369
 20
-38.9378
 10
116.509
 20
-38.9753
 10
116.636
 20
-39.0235
 10
116.752
 20
-39.0824
 10
116.855
 20
-39.1521
 10
116.945
 20
-39.2319
 10
117.021
 20
-39.3215
 10
117.084
 20
-39.4207
 10
117.132
 20
-39.5297
 10
117.167
 20
-39.6484
 10
117.188
 20
-39.7768
 10
117.195
 20
-39.915
 10
117.188
 20
-40.0579
 10
117.167
 20
-40.1915
 10
117.133
 20
-40.3156
 10
117.085
 20
-40.4304
 10
117.023
 20
-40.5359
 10
116.948
 20
-40.6319
 10
116.859
 20
-40.7185
 10
116.757
 20
-40.7946
 10
116.644
 20
-40.859
 10
116.52
 20
-40.9117
 10
116.384
 20
-40.9527
 10
116.237
 20
-40.982
 10
116.079
 20
-40.9995
 10
115.909
 20
-41.0054
 10
114.033
 20
-41.0054
  0
LWPOLYLINE
100
AcDbEntity
  8
0
100
AcDbPolyline
 90
19
 70
1
 10
126.448
 20
-40.1916
 10
126.427
 20
-39.5122
 10
126.407
 20
-39.1175
 10
129.475
 20
-44
 10
130.411
 20
-44
 10
130.411
 20
-38.2671
 10
129.711
 20
-38.2671
 10
129.711
 20
-42.0267
 10
129.712
 20
-42.1379
 10
129.715
 20
-42.2671
 10
129.72
 20
-42.4143
 10
129.727
 20
-42.5793
 10
129.736
 20
-42.7624
 10
129.747
 20
-42.9633
 10
129.76
 20
-43.1822
 10
126.659
 20
-38.2671
 10
125.756
 20
-38.2671
 10
125.756
 20
-44
 10
126.448
 20
-44
  0
LWPOLYLINE
100
AcDbEntity
  8
0
100
AcDbPolyline
 90
8
 70
1
 10
134.02
 20
-38.9019
 10
135.989
 20
-38.9019
 10
135.989
 20
-38.2671
 10
131.278
 20
-38.2671
 10
131.278
 20
-38.9019
 10
133.247
 20
-38.9019
 10
133.247
 20
-44
 10
134.02
 20
-44
  0
LWPOLYLINE
100
AcDbEntity
  8
0
100
AcDbPolyline
 90
12
 70
1
 10
145.365
 20
-41.3431
 10
148.465
 20
-41.3431
 10
148.465
 20
-44
 10
149.242
 20
-44
 10
149.242
 20
-38.2671
 10
148.465
 20
-38.2671
 10
148.465
 20
-40.6921
 10
145.365
 20
-40.6921
 10
145.365
 20
-38.2671
 10
144.588
 20
-38.2671
 10
144.588
 20
-44
 10
145.365
 20
-44
  0
LWPOLYLINE
100
AcDbEntity
  8
0
100
AcDbPolyline
 90
12
 70
1
 10
163.883
 20
-41.8029
 10
164.631
 20
-41.2332
 10
166.922
 20
-44
 10
167.886
 20
-44
 10
165.12
 20
-40.7572
 10
167.561
 20
-38.2671
 10
166.645
 20
-38.2671
 10
163.883
 20
-41.1397
 10
163.883
 20
-38.2671
 10
163.106
 20
-38.2671
 10
163.106
 20
-44
 10
163.883
 20
-44
  0
LWPOLYLINE
100
AcDbEntity
  8
0
100
AcDbPolyline
 90
12
 70
1
 10
175.495
 20
-43.3653
 10
171.756
 20
-43.3653
 10
171.756
 20
-41.3675
 10
175.084
 20
-41.3675
 10
175.084
 20
-40.7409
 10
171.756
 20
-40.7409
 10
171.756
 20
-38.9019
 10
175.329
 20
-38.9019
 10
175.329
 20
-38.2671
 10
170.979
 20
-38.2671
 10
170.979
 20
-44
 10
175.495
 20
-44
  0
LWPOLYLINE
100
AcDbEntity
  8
0
100
AcDbPolyline
 90
9
 70
1
 10
179.015
 20
-41.6238
 10
181.229
 20
-38.2671
 10
180.374
 20
-38.2671
 10
178.637
 20
-40.9972
 10
176.891
 20
-38.2671
 10
176.037
 20
-38.2671
 10
178.242
 20
-41.6238
 10
178.242
 20
-44
 10
179.015
 20
-44
  0
LWPOLYLINE
100
AcDbEntity
  8
0
100
AcDbPolyline
 90
12
 70
1
 10
186.612
 20
-43.3653
 10
182.873
 20
-43.3653
 10
182.873
 20
-41.3675
 10
186.201
 20
-41.3675
 10
186.201
 20
-40.7409
 10
182.873
 20
-40.7409
 10
182.873
 20
-38.9019
 10
186.445
 20
-38.9019
 10
186.445
 20
-38.2671
 10
182.096
 20
-38.2671
 10
182.096
 20
-44
 10
186.612
 20
-44
  0
LWPOLYLINE
100
AcDbEntity
  8
0
100
AcDbPolyline
 90
10
 70
1
 10
96.8862
 20
-43.4344
 10
94.3351
 20
-43.4344
 10
96.8008
 20
-40.155
 10
96.8008
 20
-39.5976
 10
93.6109
 20
-39.5976
 10
93.6109
 20
-40.1632
 10
95.9341
 20
-40.1632
 10
93.4725
 20
-43.4426
 10
93.4725
 20
-44
 10
96.8862
 20
-44
  0
LWPOLYLINE
100
AcDbEntity
  8
0
100
AcDbPolyline
 90
4
 70
1
 10
92.7644
 20
-41.4611
 10
90.73
 20
-41.4611
 10
90.73
 20
-42.1121
 10
92.7644
 20
-42.1121
  0
LWPOLYLINE
100
AcDbEntity
  8
0
100
AcDbPolyline
 90
4
 70
1
 10
104.796
 20
-41.4611
 10
102.762
 20
-41.4611
 10
102.762
 20
-42.1121
 10
104.796
 20
-42.1121
  0
LWPOLYLINE
100
AcDbEntity
  8
0
100
AcDbPolyline
 90
8
 70
1
 10
114.94
 20
-89.5609
 10
166.94
 20
-89.5609
 10
166.94
 20
-110
 10
213
 20
-110
 10
213
 20
-50
 10
5
 20
-50
 10
5
 20
-110
 10
114.94
 20
-110
  0
LWPOLYLINE
100
AcDbEntity
  8
0
100
AcDbPolyline
 90
38
 70
1
 10
191.969
 20
-72.0715
 10
191.313
 20
-71.8462
 10
190.703
 20
-71.5161
 10
190.155
 20
-71.09
 10
189.686
 20
-70.5797
 10
189.306
 20
-69.999
 10
189.028
 20
-69.3637
 10
188.857
 20
-68.6913
 10
188.8
 20
-68
 10
188.857
 20
-67.3087
 10
189.028
 20
-66.6363
 10
189.306
 20
-66.001
 10
189.686
 20
-65.4203
 10
190.155
 20
-64.91
 10
190.703
 20
-64.4839
 10
191.313
 20
-64.1538
 10
191.969
 20
-63.9285
 10
192.653
 20
-63.8143
 10
193.347
 20
-63.8143
 10
194.031
 20
-63.9285
 10
194.687
 20
-64.1538
 10
195.297
 20
-64.4839
 10
195.845
 20
-64.91
 10
196.314
 20
-65.4203
 10
196.694
 20
-66.001
 10
196.972
 20
-66.6363
 10
197.143
 20
-67.3087
 10
197.2
 20
-68
 10
197.143
 20
-68.6913
 10
196.972
 20
-69.3637
 10
196.694
 20
-69.999
 10
196.314
 20
-70.5797
 10
195.845
 20
-71.09
 10
195.297
 20
-71.5161
 10
194.687
 20
-71.8462
 10
194.031
 20
-72.0715
 10
193.347
 20
-72.1857
 10
192.653
 20
-72.1857
  0
LWPOLYLINE
100
AcDbEntity
  8
0
100
AcDbPolyline
 90
38
 70
1
 10
139.909
 20
-81.6324
 10
139.253
 20
-81.4071
 10
138.643
 20
-81.077
 10
138.096
 20
-80.6509
 10
137.626
 20
-80.1406
 10
137.246
 20
-79.5599
 10
136.968
 20
-78.9246
 10
136.798
 20
-78.2522
 10
136.74
 20
-77.5609
 10
136.798
 20
-76.8696
 10
136.968
 20
-76.1971
 10
137.246
 20
-75.5619
 10
137.626
 20
-74.9812
 10
138.096
 20
-74.4708
 10
138.643
 20
-74.0448
 10
139.253
 20
-73.7146
 10
139.909
 20
-73.4894
 10
140.593
 20
-73.3752
 10
141.287
 20
-73.3752
 10
141.971
 20
-73.4894
 10
142.627
 20
-73.7146
 10
143.237
 20
-74.0448
 10
143.785
 20
-74.4708
 10
144.255
 20
-74.9812
 10
144.634
 20
-75.5619
 10
144.913
 20
-76.1971
 10
145.083
 20
-76.8696
 10
145.14
 20
-77.5609
 10
145.083
 20
-78.2522
 10
144.913
 20
-78.9246
 10
144.634
 20
-79.5599
 10
144.255
 20
-80.1406
 10
143.785
 20
-80.6509
 10
143.237
 20
-81.077
 10
142.627
 20
-81.4071
 10
141.971
 20
-81.6324
 10
141.287
 20
-81.7465
 10
140.593
 20
-81.7465
  0
LWPOLYLINE
100
AcDbEntity
  8
0
100
AcDbPolyline
 90
48
 70
1
 10
22.3147
 20
-85.2051
 10
21.6412
 20
-85.0711
 10
20.9909
 20
-84.8504
 10
20.375
 20
-84.5466
 10
19.804
 20
-84.1651
 10
19.2877
 20
-83.7123
 10
18.8349
 20
-83.196
 10
18.4534
 20
-82.625
 10
18.1496
 20
-82.0091
 10
17.9289
 20
-81.3588
 10
17.7949
 20
-80.6853
 10
17.75
 20
-80
 10
17.7949
 20
-79.3147
 10
17.9289
 20
-78.6412
 10
18.1496
 20
-77.9909
 10
18.4534
 20
-77.375
 10
18.8349
 20
-76.804
 10
19.2877
 20
-76.2877
 10
19.804
 20
-75.8349
 10
20.375
 20
-75.4534
 10
20.9909
 20
-75.1496
 10
21.6412
 20
-74.9289
 10
22.3147
 20
-74.7949
 10
23
 20
-74.75
 10
23.6853
 20
-74.7949
 10
24.3588
 20
-74.9289
 10
25.0091
 20
-75.1496
 10
25.625
 20
-75.4534
 10
26.196
 20
-75.8349
 10
26.7123
 20
-76.2877
 10
27.1651
 20
-76.804
 10
27.5466
 20
-77.375
 10
27.8504
 20
-77.9909
 10
28.0711
 20
-78.6412
 10
28.2051
 20
-79.3147
 10
28.25
 20
-80
 10
28.2051
 20
-80.6853
 10
28.0711
 20
-81.3588
 10
27.8504
 20
-82.0091
 10
27.5466
 20
-82.625
 10
27.1651
 20
-83.196
 10
26.7123
 20
-83.7123
 10
26.196
 20
-84.1651
 10
25.625
 20
-84.5466
 10
25.0091
 20
-84.8504
 10
24.3588
 20
-85.0711
 10
23.6853
 20
-85.2051
 10
23
 20
-85.25
  0
LWPOLYLINE
100
AcDbEntity
  8
0
100
AcDbPolyline
 90
48
 70
1
 10
87.3147
 20
-85.2051
 10
86.6412
 20
-85.0711
 10
85.9909
 20
-84.8504
 10
85.375
 20
-84.5466
 10
84.804
 20
-84.1651
 10
84.2877
 20
-83.7123
 10
83.8349
 20
-83.196
 10
83.4534
 20
-82.625
 10
83.1496
 20
-82.0091
 10
82.9289
 20
-81.3588
 10
82.7949
 20
-80.6853
 10
82.75
 20
-80
 10
82.7949
 20
-79.3147
 10
82.9289
 20
-78.6412
 10
83.1496
 20
-77.9909
 10
83.4534
 20
-77.375
 10
83.8349
 20
-76.804
 10
84.2877
 20
-76.2877
 10
84.804
 20
-75.8349
 10
85.375
 20
-75.4534
 10
85.9909
 20
-75.1496
 10
86.6412
 20
-74.9289
 10
87.3147
 20
-74.7949
 10
88
 20
-74.75
 10
88.6853
 20
-74.7949
 10
89.3588
 20
-74.9289
 10
90.0091
 20
-75.1496
 10
90.625
 20
-75.4534
 10
91.196
 20
-75.8349
 10
91.7123
 20
-76.2877
 10
92.1651
 20
-76.804
 10
92.5466
 20
-77.375
 10
92.8504
 20
-77.9909
 10
93.0711
 20
-78.6412
 10
93.2051
 20
-79.3147
 10
93.25
 20
-80
 10
93.2051
 20
-80.6853
 10
93.0711
 20
-81.3588
 10
92.8504
 20
-82.0091
 10
92.5466
 20
-82.625
 10
92.1651
 20
-83.196
 10
91.7123
 20
-83.7123
 10
91.196
 20
-84.1651
 10
90.625
 20
-84.5466
 10
90.0091
 20
-84.8504
 10
89.3588
 20
-85.0711
 10
88.6853
 20
-85.2051
 10
88
 20
-85.25
  0
LWPOLYLINE
100
AcDbEntity
  8
0
100
AcDbPolyline
 90
35
 70
1
 10
190.202
 20
-84.383
 10
189.643
 20
-83.971
 10
189.143
 20
-83.4881
 10
188.713
 20
-82.9429
 10
188.359
 20
-82.3453
 10
188.088
 20
-81.7057
 10
187.904
 20
-81.0358
 10
187.812
 20
-80.3473
 10
187.812
 20
-79.6527
 10
187.904
 20
-78.9642
 10
188.088
 20
-78.2943
 10
188.359
 20
-77.6547
 10
188.713
 20
-77.0571
 10
189.143
 20
-76.5119
 10
189.643
 20
-76.029
 10
190.202
 20
-75.617
 10
190.324
 20
-75.55
 10
195.672
 20
-75.55
 10
196.085
 20
-75.8136
 10
196.615
 20
-76.2621
 10
197.081
 20
-76.7773
 10
197.474
 20
-77.35
 10
197.787
 20
-77.97
 10
198.015
 20
-78.6262
 10
198.154
 20
-79.3069
 10
198.2
 20
-80
 10
198.154
 20
-80.6931
 10
198.015
 20
-81.3738
 10
197.787
 20
-82.03
 10
197.474
 20
-82.65
 10
197.081
 20
-83.2227
 10
196.615
 20
-83.7379
 10
196.085
 20
-84.1864
 10
195.672
 20
-84.45
 10
190.324
 20
-84.45
  0
LWPOLYLINE
100
AcDbEntity
  8
0
100
AcDbPolyline
 90
38
 70
1
 10
191.969
 20
-96.0715
 10
191.313
 20
-95.8462
 10
190.703
 20
-95.5161
 10
190.155
 20
-95.09
 10
189.686
 20
-94.5797
 10
189.306
 20
-93.999
 10
189.028
 20
-93.3637
 10
188.857
 20
-92.6913
 10
188.8
 20
-92
 10
188.857
 20
-91.3087
 10
189.028
 20
-90.6363
 10
189.306
 20
-90.001
 10
189.686
 20
-89.4203
 10
190.155
 20
-88.91
 10
190.703
 20
-88.4839
 10
191.313
 20
-88.1538
 10
191.969
 20
-87.9285
 10
192.653
 20
-87.8143
 10
193.347
 20
-87.8143
 10
194.031
 20
-87.9285
 10
194.687
 20
-88.1538
 10
195.297
 20
-88.4839
 10
195.845
 20
-88.91
 10
196.314
 20
-89.4203
 10
196.694
 20
-90.001
 10
196.972
 20
-90.6363
 10
197.143
 20
-91.3087
 10
197.2
 20
-92
 10
197.143
 20
-92.6913
 10
196.972
 20
-93.3637
 10
196.694
 20
-93.999
 10
196.314
 20
-94.5797
 10
195.845
 20
-95.09
 10
195.297
 20
-95.5161
 10
194.687
 20
-95.8462
 10
194.031
 20
-96.0715
 10
193.347
 20
-96.1857
 10
192.653
 20
-96.1857
  0
LWPOLYLINE
100
AcDbEntity
  8
0
100
AcDbPolyline
 90
226
 70
1
 10
23.7076
 20
-124.072
 10
23.9985
 20
-124.046
 10
24.2689
 20
-124.001
 10
24.5185
 20
-123.939
 10
24.7475
 20
-123.859
 10
24.9558
 20
-123.762
 10
25.1434
 20
-123.646
 10
25.308
 20
-123.514
 10
25.4473
 20
-123.368
 10
25.5613
 20
-123.207
 10
25.6499
 20
-123.032
 10
25.7132
 20
-122.841
 10
25.7512
 20
-122.637
 10
25.7639
 20
-122.417
 10
25.7621
 20
-122.329
 10
25.7568
 20
-122.245
 10
25.7478
 20
-122.164
 10
25.7353
 20
-122.086
 10
25.7193
 20
-122.011
 10
25.6996
 20
-121.94
 10
25.6764
 20
-121.872
 10
25.6501
 20
-121.807
 10
25.621
 20
-121.745
 10
25.5891
 20
-121.684
 10
25.5545
 20
-121.627
 10
25.5172
 20
-121.572
 10
25.4771
 20
-121.519
 10
25.4343
 20
-121.469
 10
25.389
 20
-121.422
 10
25.3415
 20
-121.376
 10
25.2917
 20
-121.332
 10
25.2397
 20
-121.291
 10
25.1854
 20
-121.252
 10
25.1289
 20
-121.215
 10
25.0701
 20
-121.18
 10
25.0096
 20
-121.147
 10
24.9479
 20
-121.115
 10
24.8849
 20
-121.085
 10
24.8207
 20
-121.055
 10
24.7552
 20
-121.027
 10
24.6885
 20
-121
 10
24.6205
 20
-120.975
 10
24.5515
 20
-120.95
 10
24.4815
 20
-120.927
 10
24.4107
 20
-120.904
 10
24.3389
 20
-120.883
 10
24.2662
 20
-120.862
 10
24.1926
 20
-120.843
 10
24.118
 20
-120.824
 10
24.043
 20
-120.806
 10
23.9679
 20
-120.788
 10
23.8927
 20
-120.771
 10
23.8175
 20
-120.753
 10
23.7421
 20
-120.735
 10
23.6667
 20
-120.718
 10
23.5912
 20
-120.7
 10
23.3764
 20
-120.651
 10
23.183
 20
-120.605
 10
23.011
 20
-120.56
 10
22.8604
 20
-120.518
 10
22.7313
 20
-120.478
 10
22.6236
 20
-120.441
 10
22.5373
 20
-120.405
 10
22.4643
 20
-120.37
 10
22.3963
 20
-120.332
 10
22.3334
 20
-120.293
 10
22.2756
 20
-120.251
 10
22.2228
 20
-120.207
 10
22.1751
 20
-120.161
 10
22.1325
 20
-120.112
 10
22.0952
 20
-120.061
 10
22.0637
 20
-120.006
 10
22.0379
 20
-119.947
 10
22.0179
 20
-119.885
 10
22.0036
 20
-119.819
 10
21.995
 20
-119.749
 10
21.9921
 20
-119.675
 10
21.9995
 20
-119.55
 10
22.0217
 20
-119.435
 10
22.0586
 20
-119.329
 10
22.1104
 20
-119.232
 10
22.1769
 20
-119.144
 10
22.2582
 20
-119.065
 10
22.3542
 20
-118.995
 10
22.4643
 20
-118.935
 10
22.5877
 20
-118.884
 10
22.7244
 20
-118.842
 10
22.8744
 20
-118.809
 10
23.0376
 20
-118.786
 10
23.2142
 20
-118.772
 10
23.404
 20
-118.768
 10
23.5774
 20
-118.772
 10
23.7398
 20
-118.784
 10
23.891
 20
-118.805
 10
24.0311
 20
-118.835
 10
24.16
 20
-118.872
 10
24.2779
 20
-118.919
 10
24.3846
 20
-118.973
 10
24.4811
 20
-119.037
 10
24.5682
 20
-119.111
 10
24.6461
 20
-119.195
 10
24.7147
 20
-119.29
 10
24.774
 20
-119.394
 10
24.824
 20
-119.509
 10
24.8647
 20
-119.634
 10
25.6296
 20
-119.5
 10
25.564
 20
-119.303
 10
25.4858
 20
-119.123
 10
25.3949
 20
-118.96
 10
25.2915
 20
-118.814
 10
25.1754
 20
-118.686
 10
25.0467
 20
-118.575
 10
24.9054
 20
-118.481
 10
24.7483
 20
-118.401
 10
24.5726
 20
-118.334
 10
24.378
 20
-118.279
 10
24.1647
 20
-118.237
 10
23.9326
 20
-118.206
 10
23.6818
 20
-118.188
 10
23.4121
 20
-118.182
 10
23.1221
 20
-118.19
 10
22.852
 20
-118.214
 10
22.6017
 20
-118.255
 10
22.3712
 20
-118.312
 10
22.1606
 20
-118.385
 10
21.9698
 20
-118.475
 10
21.7989
 20
-118.58
 10
21.6494
 20
-118.701
 10
21.5229
 20
-118.836
 10
21.4193
 20
-118.984
 10
21.3388
 20
-119.146
 10
21.2813
 20
-119.322
 10
21.2468
 20
-119.512
 10
21.2353
 20
-119.716
 10
21.2375
 20
-119.806
 10
21.2441
 20
-119.893
 10
21.2551
 20
-119.978
 10
21.2705
 20
-120.059
 10
21.2904
 20
-120.137
 10
21.3146
 20
-120.213
 10
21.3432
 20
-120.285
 10
21.3759
 20
-120.355
 10
21.4126
 20
-120.422
 10
21.4531
 20
-120.486
 10
21.4976
 20
-120.548
 10
21.546
 20
-120.608
 10
21.5983
 20
-120.664
 10
21.6544
 20
-120.719
 10
21.7156
 20
-120.771
 10
21.7828
 20
-120.822
 10
21.8561
 20
-120.871
 10
21.9354
 20
-120.919
 10
22.0208
 20
-120.965
 10
22.1123
 20
-121.011
 10
22.2098
 20
-121.054
 10
22.317
 20
-121.097
 10
22.4377
 20
-121.14
 10
22.5716
 20
-121.183
 10
22.719
 20
-121.226
 10
22.8797
 20
-121.269
 10
23.0538
 20
-121.312
 10
23.2413
 20
-121.355
 10
23.3514
 20
-121.381
 10
23.4588
 20
-121.405
 10
23.5634
 20
-121.43
 10
23.6651
 20
-121.454
 10
23.764
 20
-121.477
 10
23.86
 20
-121.5
 10
23.9533
 20
-121.522
 10
24.0433
 20
-121.545
 10
24.1296
 20
-121.569
 10
24.2123
 20
-121.595
 10
24.2914
 20
-121.622
 10
24.3668
 20
-121.651
 10
24.4385
 20
-121.682
 10
24.5066
 20
-121.713
 10
24.5708
 20
-121.747
 10
24.6307
 20
-121.783
 10
24.6864
 20
-121.822
 10
24.7378
 20
-121.863
 10
24.785
 20
-121.907
 10
24.828
 20
-121.953
 10
24.8667
 20
-122.002
 10
24.9007
 20
-122.054
 10
24.9295
 20
-122.111
 10
24.953
 20
-122.172
 10
24.9713
 20
-122.237
 10
24.9844
 20
-122.306
 10
24.9923
 20
-122.38
 10
24.9949
 20
-122.458
 10
24.9865
 20
-122.596
 10
24.9615
 20
-122.724
 10
24.9198
 20
-122.842
 10
24.8614
 20
-122.951
 10
24.7863
 20
-123.049
 10
24.6945
 20
-123.138
 10
24.586
 20
-123.217
 10
24.4621
 20
-123.285
 10
24.3243
 20
-123.343
 10
24.1723
 20
-123.391
 10
24.0064
 20
-123.428
 10
23.8264
 20
-123.454
 10
23.6324
 20
-123.47
 10
23.4243
 20
-123.475
 10
23.2225
 20
-123.47
 10
23.0331
 20
-123.455
 10
22.8561
 20
-123.431
 10
22.6916
 20
-123.396
 10
22.5396
 20
-123.352
 10
22.4
 20
-123.297
 10
22.2729
 20
-123.233
 10
22.1579
 20
-123.158
 10
22.055
 20
-123.072
 10
21.964
 20
-122.975
 10
21.8849
 20
-122.867
 10
21.8179
 20
-122.747
 10
21.7627
 20
-122.616
 10
21.7195
 20
-122.474
 10
20.9668
 20
-122.625
 10
21.0981
 20
-123.011
 10
21.3013
 20
-123.338
 10
21.5764
 20
-123.606
 10
21.9234
 20
-123.814
 10
22.3423
 20
-123.962
 10
22.8331
 20
-124.052
 10
23.3959
 20
-124.081
  0
LWPOLYLINE
100
AcDbEntity
  8
0
100
AcDbPolyline
 90
77
 70
1
 10
79.3296
 20
-124.074
 10
79.5654
 20
-124.052
 10
79.7916
 20
-124.015
 10
80.0084
 20
-123.963
 10
80.2158
 20
-123.897
 10
80.4136
 20
-123.815
 10
80.602
 20
-123.719
 10
80.7796
 20
-123.609
 10
80.945
 20
-123.487
 10
81.0981
 20
-123.351
 10
81.2391
 20
-123.203
 10
81.3678
 20
-123.042
 10
81.4843
 20
-122.868
 10
81.5887
 20
-122.682
 10
81.6799
 20
-122.484
 10
81.7571
 20
-122.278
 10
81.8203
 20
-122.062
 10
81.8694
 20
-121.837
 10
81.9045
 20
-121.603
 10
81.9255
 20
-121.359
 10
81.9325
 20
-121.107
 10
81.9256
 20
-120.854
 10
81.9048
 20
-120.611
 10
81.8701
 20
-120.377
 10
81.8216
 20
-120.153
 10
81.7592
 20
-119.939
 10
81.6829
 20
-119.735
 10
81.5928
 20
-119.541
 10
81.4895
 20
-119.358
 10
81.3739
 20
-119.187
 10
81.2459
 20
-119.03
 10
81.1055
 20
-118.886
 10
80.9528
 20
-118.754
 10
80.7876
 20
-118.635
 10
80.6101
 20
-118.53
 10
80.4217
 20
-118.437
 10
80.2239
 20
-118.359
 10
80.0165
 20
-118.295
 10
79.7997
 20
-118.246
 10
79.5735
 20
-118.21
 10
79.3378
 20
-118.189
 10
79.0926
 20
-118.182
 10
78.721
 20
-118.197
 10
78.3734
 20
-118.245
 10
78.05
 20
-118.324
 10
77.7507
 20
-118.435
 10
77.4754
 20
-118.577
 10
77.2242
 20
-118.751
 10
76.9971
 20
-118.957
 10
76.7974
 20
-119.191
 10
76.6285
 20
-119.449
 10
76.4902
 20
-119.731
 10
76.3827
 20
-120.039
 10
76.3059
 20
-120.37
 10
76.2598
 20
-120.726
 10
76.2444
 20
-121.107
 10
76.2513
 20
-121.361
 10
76.272
 20
-121.605
 10
76.3064
 20
-121.84
 10
76.3547
 20
-122.066
 10
76.4167
 20
-122.282
 10
76.4925
 20
-122.49
 10
76.5821
 20
-122.688
 10
76.6848
 20
-122.875
 10
76.7998
 20
-123.049
 10
76.9273
 20
-123.21
 10
77.067
 20
-123.358
 10
77.2192
 20
-123.493
 10
77.3837
 20
-123.615
 10
77.5606
 20
-123.723
 10
77.7487
 20
-123.818
 10
77.9466
 20
-123.899
 10
78.1544
 20
-123.964
 10
78.3721
 20
-124.016
 10
78.5996
 20
-124.052
 10
78.8371
 20
-124.074
 10
79.0844
 20
-124.081
  0
LWPOLYLINE
100
AcDbEntity
  8
0
100
AcDbPolyline
 90
56
 70
1
 10
78.8175
 20
-123.438
 10
78.5677
 20
-123.399
 10
78.3352
 20
-123.335
 10
78.1198
 20
-123.244
 10
77.9217
 20
-123.128
 10
77.7407
 20
-122.986
 10
77.5769
 20
-122.818
 10
77.4328
 20
-122.628
 10
77.3109
 20
-122.42
 10
77.2111
 20
-122.194
 10
77.1335
 20
-121.949
 10
77.0781
 20
-121.687
 10
77.0448
 20
-121.406
 10
77.0337
 20
-121.107
 10
77.0447
 20
-120.807
 10
77.0776
 20
-120.526
 10
77.1324
 20
-120.265
 10
77.2091
 20
-120.024
 10
77.3077
 20
-119.802
 10
77.4283
 20
-119.601
 10
77.5708
 20
-119.419
 10
77.7334
 20
-119.259
 10
77.9142
 20
-119.124
 10
78.1134
 20
-119.013
 10
78.3308
 20
-118.927
 10
78.5664
 20
-118.866
 10
78.8204
 20
-118.829
 10
79.0926
 20
-118.816
 10
79.3626
 20
-118.829
 10
79.6145
 20
-118.866
 10
79.8485
 20
-118.929
 10
80.0644
 20
-119.016
 10
80.2623
 20
-119.128
 10
80.4422
 20
-119.265
 10
80.6041
 20
-119.427
 10
80.746
 20
-119.61
 10
80.8661
 20
-119.813
 10
80.9644
 20
-120.034
 10
81.0408
 20
-120.274
 10
81.0954
 20
-120.533
 10
81.1282
 20
-120.811
 10
81.1391
 20
-121.107
 10
81.1283
 20
-121.416
 10
81.0958
 20
-121.705
 10
81.0416
 20
-121.973
 10
80.9657
 20
-122.22
 10
80.8682
 20
-122.447
 10
80.749
 20
-122.653
 10
80.6081
 20
-122.838
 10
80.447
 20
-123.001
 10
80.267
 20
-123.138
 10
80.0682
 20
-123.251
 10
79.8505
 20
-123.338
 10
79.614
 20
-123.401
 10
79.3586
 20
-123.438
 10
79.0844
 20
-123.451
  0
LWPOLYLINE
100
AcDbEntity
  8
0
100
AcDbPolyline
 90
114
 70
1
 10
113.571
 20
-124.073
 10
113.8
 20
-124.05
 10
114.021
 20
-124.01
 10
114.233
 20
-123.955
 10
114.437
 20
-123.884
 10
114.633
 20
-123.797
 10
114.82
 20
-123.695
 10
114.998
 20
-123.577
 10
115.163
 20
-123.445
 10
115.317
 20
-123.299
 10
115.459
 20
-123.138
 10
115.59
 20
-122.962
 10
115.708
 20
-122.772
 10
115.815
 20
-122.568
 10
115.181
 20
-122.25
 10
114.995
 20
-122.567
 10
114.785
 20
-122.834
 10
114.551
 20
-123.053
 10
114.292
 20
-123.224
 10
114.009
 20
-123.345
 10
113.702
 20
-123.418
 10
113.37
 20
-123.443
 10
113.109
 20
-123.43
 10
112.865
 20
-123.39
 10
112.636
 20
-123.325
 10
112.423
 20
-123.233
 10
112.225
 20
-123.116
 10
112.044
 20
-122.972
 10
111.879
 20
-122.802
 10
111.732
 20
-122.61
 10
111.609
 20
-122.402
 10
111.507
 20
-122.177
 10
111.429
 20
-121.935
 10
111.372
 20
-121.676
 10
111.339
 20
-121.4
 10
111.327
 20
-121.107
 10
111.338
 20
-120.812
 10
111.371
 20
-120.535
 10
111.425
 20
-120.277
 10
111.5
 20
-120.037
 10
111.597
 20
-119.816
 10
111.716
 20
-119.613
 10
111.856
 20
-119.429
 10
112.016
 20
-119.266
 10
112.193
 20
-119.129
 10
112.387
 20
-119.016
 10
112.599
 20
-118.929
 10
112.828
 20
-118.866
 10
113.074
 20
-118.829
 10
113.337
 20
-118.816
 10
113.507
 20
-118.822
 10
113.67
 20
-118.838
 10
113.827
 20
-118.865
 10
113.976
 20
-118.903
 10
114.119
 20
-118.951
 10
114.256
 20
-119.011
 10
114.385
 20
-119.081
 10
114.506
 20
-119.161
 10
114.618
 20
-119.251
 10
114.719
 20
-119.351
 10
114.811
 20
-119.46
 10
114.892
 20
-119.579
 10
114.964
 20
-119.708
 10
115.026
 20
-119.846
 10
115.762
 20
-119.602
 10
115.673
 20
-119.408
 10
115.571
 20
-119.228
 10
115.455
 20
-119.062
 10
115.326
 20
-118.91
 10
115.184
 20
-118.773
 10
115.028
 20
-118.649
 10
114.859
 20
-118.54
 10
114.677
 20
-118.445
 10
114.483
 20
-118.364
 10
114.277
 20
-118.299
 10
114.059
 20
-118.247
 10
113.828
 20
-118.211
 10
113.585
 20
-118.189
 10
113.329
 20
-118.182
 10
112.967
 20
-118.198
 10
112.627
 20
-118.245
 10
112.311
 20
-118.324
 10
112.018
 20
-118.435
 10
111.748
 20
-118.578
 10
111.502
 20
-118.753
 10
111.279
 20
-118.959
 10
111.082
 20
-119.193
 10
110.916
 20
-119.451
 10
110.78
 20
-119.734
 10
110.674
 20
-120.041
 10
110.599
 20
-120.372
 10
110.553
 20
-120.727
 10
110.538
 20
-121.107
 10
110.545
 20
-121.364
 10
110.565
 20
-121.61
 10
110.599
 20
-121.847
 10
110.646
 20
-122.073
 10
110.707
 20
-122.289
 10
110.782
 20
-122.496
 10
110.87
 20
-122.692
 10
110.971
 20
-122.877
 10
111.084
 20
-123.049
 10
111.209
 20
-123.209
 10
111.347
 20
-123.356
 10
111.497
 20
-123.49
 10
111.659
 20
-123.612
 10
111.834
 20
-123.721
 10
112.02
 20
-123.817
 10
112.215
 20
-123.898
 10
112.419
 20
-123.964
 10
112.633
 20
-124.015
 10
112.857
 20
-124.052
 10
113.09
 20
-124.074
 10
113.333
 20
-124.081
  0
LWPOLYLINE
100
AcDbEntity
  8
0
100
AcDbPolyline
 90
77
 70
1
 10
125.631
 20
-124.074
 10
125.867
 20
-124.052
 10
126.093
 20
-124.015
 10
126.31
 20
-123.963
 10
126.517
 20
-123.897
 10
126.715
 20
-123.815
 10
126.903
 20
-123.719
 10
127.081
 20
-123.609
 10
127.246
 20
-123.487
 10
127.399
 20
-123.351
 10
127.54
 20
-123.203
 10
127.669
 20
-123.042
 10
127.786
 20
-122.868
 10
127.89
 20
-122.682
 10
127.981
 20
-122.484
 10
128.058
 20
-122.278
 10
128.122
 20
-122.062
 10
128.171
 20
-121.837
 10
128.206
 20
-121.603
 10
128.227
 20
-121.359
 10
128.234
 20
-121.107
 10
128.227
 20
-120.854
 10
128.206
 20
-120.611
 10
128.171
 20
-120.377
 10
128.123
 20
-120.153
 10
128.06
 20
-119.939
 10
127.984
 20
-119.735
 10
127.894
 20
-119.541
 10
127.791
 20
-119.358
 10
127.675
 20
-119.187
 10
127.547
 20
-119.03
 10
127.407
 20
-118.886
 10
127.254
 20
-118.754
 10
127.089
 20
-118.635
 10
126.911
 20
-118.53
 10
126.723
 20
-118.437
 10
126.525
 20
-118.359
 10
126.318
 20
-118.295
 10
126.101
 20
-118.246
 10
125.875
 20
-118.21
 10
125.639
 20
-118.189
 10
125.394
 20
-118.182
 10
125.022
 20
-118.197
 10
124.675
 20
-118.245
 10
124.351
 20
-118.324
 10
124.052
 20
-118.435
 10
123.777
 20
-118.577
 10
123.525
 20
-118.751
 10
123.298
 20
-118.957
 10
123.099
 20
-119.191
 10
122.93
 20
-119.449
 10
122.791
 20
-119.731
 10
122.684
 20
-120.039
 10
122.607
 20
-120.37
 10
122.561
 20
-120.726
 10
122.546
 20
-121.107
 10
122.553
 20
-121.361
 10
122.573
 20
-121.605
 10
122.608
 20
-121.84
 10
122.656
 20
-122.066
 10
122.718
 20
-122.282
 10
122.794
 20
-122.49
 10
122.883
 20
-122.688
 10
122.986
 20
-122.875
 10
123.101
 20
-123.049
 10
123.229
 20
-123.21
 10
123.368
 20
-123.358
 10
123.52
 20
-123.493
 10
123.685
 20
-123.615
 10
123.862
 20
-123.723
 10
124.05
 20
-123.818
 10
124.248
 20
-123.899
 10
124.456
 20
-123.964
 10
124.673
 20
-124.016
 10
124.901
 20
-124.052
 10
125.138
 20
-124.074
 10
125.386
 20
-124.081
  0
LWPOLYLINE
100
AcDbEntity
  8
0
100
AcDbPolyline
 90
56
 70
1
 10
125.119
 20
-123.438
 10
124.869
 20
-123.399
 10
124.636
 20
-123.335
 10
124.421
 20
-123.244
 10
124.223
 20
-123.128
 10
124.042
 20
-122.986
 10
123.878
 20
-122.818
 10
123.734
 20
-122.628
 10
123.612
 20
-122.42
 10
123.512
 20
-122.194
 10
123.435
 20
-121.949
 10
123.379
 20
-121.687
 10
123.346
 20
-121.406
 10
123.335
 20
-121.107
 10
123.346
 20
-120.807
 10
123.379
 20
-120.526
 10
123.434
 20
-120.265
 10
123.51
 20
-120.024
 10
123.609
 20
-119.802
 10
123.73
 20
-119.601
 10
123.872
 20
-119.419
 10
124.035
 20
-119.259
 10
124.216
 20
-119.124
 10
124.415
 20
-119.013
 10
124.632
 20
-118.927
 10
124.868
 20
-118.866
 10
125.122
 20
-118.829
 10
125.394
 20
-118.816
 10
125.664
 20
-118.829
 10
125.916
 20
-118.866
 10
126.15
 20
-118.929
 10
126.366
 20
-119.016
 10
126.564
 20
-119.128
 10
126.743
 20
-119.265
 10
126.905
 20
-119.427
 10
127.047
 20
-119.61
 10
127.167
 20
-119.813
 10
127.266
 20
-120.034
 10
127.342
 20
-120.274
 10
127.397
 20
-120.533
 10
127.429
 20
-120.811
 10
127.44
 20
-121.107
 10
127.43
 20
-121.416
 10
127.397
 20
-121.705
 10
127.343
 20
-121.973
 10
127.267
 20
-122.22
 10
127.169
 20
-122.447
 10
127.05
 20
-122.653
 10
126.909
 20
-122.838
 10
126.748
 20
-123.001
 10
126.568
 20
-123.138
 10
126.369
 20
-123.251
 10
126.152
 20
-123.338
 10
125.915
 20
-123.401
 10
125.66
 20
-123.438
 10
125.386
 20
-123.451
  0
LWPOLYLINE
100
AcDbEntity
  8
0
100
AcDbPolyline
 90
226
 70
1
 10
131.752
 20
-124.072
 10
132.043
 20
-124.046
 10
132.313
 20
-124.001
 10
132.563
 20
-123.939
 10
132.792
 20
-123.859
 10
133
 20
-123.762
 10
133.188
 20
-123.646
 10
133.353
 20
-123.514
 10
133.492
 20
-123.368
 10
133.606
 20
-123.207
 10
133.694
 20
-123.032
 10
133.758
 20
-122.841
 10
133.796
 20
-122.637
 10
133.808
 20
-122.417
 10
133.807
 20
-122.329
 10
133.801
 20
-122.245
 10
133.792
 20
-122.164
 10
133.78
 20
-122.086
 10
133.764
 20
-122.011
 10
133.744
 20
-121.94
 10
133.721
 20
-121.872
 10
133.695
 20
-121.807
 10
133.665
 20
-121.745
 10
133.634
 20
-121.684
 10
133.599
 20
-121.627
 10
133.562
 20
-121.572
 10
133.522
 20
-121.519
 10
133.479
 20
-121.469
 10
133.434
 20
-121.422
 10
133.386
 20
-121.376
 10
133.336
 20
-121.332
 10
133.284
 20
-121.291
 10
133.23
 20
-121.252
 10
133.173
 20
-121.215
 10
133.115
 20
-121.18
 10
133.054
 20
-121.147
 10
132.992
 20
-121.115
 10
132.929
 20
-121.085
 10
132.865
 20
-121.055
 10
132.8
 20
-121.027
 10
132.733
 20
-121
 10
132.665
 20
-120.975
 10
132.596
 20
-120.95
 10
132.526
 20
-120.927
 10
132.455
 20
-120.904
 10
132.383
 20
-120.883
 10
132.311
 20
-120.862
 10
132.237
 20
-120.843
 10
132.163
 20
-120.824
 10
132.088
 20
-120.806
 10
132.012
 20
-120.788
 10
131.937
 20
-120.771
 10
131.862
 20
-120.753
 10
131.787
 20
-120.735
 10
131.711
 20
-120.718
 10
131.636
 20
-120.7
 10
131.421
 20
-120.651
 10
131.227
 20
-120.605
 10
131.056
 20
-120.56
 10
130.905
 20
-120.518
 10
130.776
 20
-120.478
 10
130.668
 20
-120.441
 10
130.582
 20
-120.405
 10
130.509
 20
-120.37
 10
130.441
 20
-120.332
 10
130.378
 20
-120.293
 10
130.32
 20
-120.251
 10
130.267
 20
-120.207
 10
130.22
 20
-120.161
 10
130.177
 20
-120.112
 10
130.14
 20
-120.061
 10
130.108
 20
-120.006
 10
130.082
 20
-119.947
 10
130.062
 20
-119.885
 10
130.048
 20
-119.819
 10
130.04
 20
-119.749
 10
130.037
 20
-119.675
 10
130.044
 20
-119.55
 10
130.066
 20
-119.435
 10
130.103
 20
-119.329
 10
130.155
 20
-119.232
 10
130.221
 20
-119.144
 10
130.303
 20
-119.065
 10
130.399
 20
-118.995
 10
130.509
 20
-118.935
 10
130.632
 20
-118.884
 10
130.769
 20
-118.842
 10
130.919
 20
-118.809
 10
131.082
 20
-118.786
 10
131.259
 20
-118.772
 10
131.448
 20
-118.768
 10
131.622
 20
-118.772
 10
131.784
 20
-118.784
 10
131.936
 20
-118.805
 10
132.076
 20
-118.835
 10
132.205
 20
-118.872
 10
132.322
 20
-118.919
 10
132.429
 20
-118.973
 10
132.526
 20
-119.037
 10
132.613
 20
-119.111
 10
132.691
 20
-119.195
 10
132.759
 20
-119.29
 10
132.819
 20
-119.394
 10
132.869
 20
-119.509
 10
132.909
 20
-119.634
 10
133.674
 20
-119.5
 10
133.609
 20
-119.303
 10
133.53
 20
-119.123
 10
133.439
 20
-118.96
 10
133.336
 20
-118.814
 10
133.22
 20
-118.686
 10
133.091
 20
-118.575
 10
132.95
 20
-118.481
 10
132.793
 20
-118.401
 10
132.617
 20
-118.334
 10
132.423
 20
-118.279
 10
132.209
 20
-118.237
 10
131.977
 20
-118.206
 10
131.726
 20
-118.188
 10
131.457
 20
-118.182
 10
131.167
 20
-118.19
 10
130.896
 20
-118.214
 10
130.646
 20
-118.255
 10
130.416
 20
-118.312
 10
130.205
 20
-118.385
 10
130.014
 20
-118.475
 10
129.843
 20
-118.58
 10
129.694
 20
-118.701
 10
129.567
 20
-118.836
 10
129.464
 20
-118.984
 10
129.383
 20
-119.146
 10
129.326
 20
-119.322
 10
129.291
 20
-119.512
 10
129.28
 20
-119.716
 10
129.282
 20
-119.806
 10
129.289
 20
-119.893
 10
129.3
 20
-119.978
 10
129.315
 20
-120.059
 10
129.335
 20
-120.137
 10
129.359
 20
-120.213
 10
129.388
 20
-120.285
 10
129.42
 20
-120.355
 10
129.457
 20
-120.422
 10
129.498
 20
-120.486
 10
129.542
 20
-120.548
 10
129.591
 20
-120.608
 10
129.643
 20
-120.664
 10
129.699
 20
-120.719
 10
129.76
 20
-120.771
 10
129.827
 20
-120.822
 10
129.901
 20
-120.871
 10
129.98
 20
-120.919
 10
130.065
 20
-120.965
 10
130.157
 20
-121.011
 10
130.254
 20
-121.054
 10
130.362
 20
-121.097
 10
130.482
 20
-121.14
 10
130.616
 20
-121.183
 10
130.764
 20
-121.226
 10
130.924
 20
-121.269
 10
131.098
 20
-121.312
 10
131.286
 20
-121.355
 10
131.396
 20
-121.381
 10
131.503
 20
-121.405
 10
131.608
 20
-121.43
 10
131.71
 20
-121.454
 10
131.808
 20
-121.477
 10
131.905
 20
-121.5
 10
131.998
 20
-121.522
 10
132.088
 20
-121.545
 10
132.174
 20
-121.569
 10
132.257
 20
-121.595
 10
132.336
 20
-121.622
 10
132.411
 20
-121.651
 10
132.483
 20
-121.682
 10
132.551
 20
-121.713
 10
132.615
 20
-121.747
 10
132.675
 20
-121.783
 10
132.731
 20
-121.822
 10
132.782
 20
-121.863
 10
132.83
 20
-121.907
 10
132.873
 20
-121.953
 10
132.911
 20
-122.002
 10
132.945
 20
-122.054
 10
132.974
 20
-122.111
 10
132.998
 20
-122.172
 10
133.016
 20
-122.237
 10
133.029
 20
-122.306
 10
133.037
 20
-122.38
 10
133.039
 20
-122.458
 10
133.031
 20
-122.596
 10
133.006
 20
-122.724
 10
132.964
 20
-122.842
 10
132.906
 20
-122.951
 10
132.831
 20
-123.049
 10
132.739
 20
-123.138
 10
132.631
 20
-123.217
 10
132.507
 20
-123.285
 10
132.369
 20
-123.343
 10
132.217
 20
-123.391
 10
132.051
 20
-123.428
 10
131.871
 20
-123.454
 10
131.677
 20
-123.47
 10
131.469
 20
-123.475
 10
131.267
 20
-123.47
 10
131.078
 20
-123.455
 10
130.901
 20
-123.431
 10
130.736
 20
-123.396
 10
130.584
 20
-123.352
 10
130.445
 20
-123.297
 10
130.317
 20
-123.233
 10
130.202
 20
-123.158
 10
130.1
 20
-123.072
 10
130.009
 20
-122.975
 10
129.929
 20
-122.867
 10
129.862
 20
-122.747
 10
129.807
 20
-122.616
 10
129.764
 20
-122.474
 10
129.011
 20
-122.625
 10
129.143
 20
-123.011
 10
129.346
 20
-123.338
 10
129.621
 20
-123.606
 10
129.968
 20
-123.814
 10
130.387
 20
-123.962
 10
130.878
 20
-124.052
 10
131.44
 20
-124.081
  0
LWPOLYLINE
100
AcDbEntity
  8
0
100
AcDbPolyline
 90
226
 70
1
 10
137.31
 20
-124.072
 10
137.601
 20
-124.046
 10
137.872
 20
-124.001
 10
138.121
 20
-123.939
 10
138.35
 20
-123.859
 10
138.559
 20
-123.762
 10
138.746
 20
-123.646
 10
138.911
 20
-123.514
 10
139.05
 20
-123.368
 10
139.164
 20
-123.207
 10
139.253
 20
-123.032
 10
139.316
 20
-122.841
 10
139.354
 20
-122.637
 10
139.367
 20
-122.417
 10
139.365
 20
-122.329
 10
139.36
 20
-122.245
 10
139.351
 20
-122.164
 10
139.338
 20
-122.086
 10
139.322
 20
-122.011
 10
139.302
 20
-121.94
 10
139.279
 20
-121.872
 10
139.253
 20
-121.807
 10
139.224
 20
-121.745
 10
139.192
 20
-121.684
 10
139.157
 20
-121.627
 10
139.12
 20
-121.572
 10
139.08
 20
-121.519
 10
139.037
 20
-121.469
 10
138.992
 20
-121.422
 10
138.944
 20
-121.376
 10
138.894
 20
-121.332
 10
138.842
 20
-121.291
 10
138.788
 20
-121.252
 10
138.732
 20
-121.215
 10
138.673
 20
-121.18
 10
138.612
 20
-121.147
 10
138.551
 20
-121.115
 10
138.488
 20
-121.085
 10
138.423
 20
-121.055
 10
138.358
 20
-121.027
 10
138.291
 20
-121
 10
138.223
 20
-120.975
 10
138.154
 20
-120.95
 10
138.084
 20
-120.927
 10
138.013
 20
-120.904
 10
137.942
 20
-120.883
 10
137.869
 20
-120.862
 10
137.795
 20
-120.843
 10
137.721
 20
-120.824
 10
137.646
 20
-120.806
 10
137.571
 20
-120.788
 10
137.496
 20
-120.771
 10
137.42
 20
-120.753
 10
137.345
 20
-120.735
 10
137.269
 20
-120.718
 10
137.194
 20
-120.7
 10
136.979
 20
-120.651
 10
136.786
 20
-120.605
 10
136.614
 20
-120.56
 10
136.463
 20
-120.518
 10
136.334
 20
-120.478
 10
136.226
 20
-120.441
 10
136.14
 20
-120.405
 10
136.067
 20
-120.37
 10
135.999
 20
-120.332
 10
135.936
 20
-120.293
 10
135.878
 20
-120.251
 10
135.826
 20
-120.207
 10
135.778
 20
-120.161
 10
135.735
 20
-120.112
 10
135.698
 20
-120.061
 10
135.667
 20
-120.006
 10
135.641
 20
-119.947
 10
135.621
 20
-119.885
 10
135.606
 20
-119.819
 10
135.598
 20
-119.749
 10
135.595
 20
-119.675
 10
135.602
 20
-119.55
 10
135.624
 20
-119.435
 10
135.661
 20
-119.329
 10
135.713
 20
-119.232
 10
135.78
 20
-119.144
 10
135.861
 20
-119.065
 10
135.957
 20
-118.995
 10
136.067
 20
-118.935
 10
136.191
 20
-118.884
 10
136.327
 20
-118.842
 10
136.477
 20
-118.809
 10
136.64
 20
-118.786
 10
136.817
 20
-118.772
 10
137.007
 20
-118.768
 10
137.18
 20
-118.772
 10
137.343
 20
-118.784
 10
137.494
 20
-118.805
 10
137.634
 20
-118.835
 10
137.763
 20
-118.872
 10
137.881
 20
-118.919
 10
137.987
 20
-118.973
 10
138.084
 20
-119.037
 10
138.171
 20
-119.111
 10
138.249
 20
-119.195
 10
138.318
 20
-119.29
 10
138.377
 20
-119.394
 10
138.427
 20
-119.509
 10
138.467
 20
-119.634
 10
139.232
 20
-119.5
 10
139.167
 20
-119.303
 10
139.089
 20
-119.123
 10
138.998
 20
-118.96
 10
138.894
 20
-118.814
 10
138.778
 20
-118.686
 10
138.649
 20
-118.575
 10
138.508
 20
-118.481
 10
138.351
 20
-118.401
 10
138.175
 20
-118.334
 10
137.981
 20
-118.279
 10
137.767
 20
-118.237
 10
137.535
 20
-118.206
 10
137.285
 20
-118.188
 10
137.015
 20
-118.182
 10
136.725
 20
-118.19
 10
136.455
 20
-118.214
 10
136.204
 20
-118.255
 10
135.974
 20
-118.312
 10
135.763
 20
-118.385
 10
135.573
 20
-118.475
 10
135.402
 20
-118.58
 10
135.252
 20
-118.701
 10
135.126
 20
-118.836
 10
135.022
 20
-118.984
 10
134.942
 20
-119.146
 10
134.884
 20
-119.322
 10
134.85
 20
-119.512
 10
134.838
 20
-119.716
 10
134.84
 20
-119.806
 10
134.847
 20
-119.893
 10
134.858
 20
-119.978
 10
134.873
 20
-120.059
 10
134.893
 20
-120.137
 10
134.917
 20
-120.213
 10
134.946
 20
-120.285
 10
134.979
 20
-120.355
 10
135.015
 20
-120.422
 10
135.056
 20
-120.486
 10
135.1
 20
-120.548
 10
135.149
 20
-120.608
 10
135.201
 20
-120.664
 10
135.257
 20
-120.719
 10
135.318
 20
-120.771
 10
135.386
 20
-120.822
 10
135.459
 20
-120.871
 10
135.538
 20
-120.919
 10
135.624
 20
-120.965
 10
135.715
 20
-121.011
 10
135.813
 20
-121.054
 10
135.92
 20
-121.097
 10
136.04
 20
-121.14
 10
136.174
 20
-121.183
 10
136.322
 20
-121.226
 10
136.483
 20
-121.269
 10
136.657
 20
-121.312
 10
136.844
 20
-121.355
 10
136.954
 20
-121.381
 10
137.062
 20
-121.405
 10
137.166
 20
-121.43
 10
137.268
 20
-121.454
 10
137.367
 20
-121.477
 10
137.463
 20
-121.5
 10
137.556
 20
-121.522
 10
137.646
 20
-121.545
 10
137.732
 20
-121.569
 10
137.815
 20
-121.595
 10
137.894
 20
-121.622
 10
137.97
 20
-121.651
 10
138.041
 20
-121.682
 10
138.109
 20
-121.713
 10
138.174
 20
-121.747
 10
138.233
 20
-121.783
 10
138.289
 20
-121.822
 10
138.341
 20
-121.863
 10
138.388
 20
-121.907
 10
138.431
 20
-121.953
 10
138.47
 20
-122.002
 10
138.504
 20
-122.054
 10
138.532
 20
-122.111
 10
138.556
 20
-122.172
 10
138.574
 20
-122.237
 10
138.587
 20
-122.306
 10
138.595
 20
-122.38
 10
138.598
 20
-122.458
 10
138.589
 20
-122.596
 10
138.564
 20
-122.724
 10
138.523
 20
-122.842
 10
138.464
 20
-122.951
 10
138.389
 20
-123.049
 10
138.297
 20
-123.138
 10
138.189
 20
-123.217
 10
138.065
 20
-123.285
 10
137.927
 20
-123.343
 10
137.775
 20
-123.391
 10
137.609
 20
-123.428
 10
137.429
 20
-123.454
 10
137.235
 20
-123.47
 10
137.027
 20
-123.475
 10
136.825
 20
-123.47
 10
136.636
 20
-123.455
 10
136.459
 20
-123.431
 10
136.294
 20
-123.396
 10
136.142
 20
-123.352
 10
136.003
 20
-123.297
 10
135.876
 20
-123.233
 10
135.761
 20
-123.158
 10
135.658
 20
-123.072
 10
135.567
 20
-122.975
 10
135.488
 20
-122.867
 10
135.421
 20
-122.747
 10
135.366
 20
-122.616
 10
135.322
 20
-122.474
 10
134.57
 20
-122.625
 10
134.701
 20
-123.011
 10
134.904
 20
-123.338
 10
135.179
 20
-123.606
 10
135.526
 20
-123.814
 10
135.945
 20
-123.962
 10
136.436
 20
-124.052
 10
136.999
 20
-124.081
  0
LWPOLYLINE
100
AcDbEntity
  8
0
100
AcDbPolyline
 90
56
 70
1
 10
182.926
 20
-124.066
 10
183.179
 20
-124.02
 10
183.412
 20
-123.942
 10
183.626
 20
-123.834
 10
183.819
 20
-123.695
 10
183.994
 20
-123.525
 10
184.148
 20
-123.325
 10
184.283
 20
-123.094
 10
184.396
 20
-122.837
 10
184.489
 20
-122.551
 10
184.562
 20
-122.238
 10
184.614
 20
-121.897
 10
184.645
 20
-121.528
 10
184.655
 20
-121.132
 10
184.645
 20
-120.729
 10
184.616
 20
-120.355
 10
184.566
 20
-120.011
 10
184.497
 20
-119.696
 10
184.409
 20
-119.41
 10
184.301
 20
-119.154
 10
184.173
 20
-118.926
 10
184.024
 20
-118.729
 10
183.854
 20
-118.562
 10
183.662
 20
-118.425
 10
183.448
 20
-118.318
 10
183.213
 20
-118.242
 10
182.956
 20
-118.197
 10
182.678
 20
-118.182
 10
182.391
 20
-118.197
 10
182.128
 20
-118.242
 10
181.887
 20
-118.317
 10
181.67
 20
-118.422
 10
181.475
 20
-118.557
 10
181.303
 20
-118.723
 10
181.154
 20
-118.918
 10
181.026
 20
-119.144
 10
180.918
 20
-119.399
 10
180.829
 20
-119.685
 10
180.76
 20
-120.002
 10
180.711
 20
-120.348
 10
180.681
 20
-120.725
 10
180.672
 20
-121.132
 10
180.682
 20
-121.53
 10
180.712
 20
-121.9
 10
180.763
 20
-122.243
 10
180.834
 20
-122.556
 10
180.925
 20
-122.842
 10
181.036
 20
-123.099
 10
181.168
 20
-123.329
 10
181.32
 20
-123.528
 10
181.492
 20
-123.697
 10
181.684
 20
-123.836
 10
181.896
 20
-123.943
 10
182.128
 20
-124.02
 10
182.381
 20
-124.066
 10
182.653
 20
-124.081
  0
LWPOLYLINE
100
AcDbEntity
  8
0
100
AcDbPolyline
 90
56
 70
1
 10
182.482
 20
-123.472
 10
182.318
 20
-123.437
 10
182.168
 20
-123.379
 10
182.032
 20
-123.299
 10
181.911
 20
-123.195
 10
181.804
 20
-123.068
 10
181.711
 20
-122.918
 10
181.632
 20
-122.743
 10
181.565
 20
-122.541
 10
181.51
 20
-122.313
 10
181.467
 20
-122.057
 10
181.437
 20
-121.776
 10
181.418
 20
-121.467
 10
181.412
 20
-121.132
 10
181.418
 20
-120.787
 10
181.436
 20
-120.471
 10
181.466
 20
-120.184
 10
181.508
 20
-119.926
 10
181.563
 20
-119.697
 10
181.629
 20
-119.496
 10
181.707
 20
-119.325
 10
181.799
 20
-119.179
 10
181.907
 20
-119.056
 10
182.03
 20
-118.955
 10
182.168
 20
-118.877
 10
182.323
 20
-118.821
 10
182.492
 20
-118.787
 10
182.678
 20
-118.776
 10
182.858
 20
-118.787
 10
183.024
 20
-118.821
 10
183.174
 20
-118.878
 10
183.309
 20
-118.958
 10
183.429
 20
-119.06
 10
183.534
 20
-119.185
 10
183.623
 20
-119.333
 10
183.7
 20
-119.506
 10
183.764
 20
-119.707
 10
183.817
 20
-119.936
 10
183.858
 20
-120.193
 10
183.887
 20
-120.478
 10
183.904
 20
-120.791
 10
183.91
 20
-121.132
 10
183.904
 20
-121.461
 10
183.886
 20
-121.765
 10
183.855
 20
-122.043
 10
183.812
 20
-122.297
 10
183.757
 20
-122.525
 10
183.689
 20
-122.728
 10
183.609
 20
-122.906
 10
183.516
 20
-123.059
 10
183.409
 20
-123.189
 10
183.288
 20
-123.295
 10
183.152
 20
-123.377
 10
183.003
 20
-123.436
 10
182.839
 20
-123.471
 10
182.661
 20
-123.483
  0
LWPOLYLINE
100
AcDbEntity
  8
0
100
AcDbPolyline
 90
77
 70
1
 10
210.067
 20
-124.074
 10
210.303
 20
-124.052
 10
210.529
 20
-124.015
 10
210.746
 20
-123.963
 10
210.953
 20
-123.897
 10
211.151
 20
-123.815
 10
211.339
 20
-123.719
 10
211.517
 20
-123.609
 10
211.682
 20
-123.487
 10
211.836
 20
-123.351
 10
211.976
 20
-123.203
 10
212.105
 20
-123.042
 10
212.222
 20
-122.868
 10
212.326
 20
-122.682
 10
212.417
 20
-122.484
 10
212.495
 20
-122.278
 10
212.558
 20
-122.062
 10
212.607
 20
-121.837
 10
212.642
 20
-121.603
 10
212.663
 20
-121.359
 10
212.67
 20
-121.107
 10
212.663
 20
-120.854
 10
212.642
 20
-120.611
 10
212.608
 20
-120.377
 10
212.559
 20
-120.153
 10
212.497
 20
-119.939
 10
212.42
 20
-119.735
 10
212.33
 20
-119.541
 10
212.227
 20
-119.358
 10
212.111
 20
-119.187
 10
211.983
 20
-119.03
 10
211.843
 20
-118.886
 10
211.69
 20
-118.754
 10
211.525
 20
-118.635
 10
211.348
 20
-118.53
 10
211.159
 20
-118.437
 10
210.961
 20
-118.359
 10
210.754
 20
-118.295
 10
210.537
 20
-118.246
 10
210.311
 20
-118.21
 10
210.075
 20
-118.189
 10
209.83
 20
-118.182
 10
209.458
 20
-118.197
 10
209.111
 20
-118.245
 10
208.787
 20
-118.324
 10
208.488
 20
-118.435
 10
208.213
 20
-118.577
 10
207.962
 20
-118.751
 10
207.735
 20
-118.957
 10
207.535
 20
-119.191
 10
207.366
 20
-119.449
 10
207.228
 20
-119.731
 10
207.12
 20
-120.039
 10
207.043
 20
-120.37
 10
206.997
 20
-120.726
 10
206.982
 20
-121.107
 10
206.989
 20
-121.361
 10
207.009
 20
-121.605
 10
207.044
 20
-121.84
 10
207.092
 20
-122.066
 10
207.154
 20
-122.282
 10
207.23
 20
-122.49
 10
207.32
 20
-122.688
 10
207.422
 20
-122.875
 10
207.537
 20
-123.049
 10
207.665
 20
-123.21
 10
207.804
 20
-123.358
 10
207.957
 20
-123.493
 10
208.121
 20
-123.615
 10
208.298
 20
-123.723
 10
208.486
 20
-123.818
 10
208.684
 20
-123.899
 10
208.892
 20
-123.964
 10
209.11
 20
-124.016
 10
209.337
 20
-124.052
 10
209.575
 20
-124.074
 10
209.822
 20
-124.081
  0
LWPOLYLINE
100
AcDbEntity
  8
0
100
AcDbPolyline
 90
56
 70
1
 10
209.555
 20
-123.438
 10
209.305
 20
-123.399
 10
209.073
 20
-123.335
 10
208.857
 20
-123.244
 10
208.659
 20
-123.128
 10
208.478
 20
-122.986
 10
208.314
 20
-122.818
 10
208.17
 20
-122.628
 10
208.048
 20
-122.42
 10
207.949
 20
-122.194
 10
207.871
 20
-121.949
 10
207.815
 20
-121.687
 10
207.782
 20
-121.406
 10
207.771
 20
-121.107
 10
207.782
 20
-120.807
 10
207.815
 20
-120.526
 10
207.87
 20
-120.265
 10
207.947
 20
-120.024
 10
208.045
 20
-119.802
 10
208.166
 20
-119.601
 10
208.308
 20
-119.419
 10
208.471
 20
-119.259
 10
208.652
 20
-119.124
 10
208.851
 20
-119.013
 10
209.068
 20
-118.927
 10
209.304
 20
-118.866
 10
209.558
 20
-118.829
 10
209.83
 20
-118.816
 10
210.1
 20
-118.829
 10
210.352
 20
-118.866
 10
210.586
 20
-118.929
 10
210.802
 20
-119.016
 10
211
 20
-119.128
 10
211.18
 20
-119.265
 10
211.341
 20
-119.427
 10
211.483
 20
-119.61
 10
211.604
 20
-119.813
 10
211.702
 20
-120.034
 10
211.778
 20
-120.274
 10
211.833
 20
-120.533
 10
211.866
 20
-120.811
 10
211.877
 20
-121.107
 10
211.866
 20
-121.416
 10
211.833
 20
-121.705
 10
211.779
 20
-121.973
 10
211.703
 20
-122.22
 10
211.606
 20
-122.447
 10
211.486
 20
-122.653
 10
211.346
 20
-122.838
 10
211.184
 20
-123.001
 10
211.004
 20
-123.138
 10
210.806
 20
-123.251
 10
210.588
 20
-123.338
 10
210.351
 20
-123.401
 10
210.096
 20
-123.438
 10
209.822
 20
-123.451
  0
LWPOLYLINE
100
AcDbEntity
  8
0
100
AcDbPolyline
 90
226
 70
1
 10
268.202
 20
-124.072
 10
268.493
 20
-124.046
 10
268.764
 20
-124.001
 10
269.013
 20
-123.939
 10
269.242
 20
-123.859
 10
269.451
 20
-123.762
 10
269.638
 20
-123.646
 10
269.803
 20
-123.514
 10
269.942
 20
-123.368
 10
270.056
 20
-123.207
 10
270.145
 20
-123.032
 10
270.208
 20
-122.841
 10
270.246
 20
-122.637
 10
270.259
 20
-122.417
 10
270.257
 20
-122.329
 10
270.252
 20
-122.245
 10
270.243
 20
-122.164
 10
270.23
 20
-122.086
 10
270.214
 20
-122.011
 10
270.195
 20
-121.94
 10
270.171
 20
-121.872
 10
270.145
 20
-121.807
 10
270.116
 20
-121.745
 10
270.084
 20
-121.684
 10
270.049
 20
-121.627
 10
270.012
 20
-121.572
 10
269.972
 20
-121.519
 10
269.929
 20
-121.469
 10
269.884
 20
-121.422
 10
269.836
 20
-121.376
 10
269.787
 20
-121.332
 10
269.735
 20
-121.291
 10
269.68
 20
-121.252
 10
269.624
 20
-121.215
 10
269.565
 20
-121.18
 10
269.505
 20
-121.147
 10
269.443
 20
-121.115
 10
269.38
 20
-121.085
 10
269.316
 20
-121.055
 10
269.25
 20
-121.027
 10
269.183
 20
-121
 10
269.115
 20
-120.975
 10
269.046
 20
-120.95
 10
268.976
 20
-120.927
 10
268.906
 20
-120.904
 10
268.834
 20
-120.883
 10
268.761
 20
-120.862
 10
268.687
 20
-120.843
 10
268.613
 20
-120.824
 10
268.538
 20
-120.806
 10
268.463
 20
-120.788
 10
268.388
 20
-120.771
 10
268.312
 20
-120.753
 10
268.237
 20
-120.735
 10
268.162
 20
-120.718
 10
268.086
 20
-120.7
 10
267.871
 20
-120.651
 10
267.678
 20
-120.605
 10
267.506
 20
-120.56
 10
267.355
 20
-120.518
 10
267.226
 20
-120.478
 10
267.119
 20
-120.441
 10
267.032
 20
-120.405
 10
266.959
 20
-120.37
 10
266.891
 20
-120.332
 10
266.828
 20
-120.293
 10
266.77
 20
-120.251
 10
266.718
 20
-120.207
 10
266.67
 20
-120.161
 10
266.627
 20
-120.112
 10
266.59
 20
-120.061
 10
266.559
 20
-120.006
 10
266.533
 20
-119.947
 10
266.513
 20
-119.885
 10
266.498
 20
-119.819
 10
266.49
 20
-119.749
 10
266.487
 20
-119.675
 10
266.494
 20
-119.55
 10
266.517
 20
-119.435
 10
266.554
 20
-119.329
 10
266.605
 20
-119.232
 10
266.672
 20
-119.144
 10
266.753
 20
-119.065
 10
266.849
 20
-118.995
 10
266.959
 20
-118.935
 10
267.083
 20
-118.884
 10
267.219
 20
-118.842
 10
267.369
 20
-118.809
 10
267.533
 20
-118.786
 10
267.709
 20
-118.772
 10
267.899
 20
-118.768
 10
268.072
 20
-118.772
 10
268.235
 20
-118.784
 10
268.386
 20
-118.805
 10
268.526
 20
-118.835
 10
268.655
 20
-118.872
 10
268.773
 20
-118.919
 10
268.879
 20
-118.973
 10
268.976
 20
-119.037
 10
269.063
 20
-119.111
 10
269.141
 20
-119.195
 10
269.21
 20
-119.29
 10
269.269
 20
-119.394
 10
269.319
 20
-119.509
 10
269.36
 20
-119.634
 10
270.125
 20
-119.5
 10
270.059
 20
-119.303
 10
269.981
 20
-119.123
 10
269.89
 20
-118.96
 10
269.786
 20
-118.814
 10
269.67
 20
-118.686
 10
269.542
 20
-118.575
 10
269.4
 20
-118.481
 10
269.243
 20
-118.401
 10
269.067
 20
-118.334
 10
268.873
 20
-118.279
 10
268.66
 20
-118.237
 10
268.428
 20
-118.206
 10
268.177
 20
-118.188
 10
267.907
 20
-118.182
 10
267.617
 20
-118.19
 10
267.347
 20
-118.214
 10
267.097
 20
-118.255
 10
266.866
 20
-118.312
 10
266.655
 20
-118.385
 10
266.465
 20
-118.475
 10
266.294
 20
-118.58
 10
266.144
 20
-118.701
 10
266.018
 20
-118.836
 10
265.914
 20
-118.984
 10
265.834
 20
-119.146
 10
265.776
 20
-119.322
 10
265.742
 20
-119.512
 10
265.73
 20
-119.716
 10
265.732
 20
-119.806
 10
265.739
 20
-119.893
 10
265.75
 20
-119.978
 10
265.765
 20
-120.059
 10
265.785
 20
-120.137
 10
265.809
 20
-120.213
 10
265.838
 20
-120.285
 10
265.871
 20
-120.355
 10
265.907
 20
-120.422
 10
265.948
 20
-120.486
 10
265.993
 20
-120.548
 10
266.041
 20
-120.608
 10
266.093
 20
-120.664
 10
266.149
 20
-120.719
 10
266.211
 20
-120.771
 10
266.278
 20
-120.822
 10
266.351
 20
-120.871
 10
266.43
 20
-120.919
 10
266.516
 20
-120.965
 10
266.607
 20
-121.011
 10
266.705
 20
-121.054
 10
266.812
 20
-121.097
 10
266.933
 20
-121.14
 10
267.067
 20
-121.183
 10
267.214
 20
-121.226
 10
267.375
 20
-121.269
 10
267.549
 20
-121.312
 10
267.736
 20
-121.355
 10
267.846
 20
-121.381
 10
267.954
 20
-121.405
 10
268.058
 20
-121.43
 10
268.16
 20
-121.454
 10
268.259
 20
-121.477
 10
268.355
 20
-121.5
 10
268.448
 20
-121.522
 10
268.538
 20
-121.545
 10
268.625
 20
-121.569
 10
268.707
 20
-121.595
 10
268.786
 20
-121.622
 10
268.862
 20
-121.651
 10
268.933
 20
-121.682
 10
269.002
 20
-121.713
 10
269.066
 20
-121.747
 10
269.126
 20
-121.783
 10
269.181
 20
-121.822
 10
269.233
 20
-121.863
 10
269.28
 20
-121.907
 10
269.323
 20
-121.953
 10
269.362
 20
-122.002
 10
269.396
 20
-122.054
 10
269.424
 20
-122.111
 10
269.448
 20
-122.172
 10
269.466
 20
-122.237
 10
269.479
 20
-122.306
 10
269.487
 20
-122.38
 10
269.49
 20
-122.458
 10
269.481
 20
-122.596
 10
269.456
 20
-122.724
 10
269.415
 20
-122.842
 10
269.356
 20
-122.951
 10
269.281
 20
-123.049
 10
269.189
 20
-123.138
 10
269.081
 20
-123.217
 10
268.957
 20
-123.285
 10
268.819
 20
-123.343
 10
268.667
 20
-123.391
 10
268.501
 20
-123.428
 10
268.321
 20
-123.454
 10
268.127
 20
-123.47
 10
267.919
 20
-123.475
 10
267.717
 20
-123.47
 10
267.528
 20
-123.455
 10
267.351
 20
-123.431
 10
267.187
 20
-123.396
 10
267.034
 20
-123.352
 10
266.895
 20
-123.297
 10
266.768
 20
-123.233
 10
266.653
 20
-123.158
 10
266.55
 20
-123.072
 10
266.459
 20
-122.975
 10
266.38
 20
-122.867
 10
266.313
 20
-122.747
 10
266.258
 20
-122.616
 10
266.214
 20
-122.474
 10
265.462
 20
-122.625
 10
265.593
 20
-123.011
 10
265.796
 20
-123.338
 10
266.071
 20
-123.606
 10
266.418
 20
-123.814
 10
266.837
 20
-123.962
 10
267.328
 20
-124.052
 10
267.891
 20
-124.081
  0
LWPOLYLINE
100
AcDbEntity
  8
0
100
AcDbPolyline
 90
8
 70
1
 10
7.9295
 20
-118.902
 10
9.89876
 20
-118.902
 10
9.89876
 20
-118.267
 10
5.18714
 20
-118.267
 10
5.18714
 20
-118.902
 10
7.15646
 20
-118.902
 10
7.15646
 20
-124
 10
7.9295
 20
-124
  0
LWPOLYLINE
100
AcDbEntity
  8
0
100
AcDbPolyline
 90
8
 70
1
 10
10.9529
 20
-122.324
 10
13.565
 20
-122.324
 10
14.2201
 20
-124
 10
15.0135
 20
-124
 10
12.7106
 20
-118.267
 10
11.8276
 20
-118.267
 10
9.48812
 20
-124
 10
10.2937
 20
-124
  0
LWPOLYLINE
100
AcDbEntity
  8
0
100
AcDbPolyline
 90
19
 70
1
 10
11.9212
 20
-119.834
 10
11.9762
 20
-119.686
 10
12.0272
 20
-119.547
 10
12.0742
 20
-119.415
 10
12.1172
 20
-119.292
 10
12.1562
 20
-119.176
 10
12.1913
 20
-119.067
 10
12.2223
 20
-118.967
 10
12.259
 20
-118.853
 10
12.3688
 20
-119.191
 10
12.4014
 20
-119.29
 10
12.4339
 20
-119.387
 10
12.4665
 20
-119.481
 10
12.499
 20
-119.571
 10
12.5316
 20
-119.659
 10
12.5641
 20
-119.744
 10
12.5967
 20
-119.825
 10
13.3331
 20
-121.717
 10
11.1889
 20
-121.717
  0
LWPOLYLINE
100
AcDbEntity
  8
0
100
AcDbPolyline
 90
52
 70
1
 10
18.3158
 20
-123.991
 10
18.5728
 20
-123.965
 10
18.812
 20
-123.922
 10
19.0335
 20
-123.861
 10
19.2372
 20
-123.783
 10
19.4231
 20
-123.688
 10
19.5912
 20
-123.575
 10
19.7391
 20
-123.446
 10
19.8642
 20
-123.304
 10
19.9666
 20
-123.148
 10
20.0462
 20
-122.978
 10
20.1031
 20
-122.794
 10
20.1372
 20
-122.596
 10
20.1486
 20
-122.385
 10
20.1411
 20
-122.225
 10
20.1184
 20
-122.073
 10
20.0806
 20
-121.929
 10
20.0277
 20
-121.794
 10
19.9597
 20
-121.666
 10
19.8766
 20
-121.546
 10
19.7784
 20
-121.435
 10
19.6662
 20
-121.333
 10
19.5412
 20
-121.244
 10
19.4035
 20
-121.166
 10
19.2529
 20
-121.101
 10
19.0896
 20
-121.048
 10
18.9135
 20
-121.006
 10
18.7246
 20
-120.977
 10
18.8686
 20
-120.939
 10
19.0029
 20
-120.891
 10
19.1276
 20
-120.834
 10
19.2427
 20
-120.768
 10
19.3482
 20
-120.692
 10
19.444
 20
-120.607
 10
19.5302
 20
-120.513
 10
19.6058
 20
-120.411
 10
19.6697
 20
-120.302
 10
19.722
 20
-120.187
 10
19.7627
 20
-120.065
 10
19.7918
 20
-119.936
 10
19.8092
 20
-119.801
 10
19.815
 20
-119.659
 10
19.7738
 20
-119.289
 10
19.6503
 20
-118.977
 10
19.4443
 20
-118.721
 10
19.156
 20
-118.523
 10
18.7854
 20
-118.381
 10
18.3323
 20
-118.296
 10
17.7969
 20
-118.267
 10
15.7137
 20
-118.267
 10
15.7137
 20
-124
 10
18.041
 20
-124
  0
LWPOLYLINE
100
AcDbEntity
  8
0
100
AcDbPolyline
 90
31
 70
1
 10
16.4908
 20
-118.89
 10
17.7969
 20
-118.89
 10
17.9632
 20
-118.894
 10
18.1178
 20
-118.906
 10
18.2607
 20
-118.926
 10
18.3921
 20
-118.955
 10
18.5118
 20
-118.991
 10
18.6199
 20
-119.036
 10
18.7164
 20
-119.089
 10
18.8006
 20
-119.151
 10
18.8719
 20
-119.225
 10
18.9302
 20
-119.308
 10
18.9755
 20
-119.403
 10
19.0079
 20
-119.509
 10
19.0273
 20
-119.625
 10
19.0338
 20
-119.752
 10
19.0276
 20
-119.885
 10
19.0087
 20
-120.008
 10
18.9774
 20
-120.121
 10
18.9335
 20
-120.224
 10
18.8771
 20
-120.316
 10
18.8081
 20
-120.398
 10
18.7266
 20
-120.47
 10
18.6324
 20
-120.532
 10
18.5253
 20
-120.585
 10
18.4054
 20
-120.628
 10
18.2726
 20
-120.661
 10
18.1269
 20
-120.685
 10
17.9683
 20
-120.7
 10
17.7969
 20
-120.704
 10
16.4908
 20
-120.704
  0
LWPOLYLINE
100
AcDbEntity
  8
0
100
AcDbPolyline
 90
24
 70
1
 10
16.4908
 20
-121.311
 10
17.9393
 20
-121.311
 10
18.3171
 20
-121.331
 10
18.6368
 20
-121.393
 10
18.8983
 20
-121.497
 10
19.1018
 20
-121.641
 10
19.2471
 20
-121.827
 10
19.3343
 20
-122.055
 10
19.3633
 20
-122.324
 10
19.3567
 20
-122.468
 10
19.3368
 20
-122.602
 10
19.3036
 20
-122.726
 10
19.2571
 20
-122.838
 10
19.1973
 20
-122.941
 10
19.1242
 20
-123.032
 10
19.0378
 20
-123.113
 10
18.937
 20
-123.183
 10
18.8203
 20
-123.243
 10
18.6878
 20
-123.291
 10
18.5396
 20
-123.329
 10
18.3756
 20
-123.356
 10
18.1959
 20
-123.372
 10
18.0003
 20
-123.377
 10
16.4908
 20
-123.377
  0
LWPOLYLINE
100
AcDbEntity
  8
0
100
AcDbPolyline
 90
11
 70
1
 10
36.2133
 20
-122.702
 10
37.0189
 20
-122.702
 10
37.0189
 20
-122.124
 10
36.2133
 20
-122.124
 10
36.2133
 20
-118.267
 10
35.4442
 20
-118.267
 10
32.8199
 20
-122.132
 10
32.8199
 20
-122.702
 10
35.5216
 20
-122.702
 10
35.5216
 20
-124
 10
36.2133
 20
-124
  0
LWPOLYLINE
100
AcDbEntity
  8
0
100
AcDbPolyline
 90
19
 70
1
 10
33.5604
 20
-122.043
 10
33.7801
 20
-121.742
 10
35.2489
 20
-119.577
 10
35.2651
 20
-119.553
 10
35.2835
 20
-119.524
 10
35.304
 20
-119.49
 10
35.3267
 20
-119.452
 10
35.3515
 20
-119.409
 10
35.3785
 20
-119.361
 10
35.4076
 20
-119.309
 10
35.4359
 20
-119.257
 10
35.4601
 20
-119.213
 10
35.4804
 20
-119.175
 10
35.4967
 20
-119.145
 10
35.5089
 20
-119.121
 10
35.5173
 20
-119.103
 10
35.5216
 20
-119.093
 10
35.5216
 20
-122.124
 10
33.4953
 20
-122.124
  0
LWPOLYLINE
100
AcDbEntity
  8
0
100
AcDbPolyline
 90
74
 70
1
 10
47.5985
 20
-122.996
 10
47.8359
 20
-122.133
 10
48.0339
 20
-121.41
 10
48.1926
 20
-120.827
 10
48.3119
 20
-120.385
 10
48.3918
 20
-120.084
 10
48.4324
 20
-119.923
 10
48.454
 20
-119.829
 10
48.477
 20
-119.729
 10
48.5012
 20
-119.623
 10
48.5268
 20
-119.51
 10
48.5537
 20
-119.391
 10
48.5819
 20
-119.265
 10
48.6115
 20
-119.134
 10
48.6631
 20
-119.375
 10
48.7111
 20
-119.594
 10
48.7555
 20
-119.791
 10
48.7962
 20
-119.966
 10
48.8332
 20
-120.119
 10
48.8666
 20
-120.25
 10
48.8963
 20
-120.358
 10
49.8891
 20
-124
 10
50.8168
 20
-124
 10
52.5053
 20
-118.267
 10
51.6956
 20
-118.267
 10
51.4092
 20
-119.294
 10
51.1639
 20
-120.176
 10
50.9595
 20
-120.914
 10
50.7962
 20
-121.506
 10
50.6739
 20
-121.952
 10
50.5926
 20
-122.254
 10
50.5523
 20
-122.411
 10
50.5317
 20
-122.499
 10
50.5094
 20
-122.594
 10
50.4855
 20
-122.696
 10
50.46
 20
-122.805
 10
50.4327
 20
-122.921
 10
50.4038
 20
-123.044
 10
50.3733
 20
-123.174
 10
50.3367
 20
-123.316
 10
50.2975
 20
-123.138
 10
50.2543
 20
-122.948
 10
50.2071
 20
-122.747
 10
50.156
 20
-122.536
 10
50.1008
 20
-122.313
 10
50.0417
 20
-122.08
 10
49.9786
 20
-121.835
 10
48.9817
 20
-118.267
 10
48.2372
 20
-118.267
 10
47.969
 20
-119.218
 10
47.7365
 20
-120.046
 10
47.5396
 20
-120.751
 10
47.3783
 20
-121.333
 10
47.2526
 20
-121.792
 10
47.1625
 20
-122.127
 10
47.1081
 20
-122.34
 10
47.0721
 20
-122.489
 10
47.0374
 20
-122.636
 10
47.0039
 20
-122.778
 10
46.9716
 20
-122.918
 10
46.9406
 20
-123.054
 10
46.9108
 20
-123.187
 10
46.8823
 20
-123.316
 10
46.8375
 20
-123.11
 10
46.7916
 20
-122.906
 10
46.7445
 20
-122.703
 10
46.6963
 20
-122.502
 10
46.6469
 20
-122.303
 10
46.5963
 20
-122.105
 10
46.5446
 20
-121.909
 10
45.5152
 20
-118.267
 10
44.7055
 20
-118.267
 10
46.3941
 20
-124
 10
47.3217
 20
-124
  0
LWPOLYLINE
100
AcDbEntity
  8
0
100
AcDbPolyline
 90
12
 70
1
 10
57.7341
 20
-123.365
 10
53.995
 20
-123.365
 10
53.995
 20
-121.367
 10
57.3232
 20
-121.367
 10
57.3232
 20
-120.741
 10
53.995
 20
-120.741
 10
53.995
 20
-118.902
 10
57.5673
 20
-118.902
 10
57.5673
 20
-118.267
 10
53.2179
 20
-118.267
 10
53.2179
 20
-124
 10
57.7341
 20
-124
  0
LWPOLYLINE
100
AcDbEntity
  8
0
100
AcDbPolyline
 90
6
 70
1
 10
62.4502
 20
-123.365
 10
59.5533
 20
-123.365
 10
59.5533
 20
-118.267
 10
58.7761
 20
-118.267
 10
58.7761
 20
-124
 10
62.4502
 20
-124
  0
LWPOLYLINE
100
AcDbEntity
  8
0
100
AcDbPolyline
 90
38
 70
1
 10
65.7881
 20
-123.993
 10
66.0133
 20
-123.971
 10
66.2305
 20
-123.935
 10
66.4397
 20
-123.884
 10
66.641
 20
-123.819
 10
66.8343
 20
-123.74
 10
67.0197
 20
-123.646
 10
67.1951
 20
-123.539
 10
67.3588
 20
-123.418
 10
67.5107
 20
-123.285
 10
67.6507
 20
-123.14
 10
67.779
 20
-122.982
 10
67.8955
 20
-122.811
 10
68.0002
 20
-122.627
 10
68.092
 20
-122.432
 10
68.1696
 20
-122.229
 10
68.2332
 20
-122.016
 10
68.2826
 20
-121.794
 10
68.3178
 20
-121.563
 10
68.339
 20
-121.323
 10
68.3461
 20
-121.075
 10
68.3299
 20
-120.702
 10
68.2815
 20
-120.355
 10
68.2007
 20
-120.033
 10
68.0877
 20
-119.737
 10
67.9423
 20
-119.465
 10
67.7646
 20
-119.219
 10
67.5547
 20
-118.998
 10
67.315
 20
-118.804
 10
67.0482
 20
-118.64
 10
66.7542
 20
-118.506
 10
66.4331
 20
-118.401
 10
66.0848
 20
-118.327
 10
65.7093
 20
-118.282
 10
65.3067
 20
-118.267
 10
63.4107
 20
-118.267
 10
63.4107
 20
-124
 10
65.5549
 20
-124
  0
LWPOLYLINE
100
AcDbEntity
  8
0
100
AcDbPolyline
 90
38
 70
1
 10
64.1878
 20
-118.89
 10
65.2905
 20
-118.89
 10
65.596
 20
-118.901
 10
65.8802
 20
-118.935
 10
66.143
 20
-118.992
 10
66.3845
 20
-119.072
 10
66.6047
 20
-119.175
 10
66.8035
 20
-119.301
 10
66.981
 20
-119.449
 10
67.1359
 20
-119.619
 10
67.267
 20
-119.81
 10
67.3742
 20
-120.022
 10
67.4576
 20
-120.254
 10
67.5172
 20
-120.507
 10
67.553
 20
-120.78
 10
67.5649
 20
-121.075
 10
67.5596
 20
-121.273
 10
67.544
 20
-121.464
 10
67.5178
 20
-121.647
 10
67.4812
 20
-121.823
 10
67.4341
 20
-121.99
 10
67.3766
 20
-122.151
 10
67.3086
 20
-122.303
 10
67.2308
 20
-122.447
 10
67.144
 20
-122.581
 10
67.0481
 20
-122.705
 10
66.9432
 20
-122.819
 10
66.8292
 20
-122.923
 10
66.7062
 20
-123.017
 10
66.5742
 20
-123.101
 10
66.4345
 20
-123.174
 10
66.2885
 20
-123.236
 10
66.1364
 20
-123.287
 10
65.978
 20
-123.327
 10
65.8133
 20
-123.355
 10
65.6425
 20
-123.372
 10
65.4654
 20
-123.377
 10
64.1878
 20
-123.377
  0
LWPOLYLINE
100
AcDbEntity
  8
0
100
AcDbPolyline
 90
8
 70
1
 10
73.8394
 20
-118.902
 10
75.8087
 20
-118.902
 10
75.8087
 20
-118.267
 10
71.0971
 20
-118.267
 10
71.0971
 20
-118.902
 10
73.0664
 20
-118.902
 10
73.0664
 20
-124
 10
73.8394
 20
-124
  0
LWPOLYLINE
100
AcDbEntity
  8
0
100
AcDbPolyline
 90
36
 70
1
 10
86.1076
 20
-121.62
 10
87.8938
 20
-121.62
 10
89.383
 20
-124
 10
90.2781
 20
-124
 10
88.6506
 20
-121.53
 10
88.832
 20
-121.491
 10
89.0018
 20
-121.439
 10
89.1601
 20
-121.374
 10
89.3069
 20
-121.295
 10
89.4421
 20
-121.204
 10
89.5658
 20
-121.099
 10
89.6779
 20
-120.981
 10
89.7767
 20
-120.852
 10
89.8603
 20
-120.716
 10
89.9287
 20
-120.57
 10
89.9819
 20
-120.417
 10
90.0198
 20
-120.255
 10
90.0426
 20
-120.085
 10
90.0502
 20
-119.907
 10
90.0395
 20
-119.693
 10
90.0072
 20
-119.493
 10
89.9535
 20
-119.307
 10
89.8782
 20
-119.134
 10
89.7814
 20
-118.976
 10
89.6631
 20
-118.831
 10
89.5233
 20
-118.7
 10
89.3638
 20
-118.585
 10
89.1862
 20
-118.488
 10
88.9906
 20
-118.409
 10
88.777
 20
-118.347
 10
88.5454
 20
-118.302
 10
88.2957
 20
-118.276
 10
88.0281
 20
-118.267
 10
85.3305
 20
-118.267
 10
85.3305
 20
-124
 10
86.1076
 20
-124
  0
LWPOLYLINE
100
AcDbEntity
  8
0
100
AcDbPolyline
 90
31
 70
1
 10
86.1076
 20
-118.89
 10
87.9508
 20
-118.89
 10
88.1272
 20
-118.895
 10
88.2914
 20
-118.911
 10
88.4434
 20
-118.938
 10
88.5831
 20
-118.975
 10
88.7107
 20
-119.024
 10
88.8261
 20
-119.082
 10
88.9293
 20
-119.152
 10
89.0194
 20
-119.232
 10
89.0957
 20
-119.321
 10
89.1581
 20
-119.421
 10
89.2066
 20
-119.53
 10
89.2413
 20
-119.648
 10
89.2621
 20
-119.777
 10
89.269
 20
-119.915
 10
89.2622
 20
-120.058
 10
89.2416
 20
-120.191
 10
89.2074
 20
-120.316
 10
89.1594
 20
-120.43
 10
89.0978
 20
-120.536
 10
89.0224
 20
-120.632
 10
88.9333
 20
-120.719
 10
88.8318
 20
-120.795
 10
88.7188
 20
-120.859
 10
88.5944
 20
-120.912
 10
88.4587
 20
-120.953
 10
88.3116
 20
-120.982
 10
88.1532
 20
-121
 10
87.9833
 20
-121.005
 10
86.1076
 20
-121.005
  0
LWPOLYLINE
100
AcDbEntity
  8
0
100
AcDbPolyline
 90
12
 70
1
 10
95.8648
 20
-123.365
 10
92.1257
 20
-123.365
 10
92.1257
 20
-121.367
 10
95.4539
 20
-121.367
 10
95.4539
 20
-120.741
 10
92.1257
 20
-120.741
 10
92.1257
 20
-118.902
 10
95.698
 20
-118.902
 10
95.698
 20
-118.267
 10
91.3486
 20
-118.267
 10
91.3486
 20
-124
 10
95.8648
 20
-124
  0
LWPOLYLINE
100
AcDbEntity
  8
0
100
AcDbPolyline
 90
8
 70
1
 10
97.7043
 20
-122.324
 10
100.316
 20
-122.324
 10
100.972
 20
-124
 10
101.765
 20
-124
 10
99.462
 20
-118.267
 10
98.5791
 20
-118.267
 10
96.2395
 20
-124
 10
97.0452
 20
-124
  0
LWPOLYLINE
100
AcDbEntity
  8
0
100
AcDbPolyline
 90
19
 70
1
 10
98.6727
 20
-119.834
 10
98.7276
 20
-119.686
 10
98.7786
 20
-119.547
 10
98.8256
 20
-119.415
 10
98.8686
 20
-119.292
 10
98.9077
 20
-119.176
 10
98.9427
 20
-119.067
 10
98.9737
 20
-118.967
 10
99.0104
 20
-118.853
 10
99.1203
 20
-119.191
 10
99.1528
 20
-119.29
 10
99.1853
 20
-119.387
 10
99.2179
 20
-119.481
 10
99.2504
 20
-119.571
 10
99.283
 20
-119.659
 10
99.3155
 20
-119.744
 10
99.3481
 20
-119.825
 10
100.085
 20
-121.717
 10
97.9403
 20
-121.717
  0
LWPOLYLINE
100
AcDbEntity
  8
0
100
AcDbPolyline
 90
36
 70
1
 10
103.242
 20
-121.62
 10
105.028
 20
-121.62
 10
106.518
 20
-124
 10
107.413
 20
-124
 10
105.785
 20
-121.53
 10
105.967
 20
-121.491
 10
106.136
 20
-121.439
 10
106.295
 20
-121.374
 10
106.442
 20
-121.295
 10
106.577
 20
-121.204
 10
106.7
 20
-121.099
 10
106.813
 20
-120.981
 10
106.911
 20
-120.852
 10
106.995
 20
-120.716
 10
107.063
 20
-120.57
 10
107.116
 20
-120.417
 10
107.154
 20
-120.255
 10
107.177
 20
-120.085
 10
107.185
 20
-119.907
 10
107.174
 20
-119.693
 10
107.142
 20
-119.493
 10
107.088
 20
-119.307
 10
107.013
 20
-119.134
 10
106.916
 20
-118.976
 10
106.798
 20
-118.831
 10
106.658
 20
-118.7
 10
106.498
 20
-118.585
 10
106.321
 20
-118.488
 10
106.125
 20
-118.409
 10
105.912
 20
-118.347
 10
105.68
 20
-118.302
 10
105.43
 20
-118.276
 10
105.163
 20
-118.267
 10
102.465
 20
-118.267
 10
102.465
 20
-124
 10
103.242
 20
-124
  0
LWPOLYLINE
100
AcDbEntity
  8
0
100
AcDbPolyline
 90
31
 70
1
 10
103.242
 20
-118.89
 10
105.085
 20
-118.89
 10
105.262
 20
-118.895
 10
105.426
 20
-118.911
 10
105.578
 20
-118.938
 10
105.718
 20
-118.975
 10
105.845
 20
-119.024
 10
105.961
 20
-119.082
 10
106.064
 20
-119.152
 10
106.154
 20
-119.232
 10
106.23
 20
-119.321
 10
106.293
 20
-119.421
 10
106.341
 20
-119.53
 10
106.376
 20
-119.648
 10
106.397
 20
-119.777
 10
106.404
 20
-119.915
 10
106.397
 20
-120.058
 10
106.376
 20
-120.191
 10
106.342
 20
-120.316
 10
106.294
 20
-120.43
 10
106.232
 20
-120.536
 10
106.157
 20
-120.632
 10
106.068
 20
-120.719
 10
105.966
 20
-120.795
 10
105.853
 20
-120.859
 10
105.729
 20
-120.912
 10
105.593
 20
-120.953
 10
105.446
 20
-120.982
 10
105.288
 20
-121
 10
105.118
 20
-121.005
 10
103.242
 20
-121.005
  0
LWPOLYLINE
100
AcDbEntity
  8
0
100
AcDbPolyline
 90
36
 70
1
 10
117.594
 20
-121.62
 10
119.38
 20
-121.62
 10
120.869
 20
-124
 10
121.764
 20
-124
 10
120.137
 20
-121.53
 10
120.318
 20
-121.491
 10
120.488
 20
-121.439
 10
120.646
 20
-121.374
 10
120.793
 20
-121.295
 10
120.928
 20
-121.204
 10
121.052
 20
-121.099
 10
121.164
 20
-120.981
 10
121.263
 20
-120.852
 10
121.346
 20
-120.716
 10
121.415
 20
-120.57
 10
121.468
 20
-120.417
 10
121.506
 20
-120.255
 10
121.529
 20
-120.085
 10
121.536
 20
-119.907
 10
121.526
 20
-119.693
 10
121.493
 20
-119.493
 10
121.439
 20
-119.307
 10
121.364
 20
-119.134
 10
121.267
 20
-118.976
 10
121.149
 20
-118.831
 10
121.009
 20
-118.7
 10
120.85
 20
-118.585
 10
120.672
 20
-118.488
 10
120.477
 20
-118.409
 10
120.263
 20
-118.347
 10
120.031
 20
-118.302
 10
119.782
 20
-118.276
 10
119.514
 20
-118.267
 10
116.817
 20
-118.267
 10
116.817
 20
-124
 10
117.594
 20
-124
  0
LWPOLYLINE
100
AcDbEntity
  8
0
100
AcDbPolyline
 90
31
 70
1
 10
117.594
 20
-118.89
 10
119.437
 20
-118.89
 10
119.613
 20
-118.895
 10
119.777
 20
-118.911
 10
119.929
 20
-118.938
 10
120.069
 20
-118.975
 10
120.197
 20
-119.024
 10
120.312
 20
-119.082
 10
120.415
 20
-119.152
 10
120.505
 20
-119.232
 10
120.582
 20
-119.321
 10
120.644
 20
-119.421
 10
120.693
 20
-119.53
 10
120.727
 20
-119.648
 10
120.748
 20
-119.777
 10
120.755
 20
-119.915
 10
120.748
 20
-120.058
 10
120.728
 20
-120.191
 10
120.693
 20
-120.316
 10
120.645
 20
-120.43
 10
120.584
 20
-120.536
 10
120.508
 20
-120.632
 10
120.419
 20
-120.719
 10
120.318
 20
-120.795
 10
120.205
 20
-120.859
 10
120.08
 20
-120.912
 10
119.945
 20
-120.953
 10
119.798
 20
-120.982
 10
119.639
 20
-121
 10
119.469
 20
-121.005
 10
117.594
 20
-121.005
  0
LWPOLYLINE
100
AcDbEntity
  8
0
100
AcDbPolyline
 90
8
 70
1
 10
144.844
 20
-118.902
 10
146.813
 20
-118.902
 10
146.813
 20
-118.267
 10
142.101
 20
-118.267
 10
142.101
 20
-118.902
 10
144.071
 20
-118.902
 10
144.071
 20
-124
 10
144.844
 20
-124
  0
LWPOLYLINE
100
AcDbEntity
  8
0
100
AcDbPolyline
 90
76
 70
1
 10
150.184
 20
-124.076
 10
150.382
 20
-124.06
 10
150.571
 20
-124.032
 10
150.753
 20
-123.994
 10
150.926
 20
-123.945
 10
151.092
 20
-123.886
 10
151.25
 20
-123.815
 10
151.399
 20
-123.734
 10
151.538
 20
-123.643
 10
151.668
 20
-123.543
 10
151.787
 20
-123.433
 10
151.896
 20
-123.313
 10
151.995
 20
-123.183
 10
152.084
 20
-123.044
 10
152.163
 20
-122.896
 10
152.229
 20
-122.74
 10
152.283
 20
-122.576
 10
152.325
 20
-122.405
 10
152.355
 20
-122.226
 10
152.373
 20
-122.038
 10
152.379
 20
-121.844
 10
152.379
 20
-118.267
 10
151.606
 20
-118.267
 10
151.606
 20
-121.799
 10
151.598
 20
-122.022
 10
151.571
 20
-122.23
 10
151.528
 20
-122.421
 10
151.466
 20
-122.597
 10
151.387
 20
-122.757
 10
151.291
 20
-122.901
 10
151.177
 20
-123.03
 10
151.047
 20
-123.141
 10
150.904
 20
-123.236
 10
150.746
 20
-123.313
 10
150.574
 20
-123.373
 10
150.388
 20
-123.416
 10
150.189
 20
-123.442
 10
149.975
 20
-123.451
 10
149.767
 20
-123.442
 10
149.574
 20
-123.417
 10
149.395
 20
-123.376
 10
149.23
 20
-123.318
 10
149.08
 20
-123.243
 10
148.944
 20
-123.152
 10
148.823
 20
-123.044
 10
148.718
 20
-122.92
 10
148.628
 20
-122.78
 10
148.555
 20
-122.626
 10
148.498
 20
-122.455
 10
148.457
 20
-122.27
 10
148.433
 20
-122.068
 10
148.425
 20
-121.852
 10
148.425
 20
-118.267
 10
147.647
 20
-118.267
 10
147.647
 20
-121.917
 10
147.653
 20
-122.106
 10
147.671
 20
-122.287
 10
147.7
 20
-122.461
 10
147.742
 20
-122.628
 10
147.795
 20
-122.786
 10
147.86
 20
-122.937
 10
147.936
 20
-123.08
 10
148.024
 20
-123.215
 10
148.121
 20
-123.341
 10
148.227
 20
-123.456
 10
148.344
 20
-123.563
 10
148.469
 20
-123.66
 10
148.605
 20
-123.747
 10
148.75
 20
-123.825
 10
148.904
 20
-123.893
 10
149.065
 20
-123.951
 10
149.233
 20
-123.998
 10
149.408
 20
-124.034
 10
149.591
 20
-124.06
 10
149.781
 20
-124.076
 10
149.979
 20
-124.081
  0
LWPOLYLINE
100
AcDbEntity
  8
0
100
AcDbPolyline
 90
52
 70
1
 10
156.308
 20
-123.991
 10
156.565
 20
-123.965
 10
156.805
 20
-123.922
 10
157.026
 20
-123.861
 10
157.23
 20
-123.783
 10
157.416
 20
-123.688
 10
157.584
 20
-123.575
 10
157.732
 20
-123.446
 10
157.857
 20
-123.304
 10
157.959
 20
-123.148
 10
158.039
 20
-122.978
 10
158.096
 20
-122.794
 10
158.13
 20
-122.596
 10
158.141
 20
-122.385
 10
158.134
 20
-122.225
 10
158.111
 20
-122.073
 10
158.073
 20
-121.929
 10
158.02
 20
-121.794
 10
157.952
 20
-121.666
 10
157.869
 20
-121.546
 10
157.771
 20
-121.435
 10
157.659
 20
-121.333
 10
157.534
 20
-121.244
 10
157.396
 20
-121.166
 10
157.245
 20
-121.101
 10
157.082
 20
-121.048
 10
156.906
 20
-121.006
 10
156.717
 20
-120.977
 10
156.861
 20
-120.939
 10
156.995
 20
-120.891
 10
157.12
 20
-120.834
 10
157.235
 20
-120.768
 10
157.341
 20
-120.692
 10
157.437
 20
-120.607
 10
157.523
 20
-120.513
 10
157.598
 20
-120.411
 10
157.662
 20
-120.302
 10
157.715
 20
-120.187
 10
157.755
 20
-120.065
 10
157.784
 20
-119.936
 10
157.802
 20
-119.801
 10
157.808
 20
-119.659
 10
157.766
 20
-119.289
 10
157.643
 20
-118.977
 10
157.437
 20
-118.721
 10
157.149
 20
-118.523
 10
156.778
 20
-118.381
 10
156.325
 20
-118.296
 10
155.789
 20
-118.267
 10
153.706
 20
-118.267
 10
153.706
 20
-124
 10
156.034
 20
-124
  0
LWPOLYLINE
100
AcDbEntity
  8
0
100
AcDbPolyline
 90
31
 70
1
 10
154.483
 20
-118.89
 10
155.789
 20
-118.89
 10
155.956
 20
-118.894
 10
156.11
 20
-118.906
 10
156.253
 20
-118.926
 10
156.385
 20
-118.955
 10
156.504
 20
-118.991
 10
156.612
 20
-119.036
 10
156.709
 20
-119.089
 10
156.793
 20
-119.151
 10
156.864
 20
-119.225
 10
156.923
 20
-119.308
 10
156.968
 20
-119.403
 10
157
 20
-119.509
 10
157.02
 20
-119.625
 10
157.026
 20
-119.752
 10
157.02
 20
-119.885
 10
157.001
 20
-120.008
 10
156.97
 20
-120.121
 10
156.926
 20
-120.224
 10
156.87
 20
-120.316
 10
156.801
 20
-120.398
 10
156.719
 20
-120.47
 10
156.625
 20
-120.532
 10
156.518
 20
-120.585
 10
156.398
 20
-120.628
 10
156.265
 20
-120.661
 10
156.119
 20
-120.685
 10
155.961
 20
-120.7
 10
155.789
 20
-120.704
 10
154.483
 20
-120.704
  0
LWPOLYLINE
100
AcDbEntity
  8
0
100
AcDbPolyline
 90
24
 70
1
 10
154.483
 20
-121.311
 10
155.932
 20
-121.311
 10
156.31
 20
-121.331
 10
156.629
 20
-121.393
 10
156.891
 20
-121.497
 10
157.094
 20
-121.641
 10
157.24
 20
-121.827
 10
157.327
 20
-122.055
 10
157.356
 20
-122.324
 10
157.349
 20
-122.468
 10
157.329
 20
-122.602
 10
157.296
 20
-122.726
 10
157.25
 20
-122.838
 10
157.19
 20
-122.941
 10
157.117
 20
-123.032
 10
157.03
 20
-123.113
 10
156.929
 20
-123.183
 10
156.813
 20
-123.243
 10
156.68
 20
-123.291
 10
156.532
 20
-123.329
 10
156.368
 20
-123.356
 10
156.188
 20
-123.372
 10
155.993
 20
-123.377
 10
154.483
 20
-123.377
  0
LWPOLYLINE
100
AcDbEntity
  8
0
100
AcDbPolyline
 90
12
 70
1
 10
163.781
 20
-123.365
 10
160.042
 20
-123.365
 10
160.042
 20
-121.367
 10
163.37
 20
-121.367
 10
163.37
 20
-120.741
 10
160.042
 20
-120.741
 10
160.042
 20
-118.902
 10
163.614
 20
-118.902
 10
163.614
 20
-118.267
 10
159.264
 20
-118.267
 10
159.264
 20
-124
 10
163.781
 20
-124
  0
LWPOLYLINE
100
AcDbEntity
  8
0
100
AcDbPolyline
 90
59
 70
1
 10
170.145
 20
-120.175
 10
170.129
 20
-119.406
 10
170.117
 20
-118.955
 10
170.251
 20
-119.402
 10
170.479
 20
-120.094
 10
171.98
 20
-124
 10
172.525
 20
-124
 10
174.006
 20
-120.094
 10
174.052
 20
-119.97
 10
174.1
 20
-119.833
 10
174.15
 20
-119.683
 10
174.201
 20
-119.521
 10
174.254
 20
-119.345
 10
174.308
 20
-119.156
 10
174.364
 20
-118.955
 10
174.355
 20
-119.123
 10
174.346
 20
-119.294
 10
174.34
 20
-119.466
 10
174.334
 20
-119.64
 10
174.331
 20
-119.817
 10
174.328
 20
-119.995
 10
174.328
 20
-120.175
 10
174.328
 20
-124
 10
175.028
 20
-124
 10
175.028
 20
-118.267
 10
174.031
 20
-118.267
 10
172.533
 20
-122.242
 10
172.522
 20
-122.272
 10
172.507
 20
-122.311
 10
172.49
 20
-122.361
 10
172.47
 20
-122.42
 10
172.447
 20
-122.49
 10
172.421
 20
-122.57
 10
172.393
 20
-122.659
 10
172.365
 20
-122.751
 10
172.34
 20
-122.835
 10
172.317
 20
-122.913
 10
172.298
 20
-122.983
 10
172.281
 20
-123.047
 10
172.267
 20
-123.104
 10
172.257
 20
-123.154
 10
172.249
 20
-123.116
 10
172.239
 20
-123.072
 10
172.226
 20
-123.021
 10
172.212
 20
-122.964
 10
172.196
 20
-122.902
 10
172.177
 20
-122.832
 10
172.157
 20
-122.757
 10
172.135
 20
-122.679
 10
172.113
 20
-122.603
 10
172.091
 20
-122.528
 10
172.069
 20
-122.454
 10
172.046
 20
-122.382
 10
172.023
 20
-122.312
 10
172
 20
-122.242
 10
170.475
 20
-118.267
 10
169.453
 20
-118.267
 10
169.453
 20
-124
 10
170.145
 20
-124
  0
LWPOLYLINE
100
AcDbEntity
  8
0
100
AcDbPolyline
 90
11
 70
1
 10
179.939
 20
-123.377
 10
178.543
 20
-123.377
 10
178.543
 20
-118.267
 10
177.868
 20
-118.267
 10
176.513
 20
-119.199
 10
176.513
 20
-119.891
 10
177.807
 20
-118.967
 10
177.807
 20
-123.377
 10
176.346
 20
-123.377
 10
176.346
 20
-124
 10
179.939
 20
-124
  0
LWPOLYLINE
100
AcDbEntity
  8
0
100
AcDbPolyline
 90
19
 70
1
 10
188.671
 20
-120.192
 10
188.651
 20
-119.512
 10
188.631
 20
-119.117
 10
191.698
 20
-124
 10
192.634
 20
-124
 10
192.634
 20
-118.267
 10
191.934
 20
-118.267
 10
191.934
 20
-122.027
 10
191.935
 20
-122.138
 10
191.938
 20
-122.267
 10
191.943
 20
-122.414
 10
191.95
 20
-122.579
 10
191.959
 20
-122.762
 10
191.97
 20
-122.963
 10
191.983
 20
-123.182
 10
188.883
 20
-118.267
 10
187.98
 20
-118.267
 10
187.98
 20
-124
 10
188.671
 20
-124
  0
LWPOLYLINE
100
AcDbEntity
  8
0
100
AcDbPolyline
 90
76
 70
1
 10
196.494
 20
-124.076
 10
196.691
 20
-124.06
 10
196.881
 20
-124.032
 10
197.062
 20
-123.994
 10
197.236
 20
-123.945
 10
197.402
 20
-123.886
 10
197.56
 20
-123.815
 10
197.709
 20
-123.734
 10
197.848
 20
-123.643
 10
197.977
 20
-123.543
 10
198.096
 20
-123.433
 10
198.205
 20
-123.313
 10
198.305
 20
-123.183
 10
198.394
 20
-123.044
 10
198.472
 20
-122.896
 10
198.538
 20
-122.74
 10
198.593
 20
-122.576
 10
198.635
 20
-122.405
 10
198.665
 20
-122.226
 10
198.683
 20
-122.038
 10
198.689
 20
-121.844
 10
198.689
 20
-118.267
 10
197.916
 20
-118.267
 10
197.916
 20
-121.799
 10
197.907
 20
-122.022
 10
197.881
 20
-122.23
 10
197.837
 20
-122.421
 10
197.776
 20
-122.597
 10
197.697
 20
-122.757
 10
197.6
 20
-122.901
 10
197.487
 20
-123.03
 10
197.357
 20
-123.141
 10
197.213
 20
-123.236
 10
197.055
 20
-123.313
 10
196.884
 20
-123.373
 10
196.698
 20
-123.416
 10
196.498
 20
-123.442
 10
196.284
 20
-123.451
 10
196.076
 20
-123.442
 10
195.883
 20
-123.417
 10
195.704
 20
-123.376
 10
195.54
 20
-123.318
 10
195.389
 20
-123.243
 10
195.254
 20
-123.152
 10
195.133
 20
-123.044
 10
195.027
 20
-122.92
 10
194.937
 20
-122.78
 10
194.864
 20
-122.626
 10
194.807
 20
-122.455
 10
194.767
 20
-122.27
 10
194.742
 20
-122.068
 10
194.734
 20
-121.852
 10
194.734
 20
-118.267
 10
193.957
 20
-118.267
 10
193.957
 20
-121.917
 10
193.963
 20
-122.106
 10
193.98
 20
-122.287
 10
194.01
 20
-122.461
 10
194.051
 20
-122.628
 10
194.104
 20
-122.786
 10
194.169
 20
-122.937
 10
194.246
 20
-123.08
 10
194.333
 20
-123.215
 10
194.43
 20
-123.341
 10
194.537
 20
-123.456
 10
194.653
 20
-123.563
 10
194.779
 20
-123.66
 10
194.914
 20
-123.747
 10
195.059
 20
-123.825
 10
195.213
 20
-123.893
 10
195.374
 20
-123.951
 10
195.542
 20
-123.998
 10
195.718
 20
-124.034
 10
195.901
 20
-124.06
 10
196.091
 20
-124.076
 10
196.288
 20
-124.081
  0
LWPOLYLINE
100
AcDbEntity
  8
0
100
AcDbPolyline
 90
8
 70
1
 10
202.262
 20
-118.902
 10
204.231
 20
-118.902
 10
204.231
 20
-118.267
 10
199.519
 20
-118.267
 10
199.519
 20
-118.902
 10
201.489
 20
-118.902
 10
201.489
 20
-124
 10
202.262
 20
-124
  0
LWPOLYLINE
100
AcDbEntity
  8
0
100
AcDbPolyline
 90
19
 70
1
 10
214.444
 20
-120.192
 10
214.424
 20
-119.512
 10
214.404
 20
-119.117
 10
217.471
 20
-124
 10
218.407
 20
-124
 10
218.407
 20
-118.267
 10
217.707
 20
-118.267
 10
217.707
 20
-122.027
 10
217.708
 20
-122.138
 10
217.711
 20
-122.267
 10
217.716
 20
-122.414
 10
217.723
 20
-122.579
 10
217.732
 20
-122.762
 10
217.743
 20
-122.963
 10
217.756
 20
-123.182
 10
214.656
 20
-118.267
 10
213.753
 20
-118.267
 10
213.753
 20
-124
 10
214.444
 20
-124
  0
LWPOLYLINE
100
AcDbEntity
  8
0
100
AcDbPolyline
 90
4
 70
1
 10
222.949
 20
-118.267
 10
222.171
 20
-118.267
 10
222.171
 20
-124
 10
222.949
 20
-124
  0
LWPOLYLINE
100
AcDbEntity
  8
0
100
AcDbPolyline
 90
19
 70
1
 10
225.093
 20
-120.192
 10
225.073
 20
-119.512
 10
225.052
 20
-119.117
 10
228.12
 20
-124
 10
229.056
 20
-124
 10
229.056
 20
-118.267
 10
228.356
 20
-118.267
 10
228.356
 20
-122.027
 10
228.357
 20
-122.138
 10
228.36
 20
-122.267
 10
228.365
 20
-122.414
 10
228.372
 20
-122.579
 10
228.381
 20
-122.762
 10
228.392
 20
-122.963
 10
228.405
 20
-123.182
 10
225.305
 20
-118.267
 10
224.401
 20
-118.267
 10
224.401
 20
-124
 10
225.093
 20
-124
  0
LWPOLYLINE
100
AcDbEntity
  8
0
100
AcDbPolyline
 90
19
 70
1
 10
231.111
 20
-120.192
 10
231.091
 20
-119.512
 10
231.07
 20
-119.117
 10
234.138
 20
-124
 10
235.074
 20
-124
 10
235.074
 20
-118.267
 10
234.374
 20
-118.267
 10
234.374
 20
-122.027
 10
234.375
 20
-122.138
 10
234.378
 20
-122.267
 10
234.383
 20
-122.414
 10
234.39
 20
-122.579
 10
234.399
 20
-122.762
 10
234.41
 20
-122.963
 10
234.423
 20
-123.182
 10
231.323
 20
-118.267
 10
230.419
 20
-118.267
 10
230.419
 20
-124
 10
231.111
 20
-124
  0
LWPOLYLINE
100
AcDbEntity
  8
0
100
AcDbPolyline
 90
12
 70
1
 10
240.954
 20
-123.365
 10
237.215
 20
-123.365
 10
237.215
 20
-121.367
 10
240.543
 20
-121.367
 10
240.543
 20
-120.741
 10
237.215
 20
-120.741
 10
237.215
 20
-118.902
 10
240.787
 20
-118.902
 10
240.787
 20
-118.267
 10
236.437
 20
-118.267
 10
236.437
 20
-124
 10
240.954
 20
-124
  0
LWPOLYLINE
100
AcDbEntity
  8
0
100
AcDbPolyline
 90
36
 70
1
 10
242.773
 20
-121.62
 10
244.559
 20
-121.62
 10
246.048
 20
-124
 10
246.943
 20
-124
 10
245.316
 20
-121.53
 10
245.497
 20
-121.491
 10
245.667
 20
-121.439
 10
245.825
 20
-121.374
 10
245.972
 20
-121.295
 10
246.107
 20
-121.204
 10
246.231
 20
-121.099
 10
246.343
 20
-120.981
 10
246.442
 20
-120.852
 10
246.525
 20
-120.716
 10
246.594
 20
-120.57
 10
246.647
 20
-120.417
 10
246.685
 20
-120.255
 10
246.708
 20
-120.085
 10
246.715
 20
-119.907
 10
246.705
 20
-119.693
 10
246.672
 20
-119.493
 10
246.619
 20
-119.307
 10
246.543
 20
-119.134
 10
246.447
 20
-118.976
 10
246.328
 20
-118.831
 10
246.188
 20
-118.7
 10
246.029
 20
-118.585
 10
245.851
 20
-118.488
 10
245.656
 20
-118.409
 10
245.442
 20
-118.347
 10
245.211
 20
-118.302
 10
244.961
 20
-118.276
 10
244.693
 20
-118.267
 10
241.996
 20
-118.267
 10
241.996
 20
-124
 10
242.773
 20
-124
  0
LWPOLYLINE
100
AcDbEntity
  8
0
100
AcDbPolyline
 90
31
 70
1
 10
242.773
 20
-118.89
 10
244.616
 20
-118.89
 10
244.792
 20
-118.895
 10
244.957
 20
-118.911
 10
245.109
 20
-118.938
 10
245.248
 20
-118.975
 10
245.376
 20
-119.024
 10
245.491
 20
-119.082
 10
245.594
 20
-119.152
 10
245.685
 20
-119.232
 10
245.761
 20
-119.321
 10
245.823
 20
-119.421
 10
245.872
 20
-119.53
 10
245.906
 20
-119.648
 10
245.927
 20
-119.777
 10
245.934
 20
-119.915
 10
245.927
 20
-120.058
 10
245.907
 20
-120.191
 10
245.873
 20
-120.316
 10
245.825
 20
-120.43
 10
245.763
 20
-120.536
 10
245.688
 20
-120.632
 10
245.598
 20
-120.719
 10
245.497
 20
-120.795
 10
245.384
 20
-120.859
 10
245.26
 20
-120.912
 10
245.124
 20
-120.953
 10
244.977
 20
-120.982
 10
244.818
 20
-121
 10
244.648
 20
-121.005
 10
242.773
 20
-121.005
  0
LWPOLYLINE
100
AcDbEntity
  8
0
100
AcDbPolyline
 90
8
 70
1
 10
252.424
 20
-118.902
 10
254.394
 20
-118.902
 10
254.394
 20
-118.267
 10
249.682
 20
-118.267
 10
249.682
 20
-118.902
 10
251.651
 20
-118.902
 10
251.651
 20
-124
 10
252.424
 20
-124
  0
LWPOLYLINE
100
AcDbEntity
  8
0
100
AcDbPolyline
 90
8
 70
1
 10
255.448
 20
-122.324
 10
258.06
 20
-122.324
 10
258.715
 20
-124
 10
259.508
 20
-124
 10
257.205
 20
-118.267
 10
256.323
 20
-118.267
 10
253.983
 20
-124
 10
254.789
 20
-124
  0
LWPOLYLINE
100
AcDbEntity
  8
0
100
AcDbPolyline
 90
19
 70
1
 10
256.416
 20
-119.834
 10
256.471
 20
-119.686
 10
256.522
 20
-119.547
 10
256.569
 20
-119.415
 10
256.612
 20
-119.292
 10
256.651
 20
-119.176
 10
256.686
 20
-119.067
 10
256.717
 20
-118.967
 10
256.754
 20
-118.853
 10
256.864
 20
-119.191
 10
256.896
 20
-119.29
 10
256.929
 20
-119.387
 10
256.961
 20
-119.481
 10
256.994
 20
-119.571
 10
257.026
 20
-119.659
 10
257.059
 20
-119.744
 10
257.092
 20
-119.825
 10
257.828
 20
-121.717
 10
255.684
 20
-121.717
  0
LWPOLYLINE
100
AcDbEntity
  8
0
100
AcDbPolyline
 90
52
 70
1
 10
262.811
 20
-123.991
 10
263.068
 20
-123.965
 10
263.307
 20
-123.922
 10
263.528
 20
-123.861
 10
263.732
 20
-123.783
 10
263.918
 20
-123.688
 10
264.086
 20
-123.575
 10
264.234
 20
-123.446
 10
264.359
 20
-123.304
 10
264.462
 20
-123.148
 10
264.541
 20
-122.978
 10
264.598
 20
-122.794
 10
264.632
 20
-122.596
 10
264.644
 20
-122.385
 10
264.636
 20
-122.225
 10
264.613
 20
-122.073
 10
264.576
 20
-121.929
 10
264.523
 20
-121.794
 10
264.455
 20
-121.666
 10
264.371
 20
-121.546
 10
264.273
 20
-121.435
 10
264.161
 20
-121.333
 10
264.036
 20
-121.244
 10
263.898
 20
-121.166
 10
263.748
 20
-121.101
 10
263.584
 20
-121.048
 10
263.408
 20
-121.006
 10
263.219
 20
-120.977
 10
263.363
 20
-120.939
 10
263.498
 20
-120.891
 10
263.623
 20
-120.834
 10
263.738
 20
-120.768
 10
263.843
 20
-120.692
 10
263.939
 20
-120.607
 10
264.025
 20
-120.513
 10
264.101
 20
-120.411
 10
264.165
 20
-120.302
 10
264.217
 20
-120.187
 10
264.258
 20
-120.065
 10
264.287
 20
-119.936
 10
264.304
 20
-119.801
 10
264.31
 20
-119.659
 10
264.269
 20
-119.289
 10
264.145
 20
-118.977
 10
263.939
 20
-118.721
 10
263.651
 20
-118.523
 10
263.28
 20
-118.381
 10
262.827
 20
-118.296
 10
262.292
 20
-118.267
 10
260.209
 20
-118.267
 10
260.209
 20
-124
 10
262.536
 20
-124
  0
LWPOLYLINE
100
AcDbEntity
  8
0
100
AcDbPolyline
 90
31
 70
1
 10
260.986
 20
-118.89
 10
262.292
 20
-118.89
 10
262.458
 20
-118.894
 10
262.613
 20
-118.906
 10
262.756
 20
-118.926
 10
262.887
 20
-118.955
 10
263.007
 20
-118.991
 10
263.115
 20
-119.036
 10
263.211
 20
-119.089
 10
263.296
 20
-119.151
 10
263.367
 20
-119.225
 10
263.425
 20
-119.308
 10
263.47
 20
-119.403
 10
263.503
 20
-119.509
 10
263.522
 20
-119.625
 10
263.529
 20
-119.752
 10
263.522
 20
-119.885
 10
263.504
 20
-120.008
 10
263.472
 20
-120.121
 10
263.428
 20
-120.224
 10
263.372
 20
-120.316
 10
263.303
 20
-120.398
 10
263.222
 20
-120.47
 10
263.127
 20
-120.532
 10
263.02
 20
-120.585
 10
262.9
 20
-120.628
 10
262.767
 20
-120.661
 10
262.622
 20
-120.685
 10
262.463
 20
-120.7
 10
262.292
 20
-120.704
 10
260.986
 20
-120.704
  0
LWPOLYLINE
100
AcDbEntity
  8
0
100
AcDbPolyline
 90
24
 70
1
 10
260.986
 20
-121.311
 10
262.434
 20
-121.311
 10
262.812
 20
-121.331
 10
263.132
 20
-121.393
 10
263.393
 20
-121.497
 10
263.597
 20
-121.641
 10
263.742
 20
-121.827
 10
263.829
 20
-122.055
 10
263.858
 20
-122.324
 10
263.852
 20
-122.468
 10
263.832
 20
-122.602
 10
263.798
 20
-122.726
 10
263.752
 20
-122.838
 10
263.692
 20
-122.941
 10
263.619
 20
-123.032
 10
263.533
 20
-123.113
 10
263.432
 20
-123.183
 10
263.315
 20
-123.243
 10
263.183
 20
-123.291
 10
263.035
 20
-123.329
 10
262.871
 20
-123.356
 10
262.691
 20
-123.372
 10
262.495
 20
-123.377
 10
260.986
 20
-123.377
  0
LWPOLYLINE
100
AcDbEntity
  8
0
100
AcDbPolyline
 90
12
 70
1
 10
30.537
 20
-122.193
 10
31.7211
 20
-124
 10
32.5389
 20
-124
 10
30.952
 20
-121.73
 10
32.4453
 20
-119.598
 10
31.6275
 20
-119.598
 10
30.537
 20
-121.311
 10
29.4385
 20
-119.598
 10
28.6288
 20
-119.598
 10
30.1221
 20
-121.738
 10
28.5556
 20
-124
 10
29.3449
 20
-124
  0
LWPOLYLINE
100
AcDbEntity
  8
0
100
AcDbPolyline
 90
4
 70
1
 10
41.9832
 20
-121.461
 10
39.9488
 20
-121.461
 10
39.9488
 20
-122.112
 10
41.9832
 20
-122.112
  0
LWPOLYLINE
100
AcDbEntity
  8
0
100
AcDbPolyline
 90
26
 70
1
 10
165.433
 20
-124.99
 10
165.474
 20
-124.913
 10
165.512
 20
-124.835
 10
165.546
 20
-124.756
 10
165.577
 20
-124.676
 10
165.605
 20
-124.595
 10
165.628
 20
-124.513
 10
165.649
 20
-124.427
 10
165.666
 20
-124.336
 10
165.68
 20
-124.239
 10
165.691
 20
-124.136
 10
165.699
 20
-124.027
 10
165.704
 20
-123.913
 10
165.706
 20
-123.793
 10
165.706
 20
-123.109
 10
164.912
 20
-123.109
 10
164.912
 20
-124
 10
165.27
 20
-124
 10
165.263
 20
-124.147
 10
165.239
 20
-124.296
 10
165.2
 20
-124.447
 10
165.145
 20
-124.599
 10
165.075
 20
-124.753
 10
164.989
 20
-124.909
 10
164.888
 20
-125.066
 10
165.388
 20
-125.066
  0
LWPOLYLINE
100
AcDbEntity
  8
0
100
AcDbPolyline
 90
4
 70
1
 10
110
 20
-130
 10
5
 20
-130
 10
5
 20
-190
 10
110
 20
-190
  0
LWPOLYLINE
100
AcDbEntity
  8
0
100
AcDbPolyline
 90
48
 70
1
 10
24.3147
 20
-165.205
 10
23.6412
 20
-165.071
 10
22.9909
 20
-164.85
 10
22.375
 20
-164.547
 10
21.804
 20
-164.165
 10
21.2877
 20
-163.712
 10
20.8349
 20
-163.196
 10
20.4534
 20
-162.625
 10
20.1496
 20
-162.009
 10
19.9289
 20
-161.359
 10
19.7949
 20
-160.685
 10
19.75
 20
-160
 10
19.7949
 20
-159.315
 10
19.9289
 20
-158.641
 10
20.1496
 20
-157.991
 10
20.4534
 20
-157.375
 10
20.8349
 20
-156.804
 10
21.2877
 20
-156.288
 10
21.804
 20
-155.835
 10
22.375
 20
-155.453
 10
22.9909
 20
-155.15
 10
23.6412
 20
-154.929
 10
24.3147
 20
-154.795
 10
25
 20
-154.75
 10
25.6853
 20
-154.795
 10
26.3588
 20
-154.929
 10
27.0091
 20
-155.15
 10
27.625
 20
-155.453
 10
28.196
 20
-155.835
 10
28.7123
 20
-156.288
 10
29.1651
 20
-156.804
 10
29.5466
 20
-157.375
 10
29.8504
 20
-157.991
 10
30.0711
 20
-158.641
 10
30.2051
 20
-159.315
 10
30.25
 20
-160
 10
30.2051
 20
-160.685
 10
30.0711
 20
-161.359
 10
29.8504
 20
-162.009
 10
29.5466
 20
-162.625
 10
29.1651
 20
-163.196
 10
28.7123
 20
-163.712
 10
28.196
 20
-164.165
 10
27.625
 20
-164.547
 10
27.0091
 20
-164.85
 10
26.3588
 20
-165.071
 10
25.6853
 20
-165.205
 10
25
 20
-165.25
  0
LWPOLYLINE
100
AcDbEntity
  8
0
100
AcDbPolyline
 90
48
 70
1
 10
89.3147
 20
-165.205
 10
88.6412
 20
-165.071
 10
87.9909
 20
-164.85
 10
87.375
 20
-164.547
 10
86.804
 20
-164.165
 10
86.2877
 20
-163.712
 10
85.8349
 20
-163.196
 10
85.4534
 20
-162.625
 10
85.1496
 20
-162.009
 10
84.9289
 20
-161.359
 10
84.7949
 20
-160.685
 10
84.75
 20
-160
 10
84.7949
 20
-159.315
 10
84.9289
 20
-158.641
 10
85.1496
 20
-157.991
 10
85.4534
 20
-157.375
 10
85.8349
 20
-156.804
 10
86.2877
 20
-156.288
 10
86.804
 20
-155.835
 10
87.375
 20
-155.453
 10
87.9909
 20
-155.15
 10
88.6412
 20
-154.929
 10
89.3147
 20
-154.795
 10
90
 20
-154.75
 10
90.6853
 20
-154.795
 10
91.3588
 20
-154.929
 10
92.0091
 20
-155.15
 10
92.625
 20
-155.453
 10
93.196
 20
-155.835
 10
93.7123
 20
-156.288
 10
94.1651
 20
-156.804
 10
94.5466
 20
-157.375
 10
94.8504
 20
-157.991
 10
95.0711
 20
-158.641
 10
95.2051
 20
-159.315
 10
95.25
 20
-160
 10
95.2051
 20
-160.685
 10
95.0711
 20
-161.359
 10
94.8504
 20
-162.009
 10
94.5466
 20
-162.625
 10
94.1651
 20
-163.196
 10
93.7123
 20
-163.712
 10
93.196
 20
-164.165
 10
92.625
 20
-164.547
 10
92.0091
 20
-164.85
 10
91.3588
 20
-165.071
 10
90.6853
 20
-165.205
 10
90
 20
-165.25
  0
LWPOLYLINE
100
AcDbEntity
  8
0
100
AcDbPolyline
 90
4
 70
1
 10
227
 20
-130
 10
122
 20
-130
 10
122
 20
-190
 10
227
 20
-190
  0
LWPOLYLINE
100
AcDbEntity
  8
0
100
AcDbPolyline
 90
48
 70
1
 10
141.315
 20
-165.205
 10
140.641
 20
-165.071
 10
139.991
 20
-164.85
 10
139.375
 20
-164.547
 10
138.804
 20
-164.165
 10
138.288
 20
-163.712
 10
137.835
 20
-163.196
 10
137.453
 20
-162.625
 10
137.15
 20
-162.009
 10
136.929
 20
-161.359
 10
136.795
 20
-160.685
 10
136.75
 20
-160
 10
136.795
 20
-159.315
 10
136.929
 20
-158.641
 10
137.15
 20
-157.991
 10
137.453
 20
-157.375
 10
137.835
 20
-156.804
 10
138.288
 20
-156.288
 10
138.804
 20
-155.835
 10
139.375
 20
-155.453
 10
139.991
 20
-155.15
 10
140.641
 20
-154.929
 10
141.315
 20
-154.795
 10
142
 20
-154.75
 10
142.685
 20
-154.795
 10
143.359
 20
-154.929
 10
144.009
 20
-155.15
 10
144.625
 20
-155.453
 10
145.196
 20
-155.835
 10
145.712
 20
-156.288
 10
146.165
 20
-156.804
 10
146.547
 20
-157.375
 10
146.85
 20
-157.991
 10
147.071
 20
-158.641
 10
147.205
 20
-159.315
 10
147.25
 20
-160
 10
147.205
 20
-160.685
 10
147.071
 20
-161.359
 10
146.85
 20
-162.009
 10
146.547
 20
-162.625
 10
146.165
 20
-163.196
 10
145.712
 20
-163.712
 10
145.196
 20
-164.165
 10
144.625
 20
-164.547
 10
144.009
 20
-164.85
 10
143.359
 20
-165.071
 10
142.685
 20
-165.205
 10
142
 20
-165.25
  0
LWPOLYLINE
100
AcDbEntity
  8
0
100
AcDbPolyline
 90
48
 70
1
 10
206.315
 20
-165.205
 10
205.641
 20
-165.071
 10
204.991
 20
-164.85
 10
204.375
 20
-164.547
 10
203.804
 20
-164.165
 10
203.288
 20
-163.712
 10
202.835
 20
-163.196
 10
202.453
 20
-162.625
 10
202.15
 20
-162.009
 10
201.929
 20
-161.359
 10
201.795
 20
-160.685
 10
201.75
 20
-160
 10
201.795
 20
-159.315
 10
201.929
 20
-158.641
 10
202.15
 20
-157.991
 10
202.453
 20
-157.375
 10
202.835
 20
-156.804
 10
203.288
 20
-156.288
 10
203.804
 20
-155.835
 10
204.375
 20
-155.453
 10
204.991
 20
-155.15
 10
205.641
 20
-154.929
 10
206.315
 20
-154.795
 10
207
 20
-154.75
 10
207.685
 20
-154.795
 10
208.359
 20
-154.929
 10
209.009
 20
-155.15
 10
209.625
 20
-155.453
 10
210.196
 20
-155.835
 10
210.712
 20
-156.288
 10
211.165
 20
-156.804
 10
211.547
 20
-157.375
 10
211.85
 20
-157.991
 10
212.071
 20
-158.641
 10
212.205
 20
-159.315
 10
212.25
 20
-160
 10
212.205
 20
-160.685
 10
212.071
 20
-161.359
 10
211.85
 20
-162.009
 10
211.547
 20
-162.625
 10
211.165
 20
-163.196
 10
210.712
 20
-163.712
 10
210.196
 20
-164.165
 10
209.625
 20
-164.547
 10
209.009
 20
-164.85
 10
208.359
 20
-165.071
 10
207.685
 20
-165.205
 10
207
 20
-165.25
  0
LWPOLYLINE
100
AcDbEntity
  8
0
100
AcDbPolyline
 90
4
 70
1
 10
344
 20
-130
 10
239
 20
-130
 10
239
 20
-190
 10
344
 20
-190
  0
LWPOLYLINE
100
AcDbEntity
  8
0
100
AcDbPolyline
 90
48
 70
1
 10
258.315
 20
-165.205
 10
257.641
 20
-165.071
 10
256.991
 20
-164.85
 10
256.375
 20
-164.547
 10
255.804
 20
-164.165
 10
255.288
 20
-163.712
 10
254.835
 20
-163.196
 10
254.453
 20
-162.625
 10
254.15
 20
-162.009
 10
253.929
 20
-161.359
 10
253.795
 20
-160.685
 10
253.75
 20
-160
 10
253.795
 20
-159.315
 10
253.929
 20
-158.641
 10
254.15
 20
-157.991
 10
254.453
 20
-157.375
 10
254.835
 20
-156.804
 10
255.288
 20
-156.288
 10
255.804
 20
-155.835
 10
256.375
 20
-155.453
 10
256.991
 20
-155.15
 10
257.641
 20
-154.929
 10
258.315
 20
-154.795
 10
259
 20
-154.75
 10
259.685
 20
-154.795
 10
260.359
 20
-154.929
 10
261.009
 20
-155.15
 10
261.625
 20
-155.453
 10
262.196
 20
-155.835
 10
262.712
 20
-156.288
 10
263.165
 20
-156.804
 10
263.547
 20
-157.375
 10
263.85
 20
-157.991
 10
264.071
 20
-158.641
 10
264.205
 20
-159.315
 10
264.25
 20
-160
 10
264.205
 20
-160.685
 10
264.071
 20
-161.359
 10
263.85
 20
-162.009
 10
263.547
 20
-162.625
 10
263.165
 20
-163.196
 10
262.712
 20
-163.712
 10
262.196
 20
-164.165
 10
261.625
 20
-164.547
 10
261.009
 20
-164.85
 10
260.359
 20
-165.071
 10
259.685
 20
-165.205
 10
259
 20
-165.25
  0
LWPOLYLINE
100
AcDbEntity
  8
0
100
AcDbPolyline
 90
48
 70
1
 10
323.315
 20
-165.205
 10
322.641
 20
-165.071
 10
321.991
 20
-164.85
 10
321.375
 20
-164.547
 10
320.804
 20
-164.165
 10
320.288
 20
-163.712
 10
319.835
 20
-163.196
 10
319.453
 20
-162.625
 10
319.15
 20
-162.009
 10
318.929
 20
-161.359
 10
318.795
 20
-160.685
 10
318.75
 20
-160
 10
318.795
 20
-159.315
 10
318.929
 20
-158.641
 10
319.15
 20
-157.991
 10
319.453
 20
-157.375
 10
319.835
 20
-156.804
 10
320.288
 20
-156.288
 10
320.804
 20
-155.835
 10
321.375
 20
-155.453
 10
321.991
 20
-155.15
 10
322.641
 20
-154.929
 10
323.315
 20
-154.795
 10
324
 20
-154.75
 10
324.685
 20
-154.795
 10
325.359
 20
-154.929
 10
326.009
 20
-155.15
 10
326.625
 20
-155.453
 10
327.196
 20
-155.835
 10
327.712
 20
-156.288
 10
328.165
 20
-156.804
 10
328.547
 20
-157.375
 10
328.85
 20
-157.991
 10
329.071
 20
-158.641
 10
329.205
 20
-159.315
 10
329.25
 20
-160
 10
329.205
 20
-160.685
 10
329.071
 20
-161.359
 10
328.85
 20
-162.009
 10
328.547
 20
-162.625
 10
328.165
 20
-163.196
 10
327.712
 20
-163.712
 10
327.196
 20
-164.165
 10
326.625
 20
-164.547
 10
326.009
 20
-164.85
 10
325.359
 20
-165.071
 10
324.685
 20
-165.205
 10
324
 20
-165.25
  0
LWPOLYLINE
100
AcDbEntity
  8
0
100
AcDbPolyline
 90
4
 70
1
 10
461
 20
-130
 10
356
 20
-130
 10
356
 20
-190
 10
461
 20
-190
  0
LWPOLYLINE
100
AcDbEntity
  8
0
100
AcDbPolyline
 90
48
 70
1
 10
375.315
 20
-165.205
 10
374.641
 20
-165.071
 10
373.991
 20
-164.85
 10
373.375
 20
-164.547
 10
372.804
 20
-164.165
 10
372.288
 20
-163.712
 10
371.835
 20
-163.196
 10
371.453
 20
-162.625
 10
371.15
 20
-162.009
 10
370.929
 20
-161.359
 10
370.795
 20
-160.685
 10
370.75
 20
-160
 10
370.795
 20
-159.315
 10
370.929
 20
-158.641
 10
371.15
 20
-157.991
 10
371.453
 20
-157.375
 10
371.835
 20
-156.804
 10
372.288
 20
-156.288
 10
372.804
 20
-155.835
 10
373.375
 20
-155.453
 10
373.991
 20
-155.15
 10
374.641
 20
-154.929
 10
375.315
 20
-154.795
 10
376
 20
-154.75
 10
376.685
 20
-154.795
 10
377.359
 20
-154.929
 10
378.009
 20
-155.15
 10
378.625
 20
-155.453
 10
379.196
 20
-155.835
 10
379.712
 20
-156.288
 10
380.165
 20
-156.804
 10
380.547
 20
-157.375
 10
380.85
 20
-157.991
 10
381.071
 20
-158.641
 10
381.205
 20
-159.315
 10
381.25
 20
-160
 10
381.205
 20
-160.685
 10
381.071
 20
-161.359
 10
380.85
 20
-162.009
 10
380.547
 20
-162.625
 10
380.165
 20
-163.196
 10
379.712
 20
-163.712
 10
379.196
 20
-164.165
 10
378.625
 20
-164.547
 10
378.009
 20
-164.85
 10
377.359
 20
-165.071
 10
376.685
 20
-165.205
 10
376
 20
-165.25
  0
LWPOLYLINE
100
AcDbEntity
  8
0
100
AcDbPolyline
 90
48
 70
1
 10
440.315
 20
-165.205
 10
439.641
 20
-165.071
 10
438.991
 20
-164.85
 10
438.375
 20
-164.547
 10
437.804
 20
-164.165
 10
437.288
 20
-163.712
 10
436.835
 20
-163.196
 10
436.453
 20
-162.625
 10
436.15
 20
-162.009
 10
435.929
 20
-161.359
 10
435.795
 20
-160.685
 10
435.75
 20
-160
 10
435.795
 20
-159.315
 10
435.929
 20
-158.641
 10
436.15
 20
-157.991
 10
436.453
 20
-157.375
 10
436.835
 20
-156.804
 10
437.288
 20
-156.288
 10
437.804
 20
-155.835
 10
438.375
 20
-155.453
 10
438.991
 20
-155.15
 10
439.641
 20
-154.929
 10
440.315
 20
-154.795
 10
441
 20
-154.75
 10
441.685
 20
-154.795
 10
442.359
 20
-154.929
 10
443.009
 20
-155.15
 10
443.625
 20
-155.453
 10
444.196
 20
-155.835
 10
444.712
 20
-156.288
 10
445.165
 20
-156.804
 10
445.547
 20
-157.375
 10
445.85
 20
-157.991
 10
446.071
 20
-158.641
 10
446.205
 20
-159.315
 10
446.25
 20
-160
 10
446.205
 20
-160.685
 10
446.071
 20
-161.359
 10
445.85
 20
-162.009
 10
445.547
 20
-162.625
 10
445.165
 20
-163.196
 10
444.712
 20
-163.712
 10
444.196
 20
-164.165
 10
443.625
 20
-164.547
 10
443.009
 20
-164.85
 10
442.359
 20
-165.071
 10
441.685
 20
-165.205
 10
441
 20
-165.25
  0
LWPOLYLINE
100
AcDbEntity
  8
0
100
AcDbPolyline
 90
77
 70
1
 10
72.8395
 20
-204.074
 10
73.0752
 20
-204.052
 10
73.3015
 20
-204.015
 10
73.5183
 20
-203.963
 10
73.7256
 20
-203.897
 10
73.9235
 20
-203.815
 10
74.1119
 20
-203.719
 10
74.2895
 20
-203.609
 10
74.4548
 20
-203.487
 10
74.608
 20
-203.351
 10
74.7489
 20
-203.203
 10
74.8777
 20
-203.042
 10
74.9942
 20
-202.868
 10
75.0985
 20
-202.682
 10
75.1898
 20
-202.484
 10
75.267
 20
-202.278
 10
75.3301
 20
-202.062
 10
75.3792
 20
-201.837
 10
75.4143
 20
-201.603
 10
75.4354
 20
-201.359
 10
75.4424
 20
-201.107
 10
75.4355
 20
-200.854
 10
75.4147
 20
-200.611
 10
75.38
 20
-200.377
 10
75.3315
 20
-200.153
 10
75.269
 20
-199.939
 10
75.1928
 20
-199.735
 10
75.1026
 20
-199.541
 10
74.9994
 20
-199.358
 10
74.8837
 20
-199.187
 10
74.7557
 20
-199.03
 10
74.6154
 20
-198.886
 10
74.4626
 20
-198.754
 10
74.2975
 20
-198.635
 10
74.12
 20
-198.53
 10
73.9316
 20
-198.437
 10
73.7337
 20
-198.359
 10
73.5264
 20
-198.295
 10
73.3096
 20
-198.246
 10
73.0833
 20
-198.21
 10
72.8476
 20
-198.189
 10
72.6024
 20
-198.182
 10
72.2308
 20
-198.197
 10
71.8833
 20
-198.245
 10
71.5599
 20
-198.324
 10
71.2605
 20
-198.435
 10
70.9853
 20
-198.577
 10
70.7341
 20
-198.751
 10
70.507
 20
-198.957
 10
70.3073
 20
-199.191
 10
70.1383
 20
-199.449
 10
70.0001
 20
-199.731
 10
69.8925
 20
-200.039
 10
69.8157
 20
-200.37
 10
69.7696
 20
-200.726
 10
69.7543
 20
-201.107
 10
69.7612
 20
-201.361
 10
69.7818
 20
-201.605
 10
69.8163
 20
-201.84
 10
69.8645
 20
-202.066
 10
69.9266
 20
-202.282
 10
70.0024
 20
-202.49
 10
70.092
 20
-202.688
 10
70.1946
 20
-202.875
 10
70.3097
 20
-203.049
 10
70.4371
 20
-203.21
 10
70.5769
 20
-203.358
 10
70.7291
 20
-203.493
 10
70.8936
 20
-203.615
 10
71.0705
 20
-203.723
 10
71.2585
 20
-203.818
 10
71.4565
 20
-203.899
 10
71.6643
 20
-203.964
 10
71.8819
 20
-204.016
 10
72.1095
 20
-204.052
 10
72.3469
 20
-204.074
 10
72.5943
 20
-204.081
  0
LWPOLYLINE
100
AcDbEntity
  8
0
100
AcDbPolyline
 90
56
 70
1
 10
72.3273
 20
-203.438
 10
72.0776
 20
-203.399
 10
71.8451
 20
-203.335
 10
71.6297
 20
-203.244
 10
71.4315
 20
-203.128
 10
71.2505
 20
-202.986
 10
71.0868
 20
-202.818
 10
70.9427
 20
-202.628
 10
70.8207
 20
-202.42
 10
70.7209
 20
-202.194
 10
70.6433
 20
-201.949
 10
70.5879
 20
-201.687
 10
70.5547
 20
-201.406
 10
70.5436
 20
-201.107
 10
70.5545
 20
-200.807
 10
70.5874
 20
-200.526
 10
70.6422
 20
-200.265
 10
70.7189
 20
-200.024
 10
70.8176
 20
-199.802
 10
70.9382
 20
-199.601
 10
71.0806
 20
-199.419
 10
71.2432
 20
-199.259
 10
71.4241
 20
-199.124
 10
71.6232
 20
-199.013
 10
71.8406
 20
-198.927
 10
72.0763
 20
-198.866
 10
72.3302
 20
-198.829
 10
72.6024
 20
-198.816
 10
72.8724
 20
-198.829
 10
73.1244
 20
-198.866
 10
73.3583
 20
-198.929
 10
73.5743
 20
-199.016
 10
73.7722
 20
-199.128
 10
73.9521
 20
-199.265
 10
74.1139
 20
-199.427
 10
74.2559
 20
-199.61
 10
74.376
 20
-199.813
 10
74.4743
 20
-200.034
 10
74.5507
 20
-200.274
 10
74.6053
 20
-200.533
 10
74.638
 20
-200.811
 10
74.649
 20
-201.107
 10
74.6381
 20
-201.416
 10
74.6056
 20
-201.705
 10
74.5514
 20
-201.973
 10
74.4756
 20
-202.22
 10
74.378
 20
-202.447
 10
74.2588
 20
-202.653
 10
74.118
 20
-202.838
 10
73.9568
 20
-203.001
 10
73.7769
 20
-203.138
 10
73.578
 20
-203.251
 10
73.3604
 20
-203.338
 10
73.1239
 20
-203.401
 10
72.8685
 20
-203.438
 10
72.5943
 20
-203.451
  0
LWPOLYLINE
100
AcDbEntity
  8
0
100
AcDbPolyline
 90
77
 70
1
 10
87.6547
 20
-204.074
 10
87.8905
 20
-204.052
 10
88.1167
 20
-204.015
 10
88.3335
 20
-203.963
 10
88.5409
 20
-203.897
 10
88.7388
 20
-203.815
 10
88.9272
 20
-203.719
 10
89.1047
 20
-203.609
 10
89.2701
 20
-203.487
 10
89.4232
 20
-203.351
 10
89.5642
 20
-203.203
 10
89.6929
 20
-203.042
 10
89.8095
 20
-202.868
 10
89.9138
 20
-202.682
 10
90.005
 20
-202.484
 10
90.0822
 20
-202.278
 10
90.1454
 20
-202.062
 10
90.1945
 20
-201.837
 10
90.2296
 20
-201.603
 10
90.2506
 20
-201.359
 10
90.2577
 20
-201.107
 10
90.2507
 20
-200.854
 10
90.2299
 20
-200.611
 10
90.1953
 20
-200.377
 10
90.1467
 20
-200.153
 10
90.0843
 20
-199.939
 10
90.008
 20
-199.735
 10
89.9179
 20
-199.541
 10
89.8146
 20
-199.358
 10
89.699
 20
-199.187
 10
89.571
 20
-199.03
 10
89.4306
 20
-198.886
 10
89.2779
 20
-198.754
 10
89.1128
 20
-198.635
 10
88.9353
 20
-198.53
 10
88.7469
 20
-198.437
 10
88.549
 20
-198.359
 10
88.3417
 20
-198.295
 10
88.1249
 20
-198.246
 10
87.8986
 20
-198.21
 10
87.6629
 20
-198.189
 10
87.4177
 20
-198.182
 10
87.0461
 20
-198.197
 10
86.6986
 20
-198.245
 10
86.3751
 20
-198.324
 10
86.0758
 20
-198.435
 10
85.8005
 20
-198.577
 10
85.5493
 20
-198.751
 10
85.3222
 20
-198.957
 10
85.1225
 20
-199.191
 10
84.9536
 20
-199.449
 10
84.8153
 20
-199.731
 10
84.7078
 20
-200.039
 10
84.631
 20
-200.37
 10
84.5849
 20
-200.726
 10
84.5695
 20
-201.107
 10
84.5764
 20
-201.361
 10
84.5971
 20
-201.605
 10
84.6316
 20
-201.84
 10
84.6798
 20
-202.066
 10
84.7418
 20
-202.282
 10
84.8176
 20
-202.49
 10
84.9072
 20
-202.688
 10
85.0099
 20
-202.875
 10
85.125
 20
-203.049
 10
85.2524
 20
-203.21
 10
85.3922
 20
-203.358
 10
85.5443
 20
-203.493
 10
85.7089
 20
-203.615
 10
85.8858
 20
-203.723
 10
86.0738
 20
-203.818
 10
86.2717
 20
-203.899
 10
86.4795
 20
-203.964
 10
86.6972
 20
-204.016
 10
86.9248
 20
-204.052
 10
87.1622
 20
-204.074
 10
87.4095
 20
-204.081
  0
LWPOLYLINE
100
AcDbEntity
  8
0
100
AcDbPolyline
 90
56
 70
1
 10
87.1426
 20
-203.438
 10
86.8929
 20
-203.399
 10
86.6603
 20
-203.335
 10
86.445
 20
-203.244
 10
86.2468
 20
-203.128
 10
86.0658
 20
-202.986
 10
85.902
 20
-202.818
 10
85.7579
 20
-202.628
 10
85.636
 20
-202.42
 10
85.5362
 20
-202.194
 10
85.4586
 20
-201.949
 10
85.4032
 20
-201.687
 10
85.3699
 20
-201.406
 10
85.3588
 20
-201.107
 10
85.3698
 20
-200.807
 10
85.4027
 20
-200.526
 10
85.4575
 20
-200.265
 10
85.5342
 20
-200.024
 10
85.6329
 20
-199.802
 10
85.7534
 20
-199.601
 10
85.8959
 20
-199.419
 10
86.0585
 20
-199.259
 10
86.2394
 20
-199.124
 10
86.4385
 20
-199.013
 10
86.6559
 20
-198.927
 10
86.8916
 20
-198.866
 10
87.1455
 20
-198.829
 10
87.4177
 20
-198.816
 10
87.6877
 20
-198.829
 10
87.9396
 20
-198.866
 10
88.1736
 20
-198.929
 10
88.3895
 20
-199.016
 10
88.5874
 20
-199.128
 10
88.7673
 20
-199.265
 10
88.9292
 20
-199.427
 10
89.0711
 20
-199.61
 10
89.1913
 20
-199.813
 10
89.2895
 20
-200.034
 10
89.366
 20
-200.274
 10
89.4205
 20
-200.533
 10
89.4533
 20
-200.811
 10
89.4642
 20
-201.107
 10
89.4534
 20
-201.416
 10
89.4209
 20
-201.705
 10
89.3667
 20
-201.973
 10
89.2908
 20
-202.22
 10
89.1933
 20
-202.447
 10
89.0741
 20
-202.653
 10
88.9332
 20
-202.838
 10
88.7721
 20
-203.001
 10
88.5921
 20
-203.138
 10
88.3933
 20
-203.251
 10
88.1756
 20
-203.338
 10
87.9391
 20
-203.401
 10
87.6837
 20
-203.438
 10
87.4095
 20
-203.451
  0
LWPOLYLINE
100
AcDbEntity
  8
0
100
AcDbPolyline
 90
226
 70
1
 10
103.969
 20
-204.072
 10
104.26
 20
-204.046
 10
104.53
 20
-204.001
 10
104.78
 20
-203.939
 10
105.009
 20
-203.859
 10
105.217
 20
-203.762
 10
105.405
 20
-203.646
 10
105.569
 20
-203.514
 10
105.709
 20
-203.368
 10
105.823
 20
-203.207
 10
105.911
 20
-203.032
 10
105.974
 20
-202.841
 10
106.012
 20
-202.637
 10
106.025
 20
-202.417
 10
106.023
 20
-202.329
 10
106.018
 20
-202.245
 10
106.009
 20
-202.164
 10
105.997
 20
-202.086
 10
105.98
 20
-202.011
 10
105.961
 20
-201.94
 10
105.938
 20
-201.872
 10
105.911
 20
-201.807
 10
105.882
 20
-201.745
 10
105.85
 20
-201.684
 10
105.816
 20
-201.627
 10
105.778
 20
-201.572
 10
105.738
 20
-201.519
 10
105.696
 20
-201.469
 10
105.65
 20
-201.422
 10
105.603
 20
-201.376
 10
105.553
 20
-201.332
 10
105.501
 20
-201.291
 10
105.447
 20
-201.252
 10
105.39
 20
-201.215
 10
105.331
 20
-201.18
 10
105.271
 20
-201.147
 10
105.209
 20
-201.115
 10
105.146
 20
-201.085
 10
105.082
 20
-201.055
 10
105.016
 20
-201.027
 10
104.95
 20
-201
 10
104.882
 20
-200.975
 10
104.813
 20
-200.95
 10
104.743
 20
-200.927
 10
104.672
 20
-200.904
 10
104.6
 20
-200.883
 10
104.527
 20
-200.862
 10
104.454
 20
-200.843
 10
104.379
 20
-200.824
 10
104.304
 20
-200.806
 10
104.229
 20
-200.788
 10
104.154
 20
-200.771
 10
104.079
 20
-200.753
 10
104.003
 20
-200.735
 10
103.928
 20
-200.718
 10
103.852
 20
-200.7
 10
103.638
 20
-200.651
 10
103.444
 20
-200.605
 10
103.272
 20
-200.56
 10
103.122
 20
-200.518
 10
102.993
 20
-200.478
 10
102.885
 20
-200.441
 10
102.799
 20
-200.405
 10
102.726
 20
-200.37
 10
102.658
 20
-200.332
 10
102.595
 20
-200.293
 10
102.537
 20
-200.251
 10
102.484
 20
-200.207
 10
102.436
 20
-200.161
 10
102.394
 20
-200.112
 10
102.356
 20
-200.061
 10
102.325
 20
-200.006
 10
102.299
 20
-199.947
 10
102.279
 20
-199.885
 10
102.265
 20
-199.819
 10
102.256
 20
-199.749
 10
102.253
 20
-199.675
 10
102.261
 20
-199.55
 10
102.283
 20
-199.435
 10
102.32
 20
-199.329
 10
102.372
 20
-199.232
 10
102.438
 20
-199.144
 10
102.519
 20
-199.065
 10
102.615
 20
-198.995
 10
102.726
 20
-198.935
 10
102.849
 20
-198.884
 10
102.986
 20
-198.842
 10
103.136
 20
-198.809
 10
103.299
 20
-198.786
 10
103.475
 20
-198.772
 10
103.665
 20
-198.768
 10
103.839
 20
-198.772
 10
104.001
 20
-198.784
 10
104.152
 20
-198.805
 10
104.292
 20
-198.835
 10
104.421
 20
-198.872
 10
104.539
 20
-198.919
 10
104.646
 20
-198.973
 10
104.742
 20
-199.037
 10
104.829
 20
-199.111
 10
104.907
 20
-199.195
 10
104.976
 20
-199.29
 10
105.035
 20
-199.394
 10
105.085
 20
-199.509
 10
105.126
 20
-199.634
 10
105.891
 20
-199.5
 10
105.825
 20
-199.303
 10
105.747
 20
-199.123
 10
105.656
 20
-198.96
 10
105.553
 20
-198.814
 10
105.437
 20
-198.686
 10
105.308
 20
-198.575
 10
105.167
 20
-198.481
 10
105.01
 20
-198.401
 10
104.834
 20
-198.334
 10
104.639
 20
-198.279
 10
104.426
 20
-198.237
 10
104.194
 20
-198.206
 10
103.943
 20
-198.188
 10
103.673
 20
-198.182
 10
103.383
 20
-198.19
 10
103.113
 20
-198.214
 10
102.863
 20
-198.255
 10
102.632
 20
-198.312
 10
102.422
 20
-198.385
 10
102.231
 20
-198.475
 10
102.06
 20
-198.58
 10
101.911
 20
-198.701
 10
101.784
 20
-198.836
 10
101.681
 20
-198.984
 10
101.6
 20
-199.146
 10
101.543
 20
-199.322
 10
101.508
 20
-199.512
 10
101.497
 20
-199.716
 10
101.499
 20
-199.806
 10
101.505
 20
-199.893
 10
101.516
 20
-199.978
 10
101.532
 20
-200.059
 10
101.552
 20
-200.137
 10
101.576
 20
-200.213
 10
101.604
 20
-200.285
 10
101.637
 20
-200.355
 10
101.674
 20
-200.422
 10
101.714
 20
-200.486
 10
101.759
 20
-200.548
 10
101.807
 20
-200.608
 10
101.859
 20
-200.664
 10
101.916
 20
-200.719
 10
101.977
 20
-200.771
 10
102.044
 20
-200.822
 10
102.117
 20
-200.871
 10
102.197
 20
-200.919
 10
102.282
 20
-200.965
 10
102.374
 20
-201.011
 10
102.471
 20
-201.054
 10
102.578
 20
-201.097
 10
102.699
 20
-201.14
 10
102.833
 20
-201.183
 10
102.98
 20
-201.226
 10
103.141
 20
-201.269
 10
103.315
 20
-201.312
 10
103.502
 20
-201.355
 10
103.613
 20
-201.381
 10
103.72
 20
-201.405
 10
103.825
 20
-201.43
 10
103.926
 20
-201.454
 10
104.025
 20
-201.477
 10
104.121
 20
-201.5
 10
104.215
 20
-201.522
 10
104.305
 20
-201.545
 10
104.391
 20
-201.569
 10
104.474
 20
-201.595
 10
104.553
 20
-201.622
 10
104.628
 20
-201.651
 10
104.7
 20
-201.682
 10
104.768
 20
-201.713
 10
104.832
 20
-201.747
 10
104.892
 20
-201.783
 10
104.948
 20
-201.822
 10
104.999
 20
-201.863
 10
105.046
 20
-201.907
 10
105.089
 20
-201.953
 10
105.128
 20
-202.002
 10
105.162
 20
-202.054
 10
105.191
 20
-202.111
 10
105.214
 20
-202.172
 10
105.233
 20
-202.237
 10
105.246
 20
-202.306
 10
105.253
 20
-202.38
 10
105.256
 20
-202.458
 10
105.248
 20
-202.596
 10
105.223
 20
-202.724
 10
105.181
 20
-202.842
 10
105.123
 20
-202.951
 10
105.047
 20
-203.049
 10
104.956
 20
-203.138
 10
104.847
 20
-203.217
 10
104.723
 20
-203.285
 10
104.585
 20
-203.343
 10
104.434
 20
-203.391
 10
104.268
 20
-203.428
 10
104.088
 20
-203.454
 10
103.894
 20
-203.47
 10
103.686
 20
-203.475
 10
103.484
 20
-203.47
 10
103.294
 20
-203.455
 10
103.117
 20
-203.431
 10
102.953
 20
-203.396
 10
102.801
 20
-203.352
 10
102.661
 20
-203.297
 10
102.534
 20
-203.233
 10
102.419
 20
-203.158
 10
102.316
 20
-203.072
 10
102.225
 20
-202.975
 10
102.146
 20
-202.867
 10
102.079
 20
-202.747
 10
102.024
 20
-202.616
 10
101.981
 20
-202.474
 10
101.228
 20
-202.625
 10
101.359
 20
-203.011
 10
101.563
 20
-203.338
 10
101.838
 20
-203.606
 10
102.185
 20
-203.814
 10
102.604
 20
-203.962
 10
103.094
 20
-204.052
 10
103.657
 20
-204.081
  0
LWPOLYLINE
100
AcDbEntity
  8
0
100
AcDbPolyline
 90
59
 70
1
 10
6.37526
 20
-200.175
 10
6.35894
 20
-199.406
 10
6.34676
 20
-198.955
 10
6.48104
 20
-199.402
 10
6.70886
 20
-200.094
 10
8.21024
 20
-204
 10
8.75546
 20
-204
 10
10.2365
 20
-200.094
 10
10.2827
 20
-199.97
 10
10.3305
 20
-199.833
 10
10.38
 20
-199.683
 10
10.4311
 20
-199.521
 10
10.4839
 20
-199.345
 10
10.5384
 20
-199.156
 10
10.5945
 20
-198.955
 10
10.5848
 20
-199.123
 10
10.5766
 20
-199.294
 10
10.5699
 20
-199.466
 10
10.5646
 20
-199.64
 10
10.5609
 20
-199.817
 10
10.5587
 20
-199.995
 10
10.5579
 20
-200.175
 10
10.5579
 20
-204
 10
11.2578
 20
-204
 10
11.2578
 20
-198.267
 10
10.2609
 20
-198.267
 10
8.76362
 20
-202.242
 10
8.75178
 20
-202.272
 10
8.7372
 20
-202.311
 10
8.71988
 20
-202.361
 10
8.69982
 20
-202.42
 10
8.67702
 20
-202.49
 10
8.65149
 20
-202.57
 10
8.62322
 20
-202.659
 10
8.59503
 20
-202.751
 10
8.56975
 20
-202.835
 10
8.54737
 20
-202.913
 10
8.5279
 20
-202.983
 10
8.51133
 20
-203.047
 10
8.49766
 20
-203.104
 10
8.4869
 20
-203.154
 10
8.47888
 20
-203.116
 10
8.46879
 20
-203.072
 10
8.45662
 20
-203.021
 10
8.44238
 20
-202.964
 10
8.42606
 20
-202.902
 10
8.40766
 20
-202.832
 10
8.38718
 20
-202.757
 10
8.36556
 20
-202.679
 10
8.34369
 20
-202.603
 10
8.32156
 20
-202.528
 10
8.29919
 20
-202.454
 10
8.27657
 20
-202.382
 10
8.2537
 20
-202.312
 10
8.23058
 20
-202.242
 10
6.70478
 20
-198.267
 10
5.68358
 20
-198.267
 10
5.68358
 20
-204
 10
6.37526
 20
-204
  0
LWPOLYLINE
100
AcDbEntity
  8
0
100
AcDbPolyline
 90
4
 70
1
 10
13.4879
 20
-198.267
 10
12.7108
 20
-198.267
 10
12.7108
 20
-204
 10
13.4879
 20
-204
  0
LWPOLYLINE
100
AcDbEntity
  8
0
100
AcDbPolyline
 90
38
 70
1
 10
17.318
 20
-203.993
 10
17.5432
 20
-203.971
 10
17.7604
 20
-203.935
 10
17.9696
 20
-203.884
 10
18.1709
 20
-203.819
 10
18.3642
 20
-203.74
 10
18.5496
 20
-203.646
 10
18.725
 20
-203.539
 10
18.8887
 20
-203.418
 10
19.0406
 20
-203.285
 10
19.1806
 20
-203.14
 10
19.3089
 20
-202.982
 10
19.4254
 20
-202.811
 10
19.5301
 20
-202.627
 10
19.6219
 20
-202.432
 10
19.6995
 20
-202.229
 10
19.7631
 20
-202.016
 10
19.8125
 20
-201.794
 10
19.8477
 20
-201.563
 10
19.8689
 20
-201.323
 10
19.876
 20
-201.075
 10
19.8598
 20
-200.702
 10
19.8114
 20
-200.355
 10
19.7306
 20
-200.033
 10
19.6176
 20
-199.737
 10
19.4722
 20
-199.465
 10
19.2945
 20
-199.219
 10
19.0846
 20
-198.998
 10
18.8449
 20
-198.804
 10
18.5781
 20
-198.64
 10
18.2841
 20
-198.506
 10
17.963
 20
-198.401
 10
17.6147
 20
-198.327
 10
17.2392
 20
-198.282
 10
16.8366
 20
-198.267
 10
14.9406
 20
-198.267
 10
14.9406
 20
-204
 10
17.0848
 20
-204
  0
LWPOLYLINE
100
AcDbEntity
  8
0
100
AcDbPolyline
 90
38
 70
1
 10
15.7177
 20
-198.89
 10
16.8204
 20
-198.89
 10
17.1259
 20
-198.901
 10
17.4101
 20
-198.935
 10
17.6729
 20
-198.992
 10
17.9144
 20
-199.072
 10
18.1346
 20
-199.175
 10
18.3334
 20
-199.301
 10
18.5109
 20
-199.449
 10
18.6658
 20
-199.619
 10
18.7969
 20
-199.81
 10
18.9041
 20
-200.022
 10
18.9875
 20
-200.254
 10
19.0471
 20
-200.507
 10
19.0829
 20
-200.78
 10
19.0948
 20
-201.075
 10
19.0895
 20
-201.273
 10
19.0739
 20
-201.464
 10
19.0477
 20
-201.647
 10
19.0111
 20
-201.823
 10
18.964
 20
-201.99
 10
18.9065
 20
-202.151
 10
18.8385
 20
-202.303
 10
18.7607
 20
-202.447
 10
18.6739
 20
-202.581
 10
18.578
 20
-202.705
 10
18.4731
 20
-202.819
 10
18.3591
 20
-202.923
 10
18.2361
 20
-203.017
 10
18.1041
 20
-203.101
 10
17.9644
 20
-203.174
 10
17.8184
 20
-203.236
 10
17.6663
 20
-203.287
 10
17.5079
 20
-203.327
 10
17.3432
 20
-203.355
 10
17.1724
 20
-203.372
 10
16.9953
 20
-203.377
 10
15.7177
 20
-203.377
  0
LWPOLYLINE
100
AcDbEntity
  8
0
100
AcDbPolyline
 90
38
 70
1
 10
23.3361
 20
-203.993
 10
23.5612
 20
-203.971
 10
23.7785
 20
-203.935
 10
23.9877
 20
-203.884
 10
24.189
 20
-203.819
 10
24.3823
 20
-203.74
 10
24.5676
 20
-203.646
 10
24.7431
 20
-203.539
 10
24.9067
 20
-203.418
 10
25.0586
 20
-203.285
 10
25.1987
 20
-203.14
 10
25.327
 20
-202.982
 10
25.4435
 20
-202.811
 10
25.5482
 20
-202.627
 10
25.64
 20
-202.432
 10
25.7176
 20
-202.229
 10
25.7811
 20
-202.016
 10
25.8305
 20
-201.794
 10
25.8658
 20
-201.563
 10
25.887
 20
-201.323
 10
25.894
 20
-201.075
 10
25.8779
 20
-200.702
 10
25.8294
 20
-200.355
 10
25.7487
 20
-200.033
 10
25.6356
 20
-199.737
 10
25.4903
 20
-199.465
 10
25.3126
 20
-199.219
 10
25.1026
 20
-198.998
 10
24.863
 20
-198.804
 10
24.5961
 20
-198.64
 10
24.3022
 20
-198.506
 10
23.981
 20
-198.401
 10
23.6327
 20
-198.327
 10
23.2573
 20
-198.282
 10
22.8547
 20
-198.267
 10
20.9587
 20
-198.267
 10
20.9587
 20
-204
 10
23.1029
 20
-204
  0
LWPOLYLINE
100
AcDbEntity
  8
0
100
AcDbPolyline
 90
38
 70
1
 10
21.7358
 20
-198.89
 10
22.8384
 20
-198.89
 10
23.1439
 20
-198.901
 10
23.4281
 20
-198.935
 10
23.691
 20
-198.992
 10
23.9325
 20
-199.072
 10
24.1527
 20
-199.175
 10
24.3515
 20
-199.301
 10
24.529
 20
-199.449
 10
24.6839
 20
-199.619
 10
24.815
 20
-199.81
 10
24.9222
 20
-200.022
 10
25.0056
 20
-200.254
 10
25.0652
 20
-200.507
 10
25.1009
 20
-200.78
 10
25.1128
 20
-201.075
 10
25.1076
 20
-201.273
 10
25.0919
 20
-201.464
 10
25.0658
 20
-201.647
 10
25.0291
 20
-201.823
 10
24.9821
 20
-201.99
 10
24.9245
 20
-202.151
 10
24.8565
 20
-202.303
 10
24.7788
 20
-202.447
 10
24.6919
 20
-202.581
 10
24.5961
 20
-202.705
 10
24.4912
 20
-202.819
 10
24.3772
 20
-202.923
 10
24.2542
 20
-203.017
 10
24.1221
 20
-203.101
 10
23.9824
 20
-203.174
 10
23.8365
 20
-203.236
 10
23.6843
 20
-203.287
 10
23.5259
 20
-203.327
 10
23.3613
 20
-203.355
 10
23.1905
 20
-203.372
 10
23.0134
 20
-203.377
 10
21.7358
 20
-203.377
  0
LWPOLYLINE
100
AcDbEntity
  8
0
100
AcDbPolyline
 90
6
 70
1
 10
30.6508
 20
-203.365
 10
27.7539
 20
-203.365
 10
27.7539
 20
-198.267
 10
26.9767
 20
-198.267
 10
26.9767
 20
-204
 10
30.6508
 20
-204
  0
LWPOLYLINE
100
AcDbEntity
  8
0
100
AcDbPolyline
 90
12
 70
1
 10
36.1276
 20
-203.365
 10
32.3884
 20
-203.365
 10
32.3884
 20
-201.367
 10
35.7166
 20
-201.367
 10
35.7166
 20
-200.741
 10
32.3884
 20
-200.741
 10
32.3884
 20
-198.902
 10
35.9608
 20
-198.902
 10
35.9608
 20
-198.267
 10
31.6113
 20
-198.267
 10
31.6113
 20
-204
 10
36.1276
 20
-204
  0
LWPOLYLINE
100
AcDbEntity
  8
0
100
AcDbPolyline
 90
52
 70
1
 10
42.0869
 20
-203.991
 10
42.3439
 20
-203.965
 10
42.5832
 20
-203.922
 10
42.8046
 20
-203.861
 10
43.0083
 20
-203.783
 10
43.1942
 20
-203.688
 10
43.3624
 20
-203.575
 10
43.5103
 20
-203.446
 10
43.6354
 20
-203.304
 10
43.7378
 20
-203.148
 10
43.8174
 20
-202.978
 10
43.8743
 20
-202.794
 10
43.9084
 20
-202.596
 10
43.9198
 20
-202.385
 10
43.9122
 20
-202.225
 10
43.8896
 20
-202.073
 10
43.8518
 20
-201.929
 10
43.7989
 20
-201.794
 10
43.7309
 20
-201.666
 10
43.6478
 20
-201.546
 10
43.5495
 20
-201.435
 10
43.4373
 20
-201.333
 10
43.3124
 20
-201.244
 10
43.1746
 20
-201.166
 10
43.0241
 20
-201.101
 10
42.8608
 20
-201.048
 10
42.6846
 20
-201.006
 10
42.4957
 20
-200.977
 10
42.6397
 20
-200.939
 10
42.7741
 20
-200.891
 10
42.8988
 20
-200.834
 10
43.0139
 20
-200.768
 10
43.1193
 20
-200.692
 10
43.2152
 20
-200.607
 10
43.3014
 20
-200.513
 10
43.3769
 20
-200.411
 10
43.4409
 20
-200.302
 10
43.4932
 20
-200.187
 10
43.5339
 20
-200.065
 10
43.5629
 20
-199.936
 10
43.5804
 20
-199.801
 10
43.5862
 20
-199.659
 10
43.545
 20
-199.289
 10
43.4214
 20
-198.977
 10
43.2155
 20
-198.721
 10
42.9272
 20
-198.523
 10
42.5565
 20
-198.381
 10
42.1035
 20
-198.296
 10
41.5681
 20
-198.267
 10
39.4849
 20
-198.267
 10
39.4849
 20
-204
 10
41.8122
 20
-204
  0
LWPOLYLINE
100
AcDbEntity
  8
0
100
AcDbPolyline
 90
31
 70
1
 10
40.262
 20
-198.89
 10
41.5681
 20
-198.89
 10
41.7343
 20
-198.894
 10
41.8889
 20
-198.906
 10
42.0319
 20
-198.926
 10
42.1633
 20
-198.955
 10
42.283
 20
-198.991
 10
42.3911
 20
-199.036
 10
42.4876
 20
-199.089
 10
42.5718
 20
-199.151
 10
42.643
 20
-199.225
 10
42.7013
 20
-199.308
 10
42.7467
 20
-199.403
 10
42.7791
 20
-199.509
 10
42.7985
 20
-199.625
 10
42.805
 20
-199.752
 10
42.7987
 20
-199.885
 10
42.7799
 20
-200.008
 10
42.7486
 20
-200.121
 10
42.7047
 20
-200.224
 10
42.6482
 20
-200.316
 10
42.5793
 20
-200.398
 10
42.4978
 20
-200.47
 10
42.4036
 20
-200.532
 10
42.2965
 20
-200.585
 10
42.1766
 20
-200.628
 10
42.0437
 20
-200.661
 10
41.8981
 20
-200.685
 10
41.7395
 20
-200.7
 10
41.5681
 20
-200.704
 10
40.262
 20
-200.704
  0
LWPOLYLINE
100
AcDbEntity
  8
0
100
AcDbPolyline
 90
24
 70
1
 10
40.262
 20
-201.311
 10
41.7105
 20
-201.311
 10
42.0883
 20
-201.331
 10
42.4079
 20
-201.393
 10
42.6695
 20
-201.497
 10
42.8729
 20
-201.641
 10
43.0183
 20
-201.827
 10
43.1054
 20
-202.055
 10
43.1345
 20
-202.324
 10
43.1279
 20
-202.468
 10
43.1079
 20
-202.602
 10
43.0747
 20
-202.726
 10
43.0282
 20
-202.838
 10
42.9684
 20
-202.941
 10
42.8954
 20
-203.032
 10
42.809
 20
-203.113
 10
42.7081
 20
-203.183
 10
42.5914
 20
-203.243
 10
42.459
 20
-203.291
 10
42.3108
 20
-203.329
 10
42.1468
 20
-203.356
 10
41.967
 20
-203.372
 10
41.7715
 20
-203.377
 10
40.262
 20
-203.377
  0
LWPOLYLINE
100
AcDbEntity
  8
0
100
AcDbPolyline
 90
8
 70
1
 10
45.8406
 20
-202.324
 10
48.4527
 20
-202.324
 10
49.1078
 20
-204
 10
49.9012
 20
-204
 10
47.5983
 20
-198.267
 10
46.7154
 20
-198.267
 10
44.3758
 20
-204
 10
45.1815
 20
-204
  0
LWPOLYLINE
100
AcDbEntity
  8
0
100
AcDbPolyline
 90
19
 70
1
 10
46.809
 20
-199.834
 10
46.8639
 20
-199.686
 10
46.9149
 20
-199.547
 10
46.9619
 20
-199.415
 10
47.0049
 20
-199.292
 10
47.044
 20
-199.176
 10
47.079
 20
-199.067
 10
47.11
 20
-198.967
 10
47.1467
 20
-198.853
 10
47.2566
 20
-199.191
 10
47.2891
 20
-199.29
 10
47.3216
 20
-199.387
 10
47.3542
 20
-199.481
 10
47.3867
 20
-199.571
 10
47.4193
 20
-199.659
 10
47.4518
 20
-199.744
 10
47.4844
 20
-199.825
 10
48.2208
 20
-201.717
 10
46.0766
 20
-201.717
  0
LWPOLYLINE
100
AcDbEntity
  8
0
100
AcDbPolyline
 90
36
 70
1
 10
51.3786
 20
-201.62
 10
53.1647
 20
-201.62
 10
54.6539
 20
-204
 10
55.549
 20
-204
 10
53.9215
 20
-201.53
 10
54.1029
 20
-201.491
 10
54.2728
 20
-201.439
 10
54.4311
 20
-201.374
 10
54.5778
 20
-201.295
 10
54.713
 20
-201.204
 10
54.8367
 20
-201.099
 10
54.9489
 20
-200.981
 10
55.0476
 20
-200.852
 10
55.1312
 20
-200.716
 10
55.1996
 20
-200.57
 10
55.2528
 20
-200.417
 10
55.2908
 20
-200.255
 10
55.3136
 20
-200.085
 10
55.3212
 20
-199.907
 10
55.3104
 20
-199.693
 10
55.2781
 20
-199.493
 10
55.2244
 20
-199.307
 10
55.1491
 20
-199.134
 10
55.0523
 20
-198.976
 10
54.934
 20
-198.831
 10
54.7942
 20
-198.7
 10
54.6347
 20
-198.585
 10
54.4571
 20
-198.488
 10
54.2615
 20
-198.409
 10
54.0479
 20
-198.347
 10
53.8163
 20
-198.302
 10
53.5667
 20
-198.276
 10
53.299
 20
-198.267
 10
50.6014
 20
-198.267
 10
50.6014
 20
-204
 10
51.3786
 20
-204
  0
LWPOLYLINE
100
AcDbEntity
  8
0
100
AcDbPolyline
 90
31
 70
1
 10
51.3786
 20
-198.89
 10
53.2217
 20
-198.89
 10
53.3981
 20
-198.895
 10
53.5623
 20
-198.911
 10
53.7143
 20
-198.938
 10
53.8541
 20
-198.975
 10
53.9816
 20
-199.024
 10
54.097
 20
-199.082
 10
54.2002
 20
-199.152
 10
54.2903
 20
-199.232
 10
54.3666
 20
-199.321
 10
54.429
 20
-199.421
 10
54.4776
 20
-199.53
 10
54.5122
 20
-199.648
 10
54.533
 20
-199.777
 10
54.54
 20
-199.915
 10
54.5331
 20
-200.058
 10
54.5126
 20
-200.191
 10
54.4783
 20
-200.316
 10
54.4303
 20
-200.43
 10
54.3687
 20
-200.536
 10
54.2933
 20
-200.632
 10
54.2043
 20
-200.719
 10
54.1027
 20
-200.795
 10
53.9897
 20
-200.859
 10
53.8654
 20
-200.912
 10
53.7296
 20
-200.953
 10
53.5825
 20
-200.982
 10
53.4241
 20
-201
 10
53.2542
 20
-201.005
 10
51.3786
 20
-201.005
  0
LWPOLYLINE
100
AcDbEntity
  8
0
100
AcDbPolyline
 90
19
 70
1
 10
64.7168
 20
-200.192
 10
64.6965
 20
-199.512
 10
64.6761
 20
-199.117
 10
67.7439
 20
-204
 10
68.6797
 20
-204
 10
68.6797
 20
-198.267
 10
67.9799
 20
-198.267
 10
67.9799
 20
-202.027
 10
67.9809
 20
-202.138
 10
67.9839
 20
-202.267
 10
67.9889
 20
-202.414
 10
67.9958
 20
-202.579
 10
68.0048
 20
-202.762
 10
68.0158
 20
-202.963
 10
68.0287
 20
-203.182
 10
64.9284
 20
-198.267
 10
64.0251
 20
-198.267
 10
64.0251
 20
-204
 10
64.7168
 20
-204
  0
LWPOLYLINE
100
AcDbEntity
  8
0
100
AcDbPolyline
 90
12
 70
1
 10
79.6175
 20
-201.343
 10
82.7179
 20
-201.343
 10
82.7179
 20
-204
 10
83.495
 20
-204
 10
83.495
 20
-198.267
 10
82.7179
 20
-198.267
 10
82.7179
 20
-200.692
 10
79.6175
 20
-200.692
 10
79.6175
 20
-198.267
 10
78.8404
 20
-198.267
 10
78.8404
 20
-204
 10
79.6175
 20
-204
  0
LWPOLYLINE
100
AcDbEntity
  8
0
100
AcDbPolyline
 90
6
 70
1
 10
95.0144
 20
-203.365
 10
92.1175
 20
-203.365
 10
92.1175
 20
-198.267
 10
91.3404
 20
-198.267
 10
91.3404
 20
-204
 10
95.0144
 20
-204
  0
LWPOLYLINE
100
AcDbEntity
  8
0
100
AcDbPolyline
 90
12
 70
1
 10
100.491
 20
-203.365
 10
96.7521
 20
-203.365
 10
96.7521
 20
-201.367
 10
100.08
 20
-201.367
 10
100.08
 20
-200.741
 10
96.7521
 20
-200.741
 10
96.7521
 20
-198.902
 10
100.324
 20
-198.902
 10
100.324
 20
-198.267
 10
95.9749
 20
-198.267
 10
95.9749
 20
-204
 10
100.491
 20
-204
  0
LWPOLYLINE
100
AcDbEntity
  8
0
100
AcDbPolyline
 90
4
 70
1
 10
60.6558
 20
-201.461
 10
58.6215
 20
-201.461
 10
58.6215
 20
-202.112
 10
60.6558
 20
-202.112
  0
LWPOLYLINE
100
AcDbEntity
  8
0
100
AcDbPolyline
 90
4
 70
1
 10
425
 20
-210
 10
5
 20
-210
 10
5
 20
-270
 10
425
 20
-270
  0
ENDSEC
  0
EOF
