999
DXF from OpenSCAD
  0
SECTION
  2
HEADER
  9
$ACADVER
  1
AC1006
  9
$INSBASE
 10
0.0
 20
0.0
 30
0.0
  9
$EXTMIN
 10
-25
 20
-245
  9
$EXTMAX
 10
296.653
 20
68
  9
$LINMIN
 10
-25
 20
-245
  9
$LINMAX
 10
296.653
 20
68
  0
ENDSEC
  0
SECTION
  2
TABLES
  0
TABLE
  2
LTYPE
 70
1
  0
LTYPE
  2
CONTINUOUS
 70
64
  3
Solid line
 72
65
 73
0
 40
0.000000
  0
ENDTAB
  0
TABLE
  2
LAYER
 70
6
  0
LAYER
  2
0
 70
64
 62
7
  6
CONTINUOUS
  0
ENDTAB
  0
TABLE
  2
STYLE
 70
0
  0
ENDTAB
  0
ENDSEC
  0
SECTION
  2
BLOCKS
  0
ENDSEC
  0
SECTION
  2
ENTITIES
  0
LWPOLYLINE
100
AcDbEntity
  8
0
100
AcDbPolyline
 90
16
 70
1
 10
55
 20
-152
 10
62
 20
-152
 10
62
 20
-190
 10
117
 20
-190
 10
117
 20
-150
 10
85
 20
-150
 10
85
 20
68
 10
35
 20
68
 10
35
 20
-150
 10
25
 20
-150
 10
25
 20
68
 10
-25
 20
68
 10
-25
 20
-152
 10
0
 20
-152
 10
0
 20
-190
 10
55
 20
-190
  0
LWPOLYLINE
100
AcDbEntity
  8
0
100
AcDbPolyline
 90
39
 70
1
 10
-0.850109
 20
47.8359
 10
-1.50707
 20
48.0262
 10
-2.125
 20
48.3194
 10
-2.68789
 20
48.7079
 10
-3.18117
 20
49.1817
 10
-3.59206
 20
49.7285
 10
-3.90991
 20
50.3341
 10
-4.1265
 20
50.9829
 10
-4.23622
 20
51.658
 10
-4.23622
 20
52.342
 10
-4.1265
 20
53.0171
 10
-3.90991
 20
53.6659
 10
-3.59206
 20
54.2715
 10
-3.18117
 20
54.8183
 10
-2.68789
 20
55.2921
 10
-2.125
 20
55.6806
 10
-1.50707
 20
55.9738
 10
-0.850109
 20
56.1641
 10
-0.17113
 20
56.2466
 10
0.512281
 20
56.219
 10
1.18242
 20
56.0822
 10
1.82194
 20
55.8397
 10
2.41428
 20
55.4977
 10
2.94408
 20
55.0651
 10
3.39763
 20
54.5532
 10
3.76319
 20
53.9751
 10
4.03128
 20
53.3458
 10
4.19496
 20
52.6817
 10
4.25
 20
52
 10
4.19496
 20
51.3183
 10
4.03128
 20
50.6542
 10
3.76319
 20
50.0249
 10
3.39763
 20
49.4468
 10
2.94408
 20
48.9349
 10
2.41428
 20
48.5023
 10
1.82194
 20
48.1603
 10
1.18242
 20
47.9178
 10
0.512281
 20
47.781
 10
-0.17113
 20
47.7534
  0
LWPOLYLINE
100
AcDbEntity
  8
0
100
AcDbPolyline
 90
39
 70
1
 10
59.4877
 20
47.781
 10
58.8176
 20
47.9178
 10
58.1781
 20
48.1603
 10
57.5857
 20
48.5023
 10
57.0559
 20
48.9349
 10
56.6024
 20
49.4468
 10
56.2368
 20
50.0249
 10
55.9687
 20
50.6542
 10
55.805
 20
51.3183
 10
55.75
 20
52
 10
55.805
 20
52.6817
 10
55.9687
 20
53.3458
 10
56.2368
 20
53.9751
 10
56.6024
 20
54.5532
 10
57.0559
 20
55.0651
 10
57.5857
 20
55.4977
 10
58.1781
 20
55.8397
 10
58.8176
 20
56.0822
 10
59.4877
 20
56.219
 10
60.1711
 20
56.2466
 10
60.8501
 20
56.1641
 10
61.5071
 20
55.9738
 10
62.125
 20
55.6806
 10
62.6879
 20
55.2921
 10
63.1812
 20
54.8183
 10
63.5921
 20
54.2715
 10
63.9099
 20
53.6659
 10
64.1265
 20
53.0171
 10
64.2362
 20
52.342
 10
64.2362
 20
51.658
 10
64.1265
 20
50.9829
 10
63.9099
 20
50.3341
 10
63.5921
 20
49.7285
 10
63.1812
 20
49.1817
 10
62.6879
 20
48.7079
 10
62.125
 20
48.3194
 10
61.5071
 20
48.0262
 10
60.8501
 20
47.8359
 10
60.1711
 20
47.7534
  0
LWPOLYLINE
100
AcDbEntity
  8
0
100
AcDbPolyline
 90
35
 70
1
 10
-2.79803
 20
-4.38304
 10
-3.35726
 20
-3.97099
 10
-3.85659
 20
-3.48808
 10
-4.2871
 20
-2.94292
 10
-4.6411
 20
-2.34525
 10
-4.91228
 20
-1.70573
 10
-5.0958
 20
-1.03577
 10
-5.18839
 20
-0.347322
 10
-5.18839
 20
0.347322
 10
-5.0958
 20
1.03577
 10
-4.91228
 20
1.70573
 10
-4.6411
 20
2.34525
 10
-4.2871
 20
2.94292
 10
-3.85659
 20
3.48808
 10
-3.35726
 20
3.97099
 10
-2.79803
 20
4.38304
 10
-2.67584
 20
4.45
 10
2.67156
 20
4.45
 10
3.08453
 20
4.18636
 10
3.615
 20
3.73788
 10
4.08096
 20
3.2227
 10
4.47409
 20
2.65001
 10
4.78738
 20
2.03002
 10
5.01524
 20
1.37382
 10
5.1536
 20
0.693092
 10
5.2
 20
0
 10
5.1536
 20
-0.693092
 10
5.01524
 20
-1.37382
 10
4.78738
 20
-2.03002
 10
4.47409
 20
-2.65001
 10
4.08096
 20
-3.2227
 10
3.615
 20
-3.73788
 10
3.08453
 20
-4.18636
 10
2.67156
 20
-4.45
 10
-2.67584
 20
-4.45
  0
LWPOLYLINE
100
AcDbEntity
  8
0
100
AcDbPolyline
 90
35
 70
1
 10
56.9155
 20
-4.18636
 10
56.385
 20
-3.73788
 10
55.919
 20
-3.2227
 10
55.5259
 20
-2.65001
 10
55.2126
 20
-2.03002
 10
54.9848
 20
-1.37382
 10
54.8464
 20
-0.693092
 10
54.8
 20
0
 10
54.8464
 20
0.693092
 10
54.9848
 20
1.37382
 10
55.2126
 20
2.03002
 10
55.5259
 20
2.65001
 10
55.919
 20
3.2227
 10
56.385
 20
3.73788
 10
56.9155
 20
4.18636
 10
57.3284
 20
4.45
 10
62.6758
 20
4.45
 10
62.798
 20
4.38304
 10
63.3573
 20
3.97099
 10
63.8566
 20
3.48808
 10
64.2871
 20
2.94292
 10
64.6411
 20
2.34525
 10
64.9123
 20
1.70573
 10
65.0958
 20
1.03577
 10
65.1884
 20
0.347322
 10
65.1884
 20
-0.347322
 10
65.0958
 20
-1.03577
 10
64.9123
 20
-1.70573
 10
64.6411
 20
-2.34525
 10
64.2871
 20
-2.94292
 10
63.8566
 20
-3.48808
 10
63.3573
 20
-3.97099
 10
62.798
 20
-4.38304
 10
62.6758
 20
-4.45
 10
57.3284
 20
-4.45
  0
LWPOLYLINE
100
AcDbEntity
  8
0
100
AcDbPolyline
 90
72
 70
1
 10
-0.697246
 20
-135.97
 10
-1.38919
 20
-135.878
 10
-2.07055
 20
-135.727
 10
-2.73616
 20
-135.518
 10
-3.38095
 20
-135.25
 10
-4
 20
-134.928
 10
-4.58861
 20
-134.553
 10
-5.1423
 20
-134.128
 10
-5.65685
 20
-133.657
 10
-6.12836
 20
-133.142
 10
-6.55322
 20
-132.589
 10
-6.9282
 20
-132
 10
-7.25046
 20
-131.381
 10
-7.51754
 20
-130.736
 10
-7.72741
 20
-130.071
 10
-7.87846
 20
-129.389
 10
-7.96956
 20
-128.697
 10
-8
 20
-128
 10
-7.96956
 20
-127.303
 10
-7.87846
 20
-126.611
 10
-7.72741
 20
-125.929
 10
-7.51754
 20
-125.264
 10
-7.25046
 20
-124.619
 10
-6.9282
 20
-124
 10
-6.55322
 20
-123.411
 10
-6.12836
 20
-122.858
 10
-5.65685
 20
-122.343
 10
-5.1423
 20
-121.872
 10
-4.58861
 20
-121.447
 10
-4
 20
-121.072
 10
-3.38095
 20
-120.75
 10
-2.73616
 20
-120.482
 10
-2.07055
 20
-120.273
 10
-1.38919
 20
-120.122
 10
-0.697246
 20
-120.03
 10
0
 20
-120
 10
0.697246
 20
-120.03
 10
1.38919
 20
-120.122
 10
2.07055
 20
-120.273
 10
2.73616
 20
-120.482
 10
3.38095
 20
-120.75
 10
4
 20
-121.072
 10
4.58861
 20
-121.447
 10
5.1423
 20
-121.872
 10
5.65685
 20
-122.343
 10
6.12836
 20
-122.858
 10
6.55322
 20
-123.411
 10
6.9282
 20
-124
 10
7.25046
 20
-124.619
 10
7.51754
 20
-125.264
 10
7.72741
 20
-125.929
 10
7.87846
 20
-126.611
 10
7.96956
 20
-127.303
 10
8
 20
-128
 10
7.96956
 20
-128.697
 10
7.87846
 20
-129.389
 10
7.72741
 20
-130.071
 10
7.51754
 20
-130.736
 10
7.25046
 20
-131.381
 10
6.9282
 20
-132
 10
6.55322
 20
-132.589
 10
6.12836
 20
-133.142
 10
5.65685
 20
-133.657
 10
5.1423
 20
-134.128
 10
4.58861
 20
-134.553
 10
4
 20
-134.928
 10
3.38095
 20
-135.25
 10
2.73616
 20
-135.518
 10
2.07055
 20
-135.727
 10
1.38919
 20
-135.878
 10
0.697246
 20
-135.97
 10
0
 20
-136
  0
LWPOLYLINE
100
AcDbEntity
  8
0
100
AcDbPolyline
 90
72
 70
1
 10
59.3028
 20
-135.97
 10
58.6108
 20
-135.878
 10
57.9294
 20
-135.727
 10
57.2638
 20
-135.518
 10
56.6191
 20
-135.25
 10
56
 20
-134.928
 10
55.4114
 20
-134.553
 10
54.8577
 20
-134.128
 10
54.3431
 20
-133.657
 10
53.8716
 20
-133.142
 10
53.4468
 20
-132.589
 10
53.0718
 20
-132
 10
52.7495
 20
-131.381
 10
52.4825
 20
-130.736
 10
52.2726
 20
-130.071
 10
52.1215
 20
-129.389
 10
52.0304
 20
-128.697
 10
52
 20
-128
 10
52.0304
 20
-127.303
 10
52.1215
 20
-126.611
 10
52.2726
 20
-125.929
 10
52.4825
 20
-125.264
 10
52.7495
 20
-124.619
 10
53.0718
 20
-124
 10
53.4468
 20
-123.411
 10
53.8716
 20
-122.858
 10
54.3431
 20
-122.343
 10
54.8577
 20
-121.872
 10
55.4114
 20
-121.447
 10
56
 20
-121.072
 10
56.6191
 20
-120.75
 10
57.2638
 20
-120.482
 10
57.9294
 20
-120.273
 10
58.6108
 20
-120.122
 10
59.3028
 20
-120.03
 10
60
 20
-120
 10
60.6972
 20
-120.03
 10
61.3892
 20
-120.122
 10
62.0706
 20
-120.273
 10
62.7362
 20
-120.482
 10
63.3809
 20
-120.75
 10
64
 20
-121.072
 10
64.5886
 20
-121.447
 10
65.1423
 20
-121.872
 10
65.6569
 20
-122.343
 10
66.1284
 20
-122.858
 10
66.5532
 20
-123.411
 10
66.9282
 20
-124
 10
67.2505
 20
-124.619
 10
67.5175
 20
-125.264
 10
67.7274
 20
-125.929
 10
67.8785
 20
-126.611
 10
67.9696
 20
-127.303
 10
68
 20
-128
 10
67.9696
 20
-128.697
 10
67.8785
 20
-129.389
 10
67.7274
 20
-130.071
 10
67.5175
 20
-130.736
 10
67.2505
 20
-131.381
 10
66.9282
 20
-132
 10
66.5532
 20
-132.589
 10
66.1284
 20
-133.142
 10
65.6569
 20
-133.657
 10
65.1423
 20
-134.128
 10
64.5886
 20
-134.553
 10
64
 20
-134.928
 10
63.3809
 20
-135.25
 10
62.7362
 20
-135.518
 10
62.0706
 20
-135.727
 10
61.3892
 20
-135.878
 10
60.6972
 20
-135.97
 10
60
 20
-136
  0
LWPOLYLINE
100
AcDbEntity
  8
0
100
AcDbPolyline
 90
38
 70
1
 10
43.0287
 20
-171.632
 10
42.3726
 20
-171.407
 10
41.7625
 20
-171.077
 10
41.2151
 20
-170.651
 10
40.7453
 20
-170.141
 10
40.3659
 20
-169.56
 10
40.0873
 20
-168.925
 10
39.917
 20
-168.252
 10
39.8597
 20
-167.561
 10
39.917
 20
-166.87
 10
40.0873
 20
-166.197
 10
40.3659
 20
-165.562
 10
40.7453
 20
-164.981
 10
41.2151
 20
-164.471
 10
41.7625
 20
-164.045
 10
42.3726
 20
-163.715
 10
43.0287
 20
-163.489
 10
43.7129
 20
-163.375
 10
44.4065
 20
-163.375
 10
45.0908
 20
-163.489
 10
45.7468
 20
-163.715
 10
46.3569
 20
-164.045
 10
46.9043
 20
-164.471
 10
47.3741
 20
-164.981
 10
47.7535
 20
-165.562
 10
48.0321
 20
-166.197
 10
48.2024
 20
-166.87
 10
48.2597
 20
-167.561
 10
48.2024
 20
-168.252
 10
48.0321
 20
-168.925
 10
47.7535
 20
-169.56
 10
47.3741
 20
-170.141
 10
46.9043
 20
-170.651
 10
46.3569
 20
-171.077
 10
45.7468
 20
-171.407
 10
45.0908
 20
-171.632
 10
44.4065
 20
-171.747
 10
43.7129
 20
-171.747
  0
LWPOLYLINE
100
AcDbEntity
  8
0
100
AcDbPolyline
 90
38
 70
1
 10
105.029
 20
-171.632
 10
104.373
 20
-171.407
 10
103.763
 20
-171.077
 10
103.215
 20
-170.651
 10
102.745
 20
-170.141
 10
102.366
 20
-169.56
 10
102.087
 20
-168.925
 10
101.917
 20
-168.252
 10
101.86
 20
-167.561
 10
101.917
 20
-166.87
 10
102.087
 20
-166.197
 10
102.366
 20
-165.562
 10
102.745
 20
-164.981
 10
103.215
 20
-164.471
 10
103.763
 20
-164.045
 10
104.373
 20
-163.715
 10
105.029
 20
-163.489
 10
105.713
 20
-163.375
 10
106.407
 20
-163.375
 10
107.091
 20
-163.489
 10
107.747
 20
-163.715
 10
108.357
 20
-164.045
 10
108.904
 20
-164.471
 10
109.374
 20
-164.981
 10
109.754
 20
-165.562
 10
110.032
 20
-166.197
 10
110.202
 20
-166.87
 10
110.26
 20
-167.561
 10
110.202
 20
-168.252
 10
110.032
 20
-168.925
 10
109.754
 20
-169.56
 10
109.374
 20
-170.141
 10
108.904
 20
-170.651
 10
108.357
 20
-171.077
 10
107.747
 20
-171.407
 10
107.091
 20
-171.632
 10
106.407
 20
-171.747
 10
105.713
 20
-171.747
  0
LWPOLYLINE
100
AcDbEntity
  8
0
100
AcDbPolyline
 90
6
 70
1
 10
296.653
 20
60
 10
123
 20
60
 10
113
 20
50
 10
113
 20
30
 10
123
 20
20
 10
296.653
 20
20
  0
LWPOLYLINE
100
AcDbEntity
  8
0
100
AcDbPolyline
 90
90
 70
1
 10
133.39
 20
24.6844
 10
132.326
 20
24.834
 10
131.274
 20
25.0574
 10
130.241
 20
25.3537
 10
129.231
 20
25.7214
 10
128.249
 20
26.1586
 10
127.3
 20
26.6632
 10
126.388
 20
27.2328
 10
125.519
 20
27.8646
 10
124.695
 20
28.5556
 10
123.922
 20
29.3023
 10
123.203
 20
30.1011
 10
122.541
 20
30.9481
 10
121.94
 20
31.8392
 10
121.403
 20
32.7701
 10
120.931
 20
33.7363
 10
120.529
 20
34.7329
 10
120.197
 20
35.7552
 10
119.937
 20
36.7982
 10
119.75
 20
37.8567
 10
119.638
 20
38.9258
 10
119.6
 20
40
 10
119.638
 20
41.0742
 10
119.75
 20
42.1433
 10
119.937
 20
43.2018
 10
120.197
 20
44.2448
 10
120.529
 20
45.2671
 10
120.931
 20
46.2637
 10
121.403
 20
47.2299
 10
121.94
 20
48.1608
 10
122.541
 20
49.0519
 10
123.203
 20
49.8989
 10
123.922
 20
50.6977
 10
124.695
 20
51.4444
 10
125.519
 20
52.1354
 10
126.388
 20
52.7672
 10
127.3
 20
53.3368
 10
128.249
 20
53.8414
 10
129.231
 20
54.2786
 10
130.241
 20
54.6463
 10
131.274
 20
54.9426
 10
132.326
 20
55.166
 10
133.39
 20
55.3156
 10
134.463
 20
55.3906
 10
135.537
 20
55.3906
 10
136.61
 20
55.3156
 10
137.674
 20
55.166
 10
138.726
 20
54.9426
 10
139.759
 20
54.6463
 10
140.769
 20
54.2786
 10
141.751
 20
53.8414
 10
142.7
 20
53.3368
 10
143.612
 20
52.7672
 10
144.481
 20
52.1354
 10
145.305
 20
51.4444
 10
146.078
 20
50.6977
 10
146.797
 20
49.8989
 10
147.459
 20
49.0519
 10
148.06
 20
48.1608
 10
148.597
 20
47.2299
 10
149.069
 20
46.2637
 10
149.471
 20
45.2671
 10
149.803
 20
44.2448
 10
150.063
 20
43.2018
 10
150.25
 20
42.1433
 10
150.362
 20
41.0742
 10
150.4
 20
40
 10
150.362
 20
38.9258
 10
150.25
 20
37.8567
 10
150.063
 20
36.7982
 10
149.803
 20
35.7552
 10
149.471
 20
34.7329
 10
149.069
 20
33.7363
 10
148.597
 20
32.7701
 10
148.06
 20
31.8392
 10
147.459
 20
30.9481
 10
146.797
 20
30.1011
 10
146.078
 20
29.3023
 10
145.305
 20
28.5556
 10
144.481
 20
27.8646
 10
143.612
 20
27.2328
 10
142.7
 20
26.6632
 10
141.751
 20
26.1586
 10
140.769
 20
25.7214
 10
139.759
 20
25.3537
 10
138.726
 20
25.0574
 10
137.674
 20
24.834
 10
136.61
 20
24.6844
 10
135.537
 20
24.6094
 10
134.463
 20
24.6094
  0
LWPOLYLINE
100
AcDbEntity
  8
0
100
AcDbPolyline
 90
70
 70
1
 10
251.619
 20
32.3697
 10
250.939
 20
32.4931
 10
250.273
 20
32.6769
 10
249.626
 20
32.9196
 10
249.004
 20
33.2194
 10
248.411
 20
33.5738
 10
247.852
 20
33.9799
 10
247.331
 20
34.4345
 10
246.854
 20
34.9339
 10
246.423
 20
35.4741
 10
246.043
 20
36.0507
 10
245.715
 20
36.6591
 10
245.444
 20
37.2944
 10
245.23
 20
37.9515
 10
245.076
 20
38.6251
 10
244.984
 20
39.3098
 10
244.953
 20
40
 10
244.984
 20
40.6902
 10
245.076
 20
41.3749
 10
245.23
 20
42.0485
 10
245.444
 20
42.7056
 10
245.715
 20
43.3409
 10
246.043
 20
43.9493
 10
246.423
 20
44.5259
 10
246.854
 20
45.0661
 10
247.331
 20
45.5655
 10
247.852
 20
46.0201
 10
248.411
 20
46.4262
 10
249.004
 20
46.7806
 10
249.626
 20
47.0804
 10
250.273
 20
47.3231
 10
250.939
 20
47.5069
 10
251.619
 20
47.6303
 10
252.307
 20
47.6922
 10
277.998
 20
47.6922
 10
278.686
 20
47.6303
 10
279.366
 20
47.5069
 10
280.032
 20
47.3231
 10
280.679
 20
47.0804
 10
281.301
 20
46.7806
 10
281.895
 20
46.4262
 10
282.454
 20
46.0201
 10
282.974
 20
45.5655
 10
283.451
 20
45.0661
 10
283.882
 20
44.5259
 10
284.263
 20
43.9493
 10
284.59
 20
43.3409
 10
284.862
 20
42.7056
 10
285.075
 20
42.0485
 10
285.229
 20
41.3749
 10
285.322
 20
40.6902
 10
285.353
 20
40
 10
285.322
 20
39.3098
 10
285.229
 20
38.6251
 10
285.075
 20
37.9515
 10
284.862
 20
37.2944
 10
284.59
 20
36.6591
 10
284.263
 20
36.0507
 10
283.882
 20
35.4741
 10
283.451
 20
34.9339
 10
282.974
 20
34.4345
 10
282.454
 20
33.9799
 10
281.895
 20
33.5738
 10
281.301
 20
33.2194
 10
280.679
 20
32.9196
 10
280.032
 20
32.6769
 10
279.366
 20
32.4931
 10
278.686
 20
32.3697
 10
277.998
 20
32.3078
 10
252.307
 20
32.3078
  0
LWPOLYLINE
100
AcDbEntity
  8
0
100
AcDbPolyline
 90
38
 70
1
 10
185.03
 20
35.9285
 10
184.374
 20
36.1538
 10
183.764
 20
36.4839
 10
183.217
 20
36.91
 10
182.747
 20
37.4203
 10
182.367
 20
38.001
 10
182.089
 20
38.6363
 10
181.919
 20
39.3087
 10
181.861
 20
40
 10
181.919
 20
40.6913
 10
182.089
 20
41.3637
 10
182.367
 20
41.999
 10
182.747
 20
42.5797
 10
183.217
 20
43.09
 10
183.764
 20
43.5161
 10
184.374
 20
43.8462
 10
185.03
 20
44.0715
 10
185.714
 20
44.1857
 10
186.408
 20
44.1857
 10
187.092
 20
44.0715
 10
187.748
 20
43.8462
 10
188.358
 20
43.5161
 10
188.906
 20
43.09
 10
189.376
 20
42.5797
 10
189.755
 20
41.999
 10
190.034
 20
41.3637
 10
190.204
 20
40.6913
 10
190.261
 20
40
 10
190.204
 20
39.3087
 10
190.034
 20
38.6363
 10
189.755
 20
38.001
 10
189.376
 20
37.4203
 10
188.906
 20
36.91
 10
188.358
 20
36.4839
 10
187.748
 20
36.1538
 10
187.092
 20
35.9285
 10
186.408
 20
35.8143
 10
185.714
 20
35.8143
  0
LWPOLYLINE
100
AcDbEntity
  8
0
100
AcDbPolyline
 90
6
 70
1
 10
296.653
 20
10
 10
123
 20
10
 10
113
 20
0
 10
113
 20
-20
 10
123
 20
-30
 10
296.653
 20
-30
  0
LWPOLYLINE
100
AcDbEntity
  8
0
100
AcDbPolyline
 90
90
 70
1
 10
133.39
 20
-25.3156
 10
132.326
 20
-25.166
 10
131.274
 20
-24.9426
 10
130.241
 20
-24.6463
 10
129.231
 20
-24.2786
 10
128.249
 20
-23.8414
 10
127.3
 20
-23.3368
 10
126.388
 20
-22.7672
 10
125.519
 20
-22.1354
 10
124.695
 20
-21.4444
 10
123.922
 20
-20.6977
 10
123.203
 20
-19.8989
 10
122.541
 20
-19.0519
 10
121.94
 20
-18.1608
 10
121.403
 20
-17.2299
 10
120.931
 20
-16.2637
 10
120.529
 20
-15.2671
 10
120.197
 20
-14.2448
 10
119.937
 20
-13.2018
 10
119.75
 20
-12.1433
 10
119.638
 20
-11.0742
 10
119.6
 20
-10
 10
119.638
 20
-8.92575
 10
119.75
 20
-7.85673
 10
119.937
 20
-6.79816
 10
120.197
 20
-5.75518
 10
120.529
 20
-4.73289
 10
120.931
 20
-3.73626
 10
121.403
 20
-2.77014
 10
121.94
 20
-1.83924
 10
122.541
 20
-0.948107
 10
123.203
 20
-0.101071
 10
123.922
 20
0.697739
 10
124.695
 20
1.44443
 10
125.519
 20
2.13537
 10
126.388
 20
2.76718
 10
127.3
 20
3.33679
 10
128.249
 20
3.84143
 10
129.231
 20
4.27863
 10
130.241
 20
4.64627
 10
131.274
 20
4.94255
 10
132.326
 20
5.16604
 10
133.39
 20
5.31564
 10
134.463
 20
5.39062
 10
135.537
 20
5.39062
 10
136.61
 20
5.31564
 10
137.674
 20
5.16604
 10
138.726
 20
4.94255
 10
139.759
 20
4.64627
 10
140.769
 20
4.27863
 10
141.751
 20
3.84143
 10
142.7
 20
3.33679
 10
143.612
 20
2.76718
 10
144.481
 20
2.13537
 10
145.305
 20
1.44443
 10
146.078
 20
0.697739
 10
146.797
 20
-0.101071
 10
147.459
 20
-0.948107
 10
148.06
 20
-1.83924
 10
148.597
 20
-2.77014
 10
149.069
 20
-3.73626
 10
149.471
 20
-4.73289
 10
149.803
 20
-5.75518
 10
150.063
 20
-6.79816
 10
150.25
 20
-7.85673
 10
150.362
 20
-8.92575
 10
150.4
 20
-10
 10
150.362
 20
-11.0742
 10
150.25
 20
-12.1433
 10
150.063
 20
-13.2018
 10
149.803
 20
-14.2448
 10
149.471
 20
-15.2671
 10
149.069
 20
-16.2637
 10
148.597
 20
-17.2299
 10
148.06
 20
-18.1608
 10
147.459
 20
-19.0519
 10
146.797
 20
-19.8989
 10
146.078
 20
-20.6977
 10
145.305
 20
-21.4444
 10
144.481
 20
-22.1354
 10
143.612
 20
-22.7672
 10
142.7
 20
-23.3368
 10
141.751
 20
-23.8414
 10
140.769
 20
-24.2786
 10
139.759
 20
-24.6463
 10
138.726
 20
-24.9426
 10
137.674
 20
-25.166
 10
136.61
 20
-25.3156
 10
135.537
 20
-25.3906
 10
134.463
 20
-25.3906
  0
LWPOLYLINE
100
AcDbEntity
  8
0
100
AcDbPolyline
 90
70
 70
1
 10
251.619
 20
-17.6303
 10
250.939
 20
-17.5069
 10
250.273
 20
-17.3231
 10
249.626
 20
-17.0804
 10
249.004
 20
-16.7806
 10
248.411
 20
-16.4262
 10
247.852
 20
-16.0201
 10
247.331
 20
-15.5655
 10
246.854
 20
-15.0661
 10
246.423
 20
-14.5259
 10
246.043
 20
-13.9493
 10
245.715
 20
-13.3409
 10
245.444
 20
-12.7056
 10
245.23
 20
-12.0485
 10
245.076
 20
-11.3749
 10
244.984
 20
-10.6902
 10
244.953
 20
-10
 10
244.984
 20
-9.30978
 10
245.076
 20
-8.62511
 10
245.23
 20
-7.95152
 10
245.444
 20
-7.29441
 10
245.715
 20
-6.6591
 10
246.043
 20
-6.05068
 10
246.423
 20
-5.47405
 10
246.854
 20
-4.93387
 10
247.331
 20
-4.43448
 10
247.852
 20
-3.9799
 10
248.411
 20
-3.57379
 10
249.004
 20
-3.21941
 10
249.626
 20
-2.91964
 10
250.273
 20
-2.67686
 10
250.939
 20
-2.49306
 10
251.619
 20
-2.36969
 10
252.307
 20
-2.30775
 10
277.998
 20
-2.30775
 10
278.686
 20
-2.36969
 10
279.366
 20
-2.49306
 10
280.032
 20
-2.67686
 10
280.679
 20
-2.91964
 10
281.301
 20
-3.21941
 10
281.895
 20
-3.57379
 10
282.454
 20
-3.9799
 10
282.974
 20
-4.43448
 10
283.451
 20
-4.93387
 10
283.882
 20
-5.47405
 10
284.263
 20
-6.05068
 10
284.59
 20
-6.6591
 10
284.862
 20
-7.29441
 10
285.075
 20
-7.95152
 10
285.229
 20
-8.62511
 10
285.322
 20
-9.30978
 10
285.353
 20
-10
 10
285.322
 20
-10.6902
 10
285.229
 20
-11.3749
 10
285.075
 20
-12.0485
 10
284.862
 20
-12.7056
 10
284.59
 20
-13.3409
 10
284.263
 20
-13.9493
 10
283.882
 20
-14.5259
 10
283.451
 20
-15.0661
 10
282.974
 20
-15.5655
 10
282.454
 20
-16.0201
 10
281.895
 20
-16.4262
 10
281.301
 20
-16.7806
 10
280.679
 20
-17.0804
 10
280.032
 20
-17.3231
 10
279.366
 20
-17.5069
 10
278.686
 20
-17.6303
 10
277.998
 20
-17.6922
 10
252.307
 20
-17.6922
  0
LWPOLYLINE
100
AcDbEntity
  8
0
100
AcDbPolyline
 90
38
 70
1
 10
185.03
 20
-14.0715
 10
184.374
 20
-13.8462
 10
183.764
 20
-13.5161
 10
183.217
 20
-13.09
 10
182.747
 20
-12.5797
 10
182.367
 20
-11.999
 10
182.089
 20
-11.3637
 10
181.919
 20
-10.6913
 10
181.861
 20
-10
 10
181.919
 20
-9.3087
 10
182.089
 20
-8.63626
 10
182.367
 20
-8.00102
 10
182.747
 20
-7.42031
 10
183.217
 20
-6.90996
 10
183.764
 20
-6.4839
 10
184.374
 20
-6.15375
 10
185.03
 20
-5.92852
 10
185.714
 20
-5.81435
 10
186.408
 20
-5.81435
 10
187.092
 20
-5.92852
 10
187.748
 20
-6.15375
 10
188.358
 20
-6.4839
 10
188.906
 20
-6.90996
 10
189.376
 20
-7.42031
 10
189.755
 20
-8.00102
 10
190.034
 20
-8.63626
 10
190.204
 20
-9.3087
 10
190.261
 20
-10
 10
190.204
 20
-10.6913
 10
190.034
 20
-11.3637
 10
189.755
 20
-11.999
 10
189.376
 20
-12.5797
 10
188.906
 20
-13.09
 10
188.358
 20
-13.5161
 10
187.748
 20
-13.8462
 10
187.092
 20
-14.0715
 10
186.408
 20
-14.1857
 10
185.714
 20
-14.1857
  0
LWPOLYLINE
100
AcDbEntity
  8
0
100
AcDbPolyline
 90
6
 70
1
 10
278.653
 20
-40
 10
123
 20
-40
 10
113
 20
-50
 10
113
 20
-70
 10
123
 20
-80
 10
278.653
 20
-80
  0
LWPOLYLINE
100
AcDbEntity
  8
0
100
AcDbPolyline
 90
90
 70
1
 10
133.39
 20
-75.3156
 10
132.326
 20
-75.166
 10
131.274
 20
-74.9426
 10
130.241
 20
-74.6463
 10
129.231
 20
-74.2786
 10
128.249
 20
-73.8414
 10
127.3
 20
-73.3368
 10
126.388
 20
-72.7672
 10
125.519
 20
-72.1354
 10
124.695
 20
-71.4444
 10
123.922
 20
-70.6977
 10
123.203
 20
-69.8989
 10
122.541
 20
-69.0519
 10
121.94
 20
-68.1608
 10
121.403
 20
-67.2299
 10
120.931
 20
-66.2637
 10
120.529
 20
-65.2671
 10
120.197
 20
-64.2448
 10
119.937
 20
-63.2018
 10
119.75
 20
-62.1433
 10
119.638
 20
-61.0742
 10
119.6
 20
-60
 10
119.638
 20
-58.9258
 10
119.75
 20
-57.8567
 10
119.937
 20
-56.7982
 10
120.197
 20
-55.7552
 10
120.529
 20
-54.7329
 10
120.931
 20
-53.7363
 10
121.403
 20
-52.7701
 10
121.94
 20
-51.8392
 10
122.541
 20
-50.9481
 10
123.203
 20
-50.1011
 10
123.922
 20
-49.3023
 10
124.695
 20
-48.5556
 10
125.519
 20
-47.8646
 10
126.388
 20
-47.2328
 10
127.3
 20
-46.6632
 10
128.249
 20
-46.1586
 10
129.231
 20
-45.7214
 10
130.241
 20
-45.3537
 10
131.274
 20
-45.0574
 10
132.326
 20
-44.834
 10
133.39
 20
-44.6844
 10
134.463
 20
-44.6094
 10
135.537
 20
-44.6094
 10
136.61
 20
-44.6844
 10
137.674
 20
-44.834
 10
138.726
 20
-45.0574
 10
139.759
 20
-45.3537
 10
140.769
 20
-45.7214
 10
141.751
 20
-46.1586
 10
142.7
 20
-46.6632
 10
143.612
 20
-47.2328
 10
144.481
 20
-47.8646
 10
145.305
 20
-48.5556
 10
146.078
 20
-49.3023
 10
146.797
 20
-50.1011
 10
147.459
 20
-50.9481
 10
148.06
 20
-51.8392
 10
148.597
 20
-52.7701
 10
149.069
 20
-53.7363
 10
149.471
 20
-54.7329
 10
149.803
 20
-55.7552
 10
150.063
 20
-56.7982
 10
150.25
 20
-57.8567
 10
150.362
 20
-58.9258
 10
150.4
 20
-60
 10
150.362
 20
-61.0742
 10
150.25
 20
-62.1433
 10
150.063
 20
-63.2018
 10
149.803
 20
-64.2448
 10
149.471
 20
-65.2671
 10
149.069
 20
-66.2637
 10
148.597
 20
-67.2299
 10
148.06
 20
-68.1608
 10
147.459
 20
-69.0519
 10
146.797
 20
-69.8989
 10
146.078
 20
-70.6977
 10
145.305
 20
-71.4444
 10
144.481
 20
-72.1354
 10
143.612
 20
-72.7672
 10
142.7
 20
-73.3368
 10
141.751
 20
-73.8414
 10
140.769
 20
-74.2786
 10
139.759
 20
-74.6463
 10
138.726
 20
-74.9426
 10
137.674
 20
-75.166
 10
136.61
 20
-75.3156
 10
135.537
 20
-75.3906
 10
134.463
 20
-75.3906
  0
LWPOLYLINE
100
AcDbEntity
  8
0
100
AcDbPolyline
 90
70
 70
1
 10
251.619
 20
-67.6303
 10
250.939
 20
-67.5069
 10
250.273
 20
-67.3231
 10
249.626
 20
-67.0804
 10
249.004
 20
-66.7806
 10
248.411
 20
-66.4262
 10
247.852
 20
-66.0201
 10
247.331
 20
-65.5655
 10
246.854
 20
-65.0661
 10
246.423
 20
-64.5259
 10
246.043
 20
-63.9493
 10
245.715
 20
-63.3409
 10
245.444
 20
-62.7056
 10
245.23
 20
-62.0485
 10
245.076
 20
-61.3749
 10
244.984
 20
-60.6902
 10
244.953
 20
-60
 10
244.984
 20
-59.3098
 10
245.076
 20
-58.6251
 10
245.23
 20
-57.9515
 10
245.444
 20
-57.2944
 10
245.715
 20
-56.6591
 10
246.043
 20
-56.0507
 10
246.423
 20
-55.4741
 10
246.854
 20
-54.9339
 10
247.331
 20
-54.4345
 10
247.852
 20
-53.9799
 10
248.411
 20
-53.5738
 10
249.004
 20
-53.2194
 10
249.626
 20
-52.9196
 10
250.273
 20
-52.6769
 10
250.939
 20
-52.4931
 10
251.619
 20
-52.3697
 10
252.307
 20
-52.3078
 10
252.998
 20
-52.3078
 10
253.686
 20
-52.3697
 10
254.366
 20
-52.4931
 10
255.032
 20
-52.6769
 10
255.679
 20
-52.9196
 10
256.301
 20
-53.2194
 10
256.895
 20
-53.5738
 10
257.454
 20
-53.9799
 10
257.974
 20
-54.4345
 10
258.451
 20
-54.9339
 10
258.882
 20
-55.4741
 10
259.263
 20
-56.0507
 10
259.59
 20
-56.6591
 10
259.862
 20
-57.2944
 10
260.075
 20
-57.9515
 10
260.229
 20
-58.6251
 10
260.322
 20
-59.3098
 10
260.353
 20
-60
 10
260.322
 20
-60.6902
 10
260.229
 20
-61.3749
 10
260.075
 20
-62.0485
 10
259.862
 20
-62.7056
 10
259.59
 20
-63.3409
 10
259.263
 20
-63.9493
 10
258.882
 20
-64.5259
 10
258.451
 20
-65.0661
 10
257.974
 20
-65.5655
 10
257.454
 20
-66.0201
 10
256.895
 20
-66.4262
 10
256.301
 20
-66.7806
 10
255.679
 20
-67.0804
 10
255.032
 20
-67.3231
 10
254.366
 20
-67.5069
 10
253.686
 20
-67.6303
 10
252.998
 20
-67.6922
 10
252.307
 20
-67.6922
  0
LWPOLYLINE
100
AcDbEntity
  8
0
100
AcDbPolyline
 90
38
 70
1
 10
185.03
 20
-64.0715
 10
184.374
 20
-63.8462
 10
183.764
 20
-63.5161
 10
183.217
 20
-63.09
 10
182.747
 20
-62.5797
 10
182.367
 20
-61.999
 10
182.089
 20
-61.3637
 10
181.919
 20
-60.6913
 10
181.861
 20
-60
 10
181.919
 20
-59.3087
 10
182.089
 20
-58.6363
 10
182.367
 20
-58.001
 10
182.747
 20
-57.4203
 10
183.217
 20
-56.91
 10
183.764
 20
-56.4839
 10
184.374
 20
-56.1538
 10
185.03
 20
-55.9285
 10
185.714
 20
-55.8143
 10
186.408
 20
-55.8143
 10
187.092
 20
-55.9285
 10
187.748
 20
-56.1538
 10
188.358
 20
-56.4839
 10
188.906
 20
-56.91
 10
189.376
 20
-57.4203
 10
189.755
 20
-58.001
 10
190.034
 20
-58.6363
 10
190.204
 20
-59.3087
 10
190.261
 20
-60
 10
190.204
 20
-60.6913
 10
190.034
 20
-61.3637
 10
189.755
 20
-61.999
 10
189.376
 20
-62.5797
 10
188.906
 20
-63.09
 10
188.358
 20
-63.5161
 10
187.748
 20
-63.8462
 10
187.092
 20
-64.0715
 10
186.408
 20
-64.1857
 10
185.714
 20
-64.1857
  0
LWPOLYLINE
100
AcDbEntity
  8
0
100
AcDbPolyline
 90
6
 70
1
 10
278.653
 20
-90
 10
123
 20
-90
 10
113
 20
-100
 10
113
 20
-120
 10
123
 20
-130
 10
278.653
 20
-130
  0
LWPOLYLINE
100
AcDbEntity
  8
0
100
AcDbPolyline
 90
90
 70
1
 10
133.39
 20
-125.316
 10
132.326
 20
-125.166
 10
131.274
 20
-124.943
 10
130.241
 20
-124.646
 10
129.231
 20
-124.279
 10
128.249
 20
-123.841
 10
127.3
 20
-123.337
 10
126.388
 20
-122.767
 10
125.519
 20
-122.135
 10
124.695
 20
-121.444
 10
123.922
 20
-120.698
 10
123.203
 20
-119.899
 10
122.541
 20
-119.052
 10
121.94
 20
-118.161
 10
121.403
 20
-117.23
 10
120.931
 20
-116.264
 10
120.529
 20
-115.267
 10
120.197
 20
-114.245
 10
119.937
 20
-113.202
 10
119.75
 20
-112.143
 10
119.638
 20
-111.074
 10
119.6
 20
-110
 10
119.638
 20
-108.926
 10
119.75
 20
-107.857
 10
119.937
 20
-106.798
 10
120.197
 20
-105.755
 10
120.529
 20
-104.733
 10
120.931
 20
-103.736
 10
121.403
 20
-102.77
 10
121.94
 20
-101.839
 10
122.541
 20
-100.948
 10
123.203
 20
-100.101
 10
123.922
 20
-99.3023
 10
124.695
 20
-98.5556
 10
125.519
 20
-97.8646
 10
126.388
 20
-97.2328
 10
127.3
 20
-96.6632
 10
128.249
 20
-96.1586
 10
129.231
 20
-95.7214
 10
130.241
 20
-95.3537
 10
131.274
 20
-95.0574
 10
132.326
 20
-94.834
 10
133.39
 20
-94.6844
 10
134.463
 20
-94.6094
 10
135.537
 20
-94.6094
 10
136.61
 20
-94.6844
 10
137.674
 20
-94.834
 10
138.726
 20
-95.0574
 10
139.759
 20
-95.3537
 10
140.769
 20
-95.7214
 10
141.751
 20
-96.1586
 10
142.7
 20
-96.6632
 10
143.612
 20
-97.2328
 10
144.481
 20
-97.8646
 10
145.305
 20
-98.5556
 10
146.078
 20
-99.3023
 10
146.797
 20
-100.101
 10
147.459
 20
-100.948
 10
148.06
 20
-101.839
 10
148.597
 20
-102.77
 10
149.069
 20
-103.736
 10
149.471
 20
-104.733
 10
149.803
 20
-105.755
 10
150.063
 20
-106.798
 10
150.25
 20
-107.857
 10
150.362
 20
-108.926
 10
150.4
 20
-110
 10
150.362
 20
-111.074
 10
150.25
 20
-112.143
 10
150.063
 20
-113.202
 10
149.803
 20
-114.245
 10
149.471
 20
-115.267
 10
149.069
 20
-116.264
 10
148.597
 20
-117.23
 10
148.06
 20
-118.161
 10
147.459
 20
-119.052
 10
146.797
 20
-119.899
 10
146.078
 20
-120.698
 10
145.305
 20
-121.444
 10
144.481
 20
-122.135
 10
143.612
 20
-122.767
 10
142.7
 20
-123.337
 10
141.751
 20
-123.841
 10
140.769
 20
-124.279
 10
139.759
 20
-124.646
 10
138.726
 20
-124.943
 10
137.674
 20
-125.166
 10
136.61
 20
-125.316
 10
135.537
 20
-125.391
 10
134.463
 20
-125.391
  0
LWPOLYLINE
100
AcDbEntity
  8
0
100
AcDbPolyline
 90
70
 70
1
 10
251.619
 20
-117.63
 10
250.939
 20
-117.507
 10
250.273
 20
-117.323
 10
249.626
 20
-117.08
 10
249.004
 20
-116.781
 10
248.411
 20
-116.426
 10
247.852
 20
-116.02
 10
247.331
 20
-115.566
 10
246.854
 20
-115.066
 10
246.423
 20
-114.526
 10
246.043
 20
-113.949
 10
245.715
 20
-113.341
 10
245.444
 20
-112.706
 10
245.23
 20
-112.048
 10
245.076
 20
-111.375
 10
244.984
 20
-110.69
 10
244.953
 20
-110
 10
244.984
 20
-109.31
 10
245.076
 20
-108.625
 10
245.23
 20
-107.952
 10
245.444
 20
-107.294
 10
245.715
 20
-106.659
 10
246.043
 20
-106.051
 10
246.423
 20
-105.474
 10
246.854
 20
-104.934
 10
247.331
 20
-104.434
 10
247.852
 20
-103.98
 10
248.411
 20
-103.574
 10
249.004
 20
-103.219
 10
249.626
 20
-102.92
 10
250.273
 20
-102.677
 10
250.939
 20
-102.493
 10
251.619
 20
-102.37
 10
252.307
 20
-102.308
 10
252.998
 20
-102.308
 10
253.686
 20
-102.37
 10
254.366
 20
-102.493
 10
255.032
 20
-102.677
 10
255.679
 20
-102.92
 10
256.301
 20
-103.219
 10
256.895
 20
-103.574
 10
257.454
 20
-103.98
 10
257.974
 20
-104.434
 10
258.451
 20
-104.934
 10
258.882
 20
-105.474
 10
259.263
 20
-106.051
 10
259.59
 20
-106.659
 10
259.862
 20
-107.294
 10
260.075
 20
-107.952
 10
260.229
 20
-108.625
 10
260.322
 20
-109.31
 10
260.353
 20
-110
 10
260.322
 20
-110.69
 10
260.229
 20
-111.375
 10
260.075
 20
-112.048
 10
259.862
 20
-112.706
 10
259.59
 20
-113.341
 10
259.263
 20
-113.949
 10
258.882
 20
-114.526
 10
258.451
 20
-115.066
 10
257.974
 20
-115.566
 10
257.454
 20
-116.02
 10
256.895
 20
-116.426
 10
256.301
 20
-116.781
 10
255.679
 20
-117.08
 10
255.032
 20
-117.323
 10
254.366
 20
-117.507
 10
253.686
 20
-117.63
 10
252.998
 20
-117.692
 10
252.307
 20
-117.692
  0
LWPOLYLINE
100
AcDbEntity
  8
0
100
AcDbPolyline
 90
38
 70
1
 10
185.03
 20
-114.071
 10
184.374
 20
-113.846
 10
183.764
 20
-113.516
 10
183.217
 20
-113.09
 10
182.747
 20
-112.58
 10
182.367
 20
-111.999
 10
182.089
 20
-111.364
 10
181.919
 20
-110.691
 10
181.861
 20
-110
 10
181.919
 20
-109.309
 10
182.089
 20
-108.636
 10
182.367
 20
-108.001
 10
182.747
 20
-107.42
 10
183.217
 20
-106.91
 10
183.764
 20
-106.484
 10
184.374
 20
-106.154
 10
185.03
 20
-105.929
 10
185.714
 20
-105.814
 10
186.408
 20
-105.814
 10
187.092
 20
-105.929
 10
187.748
 20
-106.154
 10
188.358
 20
-106.484
 10
188.906
 20
-106.91
 10
189.376
 20
-107.42
 10
189.755
 20
-108.001
 10
190.034
 20
-108.636
 10
190.204
 20
-109.309
 10
190.261
 20
-110
 10
190.204
 20
-110.691
 10
190.034
 20
-111.364
 10
189.755
 20
-111.999
 10
189.376
 20
-112.58
 10
188.906
 20
-113.09
 10
188.358
 20
-113.516
 10
187.748
 20
-113.846
 10
187.092
 20
-114.071
 10
186.408
 20
-114.186
 10
185.714
 20
-114.186
  0
LWPOLYLINE
100
AcDbEntity
  8
0
100
AcDbPolyline
 90
4
 70
1
 10
179
 20
-150
 10
124
 20
-150
 10
124
 20
-190
 10
179
 20
-190
  0
LWPOLYLINE
100
AcDbEntity
  8
0
100
AcDbPolyline
 90
38
 70
1
 10
167.029
 20
-171.632
 10
166.373
 20
-171.407
 10
165.763
 20
-171.077
 10
165.215
 20
-170.651
 10
164.745
 20
-170.141
 10
164.366
 20
-169.56
 10
164.087
 20
-168.925
 10
163.917
 20
-168.252
 10
163.86
 20
-167.561
 10
163.917
 20
-166.87
 10
164.087
 20
-166.197
 10
164.366
 20
-165.562
 10
164.745
 20
-164.981
 10
165.215
 20
-164.471
 10
165.763
 20
-164.045
 10
166.373
 20
-163.715
 10
167.029
 20
-163.489
 10
167.713
 20
-163.375
 10
168.407
 20
-163.375
 10
169.091
 20
-163.489
 10
169.747
 20
-163.715
 10
170.357
 20
-164.045
 10
170.904
 20
-164.471
 10
171.374
 20
-164.981
 10
171.754
 20
-165.562
 10
172.032
 20
-166.197
 10
172.202
 20
-166.87
 10
172.26
 20
-167.561
 10
172.202
 20
-168.252
 10
172.032
 20
-168.925
 10
171.754
 20
-169.56
 10
171.374
 20
-170.141
 10
170.904
 20
-170.651
 10
170.357
 20
-171.077
 10
169.747
 20
-171.407
 10
169.091
 20
-171.632
 10
168.407
 20
-171.747
 10
167.713
 20
-171.747
  0
LWPOLYLINE
100
AcDbEntity
  8
0
100
AcDbPolyline
 90
4
 70
1
 10
241
 20
-150
 10
186
 20
-150
 10
186
 20
-190
 10
241
 20
-190
  0
LWPOLYLINE
100
AcDbEntity
  8
0
100
AcDbPolyline
 90
38
 70
1
 10
229.029
 20
-171.632
 10
228.373
 20
-171.407
 10
227.763
 20
-171.077
 10
227.215
 20
-170.651
 10
226.745
 20
-170.141
 10
226.366
 20
-169.56
 10
226.087
 20
-168.925
 10
225.917
 20
-168.252
 10
225.86
 20
-167.561
 10
225.917
 20
-166.87
 10
226.087
 20
-166.197
 10
226.366
 20
-165.562
 10
226.745
 20
-164.981
 10
227.215
 20
-164.471
 10
227.763
 20
-164.045
 10
228.373
 20
-163.715
 10
229.029
 20
-163.489
 10
229.713
 20
-163.375
 10
230.407
 20
-163.375
 10
231.091
 20
-163.489
 10
231.747
 20
-163.715
 10
232.357
 20
-164.045
 10
232.904
 20
-164.471
 10
233.374
 20
-164.981
 10
233.754
 20
-165.562
 10
234.032
 20
-166.197
 10
234.202
 20
-166.87
 10
234.26
 20
-167.561
 10
234.202
 20
-168.252
 10
234.032
 20
-168.925
 10
233.754
 20
-169.56
 10
233.374
 20
-170.141
 10
232.904
 20
-170.651
 10
232.357
 20
-171.077
 10
231.747
 20
-171.407
 10
231.091
 20
-171.632
 10
230.407
 20
-171.747
 10
229.713
 20
-171.747
  0
LWPOLYLINE
100
AcDbEntity
  8
0
100
AcDbPolyline
 90
4
 70
1
 10
50.8
 20
-215
 10
0
 20
-215
 10
0
 20
-245
 10
50.8
 20
-245
  0
LWPOLYLINE
100
AcDbEntity
  8
0
100
AcDbPolyline
 90
4
 70
1
 10
126.5
 20
-215
 10
60
 20
-215
 10
60
 20
-245
 10
126.5
 20
-245
  0
LWPOLYLINE
100
AcDbEntity
  8
0
100
AcDbPolyline
 90
4
 70
1
 10
176
 20
-227
 10
150
 20
-227
 10
150
 20
-245
 10
176
 20
-245
  0
LWPOLYLINE
100
AcDbEntity
  8
0
100
AcDbPolyline
 90
30
 70
1
 10
161.98
 20
-237.138
 10
161.35
 20
-236.858
 10
160.792
 20
-236.452
 10
160.33
 20
-235.94
 10
159.985
 20
-235.342
 10
159.772
 20
-234.686
 10
159.7
 20
-234
 10
159.772
 20
-233.314
 10
159.985
 20
-232.658
 10
160.33
 20
-232.06
 10
160.792
 20
-231.548
 10
161.35
 20
-231.142
 10
161.98
 20
-230.862
 10
162.655
 20
-230.718
 10
163.345
 20
-230.718
 10
164.02
 20
-230.862
 10
164.65
 20
-231.142
 10
165.208
 20
-231.548
 10
165.67
 20
-232.06
 10
166.015
 20
-232.658
 10
166.228
 20
-233.314
 10
166.3
 20
-234
 10
166.228
 20
-234.686
 10
166.015
 20
-235.342
 10
165.67
 20
-235.94
 10
165.208
 20
-236.452
 10
164.65
 20
-236.858
 10
164.02
 20
-237.138
 10
163.345
 20
-237.282
 10
162.655
 20
-237.282
  0
LWPOLYLINE
100
AcDbEntity
  8
0
100
AcDbPolyline
 90
4
 70
1
 10
208
 20
-227
 10
182
 20
-227
 10
182
 20
-245
 10
208
 20
-245
  0
LWPOLYLINE
100
AcDbEntity
  8
0
100
AcDbPolyline
 90
30
 70
1
 10
193.98
 20
-237.138
 10
193.35
 20
-236.858
 10
192.792
 20
-236.452
 10
192.33
 20
-235.94
 10
191.985
 20
-235.342
 10
191.772
 20
-234.686
 10
191.7
 20
-234
 10
191.772
 20
-233.314
 10
191.985
 20
-232.658
 10
192.33
 20
-232.06
 10
192.792
 20
-231.548
 10
193.35
 20
-231.142
 10
193.98
 20
-230.862
 10
194.655
 20
-230.718
 10
195.345
 20
-230.718
 10
196.02
 20
-230.862
 10
196.65
 20
-231.142
 10
197.208
 20
-231.548
 10
197.67
 20
-232.06
 10
198.015
 20
-232.658
 10
198.228
 20
-233.314
 10
198.3
 20
-234
 10
198.228
 20
-234.686
 10
198.015
 20
-235.342
 10
197.67
 20
-235.94
 10
197.208
 20
-236.452
 10
196.65
 20
-236.858
 10
196.02
 20
-237.138
 10
195.345
 20
-237.282
 10
194.655
 20
-237.282
  0
ENDSEC
  0
EOF
