999
DXF from OpenSCAD
  0
SECTION
  2
HEADER
  9
$ACADVER
  1
AC1006
  9
$INSBASE
 10
0.0
 20
0.0
 30
0.0
  9
$EXTMIN
 10
5
 20
-110
  9
$EXTMAX
 10
265
 20
42.038
  9
$LINMIN
 10
5
 20
-110
  9
$LINMAX
 10
265
 20
42.038
  0
ENDSEC
  0
SECTION
  2
TABLES
  0
TABLE
  2
LTYPE
 70
1
  0
LTYPE
  2
CONTINUOUS
 70
64
  3
Solid line
 72
65
 73
0
 40
0.000000
  0
ENDTAB
  0
TABLE
  2
LAYER
 70
6
  0
LAYER
  2
0
 70
64
 62
7
  6
CONTINUOUS
  0
ENDTAB
  0
TABLE
  2
STYLE
 70
0
  0
ENDTAB
  0
ENDSEC
  0
SECTION
  2
BLOCKS
  0
ENDSEC
  0
SECTION
  2
ENTITIES
  0
LWPOLYLINE
100
AcDbEntity
  8
0
100
AcDbPolyline
 90
59
 70
1
 10
95.6497
 20
34.5219
 10
95.4555
 20
34.7727
 10
95.2784
 20
35.0271
 10
95.1182
 20
35.2852
 10
94.9751
 20
35.5469
 10
94.849
 20
35.8123
 10
94.74
 20
36.0814
 10
94.6466
 20
36.3559
 10
94.5676
 20
36.6377
 10
94.5029
 20
36.9269
 10
94.4526
 20
37.2233
 10
94.4167
 20
37.527
 10
94.3952
 20
37.8381
 10
94.388
 20
38.1565
 10
94.3953
 20
38.476
 10
94.4171
 20
38.7882
 10
94.4534
 20
39.0931
 10
94.5042
 20
39.3907
 10
94.5696
 20
39.681
 10
94.6495
 20
39.964
 10
94.744
 20
40.2397
 10
94.854
 20
40.5095
 10
94.9805
 20
40.7751
 10
95.1235
 20
41.0363
 10
95.2831
 20
41.2932
 10
95.4591
 20
41.5458
 10
95.6518
 20
41.7941
 10
95.8609
 20
42.038
 10
95.1529
 20
42.038
 10
94.9425
 20
41.7998
 10
94.7482
 20
41.5571
 10
94.5701
 20
41.3099
 10
94.4083
 20
41.0582
 10
94.2626
 20
40.802
 10
94.1331
 20
40.5414
 10
94.0198
 20
40.2763
 10
93.9221
 20
40.004
 10
93.8394
 20
39.7219
 10
93.7718
 20
39.43
 10
93.7192
 20
39.1284
 10
93.6816
 20
38.8169
 10
93.6591
 20
38.4956
 10
93.6516
 20
38.1646
 10
93.6516
 20
38.1483
 10
93.659
 20
37.8194
 10
93.6815
 20
37.4998
 10
93.7188
 20
37.1896
 10
93.7711
 20
36.8888
 10
93.8384
 20
36.5974
 10
93.9206
 20
36.3154
 10
94.0177
 20
36.0427
 10
94.1306
 20
35.777
 10
94.2599
 20
35.5156
 10
94.4056
 20
35.2586
 10
94.5678
 20
35.0061
 10
94.7464
 20
34.7579
 10
94.9414
 20
34.5142
 10
95.1529
 20
34.2748
 10
95.8609
 20
34.2748
  0
LWPOLYLINE
100
AcDbEntity
  8
0
100
AcDbPolyline
 90
59
 70
1
 10
105.91
 20
34.5131
 10
106.105
 20
34.7558
 10
106.283
 20
35.003
 10
106.445
 20
35.2546
 10
106.59
 20
35.5108
 10
106.72
 20
35.7715
 10
106.833
 20
36.0366
 10
106.931
 20
36.3089
 10
107.013
 20
36.591
 10
107.081
 20
36.8828
 10
107.134
 20
37.1845
 10
107.171
 20
37.496
 10
107.194
 20
37.8172
 10
107.201
 20
38.1483
 10
107.201
 20
38.1646
 10
107.194
 20
38.4935
 10
107.171
 20
38.8131
 10
107.134
 20
39.1232
 10
107.082
 20
39.424
 10
107.014
 20
39.7155
 10
106.932
 20
39.9975
 10
106.835
 20
40.2701
 10
106.722
 20
40.5359
 10
106.593
 20
40.7973
 10
106.447
 20
41.0542
 10
106.285
 20
41.3068
 10
106.106
 20
41.5549
 10
105.911
 20
41.7987
 10
105.7
 20
42.038
 10
104.992
 20
42.038
 10
105.201
 20
41.7931
 10
105.394
 20
41.5441
 10
105.57
 20
41.2912
 10
105.729
 20
41.0343
 10
105.872
 20
40.7734
 10
105.999
 20
40.5085
 10
106.109
 20
40.2396
 10
106.203
 20
39.9649
 10
106.283
 20
39.6826
 10
106.349
 20
39.3927
 10
106.399
 20
39.0951
 10
106.436
 20
38.7898
 10
106.458
 20
38.477
 10
106.465
 20
38.1565
 10
106.458
 20
37.836
 10
106.436
 20
37.5232
 10
106.4
 20
37.2182
 10
106.349
 20
36.9209
 10
106.284
 20
36.6313
 10
106.205
 20
36.3494
 10
106.111
 20
36.0752
 10
106.001
 20
35.8068
 10
105.875
 20
35.5422
 10
105.732
 20
35.2812
 10
105.572
 20
35.024
 10
105.396
 20
34.7706
 10
105.202
 20
34.5208
 10
104.992
 20
34.2748
 10
105.7
 20
34.2748
  0
LWPOLYLINE
100
AcDbEntity
  8
0
100
AcDbPolyline
 90
125
 70
1
 10
8.5265
 20
35.9238
 10
8.74052
 20
35.9394
 10
8.94997
 20
35.9653
 10
9.15486
 20
36.0017
 10
9.35517
 20
36.0484
 10
9.55092
 20
36.1055
 10
9.7421
 20
36.1729
 10
9.92682
 20
36.2498
 10
10.1032
 20
36.3353
 10
10.2711
 20
36.4294
 10
10.4307
 20
36.532
 10
10.5818
 20
36.6431
 10
10.7246
 20
36.7628
 10
10.859
 20
36.8911
 10
10.859
 20
38.8685
 10
8.42996
 20
38.8685
 10
8.42996
 20
38.2175
 10
10.1429
 20
38.2175
 10
10.1429
 20
37.184
 10
10.0531
 20
37.1028
 10
9.95574
 20
37.0266
 10
9.85082
 20
36.9553
 10
9.73835
 20
36.8891
 10
9.61832
 20
36.8278
 10
9.49073
 20
36.7715
 10
9.35558
 20
36.7202
 10
9.21513
 20
36.6748
 10
9.07162
 20
36.6365
 10
8.92502
 20
36.6051
 10
8.77536
 20
36.5807
 10
8.62262
 20
36.5632
 10
8.46681
 20
36.5528
 10
8.30792
 20
36.5493
 10
8.03531
 20
36.5621
 10
7.78013
 20
36.6006
 10
7.54239
 20
36.6648
 10
7.32209
 20
36.7546
 10
7.11922
 20
36.87
 10
6.93379
 20
37.0111
 10
6.7658
 20
37.1779
 10
6.61792
 20
37.3669
 10
6.49279
 20
37.5745
 10
6.39041
 20
37.8008
 10
6.31078
 20
38.0458
 10
6.2539
 20
38.3095
 10
6.21978
 20
38.5919
 10
6.2084
 20
38.8929
 10
6.21911
 20
39.1944
 10
6.25125
 20
39.476
 10
6.30481
 20
39.7375
 10
6.37979
 20
39.979
 10
6.4762
 20
40.2005
 10
6.59403
 20
40.4019
 10
6.73328
 20
40.5834
 10
6.89279
 20
40.7426
 10
7.07141
 20
40.8774
 10
7.26911
 20
40.9876
 10
7.48592
 20
41.0733
 10
7.72182
 20
41.1346
 10
7.97682
 20
41.1713
 10
8.25092
 20
41.1836
 10
8.42916
 20
41.179
 10
8.59885
 20
41.1653
 10
8.75999
 20
41.1425
 10
8.91257
 20
41.1105
 10
9.05659
 20
41.0694
 10
9.19206
 20
41.0192
 10
9.31898
 20
40.9598
 10
9.43784
 20
40.8905
 10
9.54915
 20
40.8103
 10
9.6529
 20
40.7194
 10
9.7491
 20
40.6177
 10
9.83774
 20
40.5052
 10
9.91883
 20
40.3819
 10
9.99236
 20
40.2478
 10
10.7329
 20
40.4675
 10
10.6355
 20
40.6619
 10
10.527
 20
40.8405
 10
10.4073
 20
41.0033
 10
10.2765
 20
41.1504
 10
10.1346
 20
41.2817
 10
9.98157
 20
41.3972
 10
9.8174
 20
41.4969
 10
9.64036
 20
41.5822
 10
9.44871
 20
41.6543
 10
9.24245
 20
41.7134
 10
9.02157
 20
41.7593
 10
8.78608
 20
41.7921
 10
8.53598
 20
41.8118
 10
8.27126
 20
41.8183
 10
7.89653
 20
41.8027
 10
7.54654
 20
41.7559
 10
7.22129
 20
41.6778
 10
6.92078
 20
41.5685
 10
6.64502
 20
41.428
 10
6.394
 20
41.2563
 10
6.16772
 20
41.0534
 10
5.96911
 20
40.822
 10
5.80105
 20
40.5648
 10
5.66355
 20
40.2819
 10
5.5566
 20
39.9733
 10
5.48021
 20
39.6389
 10
5.43438
 20
39.2788
 10
5.4191
 20
38.8929
 10
5.42612
 20
38.6374
 10
5.44717
 20
38.3915
 10
5.48225
 20
38.1554
 10
5.53136
 20
37.929
 10
5.59451
 20
37.7123
 10
5.67169
 20
37.5054
 10
5.7629
 20
37.3081
 10
5.8674
 20
37.1222
 10
5.98443
 20
36.9491
 10
6.11401
 20
36.7888
 10
6.25612
 20
36.6415
 10
6.41078
 20
36.507
 10
6.57797
 20
36.3854
 10
6.7577
 20
36.2767
 10
6.94877
 20
36.1817
 10
7.14996
 20
36.1013
 10
7.36129
 20
36.0355
 10
7.58275
 20
35.9844
 10
7.81434
 20
35.9479
 10
8.05607
 20
35.9259
 10
8.30792
 20
35.9186
  0
LWPOLYLINE
100
AcDbEntity
  8
0
100
AcDbPolyline
 90
125
 70
1
 10
76.9063
 20
35.9238
 10
77.1203
 20
35.9394
 10
77.3298
 20
35.9653
 10
77.5346
 20
36.0017
 10
77.735
 20
36.0484
 10
77.9307
 20
36.1055
 10
78.1219
 20
36.1729
 10
78.3066
 20
36.2498
 10
78.4829
 20
36.3353
 10
78.6509
 20
36.4294
 10
78.8104
 20
36.532
 10
78.9616
 20
36.6431
 10
79.1044
 20
36.7628
 10
79.2388
 20
36.8911
 10
79.2388
 20
38.8685
 10
76.8097
 20
38.8685
 10
76.8097
 20
38.2175
 10
78.5227
 20
38.2175
 10
78.5227
 20
37.184
 10
78.4329
 20
37.1028
 10
78.3355
 20
37.0266
 10
78.2306
 20
36.9553
 10
78.1181
 20
36.8891
 10
77.9981
 20
36.8278
 10
77.8705
 20
36.7715
 10
77.7354
 20
36.7202
 10
77.5949
 20
36.6748
 10
77.4514
 20
36.6365
 10
77.3048
 20
36.6051
 10
77.1551
 20
36.5807
 10
77.0024
 20
36.5632
 10
76.8466
 20
36.5528
 10
76.6877
 20
36.5493
 10
76.4151
 20
36.5621
 10
76.1599
 20
36.6006
 10
75.9222
 20
36.6648
 10
75.7019
 20
36.7546
 10
75.499
 20
36.87
 10
75.3136
 20
37.0111
 10
75.1456
 20
37.1779
 10
74.9977
 20
37.3669
 10
74.8726
 20
37.5745
 10
74.7702
 20
37.8008
 10
74.6906
 20
38.0458
 10
74.6337
 20
38.3095
 10
74.5996
 20
38.5919
 10
74.5882
 20
38.8929
 10
74.5989
 20
39.1944
 10
74.631
 20
39.476
 10
74.6846
 20
39.7375
 10
74.7596
 20
39.979
 10
74.856
 20
40.2005
 10
74.9738
 20
40.4019
 10
75.1131
 20
40.5834
 10
75.2726
 20
40.7426
 10
75.4512
 20
40.8774
 10
75.6489
 20
40.9876
 10
75.8657
 20
41.0733
 10
76.1016
 20
41.1346
 10
76.3566
 20
41.1713
 10
76.6307
 20
41.1836
 10
76.8089
 20
41.179
 10
76.9786
 20
41.1653
 10
77.1398
 20
41.1425
 10
77.2923
 20
41.1105
 10
77.4364
 20
41.0694
 10
77.5718
 20
41.0192
 10
77.6988
 20
40.9598
 10
77.8176
 20
40.8905
 10
77.9289
 20
40.8103
 10
78.0327
 20
40.7194
 10
78.1289
 20
40.6177
 10
78.2175
 20
40.5052
 10
78.2986
 20
40.3819
 10
78.3721
 20
40.2478
 10
79.1127
 20
40.4675
 10
79.0153
 20
40.6619
 10
78.9067
 20
40.8405
 10
78.7871
 20
41.0033
 10
78.6563
 20
41.1504
 10
78.5144
 20
41.2817
 10
78.3613
 20
41.3972
 10
78.1972
 20
41.4969
 10
78.0201
 20
41.5822
 10
77.8285
 20
41.6543
 10
77.6222
 20
41.7134
 10
77.4013
 20
41.7593
 10
77.1659
 20
41.7921
 10
76.9158
 20
41.8118
 10
76.651
 20
41.8183
 10
76.2763
 20
41.8027
 10
75.9263
 20
41.7559
 10
75.6011
 20
41.6778
 10
75.3006
 20
41.5685
 10
75.0248
 20
41.428
 10
74.7738
 20
41.2563
 10
74.5475
 20
41.0534
 10
74.3489
 20
40.822
 10
74.1808
 20
40.5648
 10
74.0433
 20
40.2819
 10
73.9364
 20
39.9733
 10
73.86
 20
39.6389
 10
73.8142
 20
39.2788
 10
73.7989
 20
38.8929
 10
73.8059
 20
38.6374
 10
73.8269
 20
38.3915
 10
73.862
 20
38.1554
 10
73.9111
 20
37.929
 10
73.9743
 20
37.7123
 10
74.0515
 20
37.5054
 10
74.1427
 20
37.3081
 10
74.2472
 20
37.1222
 10
74.3642
 20
36.9491
 10
74.4938
 20
36.7888
 10
74.6359
 20
36.6415
 10
74.7906
 20
36.507
 10
74.9577
 20
36.3854
 10
75.1375
 20
36.2767
 10
75.3285
 20
36.1817
 10
75.5297
 20
36.1013
 10
75.7411
 20
36.0355
 10
75.9625
 20
35.9844
 10
76.1941
 20
35.9479
 10
76.4358
 20
35.9259
 10
76.6877
 20
35.9186
  0
LWPOLYLINE
100
AcDbEntity
  8
0
100
AcDbPolyline
 90
226
 70
1
 10
143.711
 20
35.9275
 10
144.002
 20
35.9542
 10
144.272
 20
35.9986
 10
144.522
 20
36.0608
 10
144.751
 20
36.1408
 10
144.959
 20
36.2385
 10
145.147
 20
36.354
 10
145.311
 20
36.4857
 10
145.451
 20
36.632
 10
145.565
 20
36.7929
 10
145.653
 20
36.9685
 10
145.717
 20
37.1586
 10
145.755
 20
37.3634
 10
145.767
 20
37.5827
 10
145.765
 20
37.6706
 10
145.76
 20
37.7551
 10
145.751
 20
37.8363
 10
145.739
 20
37.9142
 10
145.723
 20
37.9888
 10
145.703
 20
38.06
 10
145.68
 20
38.128
 10
145.653
 20
38.193
 10
145.624
 20
38.2555
 10
145.592
 20
38.3155
 10
145.558
 20
38.3731
 10
145.521
 20
38.4281
 10
145.48
 20
38.4807
 10
145.438
 20
38.5307
 10
145.392
 20
38.5785
 10
145.345
 20
38.6241
 10
145.295
 20
38.6675
 10
145.243
 20
38.7088
 10
145.189
 20
38.7479
 10
145.132
 20
38.7849
 10
145.073
 20
38.8196
 10
145.013
 20
38.8527
 10
144.951
 20
38.8846
 10
144.888
 20
38.9152
 10
144.824
 20
38.9445
 10
144.759
 20
38.9727
 10
144.692
 20
38.9995
 10
144.624
 20
39.0251
 10
144.555
 20
39.0496
 10
144.485
 20
39.0731
 10
144.414
 20
39.0956
 10
144.342
 20
39.1171
 10
144.27
 20
39.1377
 10
144.196
 20
39.1572
 10
144.121
 20
39.1757
 10
144.046
 20
39.1937
 10
143.971
 20
39.2115
 10
143.896
 20
39.2294
 10
143.821
 20
39.2471
 10
143.745
 20
39.2647
 10
143.67
 20
39.2823
 10
143.595
 20
39.2998
 10
143.38
 20
39.3486
 10
143.186
 20
39.3953
 10
143.014
 20
39.4396
 10
142.864
 20
39.4818
 10
142.735
 20
39.5217
 10
142.627
 20
39.5593
 10
142.541
 20
39.5947
 10
142.468
 20
39.6301
 10
142.4
 20
39.6676
 10
142.337
 20
39.7073
 10
142.279
 20
39.7492
 10
142.226
 20
39.7932
 10
142.178
 20
39.8394
 10
142.136
 20
39.8877
 10
142.099
 20
39.939
 10
142.067
 20
39.994
 10
142.041
 20
40.0527
 10
142.021
 20
40.1152
 10
142.007
 20
40.1814
 10
141.998
 20
40.2514
 10
141.995
 20
40.3251
 10
142.003
 20
40.4496
 10
142.025
 20
40.5649
 10
142.062
 20
40.6711
 10
142.114
 20
40.7682
 10
142.18
 20
40.8561
 10
142.262
 20
40.9349
 10
142.358
 20
41.0045
 10
142.468
 20
41.065
 10
142.591
 20
41.1162
 10
142.728
 20
41.158
 10
142.878
 20
41.1906
 10
143.041
 20
41.2138
 10
143.218
 20
41.2278
 10
143.407
 20
41.2324
 10
143.581
 20
41.2282
 10
143.743
 20
41.2156
 10
143.894
 20
41.1947
 10
144.034
 20
41.1653
 10
144.163
 20
41.1276
 10
144.281
 20
41.0814
 10
144.388
 20
41.0269
 10
144.484
 20
40.9631
 10
144.572
 20
40.8891
 10
144.649
 20
40.8049
 10
144.718
 20
40.7104
 10
144.777
 20
40.6058
 10
144.827
 20
40.4909
 10
144.868
 20
40.3658
 10
145.633
 20
40.5001
 10
145.567
 20
40.6972
 10
145.489
 20
40.8772
 10
145.398
 20
41.04
 10
145.295
 20
41.1856
 10
145.179
 20
41.314
 10
145.05
 20
41.4252
 10
144.909
 20
41.5192
 10
144.752
 20
41.5986
 10
144.576
 20
41.6657
 10
144.381
 20
41.7207
 10
144.168
 20
41.7634
 10
143.936
 20
41.7939
 10
143.685
 20
41.8122
 10
143.416
 20
41.8183
 10
143.125
 20
41.8102
 10
142.855
 20
41.7858
 10
142.605
 20
41.7451
 10
142.375
 20
41.6881
 10
142.164
 20
41.6149
 10
141.973
 20
41.5254
 10
141.802
 20
41.4196
 10
141.653
 20
41.2988
 10
141.526
 20
41.1642
 10
141.423
 20
41.0158
 10
141.342
 20
40.8536
 10
141.285
 20
40.6777
 10
141.25
 20
40.4879
 10
141.239
 20
40.2844
 10
141.241
 20
40.1941
 10
141.248
 20
40.1067
 10
141.259
 20
40.0223
 10
141.274
 20
39.9409
 10
141.294
 20
39.8625
 10
141.318
 20
39.7871
 10
141.347
 20
39.7147
 10
141.379
 20
39.6451
 10
141.416
 20
39.5781
 10
141.457
 20
39.5136
 10
141.501
 20
39.4517
 10
141.549
 20
39.3923
 10
141.602
 20
39.3356
 10
141.658
 20
39.2814
 10
141.719
 20
39.2292
 10
141.786
 20
39.1784
 10
141.859
 20
39.1291
 10
141.939
 20
39.0811
 10
142.024
 20
39.0346
 10
142.116
 20
38.9895
 10
142.213
 20
38.9458
 10
142.32
 20
38.9027
 10
142.441
 20
38.8597
 10
142.575
 20
38.8167
 10
142.722
 20
38.7737
 10
142.883
 20
38.7307
 10
143.057
 20
38.6877
 10
143.245
 20
38.6447
 10
143.355
 20
38.6194
 10
143.462
 20
38.5945
 10
143.567
 20
38.5702
 10
143.668
 20
38.5463
 10
143.767
 20
38.523
 10
143.863
 20
38.5002
 10
143.957
 20
38.4778
 10
144.047
 20
38.455
 10
144.133
 20
38.4307
 10
144.216
 20
38.4048
 10
144.295
 20
38.3775
 10
144.37
 20
38.3487
 10
144.442
 20
38.3184
 10
144.51
 20
38.2866
 10
144.574
 20
38.2528
 10
144.634
 20
38.2165
 10
144.69
 20
38.1778
 10
144.741
 20
38.1365
 10
144.788
 20
38.0928
 10
144.831
 20
38.0465
 10
144.87
 20
37.9978
 10
144.904
 20
37.9456
 10
144.933
 20
37.8891
 10
144.956
 20
37.8284
 10
144.975
 20
37.7633
 10
144.988
 20
37.6938
 10
144.996
 20
37.6201
 10
144.998
 20
37.5421
 10
144.99
 20
37.404
 10
144.965
 20
37.2758
 10
144.923
 20
37.1576
 10
144.865
 20
37.0492
 10
144.79
 20
36.9506
 10
144.698
 20
36.862
 10
144.589
 20
36.7832
 10
144.465
 20
36.7147
 10
144.328
 20
36.6567
 10
144.176
 20
36.6092
 10
144.01
 20
36.5723
 10
143.83
 20
36.546
 10
143.636
 20
36.5302
 10
143.428
 20
36.5249
 10
143.226
 20
36.5298
 10
143.036
 20
36.5446
 10
142.859
 20
36.5693
 10
142.695
 20
36.6039
 10
142.543
 20
36.6484
 10
142.403
 20
36.7027
 10
142.276
 20
36.767
 10
142.161
 20
36.8418
 10
142.058
 20
36.9277
 10
141.967
 20
37.0249
 10
141.888
 20
37.1333
 10
141.821
 20
37.2529
 10
141.766
 20
37.3838
 10
141.723
 20
37.5258
 10
140.97
 20
37.3753
 10
141.101
 20
36.9888
 10
141.305
 20
36.6618
 10
141.58
 20
36.3943
 10
141.927
 20
36.1862
 10
142.346
 20
36.0375
 10
142.836
 20
35.9484
 10
143.399
 20
35.9186
  0
LWPOLYLINE
100
AcDbEntity
  8
0
100
AcDbPolyline
 90
77
 70
1
 10
155.648
 20
35.926
 10
155.884
 20
35.9482
 10
156.11
 20
35.9851
 10
156.327
 20
36.0369
 10
156.534
 20
36.1034
 10
156.732
 20
36.1847
 10
156.92
 20
36.2807
 10
157.098
 20
36.3906
 10
157.263
 20
36.5132
 10
157.417
 20
36.6487
 10
157.557
 20
36.7969
 10
157.686
 20
36.9579
 10
157.803
 20
37.1317
 10
157.907
 20
37.3183
 10
157.998
 20
37.5158
 10
158.075
 20
37.7225
 10
158.139
 20
37.9383
 10
158.188
 20
38.1632
 10
158.223
 20
38.3973
 10
158.244
 20
38.6405
 10
158.251
 20
38.8929
 10
158.244
 20
39.1461
 10
158.223
 20
39.3894
 10
158.189
 20
39.623
 10
158.14
 20
39.8468
 10
158.078
 20
40.0608
 10
158.001
 20
40.2649
 10
157.911
 20
40.4593
 10
157.808
 20
40.6424
 10
157.692
 20
40.8126
 10
157.564
 20
40.9699
 10
157.424
 20
41.1143
 10
157.271
 20
41.2459
 10
157.106
 20
41.3646
 10
156.929
 20
41.4704
 10
156.74
 20
41.5627
 10
156.542
 20
41.6408
 10
156.335
 20
41.7047
 10
156.118
 20
41.7544
 10
155.892
 20
41.7899
 10
155.656
 20
41.8112
 10
155.411
 20
41.8183
 10
155.039
 20
41.8025
 10
154.692
 20
41.755
 10
154.368
 20
41.6759
 10
154.069
 20
41.5652
 10
153.794
 20
41.4228
 10
153.543
 20
41.2488
 10
153.315
 20
41.0432
 10
153.116
 20
40.8095
 10
152.947
 20
40.5513
 10
152.809
 20
40.2686
 10
152.701
 20
39.9614
 10
152.624
 20
39.6297
 10
152.578
 20
39.2736
 10
152.563
 20
38.8929
 10
152.57
 20
38.6394
 10
152.59
 20
38.3952
 10
152.625
 20
38.1601
 10
152.673
 20
37.9343
 10
152.735
 20
37.7177
 10
152.811
 20
37.5103
 10
152.9
 20
37.3121
 10
153.003
 20
37.1251
 10
153.118
 20
36.9511
 10
153.246
 20
36.7902
 10
153.385
 20
36.6422
 10
153.538
 20
36.5073
 10
153.702
 20
36.3855
 10
153.879
 20
36.2767
 10
154.067
 20
36.1817
 10
154.265
 20
36.1013
 10
154.473
 20
36.0355
 10
154.69
 20
35.9844
 10
154.918
 20
35.9479
 10
155.155
 20
35.9259
 10
155.403
 20
35.9186
  0
LWPOLYLINE
100
AcDbEntity
  8
0
100
AcDbPolyline
 90
56
 70
1
 10
155.136
 20
36.5622
 10
154.886
 20
36.6009
 10
154.654
 20
36.6655
 10
154.438
 20
36.7559
 10
154.24
 20
36.8721
 10
154.059
 20
37.0141
 10
153.895
 20
37.1819
 10
153.751
 20
37.3718
 10
153.629
 20
37.5799
 10
153.529
 20
37.8061
 10
153.452
 20
38.0505
 10
153.396
 20
38.3131
 10
153.363
 20
38.5939
 10
153.352
 20
38.8929
 10
153.363
 20
39.1934
 10
153.396
 20
39.4742
 10
153.451
 20
39.7351
 10
153.527
 20
39.9763
 10
153.626
 20
40.1978
 10
153.747
 20
40.3995
 10
153.889
 20
40.5814
 10
154.052
 20
40.7412
 10
154.233
 20
40.8764
 10
154.432
 20
40.987
 10
154.649
 20
41.073
 10
154.885
 20
41.1344
 10
155.139
 20
41.1713
 10
155.411
 20
41.1836
 10
155.681
 20
41.1711
 10
155.933
 20
41.1338
 10
156.167
 20
41.0715
 10
156.383
 20
40.9843
 10
156.581
 20
40.8722
 10
156.761
 20
40.7352
 10
156.922
 20
40.5733
 10
157.064
 20
40.3895
 10
157.185
 20
40.187
 10
157.283
 20
39.9657
 10
157.359
 20
39.7256
 10
157.414
 20
39.4668
 10
157.447
 20
39.1892
 10
157.457
 20
38.8929
 10
157.447
 20
38.5835
 10
157.414
 20
38.2949
 10
157.36
 20
38.0269
 10
157.284
 20
37.7795
 10
157.187
 20
37.5529
 10
157.067
 20
37.3469
 10
156.926
 20
37.1616
 10
156.765
 20
36.9992
 10
156.585
 20
36.8617
 10
156.387
 20
36.7492
 10
156.169
 20
36.6618
 10
155.932
 20
36.5993
 10
155.677
 20
36.5618
 10
155.403
 20
36.5493
  0
LWPOLYLINE
100
AcDbEntity
  8
0
100
AcDbPolyline
 90
114
 70
1
 10
162.106
 20
35.9265
 10
162.335
 20
35.9502
 10
162.556
 20
35.9896
 10
162.769
 20
36.0449
 10
162.973
 20
36.1158
 10
163.168
 20
36.2026
 10
163.356
 20
36.3052
 10
163.533
 20
36.4228
 10
163.698
 20
36.5549
 10
163.852
 20
36.7015
 10
163.994
 20
36.8625
 10
164.125
 20
37.0379
 10
164.243
 20
37.2278
 10
164.35
 20
37.4322
 10
163.716
 20
37.7495
 10
163.53
 20
37.4333
 10
163.32
 20
37.1656
 10
163.086
 20
36.9467
 10
162.828
 20
36.7764
 10
162.544
 20
36.6547
 10
162.237
 20
36.5817
 10
161.905
 20
36.5574
 10
161.644
 20
36.5705
 10
161.4
 20
36.6097
 10
161.171
 20
36.6751
 10
160.958
 20
36.7666
 10
160.761
 20
36.8843
 10
160.579
 20
37.0282
 10
160.414
 20
37.1982
 10
160.268
 20
37.3897
 10
160.144
 20
37.5981
 10
160.043
 20
37.8234
 10
159.964
 20
38.0655
 10
159.908
 20
38.3244
 10
159.874
 20
38.6002
 10
159.863
 20
38.8929
 10
159.873
 20
39.1882
 10
159.906
 20
39.465
 10
159.96
 20
39.7233
 10
160.035
 20
39.9631
 10
160.132
 20
40.1843
 10
160.251
 20
40.387
 10
160.391
 20
40.5712
 10
160.551
 20
40.7337
 10
160.728
 20
40.8712
 10
160.923
 20
40.9836
 10
161.134
 20
41.0711
 10
161.363
 20
41.1336
 10
161.609
 20
41.1711
 10
161.873
 20
41.1836
 10
162.042
 20
41.1782
 10
162.205
 20
41.162
 10
162.362
 20
41.135
 10
162.512
 20
41.0972
 10
162.654
 20
41.0486
 10
162.791
 20
40.9893
 10
162.92
 20
40.9191
 10
163.041
 20
40.8387
 10
163.153
 20
40.7487
 10
163.254
 20
40.6491
 10
163.346
 20
40.5398
 10
163.427
 20
40.4209
 10
163.499
 20
40.2924
 10
163.561
 20
40.1542
 10
164.297
 20
40.3983
 10
164.208
 20
40.5924
 10
164.106
 20
40.7723
 10
163.99
 20
40.9381
 10
163.861
 20
41.0898
 10
163.719
 20
41.2274
 10
163.563
 20
41.3509
 10
163.394
 20
41.4602
 10
163.213
 20
41.5552
 10
163.019
 20
41.6356
 10
162.812
 20
41.7014
 10
162.594
 20
41.7526
 10
162.363
 20
41.7891
 10
162.12
 20
41.811
 10
161.864
 20
41.8183
 10
161.502
 20
41.8025
 10
161.162
 20
41.7549
 10
160.846
 20
41.6756
 10
160.553
 20
41.5646
 10
160.283
 20
41.4218
 10
160.037
 20
41.2474
 10
159.814
 20
41.0412
 10
159.617
 20
40.807
 10
159.451
 20
40.5486
 10
159.315
 20
40.266
 10
159.209
 20
39.9591
 10
159.134
 20
39.6279
 10
159.088
 20
39.2725
 10
159.073
 20
38.8929
 10
159.08
 20
38.6364
 10
159.1
 20
38.3899
 10
159.134
 20
38.1534
 10
159.181
 20
37.927
 10
159.242
 20
37.7107
 10
159.317
 20
37.5044
 10
159.405
 20
37.3081
 10
159.506
 20
37.1232
 10
159.619
 20
36.9509
 10
159.744
 20
36.7912
 10
159.882
 20
36.6442
 10
160.032
 20
36.5097
 10
160.194
 20
36.3879
 10
160.369
 20
36.2787
 10
160.555
 20
36.1832
 10
160.75
 20
36.1023
 10
160.954
 20
36.0362
 10
161.169
 20
35.9848
 10
161.392
 20
35.948
 10
161.626
 20
35.926
 10
161.868
 20
35.9186
  0
LWPOLYLINE
100
AcDbEntity
  8
0
100
AcDbPolyline
 90
77
 70
1
 10
206.12
 20
35.926
 10
206.356
 20
35.9482
 10
206.582
 20
35.9851
 10
206.799
 20
36.0369
 10
207.006
 20
36.1034
 10
207.204
 20
36.1847
 10
207.392
 20
36.2807
 10
207.57
 20
36.3906
 10
207.735
 20
36.5132
 10
207.889
 20
36.6487
 10
208.03
 20
36.7969
 10
208.158
 20
36.9579
 10
208.275
 20
37.1317
 10
208.379
 20
37.3183
 10
208.47
 20
37.5158
 10
208.548
 20
37.7225
 10
208.611
 20
37.9383
 10
208.66
 20
38.1632
 10
208.695
 20
38.3973
 10
208.716
 20
38.6405
 10
208.723
 20
38.8929
 10
208.716
 20
39.1461
 10
208.695
 20
39.3894
 10
208.661
 20
39.623
 10
208.612
 20
39.8468
 10
208.55
 20
40.0608
 10
208.473
 20
40.2649
 10
208.383
 20
40.4593
 10
208.28
 20
40.6424
 10
208.164
 20
40.8126
 10
208.036
 20
40.9699
 10
207.896
 20
41.1143
 10
207.743
 20
41.2459
 10
207.578
 20
41.3646
 10
207.401
 20
41.4704
 10
207.212
 20
41.5627
 10
207.014
 20
41.6408
 10
206.807
 20
41.7047
 10
206.59
 20
41.7544
 10
206.364
 20
41.7899
 10
206.128
 20
41.8112
 10
205.883
 20
41.8183
 10
205.511
 20
41.8025
 10
205.164
 20
41.755
 10
204.84
 20
41.6759
 10
204.541
 20
41.5652
 10
204.266
 20
41.4228
 10
204.015
 20
41.2488
 10
203.788
 20
41.0432
 10
203.588
 20
40.8095
 10
203.419
 20
40.5513
 10
203.281
 20
40.2686
 10
203.173
 20
39.9614
 10
203.096
 20
39.6297
 10
203.05
 20
39.2736
 10
203.035
 20
38.8929
 10
203.042
 20
38.6394
 10
203.062
 20
38.3952
 10
203.097
 20
38.1601
 10
203.145
 20
37.9343
 10
203.207
 20
37.7177
 10
203.283
 20
37.5103
 10
203.373
 20
37.3121
 10
203.475
 20
37.1251
 10
203.59
 20
36.9511
 10
203.718
 20
36.7902
 10
203.857
 20
36.6422
 10
204.01
 20
36.5073
 10
204.174
 20
36.3855
 10
204.351
 20
36.2767
 10
204.539
 20
36.1817
 10
204.737
 20
36.1013
 10
204.945
 20
36.0355
 10
205.163
 20
35.9844
 10
205.39
 20
35.9479
 10
205.628
 20
35.9259
 10
205.875
 20
35.9186
  0
LWPOLYLINE
100
AcDbEntity
  8
0
100
AcDbPolyline
 90
56
 70
1
 10
205.608
 20
36.5622
 10
205.358
 20
36.6009
 10
205.126
 20
36.6655
 10
204.91
 20
36.7559
 10
204.712
 20
36.8721
 10
204.531
 20
37.0141
 10
204.367
 20
37.1819
 10
204.223
 20
37.3718
 10
204.101
 20
37.5799
 10
204.002
 20
37.8061
 10
203.924
 20
38.0505
 10
203.869
 20
38.3131
 10
203.835
 20
38.5939
 10
203.824
 20
38.8929
 10
203.835
 20
39.1934
 10
203.868
 20
39.4742
 10
203.923
 20
39.7351
 10
204
 20
39.9763
 10
204.098
 20
40.1978
 10
204.219
 20
40.3995
 10
204.361
 20
40.5814
 10
204.524
 20
40.7412
 10
204.705
 20
40.8764
 10
204.904
 20
40.987
 10
205.121
 20
41.073
 10
205.357
 20
41.1344
 10
205.611
 20
41.1713
 10
205.883
 20
41.1836
 10
206.153
 20
41.1711
 10
206.405
 20
41.1338
 10
206.639
 20
41.0715
 10
206.855
 20
40.9843
 10
207.053
 20
40.8722
 10
207.233
 20
40.7352
 10
207.395
 20
40.5733
 10
207.536
 20
40.3895
 10
207.657
 20
40.187
 10
207.755
 20
39.9657
 10
207.831
 20
39.7256
 10
207.886
 20
39.4668
 10
207.919
 20
39.1892
 10
207.93
 20
38.8929
 10
207.919
 20
38.5835
 10
207.886
 20
38.2949
 10
207.832
 20
38.0269
 10
207.756
 20
37.7795
 10
207.659
 20
37.5529
 10
207.539
 20
37.3469
 10
207.399
 20
37.1616
 10
207.237
 20
36.9992
 10
207.057
 20
36.8617
 10
206.859
 20
36.7492
 10
206.641
 20
36.6618
 10
206.404
 20
36.5993
 10
206.149
 20
36.5618
 10
205.875
 20
36.5493
  0
LWPOLYLINE
100
AcDbEntity
  8
0
100
AcDbPolyline
 90
114
 70
1
 10
214.893
 20
35.9265
 10
215.123
 20
35.9502
 10
215.343
 20
35.9896
 10
215.556
 20
36.0449
 10
215.76
 20
36.1158
 10
215.956
 20
36.2026
 10
216.143
 20
36.3052
 10
216.32
 20
36.4228
 10
216.486
 20
36.5549
 10
216.639
 20
36.7015
 10
216.782
 20
36.8625
 10
216.912
 20
37.0379
 10
217.031
 20
37.2278
 10
217.138
 20
37.4322
 10
216.503
 20
37.7495
 10
216.318
 20
37.4333
 10
216.108
 20
37.1656
 10
215.874
 20
36.9467
 10
215.615
 20
36.7764
 10
215.332
 20
36.6547
 10
215.024
 20
36.5817
 10
214.692
 20
36.5574
 10
214.432
 20
36.5705
 10
214.187
 20
36.6097
 10
213.958
 20
36.6751
 10
213.745
 20
36.7666
 10
213.548
 20
36.8843
 10
213.367
 20
37.0282
 10
213.201
 20
37.1982
 10
213.055
 20
37.3897
 10
212.931
 20
37.5981
 10
212.83
 20
37.8234
 10
212.751
 20
38.0655
 10
212.695
 20
38.3244
 10
212.661
 20
38.6002
 10
212.65
 20
38.8929
 10
212.661
 20
39.1882
 10
212.693
 20
39.465
 10
212.747
 20
39.7233
 10
212.823
 20
39.9631
 10
212.92
 20
40.1843
 10
213.038
 20
40.387
 10
213.179
 20
40.5712
 10
213.339
 20
40.7337
 10
213.516
 20
40.8712
 10
213.71
 20
40.9836
 10
213.921
 20
41.0711
 10
214.15
 20
41.1336
 10
214.396
 20
41.1711
 10
214.66
 20
41.1836
 10
214.83
 20
41.1782
 10
214.993
 20
41.162
 10
215.149
 20
41.135
 10
215.299
 20
41.0972
 10
215.442
 20
41.0486
 10
215.578
 20
40.9893
 10
215.708
 20
40.9191
 10
215.829
 20
40.8387
 10
215.94
 20
40.7487
 10
216.041
 20
40.6491
 10
216.133
 20
40.5398
 10
216.215
 20
40.4209
 10
216.286
 20
40.2924
 10
216.348
 20
40.1542
 10
217.085
 20
40.3983
 10
216.996
 20
40.5924
 10
216.893
 20
40.7723
 10
216.777
 20
40.9381
 10
216.648
 20
41.0898
 10
216.506
 20
41.2274
 10
216.35
 20
41.3509
 10
216.182
 20
41.4602
 10
216
 20
41.5552
 10
215.806
 20
41.6356
 10
215.6
 20
41.7014
 10
215.381
 20
41.7526
 10
215.15
 20
41.7891
 10
214.907
 20
41.811
 10
214.652
 20
41.8183
 10
214.289
 20
41.8025
 10
213.95
 20
41.7549
 10
213.633
 20
41.6756
 10
213.34
 20
41.5646
 10
213.071
 20
41.4218
 10
212.824
 20
41.2474
 10
212.601
 20
41.0412
 10
212.405
 20
40.807
 10
212.238
 20
40.5486
 10
212.102
 20
40.266
 10
211.997
 20
39.9591
 10
211.921
 20
39.6279
 10
211.876
 20
39.2725
 10
211.861
 20
38.8929
 10
211.867
 20
38.6364
 10
211.888
 20
38.3899
 10
211.921
 20
38.1534
 10
211.969
 20
37.927
 10
212.03
 20
37.7107
 10
212.104
 20
37.5044
 10
212.192
 20
37.3081
 10
212.293
 20
37.1232
 10
212.406
 20
36.9509
 10
212.532
 20
36.7912
 10
212.669
 20
36.6442
 10
212.819
 20
36.5097
 10
212.982
 20
36.3879
 10
213.156
 20
36.2787
 10
213.342
 20
36.1832
 10
213.537
 20
36.1023
 10
213.742
 20
36.0362
 10
213.956
 20
35.9848
 10
214.18
 20
35.948
 10
214.413
 20
35.926
 10
214.656
 20
35.9186
  0
LWPOLYLINE
100
AcDbEntity
  8
0
100
AcDbPolyline
 90
36
 70
1
 10
12.9426
 20
38.3802
 10
14.7288
 20
38.3802
 10
16.218
 20
36
 10
17.1131
 20
36
 10
15.4856
 20
38.4697
 10
15.667
 20
38.5088
 10
15.8368
 20
38.5611
 10
15.9951
 20
38.6264
 10
16.1419
 20
38.7049
 10
16.2771
 20
38.7965
 10
16.4008
 20
38.9012
 10
16.5129
 20
39.019
 10
16.6117
 20
39.1476
 10
16.6953
 20
39.2844
 10
16.7637
 20
39.4295
 10
16.8168
 20
39.583
 10
16.8548
 20
39.7447
 10
16.8776
 20
39.9148
 10
16.8852
 20
40.0931
 10
16.8745
 20
40.3071
 10
16.8422
 20
40.5072
 10
16.7884
 20
40.6934
 10
16.7132
 20
40.8657
 10
16.6164
 20
41.0242
 10
16.4981
 20
41.1688
 10
16.3583
 20
41.2996
 10
16.1988
 20
41.4145
 10
16.0212
 20
41.5118
 10
15.8256
 20
41.5914
 10
15.612
 20
41.6533
 10
15.3804
 20
41.6975
 10
15.1307
 20
41.724
 10
14.863
 20
41.7329
 10
12.1655
 20
41.7329
 10
12.1655
 20
36
 10
12.9426
 20
36
  0
LWPOLYLINE
100
AcDbEntity
  8
0
100
AcDbPolyline
 90
31
 70
1
 10
12.9426
 20
41.1104
 10
14.7858
 20
41.1104
 10
14.9622
 20
41.105
 10
15.1264
 20
41.089
 10
15.2783
 20
41.0622
 10
15.4181
 20
41.0247
 10
15.5457
 20
40.9765
 10
15.6611
 20
40.9176
 10
15.7642
 20
40.8479
 10
15.8544
 20
40.7681
 10
15.9307
 20
40.6785
 10
15.9931
 20
40.5793
 10
16.0416
 20
40.4703
 10
16.0763
 20
40.3516
 10
16.0971
 20
40.2232
 10
16.104
 20
40.085
 10
16.0972
 20
39.9421
 10
16.0766
 20
39.8085
 10
16.0424
 20
39.6844
 10
15.9944
 20
39.5696
 10
15.9327
 20
39.4641
 10
15.8574
 20
39.3681
 10
15.7683
 20
39.2815
 10
15.6667
 20
39.2054
 10
15.5538
 20
39.141
 10
15.4294
 20
39.0883
 10
15.2937
 20
39.0473
 10
15.1466
 20
39.018
 10
14.9881
 20
39.0005
 10
14.8183
 20
38.9946
 10
12.9426
 20
38.9946
  0
LWPOLYLINE
100
AcDbEntity
  8
0
100
AcDbPolyline
 90
12
 70
1
 10
22.6998
 20
36.6347
 10
18.9607
 20
36.6347
 10
18.9607
 20
38.6325
 10
22.2889
 20
38.6325
 10
22.2889
 20
39.2591
 10
18.9607
 20
39.2591
 10
18.9607
 20
41.0981
 10
22.533
 20
41.0981
 10
22.533
 20
41.7329
 10
18.1836
 20
41.7329
 10
18.1836
 20
36
 10
22.6998
 20
36
  0
LWPOLYLINE
100
AcDbEntity
  8
0
100
AcDbPolyline
 90
12
 70
1
 10
28.2581
 20
36.6347
 10
24.519
 20
36.6347
 10
24.519
 20
38.6325
 10
27.8472
 20
38.6325
 10
27.8472
 20
39.2591
 10
24.519
 20
39.2591
 10
24.519
 20
41.0981
 10
28.0913
 20
41.0981
 10
28.0913
 20
41.7329
 10
23.7418
 20
41.7329
 10
23.7418
 20
36
 10
28.2581
 20
36
  0
LWPOLYLINE
100
AcDbEntity
  8
0
100
AcDbPolyline
 90
19
 70
1
 10
29.9918
 20
39.8084
 10
29.9715
 20
40.4878
 10
29.9511
 20
40.8825
 10
33.0189
 20
36
 10
33.9547
 20
36
 10
33.9547
 20
41.7329
 10
33.2549
 20
41.7329
 10
33.2549
 20
37.9733
 10
33.2559
 20
37.8621
 10
33.2589
 20
37.7329
 10
33.2639
 20
37.5857
 10
33.2708
 20
37.4207
 10
33.2798
 20
37.2376
 10
33.2908
 20
37.0367
 10
33.3037
 20
36.8178
 10
30.2034
 20
41.7329
 10
29.3001
 20
41.7329
 10
29.3001
 20
36
 10
29.9918
 20
36
  0
LWPOLYLINE
100
AcDbEntity
  8
0
100
AcDbPolyline
 90
33
 70
1
 10
38.4106
 20
38.2337
 10
40.095
 20
38.2337
 10
40.3477
 20
38.2435
 10
40.5848
 20
38.2729
 10
40.8063
 20
38.3219
 10
41.0124
 20
38.3905
 10
41.2029
 20
38.4787
 10
41.3779
 20
38.5865
 10
41.5374
 20
38.7139
 10
41.6782
 20
38.8578
 10
41.7974
 20
39.0154
 10
41.895
 20
39.1867
 10
41.9708
 20
39.3715
 10
42.025
 20
39.5699
 10
42.0575
 20
39.782
 10
42.0684
 20
40.0077
 10
42.0576
 20
40.235
 10
42.0252
 20
40.4471
 10
41.9712
 20
40.6442
 10
41.8956
 20
40.8261
 10
41.7985
 20
40.9929
 10
41.6797
 20
41.1446
 10
41.5394
 20
41.2812
 10
41.3794
 20
41.401
 10
41.2016
 20
41.5024
 10
41.0061
 20
41.5854
 10
40.7928
 20
41.6499
 10
40.5617
 20
41.696
 10
40.3128
 20
41.7237
 10
40.0462
 20
41.7329
 10
37.6335
 20
41.7329
 10
37.6335
 20
36
 10
38.4106
 20
36
  0
LWPOLYLINE
100
AcDbEntity
  8
0
100
AcDbPolyline
 90
17
 70
1
 10
38.4106
 20
41.1104
 10
39.9526
 20
41.1104
 10
40.3067
 20
41.0877
 10
40.6063
 20
41.0197
 10
40.8514
 20
40.9064
 10
41.042
 20
40.7477
 10
41.1782
 20
40.5437
 10
41.2599
 20
40.2943
 10
41.2872
 20
39.9996
 10
41.2606
 20
39.6941
 10
41.1809
 20
39.4356
 10
41.048
 20
39.2241
 10
40.862
 20
39.0596
 10
40.6229
 20
38.9421
 10
40.3306
 20
38.8716
 10
39.9852
 20
38.8481
 10
38.4106
 20
38.8481
  0
LWPOLYLINE
100
AcDbEntity
  8
0
100
AcDbPolyline
 90
6
 70
1
 10
46.8658
 20
36.6347
 10
43.9689
 20
36.6347
 10
43.9689
 20
41.7329
 10
43.1917
 20
41.7329
 10
43.1917
 20
36
 10
46.8658
 20
36
  0
LWPOLYLINE
100
AcDbEntity
  8
0
100
AcDbPolyline
 90
8
 70
1
 10
48.6238
 20
37.6763
 10
51.2359
 20
37.6763
 10
51.891
 20
36
 10
52.6844
 20
36
 10
50.3815
 20
41.7329
 10
49.4985
 20
41.7329
 10
47.159
 20
36
 10
47.9646
 20
36
  0
LWPOLYLINE
100
AcDbEntity
  8
0
100
AcDbPolyline
 90
19
 70
1
 10
49.5921
 20
40.1664
 10
49.6471
 20
40.3136
 10
49.6981
 20
40.453
 10
49.7451
 20
40.5847
 10
49.7881
 20
40.7085
 10
49.8271
 20
40.8245
 10
49.8621
 20
40.9327
 10
49.8932
 20
41.033
 10
49.9299
 20
41.147
 10
50.0397
 20
40.8092
 10
50.0723
 20
40.7096
 10
50.1048
 20
40.613
 10
50.1373
 20
40.5193
 10
50.1699
 20
40.4286
 10
50.2024
 20
40.341
 10
50.235
 20
40.2563
 10
50.2675
 20
40.1746
 10
51.004
 20
38.2826
 10
48.8598
 20
38.2826
  0
LWPOLYLINE
100
AcDbEntity
  8
0
100
AcDbPolyline
 90
8
 70
1
 10
55.012
 20
41.0981
 10
56.9813
 20
41.0981
 10
56.9813
 20
41.7329
 10
52.2697
 20
41.7329
 10
52.2697
 20
41.0981
 10
54.239
 20
41.0981
 10
54.239
 20
36
 10
55.012
 20
36
  0
LWPOLYLINE
100
AcDbEntity
  8
0
100
AcDbPolyline
 90
12
 70
1
 10
62.3727
 20
36.6347
 10
58.6336
 20
36.6347
 10
58.6336
 20
38.6325
 10
61.9618
 20
38.6325
 10
61.9618
 20
39.2591
 10
58.6336
 20
39.2591
 10
58.6336
 20
41.0981
 10
62.2059
 20
41.0981
 10
62.2059
 20
41.7329
 10
57.8565
 20
41.7329
 10
57.8565
 20
36
 10
62.3727
 20
36
  0
LWPOLYLINE
100
AcDbEntity
  8
0
100
AcDbPolyline
 90
36
 70
1
 10
66.5071
 20
38.3802
 10
68.2933
 20
38.3802
 10
69.7825
 20
36
 10
70.6776
 20
36
 10
69.0501
 20
38.4697
 10
69.2315
 20
38.5088
 10
69.4013
 20
38.5611
 10
69.5596
 20
38.6264
 10
69.7064
 20
38.7049
 10
69.8416
 20
38.7965
 10
69.9653
 20
38.9012
 10
70.0774
 20
39.019
 10
70.1762
 20
39.1476
 10
70.2598
 20
39.2844
 10
70.3282
 20
39.4295
 10
70.3814
 20
39.583
 10
70.4193
 20
39.7447
 10
70.4421
 20
39.9148
 10
70.4497
 20
40.0931
 10
70.439
 20
40.3071
 10
70.4067
 20
40.5072
 10
70.353
 20
40.6934
 10
70.2777
 20
40.8657
 10
70.1809
 20
41.0242
 10
70.0626
 20
41.1688
 10
69.9228
 20
41.2996
 10
69.7633
 20
41.4145
 10
69.5857
 20
41.5118
 10
69.3901
 20
41.5914
 10
69.1765
 20
41.6533
 10
68.9449
 20
41.6975
 10
68.6952
 20
41.724
 10
68.4276
 20
41.7329
 10
65.73
 20
41.7329
 10
65.73
 20
36
 10
66.5071
 20
36
  0
LWPOLYLINE
100
AcDbEntity
  8
0
100
AcDbPolyline
 90
31
 70
1
 10
66.5071
 20
41.1104
 10
68.3503
 20
41.1104
 10
68.5267
 20
41.105
 10
68.6909
 20
41.089
 10
68.8429
 20
41.0622
 10
68.9826
 20
41.0247
 10
69.1102
 20
40.9765
 10
69.2256
 20
40.9176
 10
69.3288
 20
40.8479
 10
69.4189
 20
40.7681
 10
69.4952
 20
40.6785
 10
69.5576
 20
40.5793
 10
69.6061
 20
40.4703
 10
69.6408
 20
40.3516
 10
69.6616
 20
40.2232
 10
69.6685
 20
40.085
 10
69.6617
 20
39.9421
 10
69.6411
 20
39.8085
 10
69.6069
 20
39.6844
 10
69.5589
 20
39.5696
 10
69.4973
 20
39.4641
 10
69.4219
 20
39.3681
 10
69.3328
 20
39.2815
 10
69.2313
 20
39.2054
 10
69.1183
 20
39.141
 10
68.9939
 20
39.0883
 10
68.8582
 20
39.0473
 10
68.7111
 20
39.018
 10
68.5527
 20
39.0005
 10
68.3828
 20
38.9946
 10
66.5071
 20
38.9946
  0
LWPOLYLINE
100
AcDbEntity
  8
0
100
AcDbPolyline
 90
4
 70
1
 10
72.6106
 20
41.7329
 10
71.8335
 20
41.7329
 10
71.8335
 20
36
 10
72.6106
 20
36
  0
LWPOLYLINE
100
AcDbEntity
  8
0
100
AcDbPolyline
 90
12
 70
1
 10
81.3224
 20
38.6569
 10
84.4228
 20
38.6569
 10
84.4228
 20
36
 10
85.1999
 20
36
 10
85.1999
 20
41.7329
 10
84.4228
 20
41.7329
 10
84.4228
 20
39.3079
 10
81.3224
 20
39.3079
 10
81.3224
 20
41.7329
 10
80.5453
 20
41.7329
 10
80.5453
 20
36
 10
81.3224
 20
36
  0
LWPOLYLINE
100
AcDbEntity
  8
0
100
AcDbPolyline
 90
8
 70
1
 10
88.8093
 20
41.0981
 10
90.7785
 20
41.0981
 10
90.7785
 20
41.7329
 10
86.0669
 20
41.7329
 10
86.0669
 20
41.0981
 10
88.0362
 20
41.0981
 10
88.0362
 20
36
 10
88.8093
 20
36
  0
LWPOLYLINE
100
AcDbEntity
  8
0
100
AcDbPolyline
 90
36
 70
1
 10
116.585
 20
38.3802
 10
118.371
 20
38.3802
 10
119.86
 20
36
 10
120.755
 20
36
 10
119.127
 20
38.4697
 10
119.309
 20
38.5088
 10
119.479
 20
38.5611
 10
119.637
 20
38.6264
 10
119.784
 20
38.7049
 10
119.919
 20
38.7965
 10
120.043
 20
38.9012
 10
120.155
 20
39.019
 10
120.254
 20
39.1476
 10
120.337
 20
39.2844
 10
120.406
 20
39.4295
 10
120.459
 20
39.583
 10
120.497
 20
39.7447
 10
120.52
 20
39.9148
 10
120.527
 20
40.0931
 10
120.516
 20
40.3071
 10
120.484
 20
40.5072
 10
120.43
 20
40.6934
 10
120.355
 20
40.8657
 10
120.258
 20
41.0242
 10
120.14
 20
41.1688
 10
120
 20
41.2996
 10
119.841
 20
41.4145
 10
119.663
 20
41.5118
 10
119.468
 20
41.5914
 10
119.254
 20
41.6533
 10
119.022
 20
41.6975
 10
118.773
 20
41.724
 10
118.505
 20
41.7329
 10
115.807
 20
41.7329
 10
115.807
 20
36
 10
116.585
 20
36
  0
LWPOLYLINE
100
AcDbEntity
  8
0
100
AcDbPolyline
 90
31
 70
1
 10
116.585
 20
41.1104
 10
118.428
 20
41.1104
 10
118.604
 20
41.105
 10
118.768
 20
41.089
 10
118.92
 20
41.0622
 10
119.06
 20
41.0247
 10
119.188
 20
40.9765
 10
119.303
 20
40.9176
 10
119.406
 20
40.8479
 10
119.496
 20
40.7681
 10
119.573
 20
40.6785
 10
119.635
 20
40.5793
 10
119.684
 20
40.4703
 10
119.718
 20
40.3516
 10
119.739
 20
40.2232
 10
119.746
 20
40.085
 10
119.739
 20
39.9421
 10
119.719
 20
39.8085
 10
119.684
 20
39.6844
 10
119.636
 20
39.5696
 10
119.575
 20
39.4641
 10
119.499
 20
39.3681
 10
119.41
 20
39.2815
 10
119.309
 20
39.2054
 10
119.196
 20
39.141
 10
119.071
 20
39.0883
 10
118.936
 20
39.0473
 10
118.789
 20
39.018
 10
118.63
 20
39.0005
 10
118.46
 20
38.9946
 10
116.585
 20
38.9946
  0
LWPOLYLINE
100
AcDbEntity
  8
0
100
AcDbPolyline
 90
12
 70
1
 10
126.342
 20
36.6347
 10
122.603
 20
36.6347
 10
122.603
 20
38.6325
 10
125.931
 20
38.6325
 10
125.931
 20
39.2591
 10
122.603
 20
39.2591
 10
122.603
 20
41.0981
 10
126.175
 20
41.0981
 10
126.175
 20
41.7329
 10
121.825
 20
41.7329
 10
121.825
 20
36
 10
126.342
 20
36
  0
LWPOLYLINE
100
AcDbEntity
  8
0
100
AcDbPolyline
 90
8
 70
1
 10
128.181
 20
37.6763
 10
130.793
 20
37.6763
 10
131.448
 20
36
 10
132.242
 20
36
 10
129.939
 20
41.7329
 10
129.056
 20
41.7329
 10
126.716
 20
36
 10
127.522
 20
36
  0
LWPOLYLINE
100
AcDbEntity
  8
0
100
AcDbPolyline
 90
19
 70
1
 10
129.15
 20
40.1664
 10
129.205
 20
40.3136
 10
129.255
 20
40.453
 10
129.302
 20
40.5847
 10
129.346
 20
40.7085
 10
129.385
 20
40.8245
 10
129.42
 20
40.9327
 10
129.451
 20
41.033
 10
129.487
 20
41.147
 10
129.597
 20
40.8092
 10
129.63
 20
40.7096
 10
129.662
 20
40.613
 10
129.695
 20
40.5193
 10
129.727
 20
40.4286
 10
129.76
 20
40.341
 10
129.792
 20
40.2563
 10
129.825
 20
40.1746
 10
130.561
 20
38.2826
 10
128.417
 20
38.2826
  0
LWPOLYLINE
100
AcDbEntity
  8
0
100
AcDbPolyline
 90
36
 70
1
 10
133.719
 20
38.3802
 10
135.505
 20
38.3802
 10
136.994
 20
36
 10
137.89
 20
36
 10
136.262
 20
38.4697
 10
136.443
 20
38.5088
 10
136.613
 20
38.5611
 10
136.772
 20
38.6264
 10
136.918
 20
38.7049
 10
137.054
 20
38.7965
 10
137.177
 20
38.9012
 10
137.289
 20
39.019
 10
137.388
 20
39.1476
 10
137.472
 20
39.2844
 10
137.54
 20
39.4295
 10
137.593
 20
39.583
 10
137.631
 20
39.7447
 10
137.654
 20
39.9148
 10
137.662
 20
40.0931
 10
137.651
 20
40.3071
 10
137.619
 20
40.5072
 10
137.565
 20
40.6934
 10
137.49
 20
40.8657
 10
137.393
 20
41.0242
 10
137.275
 20
41.1688
 10
137.135
 20
41.2996
 10
136.975
 20
41.4145
 10
136.798
 20
41.5118
 10
136.602
 20
41.5914
 10
136.389
 20
41.6533
 10
136.157
 20
41.6975
 10
135.907
 20
41.724
 10
135.64
 20
41.7329
 10
132.942
 20
41.7329
 10
132.942
 20
36
 10
133.719
 20
36
  0
LWPOLYLINE
100
AcDbEntity
  8
0
100
AcDbPolyline
 90
31
 70
1
 10
133.719
 20
41.1104
 10
135.562
 20
41.1104
 10
135.739
 20
41.105
 10
135.903
 20
41.089
 10
136.055
 20
41.0622
 10
136.195
 20
41.0247
 10
136.322
 20
40.9765
 10
136.438
 20
40.9176
 10
136.541
 20
40.8479
 10
136.631
 20
40.7681
 10
136.707
 20
40.6785
 10
136.77
 20
40.5793
 10
136.818
 20
40.4703
 10
136.853
 20
40.3516
 10
136.874
 20
40.2232
 10
136.881
 20
40.085
 10
136.874
 20
39.9421
 10
136.853
 20
39.8085
 10
136.819
 20
39.6844
 10
136.771
 20
39.5696
 10
136.709
 20
39.4641
 10
136.634
 20
39.3681
 10
136.545
 20
39.2815
 10
136.443
 20
39.2054
 10
136.33
 20
39.141
 10
136.206
 20
39.0883
 10
136.07
 20
39.0473
 10
135.923
 20
39.018
 10
135.765
 20
39.0005
 10
135.595
 20
38.9946
 10
133.719
 20
38.9946
  0
LWPOLYLINE
100
AcDbEntity
  8
0
100
AcDbPolyline
 90
12
 70
1
 10
147.611
 20
38.6569
 10
150.711
 20
38.6569
 10
150.711
 20
36
 10
151.488
 20
36
 10
151.488
 20
41.7329
 10
150.711
 20
41.7329
 10
150.711
 20
39.3079
 10
147.611
 20
39.3079
 10
147.611
 20
41.7329
 10
146.834
 20
41.7329
 10
146.834
 20
36
 10
147.611
 20
36
  0
LWPOLYLINE
100
AcDbEntity
  8
0
100
AcDbPolyline
 90
12
 70
1
 10
166.129
 20
38.1971
 10
166.877
 20
38.7668
 10
169.168
 20
36
 10
170.132
 20
36
 10
167.366
 20
39.2428
 10
169.807
 20
41.7329
 10
168.891
 20
41.7329
 10
166.129
 20
38.8603
 10
166.129
 20
41.7329
 10
165.352
 20
41.7329
 10
165.352
 20
36
 10
166.129
 20
36
  0
LWPOLYLINE
100
AcDbEntity
  8
0
100
AcDbPolyline
 90
12
 70
1
 10
177.741
 20
36.6347
 10
174.002
 20
36.6347
 10
174.002
 20
38.6325
 10
177.331
 20
38.6325
 10
177.331
 20
39.2591
 10
174.002
 20
39.2591
 10
174.002
 20
41.0981
 10
177.575
 20
41.0981
 10
177.575
 20
41.7329
 10
173.225
 20
41.7329
 10
173.225
 20
36
 10
177.741
 20
36
  0
LWPOLYLINE
100
AcDbEntity
  8
0
100
AcDbPolyline
 90
9
 70
1
 10
181.261
 20
38.3762
 10
183.475
 20
41.7329
 10
182.62
 20
41.7329
 10
180.883
 20
39.0028
 10
179.137
 20
41.7329
 10
178.283
 20
41.7329
 10
180.488
 20
38.3762
 10
180.488
 20
36
 10
181.261
 20
36
  0
LWPOLYLINE
100
AcDbEntity
  8
0
100
AcDbPolyline
 90
12
 70
1
 10
188.858
 20
36.6347
 10
185.119
 20
36.6347
 10
185.119
 20
38.6325
 10
188.447
 20
38.6325
 10
188.447
 20
39.2591
 10
185.119
 20
39.2591
 10
185.119
 20
41.0981
 10
188.691
 20
41.0981
 10
188.691
 20
41.7329
 10
184.342
 20
41.7329
 10
184.342
 20
36
 10
188.858
 20
36
  0
LWPOLYLINE
100
AcDbEntity
  8
0
100
AcDbPolyline
 90
19
 70
1
 10
197.997
 20
39.8084
 10
197.977
 20
40.4878
 10
197.957
 20
40.8825
 10
201.024
 20
36
 10
201.96
 20
36
 10
201.96
 20
41.7329
 10
201.26
 20
41.7329
 10
201.26
 20
37.9733
 10
201.261
 20
37.8621
 10
201.264
 20
37.7329
 10
201.269
 20
37.5857
 10
201.276
 20
37.4207
 10
201.285
 20
37.2376
 10
201.296
 20
37.0367
 10
201.309
 20
36.8178
 10
198.209
 20
41.7329
 10
197.306
 20
41.7329
 10
197.306
 20
36
 10
197.997
 20
36
  0
LWPOLYLINE
100
AcDbEntity
  8
0
100
AcDbPolyline
 90
76
 70
1
 10
220.635
 20
35.9241
 10
220.832
 20
35.9404
 10
221.022
 20
35.9676
 10
221.204
 20
36.0056
 10
221.377
 20
36.0546
 10
221.543
 20
36.1144
 10
221.701
 20
36.1851
 10
221.85
 20
36.2661
 10
221.989
 20
36.3568
 10
222.118
 20
36.4573
 10
222.238
 20
36.5674
 10
222.347
 20
36.6873
 10
222.446
 20
36.8169
 10
222.535
 20
36.9562
 10
222.614
 20
37.1042
 10
222.68
 20
37.2601
 10
222.734
 20
37.4237
 10
222.776
 20
37.5952
 10
222.806
 20
37.7745
 10
222.824
 20
37.9616
 10
222.83
 20
38.1565
 10
222.83
 20
41.7329
 10
222.057
 20
41.7329
 10
222.057
 20
38.2012
 10
222.048
 20
37.9778
 10
222.022
 20
37.7703
 10
221.978
 20
37.5786
 10
221.917
 20
37.4027
 10
221.838
 20
37.2428
 10
221.742
 20
37.0986
 10
221.628
 20
36.9704
 10
221.498
 20
36.8587
 10
221.355
 20
36.7641
 10
221.197
 20
36.6868
 10
221.025
 20
36.6266
 10
220.839
 20
36.5837
 10
220.639
 20
36.5579
 10
220.426
 20
36.5493
 10
220.218
 20
36.5576
 10
220.024
 20
36.5825
 10
219.845
 20
36.624
 10
219.681
 20
36.6822
 10
219.531
 20
36.7569
 10
219.395
 20
36.8482
 10
219.274
 20
36.9562
 10
219.168
 20
37.0801
 10
219.079
 20
37.2195
 10
219.006
 20
37.3744
 10
218.949
 20
37.5447
 10
218.908
 20
37.7305
 10
218.884
 20
37.9317
 10
218.875
 20
38.1483
 10
218.875
 20
41.7329
 10
218.098
 20
41.7329
 10
218.098
 20
38.0832
 10
218.104
 20
37.894
 10
218.122
 20
37.7125
 10
218.151
 20
37.5386
 10
218.193
 20
37.3724
 10
218.246
 20
37.2138
 10
218.311
 20
37.0628
 10
218.387
 20
36.9195
 10
218.475
 20
36.7847
 10
218.572
 20
36.6594
 10
218.678
 20
36.5436
 10
218.794
 20
36.4373
 10
218.92
 20
36.3404
 10
219.056
 20
36.2529
 10
219.201
 20
36.175
 10
219.355
 20
36.107
 10
219.515
 20
36.0494
 10
219.684
 20
36.0023
 10
219.859
 20
35.9657
 10
220.042
 20
35.9396
 10
220.232
 20
35.9239
 10
220.43
 20
35.9186
  0
LWPOLYLINE
100
AcDbEntity
  8
0
100
AcDbPolyline
 90
8
 70
1
 10
226.403
 20
41.0981
 10
228.372
 20
41.0981
 10
228.372
 20
41.7329
 10
223.661
 20
41.7329
 10
223.661
 20
41.0981
 10
225.63
 20
41.0981
 10
225.63
 20
36
 10
226.403
 20
36
  0
LWPOLYLINE
100
AcDbEntity
  8
0
100
AcDbPolyline
 90
12
 70
1
 10
98.64
 20
38.4738
 10
100.365
 20
38.4738
 10
100.365
 20
39.0679
 10
98.64
 20
39.0679
 10
98.64
 20
40.8092
 10
98.0419
 20
40.8092
 10
98.0419
 20
39.0679
 10
96.3168
 20
39.0679
 10
96.3168
 20
38.4738
 10
98.0419
 20
38.4738
 10
98.0419
 20
36.7324
 10
98.64
 20
36.7324
  0
LWPOLYLINE
100
AcDbEntity
  8
0
100
AcDbPolyline
 90
10
 70
1
 10
104.528
 20
36.5656
 10
101.977
 20
36.5656
 10
104.442
 20
39.845
 10
104.442
 20
40.4024
 10
101.252
 20
40.4024
 10
101.252
 20
39.8368
 10
103.576
 20
39.8368
 10
101.114
 20
36.5574
 10
101.114
 20
36
 10
104.528
 20
36
  0
LWPOLYLINE
100
AcDbEntity
  8
0
100
AcDbPolyline
 90
4
 70
1
 10
112.438
 20
38.5389
 10
110.404
 20
38.5389
 10
110.404
 20
37.8879
 10
112.438
 20
37.8879
  0
LWPOLYLINE
100
AcDbEntity
  8
0
100
AcDbPolyline
 90
4
 70
1
 10
193.936
 20
38.5389
 10
191.902
 20
38.5389
 10
191.902
 20
37.8879
 10
193.936
 20
37.8879
  0
LWPOLYLINE
100
AcDbEntity
  8
0
100
AcDbPolyline
 90
4
 70
1
 10
265
 20
30
 10
5
 20
30
 10
5
 20
-30
 10
265
 20
-30
  0
LWPOLYLINE
100
AcDbEntity
  8
0
100
AcDbPolyline
 90
38
 70
1
 10
191.969
 20
8.92852
 10
191.313
 20
9.15375
 10
190.703
 20
9.4839
 10
190.155
 20
9.90996
 10
189.686
 20
10.4203
 10
189.306
 20
11.001
 10
189.028
 20
11.6363
 10
188.857
 20
12.3087
 10
188.8
 20
13
 10
188.857
 20
13.6913
 10
189.028
 20
14.3637
 10
189.306
 20
14.999
 10
189.686
 20
15.5797
 10
190.155
 20
16.09
 10
190.703
 20
16.5161
 10
191.313
 20
16.8462
 10
191.969
 20
17.0715
 10
192.653
 20
17.1857
 10
193.347
 20
17.1857
 10
194.031
 20
17.0715
 10
194.687
 20
16.8462
 10
195.297
 20
16.5161
 10
195.845
 20
16.09
 10
196.314
 20
15.5797
 10
196.694
 20
14.999
 10
196.972
 20
14.3637
 10
197.143
 20
13.6913
 10
197.2
 20
13
 10
197.143
 20
12.3087
 10
196.972
 20
11.6363
 10
196.694
 20
11.001
 10
196.314
 20
10.4203
 10
195.845
 20
9.90996
 10
195.297
 20
9.4839
 10
194.687
 20
9.15375
 10
194.031
 20
8.92852
 10
193.347
 20
8.81435
 10
192.653
 20
8.81435
  0
LWPOLYLINE
100
AcDbEntity
  8
0
100
AcDbPolyline
 90
59
 70
1
 10
24.1373
 20
-6.44249
 10
23.4574
 20
-6.31429
 10
22.7949
 20
-6.11455
 10
22.1575
 20
-5.84553
 10
21.5523
 20
-5.51027
 10
20.9861
 20
-5.11259
 10
20.4654
 20
-4.65697
 10
19.9961
 20
-4.14859
 10
19.5835
 20
-3.5932
 10
19.2322
 20
-2.9971
 10
18.9463
 20
-2.36704
 10
18.729
 20
-1.71017
 10
18.5828
 20
-1.03391
 10
18.5092
 20
-0.345944
 10
18.5092
 20
0.345944
 10
18.5828
 20
1.03391
 10
18.729
 20
1.71017
 10
18.9463
 20
2.36704
 10
19.2322
 20
2.9971
 10
19.5835
 20
3.5932
 10
19.9961
 20
4.14859
 10
20.4654
 20
4.65697
 10
20.9861
 20
5.11259
 10
21.5523
 20
5.51027
 10
22.1575
 20
5.84553
 10
22.7949
 20
6.11455
 10
23.4574
 20
6.31429
 10
24.1373
 20
6.44249
 10
24.827
 20
6.4977
 10
25.5186
 20
6.47928
 10
26.2044
 20
6.38745
 10
26.8765
 20
6.22324
 10
27.5274
 20
5.98853
 10
28.1496
 20
5.68596
 10
28.7361
 20
5.31897
 10
29.2803
 20
4.89171
 10
29.776
 20
4.40903
 10
30.2176
 20
3.87639
 10
30.6001
 20
3.29983
 10
30.9191
 20
2.68588
 10
31.1711
 20
2.0415
 10
31.3531
 20
1.37399
 10
31.4632
 20
0.690908
 10
31.5
 20
0
 10
31.4632
 20
-0.690908
 10
31.3531
 20
-1.37399
 10
31.1711
 20
-2.0415
 10
30.9191
 20
-2.68588
 10
30.6001
 20
-3.29983
 10
30.2176
 20
-3.87639
 10
29.776
 20
-4.40903
 10
29.2803
 20
-4.89171
 10
28.7361
 20
-5.31897
 10
28.1496
 20
-5.68596
 10
27.5274
 20
-5.98853
 10
26.8765
 20
-6.22324
 10
26.2044
 20
-6.38745
 10
25.5186
 20
-6.47928
 10
24.827
 20
-6.4977
  0
LWPOLYLINE
100
AcDbEntity
  8
0
100
AcDbPolyline
 90
59
 70
1
 10
84.1373
 20
-6.44249
 10
83.4574
 20
-6.31429
 10
82.7949
 20
-6.11455
 10
82.1575
 20
-5.84553
 10
81.5523
 20
-5.51027
 10
80.9861
 20
-5.11259
 10
80.4654
 20
-4.65697
 10
79.9961
 20
-4.14859
 10
79.5835
 20
-3.5932
 10
79.2322
 20
-2.9971
 10
78.9463
 20
-2.36704
 10
78.729
 20
-1.71017
 10
78.5828
 20
-1.03391
 10
78.5092
 20
-0.345944
 10
78.5092
 20
0.345944
 10
78.5828
 20
1.03391
 10
78.729
 20
1.71017
 10
78.9463
 20
2.36704
 10
79.2322
 20
2.9971
 10
79.5835
 20
3.5932
 10
79.9961
 20
4.14859
 10
80.4654
 20
4.65697
 10
80.9861
 20
5.11259
 10
81.5523
 20
5.51027
 10
82.1575
 20
5.84553
 10
82.7949
 20
6.11455
 10
83.4574
 20
6.31429
 10
84.1373
 20
6.44249
 10
84.827
 20
6.4977
 10
85.5186
 20
6.47928
 10
86.2044
 20
6.38745
 10
86.8765
 20
6.22324
 10
87.5274
 20
5.98853
 10
88.1496
 20
5.68596
 10
88.7361
 20
5.31897
 10
89.2803
 20
4.89171
 10
89.776
 20
4.40903
 10
90.2176
 20
3.87639
 10
90.6001
 20
3.29983
 10
90.9191
 20
2.68588
 10
91.1711
 20
2.0415
 10
91.3531
 20
1.37399
 10
91.4632
 20
0.690908
 10
91.5
 20
0
 10
91.4632
 20
-0.690908
 10
91.3531
 20
-1.37399
 10
91.1711
 20
-2.0415
 10
90.9191
 20
-2.68588
 10
90.6001
 20
-3.29983
 10
90.2176
 20
-3.87639
 10
89.776
 20
-4.40903
 10
89.2803
 20
-4.89171
 10
88.7361
 20
-5.31897
 10
88.1496
 20
-5.68596
 10
87.5274
 20
-5.98853
 10
86.8765
 20
-6.22324
 10
86.2044
 20
-6.38745
 10
85.5186
 20
-6.47928
 10
84.827
 20
-6.4977
  0
LWPOLYLINE
100
AcDbEntity
  8
0
100
AcDbPolyline
 90
38
 70
1
 10
244.029
 20
-12.6324
 10
243.373
 20
-12.4071
 10
242.763
 20
-12.077
 10
242.215
 20
-11.6509
 10
241.745
 20
-11.1406
 10
241.366
 20
-10.5599
 10
241.087
 20
-9.92462
 10
240.917
 20
-9.25218
 10
240.86
 20
-8.56088
 10
240.917
 20
-7.86958
 10
241.087
 20
-7.19714
 10
241.366
 20
-6.5619
 10
241.745
 20
-5.98119
 10
242.215
 20
-5.47084
 10
242.763
 20
-5.04478
 10
243.373
 20
-4.71463
 10
244.029
 20
-4.4894
 10
244.713
 20
-4.37523
 10
245.407
 20
-4.37523
 10
246.091
 20
-4.4894
 10
246.747
 20
-4.71463
 10
247.357
 20
-5.04478
 10
247.904
 20
-5.47084
 10
248.374
 20
-5.98119
 10
248.754
 20
-6.5619
 10
249.032
 20
-7.19714
 10
249.202
 20
-7.86958
 10
249.26
 20
-8.56088
 10
249.202
 20
-9.25218
 10
249.032
 20
-9.92462
 10
248.754
 20
-10.5599
 10
248.374
 20
-11.1406
 10
247.904
 20
-11.6509
 10
247.357
 20
-12.077
 10
246.747
 20
-12.4071
 10
246.091
 20
-12.6324
 10
245.407
 20
-12.7465
 10
244.713
 20
-12.7465
  0
LWPOLYLINE
100
AcDbEntity
  8
0
100
AcDbPolyline
 90
35
 70
1
 10
190.202
 20
-15.383
 10
189.643
 20
-14.971
 10
189.143
 20
-14.4881
 10
188.713
 20
-13.9429
 10
188.359
 20
-13.3453
 10
188.088
 20
-12.7057
 10
187.904
 20
-12.0358
 10
187.812
 20
-11.3473
 10
187.812
 20
-10.6527
 10
187.904
 20
-9.96423
 10
188.088
 20
-9.29427
 10
188.359
 20
-8.65475
 10
188.713
 20
-8.05708
 10
189.143
 20
-7.51192
 10
189.643
 20
-7.02901
 10
190.202
 20
-6.61696
 10
190.324
 20
-6.55
 10
195.672
 20
-6.55
 10
196.085
 20
-6.81364
 10
196.615
 20
-7.26212
 10
197.081
 20
-7.7773
 10
197.474
 20
-8.34999
 10
197.787
 20
-8.96998
 10
198.015
 20
-9.62618
 10
198.154
 20
-10.3069
 10
198.2
 20
-11
 10
198.154
 20
-11.6931
 10
198.015
 20
-12.3738
 10
197.787
 20
-13.03
 10
197.474
 20
-13.65
 10
197.081
 20
-14.2227
 10
196.615
 20
-14.7379
 10
196.085
 20
-15.1864
 10
195.672
 20
-15.45
 10
190.324
 20
-15.45
  0
LWPOLYLINE
100
AcDbEntity
  8
0
100
AcDbPolyline
 90
59
 70
1
 10
90.0996
 20
-45.4781
 10
89.9054
 20
-45.2273
 10
89.7282
 20
-44.9729
 10
89.5681
 20
-44.7148
 10
89.425
 20
-44.4531
 10
89.2989
 20
-44.1877
 10
89.1898
 20
-43.9186
 10
89.0965
 20
-43.6441
 10
89.0175
 20
-43.3623
 10
88.9528
 20
-43.0731
 10
88.9025
 20
-42.7767
 10
88.8666
 20
-42.473
 10
88.8451
 20
-42.1619
 10
88.8379
 20
-41.8435
 10
88.8451
 20
-41.524
 10
88.8669
 20
-41.2118
 10
88.9033
 20
-40.9069
 10
88.9541
 20
-40.6093
 10
89.0195
 20
-40.319
 10
89.0994
 20
-40.036
 10
89.1939
 20
-39.7603
 10
89.3038
 20
-39.4905
 10
89.4304
 20
-39.2249
 10
89.5734
 20
-38.9637
 10
89.7329
 20
-38.7068
 10
89.909
 20
-38.4542
 10
90.1016
 20
-38.2059
 10
90.3108
 20
-37.962
 10
89.6028
 20
-37.962
 10
89.3924
 20
-38.2002
 10
89.1981
 20
-38.4429
 10
89.02
 20
-38.6901
 10
88.8581
 20
-38.9418
 10
88.7125
 20
-39.198
 10
88.583
 20
-39.4586
 10
88.4697
 20
-39.7237
 10
88.372
 20
-39.996
 10
88.2893
 20
-40.2781
 10
88.2217
 20
-40.57
 10
88.1691
 20
-40.8716
 10
88.1315
 20
-41.1831
 10
88.109
 20
-41.5044
 10
88.1014
 20
-41.8354
 10
88.1014
 20
-41.8517
 10
88.1089
 20
-42.1806
 10
88.1313
 20
-42.5002
 10
88.1687
 20
-42.8104
 10
88.221
 20
-43.1112
 10
88.2883
 20
-43.4026
 10
88.3705
 20
-43.6846
 10
88.4676
 20
-43.9573
 10
88.5805
 20
-44.223
 10
88.7098
 20
-44.4844
 10
88.8555
 20
-44.7414
 10
89.0177
 20
-44.9939
 10
89.1963
 20
-45.2421
 10
89.3913
 20
-45.4858
 10
89.6028
 20
-45.7252
 10
90.3108
 20
-45.7252
  0
LWPOLYLINE
100
AcDbEntity
  8
0
100
AcDbPolyline
 90
59
 70
1
 10
98.2688
 20
-45.4869
 10
98.463
 20
-45.2442
 10
98.6411
 20
-44.997
 10
98.803
 20
-44.7454
 10
98.9487
 20
-44.4892
 10
99.0782
 20
-44.2285
 10
99.1915
 20
-43.9634
 10
99.2892
 20
-43.6911
 10
99.3718
 20
-43.409
 10
99.4395
 20
-43.1172
 10
99.4921
 20
-42.8155
 10
99.5296
 20
-42.504
 10
99.5522
 20
-42.1828
 10
99.5597
 20
-41.8517
 10
99.5597
 20
-41.8354
 10
99.5522
 20
-41.5065
 10
99.5298
 20
-41.1869
 10
99.4924
 20
-40.8768
 10
99.4401
 20
-40.576
 10
99.3729
 20
-40.2845
 10
99.2907
 20
-40.0025
 10
99.1935
 20
-39.7299
 10
99.0807
 20
-39.4641
 10
98.9514
 20
-39.2027
 10
98.8057
 20
-38.9458
 10
98.6435
 20
-38.6932
 10
98.4649
 20
-38.4451
 10
98.2698
 20
-38.2013
 10
98.0583
 20
-37.962
 10
97.3504
 20
-37.962
 10
97.5595
 20
-38.2069
 10
97.7521
 20
-38.4559
 10
97.9282
 20
-38.7088
 10
98.0877
 20
-38.9657
 10
98.2308
 20
-39.2266
 10
98.3572
 20
-39.4915
 10
98.4672
 20
-39.7604
 10
98.5617
 20
-40.0351
 10
98.6416
 20
-40.3174
 10
98.707
 20
-40.6073
 10
98.7579
 20
-40.9049
 10
98.7942
 20
-41.2102
 10
98.816
 20
-41.523
 10
98.8233
 20
-41.8435
 10
98.816
 20
-42.164
 10
98.7944
 20
-42.4768
 10
98.7582
 20
-42.7818
 10
98.7077
 20
-43.0791
 10
98.6426
 20
-43.3687
 10
98.5632
 20
-43.6506
 10
98.4693
 20
-43.9248
 10
98.3597
 20
-44.1932
 10
98.2335
 20
-44.4578
 10
98.0904
 20
-44.7188
 10
97.9306
 20
-44.976
 10
97.7539
 20
-45.2294
 10
97.5605
 20
-45.4792
 10
97.3504
 20
-45.7252
 10
98.0583
 20
-45.7252
  0
LWPOLYLINE
100
AcDbEntity
  8
0
100
AcDbPolyline
 90
125
 70
1
 10
8.5265
 20
-44.0762
 10
8.74052
 20
-44.0606
 10
8.94997
 20
-44.0347
 10
9.15486
 20
-43.9983
 10
9.35517
 20
-43.9516
 10
9.55092
 20
-43.8945
 10
9.7421
 20
-43.8271
 10
9.92682
 20
-43.7502
 10
10.1032
 20
-43.6647
 10
10.2711
 20
-43.5706
 10
10.4307
 20
-43.468
 10
10.5818
 20
-43.3569
 10
10.7246
 20
-43.2372
 10
10.859
 20
-43.1089
 10
10.859
 20
-41.1315
 10
8.42996
 20
-41.1315
 10
8.42996
 20
-41.7825
 10
10.1429
 20
-41.7825
 10
10.1429
 20
-42.816
 10
10.0531
 20
-42.8972
 10
9.95574
 20
-42.9734
 10
9.85082
 20
-43.0447
 10
9.73835
 20
-43.1109
 10
9.61832
 20
-43.1722
 10
9.49073
 20
-43.2285
 10
9.35558
 20
-43.2798
 10
9.21513
 20
-43.3252
 10
9.07162
 20
-43.3635
 10
8.92502
 20
-43.3949
 10
8.77536
 20
-43.4193
 10
8.62262
 20
-43.4368
 10
8.46681
 20
-43.4472
 10
8.30792
 20
-43.4507
 10
8.03531
 20
-43.4379
 10
7.78013
 20
-43.3994
 10
7.54239
 20
-43.3352
 10
7.32209
 20
-43.2454
 10
7.11922
 20
-43.13
 10
6.93379
 20
-42.9889
 10
6.7658
 20
-42.8221
 10
6.61792
 20
-42.6331
 10
6.49279
 20
-42.4255
 10
6.39041
 20
-42.1992
 10
6.31078
 20
-41.9542
 10
6.2539
 20
-41.6905
 10
6.21978
 20
-41.4081
 10
6.2084
 20
-41.1071
 10
6.21911
 20
-40.8056
 10
6.25125
 20
-40.524
 10
6.30481
 20
-40.2625
 10
6.37979
 20
-40.021
 10
6.4762
 20
-39.7995
 10
6.59403
 20
-39.5981
 10
6.73328
 20
-39.4166
 10
6.89279
 20
-39.2574
 10
7.07141
 20
-39.1226
 10
7.26911
 20
-39.0124
 10
7.48592
 20
-38.9267
 10
7.72182
 20
-38.8654
 10
7.97682
 20
-38.8287
 10
8.25092
 20
-38.8164
 10
8.42916
 20
-38.821
 10
8.59885
 20
-38.8347
 10
8.75999
 20
-38.8575
 10
8.91257
 20
-38.8895
 10
9.05659
 20
-38.9306
 10
9.19206
 20
-38.9808
 10
9.31898
 20
-39.0402
 10
9.43784
 20
-39.1095
 10
9.54915
 20
-39.1897
 10
9.6529
 20
-39.2806
 10
9.7491
 20
-39.3823
 10
9.83774
 20
-39.4948
 10
9.91883
 20
-39.6181
 10
9.99236
 20
-39.7522
 10
10.7329
 20
-39.5325
 10
10.6355
 20
-39.3381
 10
10.527
 20
-39.1595
 10
10.4073
 20
-38.9967
 10
10.2765
 20
-38.8496
 10
10.1346
 20
-38.7183
 10
9.98157
 20
-38.6028
 10
9.8174
 20
-38.5031
 10
9.64036
 20
-38.4178
 10
9.44871
 20
-38.3457
 10
9.24245
 20
-38.2866
 10
9.02157
 20
-38.2407
 10
8.78608
 20
-38.2079
 10
8.53598
 20
-38.1882
 10
8.27126
 20
-38.1817
 10
7.89653
 20
-38.1973
 10
7.54654
 20
-38.2441
 10
7.22129
 20
-38.3222
 10
6.92078
 20
-38.4315
 10
6.64502
 20
-38.572
 10
6.394
 20
-38.7437
 10
6.16772
 20
-38.9466
 10
5.96911
 20
-39.178
 10
5.80105
 20
-39.4352
 10
5.66355
 20
-39.7181
 10
5.5566
 20
-40.0267
 10
5.48021
 20
-40.3611
 10
5.43438
 20
-40.7212
 10
5.4191
 20
-41.1071
 10
5.42612
 20
-41.3626
 10
5.44717
 20
-41.6085
 10
5.48225
 20
-41.8446
 10
5.53136
 20
-42.071
 10
5.59451
 20
-42.2877
 10
5.67169
 20
-42.4946
 10
5.7629
 20
-42.6919
 10
5.8674
 20
-42.8778
 10
5.98443
 20
-43.0509
 10
6.11401
 20
-43.2112
 10
6.25612
 20
-43.3585
 10
6.41078
 20
-43.493
 10
6.57797
 20
-43.6146
 10
6.7577
 20
-43.7233
 10
6.94877
 20
-43.8183
 10
7.14996
 20
-43.8987
 10
7.36129
 20
-43.9645
 10
7.58275
 20
-44.0156
 10
7.81434
 20
-44.0521
 10
8.05607
 20
-44.0741
 10
8.30792
 20
-44.0814
  0
LWPOLYLINE
100
AcDbEntity
  8
0
100
AcDbPolyline
 90
77
 70
1
 10
122.07
 20
-44.074
 10
122.306
 20
-44.0518
 10
122.533
 20
-44.0149
 10
122.749
 20
-43.9631
 10
122.957
 20
-43.8966
 10
123.155
 20
-43.8153
 10
123.343
 20
-43.7193
 10
123.52
 20
-43.6094
 10
123.686
 20
-43.4868
 10
123.839
 20
-43.3513
 10
123.98
 20
-43.2031
 10
124.109
 20
-43.0421
 10
124.225
 20
-42.8683
 10
124.33
 20
-42.6817
 10
124.421
 20
-42.4842
 10
124.498
 20
-42.2775
 10
124.561
 20
-42.0617
 10
124.61
 20
-41.8368
 10
124.645
 20
-41.6027
 10
124.666
 20
-41.3595
 10
124.673
 20
-41.1071
 10
124.666
 20
-40.8539
 10
124.646
 20
-40.6106
 10
124.611
 20
-40.377
 10
124.562
 20
-40.1532
 10
124.5
 20
-39.9392
 10
124.424
 20
-39.7351
 10
124.334
 20
-39.5407
 10
124.23
 20
-39.3576
 10
124.115
 20
-39.1874
 10
123.987
 20
-39.0301
 10
123.846
 20
-38.8857
 10
123.694
 20
-38.7541
 10
123.529
 20
-38.6354
 10
123.351
 20
-38.5296
 10
123.163
 20
-38.4373
 10
122.965
 20
-38.3592
 10
122.757
 20
-38.2953
 10
122.541
 20
-38.2456
 10
122.314
 20
-38.2101
 10
122.079
 20
-38.1888
 10
121.833
 20
-38.1817
 10
121.462
 20
-38.1975
 10
121.114
 20
-38.245
 10
120.791
 20
-38.3241
 10
120.492
 20
-38.4348
 10
120.216
 20
-38.5772
 10
119.965
 20
-38.7512
 10
119.738
 20
-38.9568
 10
119.538
 20
-39.1905
 10
119.369
 20
-39.4487
 10
119.231
 20
-39.7314
 10
119.124
 20
-40.0386
 10
119.047
 20
-40.3703
 10
119.001
 20
-40.7264
 10
118.985
 20
-41.1071
 10
118.992
 20
-41.3606
 10
119.013
 20
-41.6048
 10
119.047
 20
-41.8399
 10
119.096
 20
-42.0657
 10
119.158
 20
-42.2823
 10
119.233
 20
-42.4897
 10
119.323
 20
-42.6879
 10
119.426
 20
-42.8749
 10
119.541
 20
-43.0489
 10
119.668
 20
-43.2098
 10
119.808
 20
-43.3578
 10
119.96
 20
-43.4927
 10
120.125
 20
-43.6145
 10
120.302
 20
-43.7233
 10
120.49
 20
-43.8183
 10
120.687
 20
-43.8987
 10
120.895
 20
-43.9645
 10
121.113
 20
-44.0156
 10
121.341
 20
-44.0521
 10
121.578
 20
-44.0741
 10
121.825
 20
-44.0814
  0
LWPOLYLINE
100
AcDbEntity
  8
0
100
AcDbPolyline
 90
56
 70
1
 10
121.558
 20
-43.4378
 10
121.309
 20
-43.3991
 10
121.076
 20
-43.3345
 10
120.861
 20
-43.2441
 10
120.663
 20
-43.1279
 10
120.482
 20
-42.9859
 10
120.318
 20
-42.8181
 10
120.174
 20
-42.6282
 10
120.052
 20
-42.4201
 10
119.952
 20
-42.1939
 10
119.874
 20
-41.9495
 10
119.819
 20
-41.6869
 10
119.786
 20
-41.4061
 10
119.775
 20
-41.1071
 10
119.786
 20
-40.8066
 10
119.818
 20
-40.5258
 10
119.873
 20
-40.2649
 10
119.95
 20
-40.0237
 10
120.049
 20
-39.8022
 10
120.169
 20
-39.6005
 10
120.312
 20
-39.4186
 10
120.474
 20
-39.2588
 10
120.655
 20
-39.1236
 10
120.854
 20
-39.013
 10
121.072
 20
-38.927
 10
121.307
 20
-38.8656
 10
121.561
 20
-38.8287
 10
121.833
 20
-38.8164
 10
122.103
 20
-38.8289
 10
122.355
 20
-38.8662
 10
122.589
 20
-38.9285
 10
122.805
 20
-39.0157
 10
123.003
 20
-39.1278
 10
123.183
 20
-39.2648
 10
123.345
 20
-39.4267
 10
123.487
 20
-39.6105
 10
123.607
 20
-39.813
 10
123.705
 20
-40.0343
 10
123.782
 20
-40.2744
 10
123.836
 20
-40.5332
 10
123.869
 20
-40.8108
 10
123.88
 20
-41.1071
 10
123.869
 20
-41.4165
 10
123.837
 20
-41.7051
 10
123.782
 20
-41.9731
 10
123.707
 20
-42.2205
 10
123.609
 20
-42.4471
 10
123.49
 20
-42.6531
 10
123.349
 20
-42.8384
 10
123.188
 20
-43.0008
 10
123.008
 20
-43.1383
 10
122.809
 20
-43.2508
 10
122.591
 20
-43.3382
 10
122.355
 20
-43.4007
 10
122.1
 20
-43.4382
 10
121.825
 20
-43.4507
  0
LWPOLYLINE
100
AcDbEntity
  8
0
100
AcDbPolyline
 90
226
 70
1
 10
141.465
 20
-44.0725
 10
141.756
 20
-44.0458
 10
142.026
 20
-44.0014
 10
142.276
 20
-43.9392
 10
142.505
 20
-43.8592
 10
142.713
 20
-43.7615
 10
142.901
 20
-43.646
 10
143.065
 20
-43.5143
 10
143.205
 20
-43.368
 10
143.319
 20
-43.2071
 10
143.407
 20
-43.0315
 10
143.471
 20
-42.8414
 10
143.508
 20
-42.6366
 10
143.521
 20
-42.4173
 10
143.519
 20
-42.3294
 10
143.514
 20
-42.2449
 10
143.505
 20
-42.1637
 10
143.493
 20
-42.0858
 10
143.477
 20
-42.0112
 10
143.457
 20
-41.94
 10
143.434
 20
-41.872
 10
143.407
 20
-41.807
 10
143.378
 20
-41.7445
 10
143.346
 20
-41.6845
 10
143.312
 20
-41.6269
 10
143.274
 20
-41.5719
 10
143.234
 20
-41.5193
 10
143.192
 20
-41.4693
 10
143.146
 20
-41.4215
 10
143.099
 20
-41.3759
 10
143.049
 20
-41.3325
 10
142.997
 20
-41.2912
 10
142.943
 20
-41.2521
 10
142.886
 20
-41.2151
 10
142.827
 20
-41.1804
 10
142.767
 20
-41.1473
 10
142.705
 20
-41.1154
 10
142.642
 20
-41.0848
 10
142.578
 20
-41.0555
 10
142.512
 20
-41.0273
 10
142.446
 20
-41.0005
 10
142.378
 20
-40.9749
 10
142.309
 20
-40.9504
 10
142.239
 20
-40.9269
 10
142.168
 20
-40.9044
 10
142.096
 20
-40.8829
 10
142.023
 20
-40.8623
 10
141.95
 20
-40.8428
 10
141.875
 20
-40.8243
 10
141.8
 20
-40.8063
 10
141.725
 20
-40.7885
 10
141.65
 20
-40.7706
 10
141.575
 20
-40.7529
 10
141.499
 20
-40.7353
 10
141.424
 20
-40.7177
 10
141.348
 20
-40.7002
 10
141.134
 20
-40.6514
 10
140.94
 20
-40.6047
 10
140.768
 20
-40.5604
 10
140.618
 20
-40.5182
 10
140.489
 20
-40.4783
 10
140.381
 20
-40.4407
 10
140.295
 20
-40.4053
 10
140.222
 20
-40.3699
 10
140.154
 20
-40.3324
 10
140.091
 20
-40.2927
 10
140.033
 20
-40.2508
 10
139.98
 20
-40.2068
 10
139.932
 20
-40.1606
 10
139.89
 20
-40.1123
 10
139.852
 20
-40.061
 10
139.821
 20
-40.006
 10
139.795
 20
-39.9473
 10
139.775
 20
-39.8848
 10
139.761
 20
-39.8186
 10
139.752
 20
-39.7486
 10
139.749
 20
-39.6749
 10
139.757
 20
-39.5504
 10
139.779
 20
-39.4351
 10
139.816
 20
-39.3289
 10
139.868
 20
-39.2318
 10
139.934
 20
-39.1439
 10
140.015
 20
-39.0651
 10
140.111
 20
-38.9955
 10
140.222
 20
-38.935
 10
140.345
 20
-38.8838
 10
140.482
 20
-38.842
 10
140.632
 20
-38.8094
 10
140.795
 20
-38.7862
 10
140.971
 20
-38.7722
 10
141.161
 20
-38.7676
 10
141.335
 20
-38.7718
 10
141.497
 20
-38.7844
 10
141.648
 20
-38.8053
 10
141.788
 20
-38.8347
 10
141.917
 20
-38.8724
 10
142.035
 20
-38.9186
 10
142.142
 20
-38.9731
 10
142.238
 20
-39.0369
 10
142.326
 20
-39.1109
 10
142.403
 20
-39.1951
 10
142.472
 20
-39.2896
 10
142.531
 20
-39.3942
 10
142.581
 20
-39.5091
 10
142.622
 20
-39.6342
 10
143.387
 20
-39.4999
 10
143.321
 20
-39.3028
 10
143.243
 20
-39.1228
 10
143.152
 20
-38.96
 10
143.049
 20
-38.8144
 10
142.933
 20
-38.686
 10
142.804
 20
-38.5748
 10
142.663
 20
-38.4808
 10
142.506
 20
-38.4014
 10
142.33
 20
-38.3343
 10
142.135
 20
-38.2793
 10
141.922
 20
-38.2366
 10
141.69
 20
-38.2061
 10
141.439
 20
-38.1878
 10
141.169
 20
-38.1817
 10
140.879
 20
-38.1898
 10
140.609
 20
-38.2142
 10
140.359
 20
-38.2549
 10
140.128
 20
-38.3119
 10
139.918
 20
-38.3851
 10
139.727
 20
-38.4746
 10
139.556
 20
-38.5804
 10
139.407
 20
-38.7012
 10
139.28
 20
-38.8358
 10
139.177
 20
-38.9842
 10
139.096
 20
-39.1464
 10
139.039
 20
-39.3223
 10
139.004
 20
-39.5121
 10
138.993
 20
-39.7156
 10
138.995
 20
-39.8059
 10
139.001
 20
-39.8933
 10
139.012
 20
-39.9777
 10
139.028
 20
-40.0591
 10
139.048
 20
-40.1375
 10
139.072
 20
-40.2129
 10
139.1
 20
-40.2853
 10
139.133
 20
-40.3549
 10
139.17
 20
-40.4219
 10
139.21
 20
-40.4864
 10
139.255
 20
-40.5483
 10
139.303
 20
-40.6077
 10
139.356
 20
-40.6644
 10
139.412
 20
-40.7186
 10
139.473
 20
-40.7708
 10
139.54
 20
-40.8216
 10
139.613
 20
-40.8709
 10
139.693
 20
-40.9189
 10
139.778
 20
-40.9654
 10
139.87
 20
-41.0105
 10
139.967
 20
-41.0542
 10
140.074
 20
-41.0973
 10
140.195
 20
-41.1403
 10
140.329
 20
-41.1833
 10
140.476
 20
-41.2263
 10
140.637
 20
-41.2693
 10
140.811
 20
-41.3123
 10
140.999
 20
-41.3553
 10
141.109
 20
-41.3806
 10
141.216
 20
-41.4055
 10
141.321
 20
-41.4298
 10
141.422
 20
-41.4537
 10
141.521
 20
-41.477
 10
141.617
 20
-41.4998
 10
141.711
 20
-41.5222
 10
141.801
 20
-41.545
 10
141.887
 20
-41.5693
 10
141.97
 20
-41.5952
 10
142.049
 20
-41.6225
 10
142.124
 20
-41.6513
 10
142.196
 20
-41.6816
 10
142.264
 20
-41.7134
 10
142.328
 20
-41.7472
 10
142.388
 20
-41.7835
 10
142.444
 20
-41.8222
 10
142.495
 20
-41.8635
 10
142.542
 20
-41.9072
 10
142.585
 20
-41.9535
 10
142.624
 20
-42.0022
 10
142.658
 20
-42.0544
 10
142.687
 20
-42.1109
 10
142.71
 20
-42.1716
 10
142.729
 20
-42.2367
 10
142.742
 20
-42.3062
 10
142.75
 20
-42.3799
 10
142.752
 20
-42.4579
 10
142.744
 20
-42.596
 10
142.719
 20
-42.7242
 10
142.677
 20
-42.8424
 10
142.619
 20
-42.9508
 10
142.544
 20
-43.0494
 10
142.452
 20
-43.138
 10
142.343
 20
-43.2168
 10
142.219
 20
-43.2853
 10
142.082
 20
-43.3433
 10
141.93
 20
-43.3908
 10
141.764
 20
-43.4277
 10
141.584
 20
-43.454
 10
141.39
 20
-43.4698
 10
141.182
 20
-43.4751
 10
140.98
 20
-43.4702
 10
140.79
 20
-43.4554
 10
140.613
 20
-43.4307
 10
140.449
 20
-43.3961
 10
140.297
 20
-43.3516
 10
140.157
 20
-43.2973
 10
140.03
 20
-43.233
 10
139.915
 20
-43.1582
 10
139.812
 20
-43.0723
 10
139.721
 20
-42.9751
 10
139.642
 20
-42.8667
 10
139.575
 20
-42.7471
 10
139.52
 20
-42.6162
 10
139.477
 20
-42.4742
 10
138.724
 20
-42.6247
 10
138.855
 20
-43.0112
 10
139.059
 20
-43.3382
 10
139.334
 20
-43.6057
 10
139.681
 20
-43.8138
 10
140.1
 20
-43.9625
 10
140.59
 20
-44.0516
 10
141.153
 20
-44.0814
  0
LWPOLYLINE
100
AcDbEntity
  8
0
100
AcDbPolyline
 90
77
 70
1
 10
153.402
 20
-44.074
 10
153.638
 20
-44.0518
 10
153.864
 20
-44.0149
 10
154.081
 20
-43.9631
 10
154.288
 20
-43.8966
 10
154.486
 20
-43.8153
 10
154.674
 20
-43.7193
 10
154.852
 20
-43.6094
 10
155.017
 20
-43.4868
 10
155.17
 20
-43.3513
 10
155.311
 20
-43.2031
 10
155.44
 20
-43.0421
 10
155.557
 20
-42.8683
 10
155.661
 20
-42.6817
 10
155.752
 20
-42.4842
 10
155.829
 20
-42.2775
 10
155.893
 20
-42.0617
 10
155.942
 20
-41.8368
 10
155.977
 20
-41.6027
 10
155.998
 20
-41.3595
 10
156.005
 20
-41.1071
 10
155.998
 20
-40.8539
 10
155.977
 20
-40.6106
 10
155.942
 20
-40.377
 10
155.894
 20
-40.1532
 10
155.831
 20
-39.9392
 10
155.755
 20
-39.7351
 10
155.665
 20
-39.5407
 10
155.562
 20
-39.3576
 10
155.446
 20
-39.1874
 10
155.318
 20
-39.0301
 10
155.178
 20
-38.8857
 10
155.025
 20
-38.7541
 10
154.86
 20
-38.6354
 10
154.682
 20
-38.5296
 10
154.494
 20
-38.4373
 10
154.296
 20
-38.3592
 10
154.089
 20
-38.2953
 10
153.872
 20
-38.2456
 10
153.646
 20
-38.2101
 10
153.41
 20
-38.1888
 10
153.165
 20
-38.1817
 10
152.793
 20
-38.1975
 10
152.446
 20
-38.245
 10
152.122
 20
-38.3241
 10
151.823
 20
-38.4348
 10
151.548
 20
-38.5772
 10
151.296
 20
-38.7512
 10
151.069
 20
-38.9568
 10
150.87
 20
-39.1905
 10
150.701
 20
-39.4487
 10
150.562
 20
-39.7314
 10
150.455
 20
-40.0386
 10
150.378
 20
-40.3703
 10
150.332
 20
-40.7264
 10
150.317
 20
-41.1071
 10
150.324
 20
-41.3606
 10
150.344
 20
-41.6048
 10
150.379
 20
-41.8399
 10
150.427
 20
-42.0657
 10
150.489
 20
-42.2823
 10
150.565
 20
-42.4897
 10
150.654
 20
-42.6879
 10
150.757
 20
-42.8749
 10
150.872
 20
-43.0489
 10
151
 20
-43.2098
 10
151.139
 20
-43.3578
 10
151.291
 20
-43.4927
 10
151.456
 20
-43.6145
 10
151.633
 20
-43.7233
 10
151.821
 20
-43.8183
 10
152.019
 20
-43.8987
 10
152.227
 20
-43.9645
 10
152.444
 20
-44.0156
 10
152.672
 20
-44.0521
 10
152.909
 20
-44.0741
 10
153.157
 20
-44.0814
  0
LWPOLYLINE
100
AcDbEntity
  8
0
100
AcDbPolyline
 90
56
 70
1
 10
152.89
 20
-43.4378
 10
152.64
 20
-43.3991
 10
152.407
 20
-43.3345
 10
152.192
 20
-43.2441
 10
151.994
 20
-43.1279
 10
151.813
 20
-42.9859
 10
151.649
 20
-42.8181
 10
151.505
 20
-42.6282
 10
151.383
 20
-42.4201
 10
151.283
 20
-42.1939
 10
151.206
 20
-41.9495
 10
151.15
 20
-41.6869
 10
151.117
 20
-41.4061
 10
151.106
 20
-41.1071
 10
151.117
 20
-40.8066
 10
151.15
 20
-40.5258
 10
151.205
 20
-40.2649
 10
151.281
 20
-40.0237
 10
151.38
 20
-39.8022
 10
151.501
 20
-39.6005
 10
151.643
 20
-39.4186
 10
151.806
 20
-39.2588
 10
151.987
 20
-39.1236
 10
152.186
 20
-39.013
 10
152.403
 20
-38.927
 10
152.639
 20
-38.8656
 10
152.893
 20
-38.8287
 10
153.165
 20
-38.8164
 10
153.435
 20
-38.8289
 10
153.687
 20
-38.8662
 10
153.921
 20
-38.9285
 10
154.137
 20
-39.0157
 10
154.335
 20
-39.1278
 10
154.514
 20
-39.2648
 10
154.676
 20
-39.4267
 10
154.818
 20
-39.6105
 10
154.938
 20
-39.813
 10
155.037
 20
-40.0343
 10
155.113
 20
-40.2744
 10
155.168
 20
-40.5332
 10
155.2
 20
-40.8108
 10
155.211
 20
-41.1071
 10
155.201
 20
-41.4165
 10
155.168
 20
-41.7051
 10
155.114
 20
-41.9731
 10
155.038
 20
-42.2205
 10
154.94
 20
-42.4471
 10
154.821
 20
-42.6531
 10
154.68
 20
-42.8384
 10
154.519
 20
-43.0008
 10
154.339
 20
-43.1383
 10
154.14
 20
-43.2508
 10
153.923
 20
-43.3382
 10
153.686
 20
-43.4007
 10
153.431
 20
-43.4382
 10
153.157
 20
-43.4507
  0
LWPOLYLINE
100
AcDbEntity
  8
0
100
AcDbPolyline
 90
114
 70
1
 10
159.86
 20
-44.0735
 10
160.089
 20
-44.0498
 10
160.31
 20
-44.0104
 10
160.522
 20
-43.9551
 10
160.726
 20
-43.8842
 10
160.922
 20
-43.7974
 10
161.109
 20
-43.6948
 10
161.287
 20
-43.5772
 10
161.452
 20
-43.4451
 10
161.606
 20
-43.2985
 10
161.748
 20
-43.1375
 10
161.879
 20
-42.9621
 10
161.997
 20
-42.7722
 10
162.104
 20
-42.5678
 10
161.47
 20
-42.2505
 10
161.284
 20
-42.5667
 10
161.074
 20
-42.8344
 10
160.84
 20
-43.0533
 10
160.581
 20
-43.2236
 10
160.298
 20
-43.3453
 10
159.991
 20
-43.4183
 10
159.659
 20
-43.4426
 10
159.398
 20
-43.4295
 10
159.154
 20
-43.3903
 10
158.925
 20
-43.3249
 10
158.712
 20
-43.2334
 10
158.514
 20
-43.1157
 10
158.333
 20
-42.9718
 10
158.168
 20
-42.8018
 10
158.021
 20
-42.6103
 10
157.898
 20
-42.4019
 10
157.796
 20
-42.1766
 10
157.718
 20
-41.9345
 10
157.661
 20
-41.6756
 10
157.628
 20
-41.3998
 10
157.616
 20
-41.1071
 10
157.627
 20
-40.8118
 10
157.66
 20
-40.535
 10
157.714
 20
-40.2767
 10
157.789
 20
-40.0369
 10
157.886
 20
-39.8157
 10
158.005
 20
-39.613
 10
158.145
 20
-39.4288
 10
158.305
 20
-39.2663
 10
158.482
 20
-39.1288
 10
158.676
 20
-39.0164
 10
158.888
 20
-38.9289
 10
159.117
 20
-38.8664
 10
159.363
 20
-38.8289
 10
159.626
 20
-38.8164
 10
159.796
 20
-38.8218
 10
159.959
 20
-38.838
 10
160.116
 20
-38.865
 10
160.265
 20
-38.9028
 10
160.408
 20
-38.9514
 10
160.545
 20
-39.0107
 10
160.674
 20
-39.0809
 10
160.795
 20
-39.1613
 10
160.907
 20
-39.2513
 10
161.008
 20
-39.3509
 10
161.1
 20
-39.4602
 10
161.181
 20
-39.5791
 10
161.253
 20
-39.7076
 10
161.315
 20
-39.8458
 10
162.051
 20
-39.6017
 10
161.962
 20
-39.4076
 10
161.86
 20
-39.2277
 10
161.744
 20
-39.0619
 10
161.615
 20
-38.9102
 10
161.473
 20
-38.7726
 10
161.317
 20
-38.6491
 10
161.148
 20
-38.5398
 10
160.966
 20
-38.4448
 10
160.772
 20
-38.3644
 10
160.566
 20
-38.2986
 10
160.348
 20
-38.2474
 10
160.117
 20
-38.2109
 10
159.874
 20
-38.189
 10
159.618
 20
-38.1817
 10
159.256
 20
-38.1975
 10
158.916
 20
-38.2451
 10
158.6
 20
-38.3244
 10
158.307
 20
-38.4354
 10
158.037
 20
-38.5782
 10
157.791
 20
-38.7526
 10
157.568
 20
-38.9588
 10
157.371
 20
-39.193
 10
157.205
 20
-39.4514
 10
157.069
 20
-39.734
 10
156.963
 20
-40.0409
 10
156.888
 20
-40.3721
 10
156.842
 20
-40.7275
 10
156.827
 20
-41.1071
 10
156.834
 20
-41.3636
 10
156.854
 20
-41.6101
 10
156.888
 20
-41.8466
 10
156.935
 20
-42.073
 10
156.996
 20
-42.2893
 10
157.071
 20
-42.4956
 10
157.159
 20
-42.6919
 10
157.26
 20
-42.8768
 10
157.373
 20
-43.0491
 10
157.498
 20
-43.2088
 10
157.636
 20
-43.3558
 10
157.786
 20
-43.4903
 10
157.948
 20
-43.6121
 10
158.123
 20
-43.7213
 10
158.309
 20
-43.8168
 10
158.504
 20
-43.8977
 10
158.708
 20
-43.9638
 10
158.922
 20
-44.0152
 10
159.146
 20
-44.052
 10
159.38
 20
-44.074
 10
159.622
 20
-44.0814
  0
LWPOLYLINE
100
AcDbEntity
  8
0
100
AcDbPolyline
 90
77
 70
1
 10
203.874
 20
-44.074
 10
204.11
 20
-44.0518
 10
204.336
 20
-44.0149
 10
204.553
 20
-43.9631
 10
204.76
 20
-43.8966
 10
204.958
 20
-43.8153
 10
205.146
 20
-43.7193
 10
205.324
 20
-43.6094
 10
205.489
 20
-43.4868
 10
205.642
 20
-43.3513
 10
205.783
 20
-43.2031
 10
205.912
 20
-43.0421
 10
206.029
 20
-42.8683
 10
206.133
 20
-42.6817
 10
206.224
 20
-42.4842
 10
206.301
 20
-42.2775
 10
206.365
 20
-42.0617
 10
206.414
 20
-41.8368
 10
206.449
 20
-41.6027
 10
206.47
 20
-41.3595
 10
206.477
 20
-41.1071
 10
206.47
 20
-40.8539
 10
206.449
 20
-40.6106
 10
206.414
 20
-40.377
 10
206.366
 20
-40.1532
 10
206.304
 20
-39.9392
 10
206.227
 20
-39.7351
 10
206.137
 20
-39.5407
 10
206.034
 20
-39.3576
 10
205.918
 20
-39.1874
 10
205.79
 20
-39.0301
 10
205.65
 20
-38.8857
 10
205.497
 20
-38.7541
 10
205.332
 20
-38.6354
 10
205.154
 20
-38.5296
 10
204.966
 20
-38.4373
 10
204.768
 20
-38.3592
 10
204.561
 20
-38.2953
 10
204.344
 20
-38.2456
 10
204.118
 20
-38.2101
 10
203.882
 20
-38.1888
 10
203.637
 20
-38.1817
 10
203.265
 20
-38.1975
 10
202.918
 20
-38.245
 10
202.594
 20
-38.3241
 10
202.295
 20
-38.4348
 10
202.02
 20
-38.5772
 10
201.769
 20
-38.7512
 10
201.541
 20
-38.9568
 10
201.342
 20
-39.1905
 10
201.173
 20
-39.4487
 10
201.035
 20
-39.7314
 10
200.927
 20
-40.0386
 10
200.85
 20
-40.3703
 10
200.804
 20
-40.7264
 10
200.789
 20
-41.1071
 10
200.796
 20
-41.3606
 10
200.816
 20
-41.6048
 10
200.851
 20
-41.8399
 10
200.899
 20
-42.0657
 10
200.961
 20
-42.2823
 10
201.037
 20
-42.4897
 10
201.126
 20
-42.6879
 10
201.229
 20
-42.8749
 10
201.344
 20
-43.0489
 10
201.472
 20
-43.2098
 10
201.611
 20
-43.3578
 10
201.764
 20
-43.4927
 10
201.928
 20
-43.6145
 10
202.105
 20
-43.7233
 10
202.293
 20
-43.8183
 10
202.491
 20
-43.8987
 10
202.699
 20
-43.9645
 10
202.916
 20
-44.0156
 10
203.144
 20
-44.0521
 10
203.381
 20
-44.0741
 10
203.629
 20
-44.0814
  0
LWPOLYLINE
100
AcDbEntity
  8
0
100
AcDbPolyline
 90
56
 70
1
 10
203.362
 20
-43.4378
 10
203.112
 20
-43.3991
 10
202.88
 20
-43.3345
 10
202.664
 20
-43.2441
 10
202.466
 20
-43.1279
 10
202.285
 20
-42.9859
 10
202.121
 20
-42.8181
 10
201.977
 20
-42.6282
 10
201.855
 20
-42.4201
 10
201.755
 20
-42.1939
 10
201.678
 20
-41.9495
 10
201.622
 20
-41.6869
 10
201.589
 20
-41.4061
 10
201.578
 20
-41.1071
 10
201.589
 20
-40.8066
 10
201.622
 20
-40.5258
 10
201.677
 20
-40.2649
 10
201.753
 20
-40.0237
 10
201.852
 20
-39.8022
 10
201.973
 20
-39.6005
 10
202.115
 20
-39.4186
 10
202.278
 20
-39.2588
 10
202.459
 20
-39.1236
 10
202.658
 20
-39.013
 10
202.875
 20
-38.927
 10
203.111
 20
-38.8656
 10
203.365
 20
-38.8287
 10
203.637
 20
-38.8164
 10
203.907
 20
-38.8289
 10
204.159
 20
-38.8662
 10
204.393
 20
-38.9285
 10
204.609
 20
-39.0157
 10
204.807
 20
-39.1278
 10
204.987
 20
-39.2648
 10
205.148
 20
-39.4267
 10
205.29
 20
-39.6105
 10
205.41
 20
-39.813
 10
205.509
 20
-40.0343
 10
205.585
 20
-40.2744
 10
205.64
 20
-40.5332
 10
205.673
 20
-40.8108
 10
205.683
 20
-41.1071
 10
205.673
 20
-41.4165
 10
205.64
 20
-41.7051
 10
205.586
 20
-41.9731
 10
205.51
 20
-42.2205
 10
205.413
 20
-42.4471
 10
205.293
 20
-42.6531
 10
205.152
 20
-42.8384
 10
204.991
 20
-43.0008
 10
204.811
 20
-43.1383
 10
204.613
 20
-43.2508
 10
204.395
 20
-43.3382
 10
204.158
 20
-43.4007
 10
203.903
 20
-43.4382
 10
203.629
 20
-43.4507
  0
LWPOLYLINE
100
AcDbEntity
  8
0
100
AcDbPolyline
 90
114
 70
1
 10
212.647
 20
-44.0735
 10
212.877
 20
-44.0498
 10
213.097
 20
-44.0104
 10
213.31
 20
-43.9551
 10
213.514
 20
-43.8842
 10
213.71
 20
-43.7974
 10
213.897
 20
-43.6948
 10
214.074
 20
-43.5772
 10
214.24
 20
-43.4451
 10
214.393
 20
-43.2985
 10
214.536
 20
-43.1375
 10
214.666
 20
-42.9621
 10
214.785
 20
-42.7722
 10
214.892
 20
-42.5678
 10
214.257
 20
-42.2505
 10
214.071
 20
-42.5667
 10
213.862
 20
-42.8344
 10
213.627
 20
-43.0533
 10
213.369
 20
-43.2236
 10
213.086
 20
-43.3453
 10
212.778
 20
-43.4183
 10
212.446
 20
-43.4426
 10
212.186
 20
-43.4295
 10
211.941
 20
-43.3903
 10
211.712
 20
-43.3249
 10
211.499
 20
-43.2334
 10
211.302
 20
-43.1157
 10
211.12
 20
-42.9718
 10
210.955
 20
-42.8018
 10
210.809
 20
-42.6103
 10
210.685
 20
-42.4019
 10
210.584
 20
-42.1766
 10
210.505
 20
-41.9345
 10
210.449
 20
-41.6756
 10
210.415
 20
-41.3998
 10
210.404
 20
-41.1071
 10
210.415
 20
-40.8118
 10
210.447
 20
-40.535
 10
210.501
 20
-40.2767
 10
210.576
 20
-40.0369
 10
210.674
 20
-39.8157
 10
210.792
 20
-39.613
 10
210.933
 20
-39.4288
 10
211.092
 20
-39.2663
 10
211.269
 20
-39.1288
 10
211.464
 20
-39.0164
 10
211.675
 20
-38.9289
 10
211.904
 20
-38.8664
 10
212.15
 20
-38.8289
 10
212.414
 20
-38.8164
 10
212.584
 20
-38.8218
 10
212.747
 20
-38.838
 10
212.903
 20
-38.865
 10
213.053
 20
-38.9028
 10
213.196
 20
-38.9514
 10
213.332
 20
-39.0107
 10
213.461
 20
-39.0809
 10
213.583
 20
-39.1613
 10
213.694
 20
-39.2513
 10
213.795
 20
-39.3509
 10
213.887
 20
-39.4602
 10
213.969
 20
-39.5791
 10
214.04
 20
-39.7076
 10
214.102
 20
-39.8458
 10
214.839
 20
-39.6017
 10
214.75
 20
-39.4076
 10
214.647
 20
-39.2277
 10
214.531
 20
-39.0619
 10
214.402
 20
-38.9102
 10
214.26
 20
-38.7726
 10
214.104
 20
-38.6491
 10
213.935
 20
-38.5398
 10
213.754
 20
-38.4448
 10
213.56
 20
-38.3644
 10
213.354
 20
-38.2986
 10
213.135
 20
-38.2474
 10
212.904
 20
-38.2109
 10
212.661
 20
-38.189
 10
212.406
 20
-38.1817
 10
212.043
 20
-38.1975
 10
211.703
 20
-38.2451
 10
211.387
 20
-38.3244
 10
211.094
 20
-38.4354
 10
210.825
 20
-38.5782
 10
210.578
 20
-38.7526
 10
210.355
 20
-38.9588
 10
210.158
 20
-39.193
 10
209.992
 20
-39.4514
 10
209.856
 20
-39.734
 10
209.75
 20
-40.0409
 10
209.675
 20
-40.3721
 10
209.63
 20
-40.7275
 10
209.614
 20
-41.1071
 10
209.621
 20
-41.3636
 10
209.642
 20
-41.6101
 10
209.675
 20
-41.8466
 10
209.723
 20
-42.073
 10
209.784
 20
-42.2893
 10
209.858
 20
-42.4956
 10
209.946
 20
-42.6919
 10
210.047
 20
-42.8768
 10
210.16
 20
-43.0491
 10
210.286
 20
-43.2088
 10
210.423
 20
-43.3558
 10
210.573
 20
-43.4903
 10
210.736
 20
-43.6121
 10
210.91
 20
-43.7213
 10
211.096
 20
-43.8168
 10
211.291
 20
-43.8977
 10
211.496
 20
-43.9638
 10
211.71
 20
-44.0152
 10
211.934
 20
-44.052
 10
212.167
 20
-44.074
 10
212.41
 20
-44.0814
  0
LWPOLYLINE
100
AcDbEntity
  8
0
100
AcDbPolyline
 90
36
 70
1
 10
12.9426
 20
-41.6198
 10
14.7288
 20
-41.6198
 10
16.218
 20
-44
 10
17.1131
 20
-44
 10
15.4856
 20
-41.5303
 10
15.667
 20
-41.4912
 10
15.8368
 20
-41.4389
 10
15.9951
 20
-41.3736
 10
16.1419
 20
-41.2951
 10
16.2771
 20
-41.2035
 10
16.4008
 20
-41.0988
 10
16.5129
 20
-40.981
 10
16.6117
 20
-40.8524
 10
16.6953
 20
-40.7156
 10
16.7637
 20
-40.5705
 10
16.8168
 20
-40.417
 10
16.8548
 20
-40.2553
 10
16.8776
 20
-40.0852
 10
16.8852
 20
-39.9069
 10
16.8745
 20
-39.6929
 10
16.8422
 20
-39.4928
 10
16.7884
 20
-39.3066
 10
16.7132
 20
-39.1343
 10
16.6164
 20
-38.9758
 10
16.4981
 20
-38.8312
 10
16.3583
 20
-38.7004
 10
16.1988
 20
-38.5855
 10
16.0212
 20
-38.4882
 10
15.8256
 20
-38.4086
 10
15.612
 20
-38.3467
 10
15.3804
 20
-38.3025
 10
15.1307
 20
-38.276
 10
14.863
 20
-38.2671
 10
12.1655
 20
-38.2671
 10
12.1655
 20
-44
 10
12.9426
 20
-44
  0
LWPOLYLINE
100
AcDbEntity
  8
0
100
AcDbPolyline
 90
31
 70
1
 10
12.9426
 20
-38.8896
 10
14.7858
 20
-38.8896
 10
14.9622
 20
-38.895
 10
15.1264
 20
-38.911
 10
15.2783
 20
-38.9378
 10
15.4181
 20
-38.9753
 10
15.5457
 20
-39.0235
 10
15.6611
 20
-39.0824
 10
15.7642
 20
-39.1521
 10
15.8544
 20
-39.2319
 10
15.9307
 20
-39.3215
 10
15.9931
 20
-39.4207
 10
16.0416
 20
-39.5297
 10
16.0763
 20
-39.6484
 10
16.0971
 20
-39.7768
 10
16.104
 20
-39.915
 10
16.0972
 20
-40.0579
 10
16.0766
 20
-40.1915
 10
16.0424
 20
-40.3156
 10
15.9944
 20
-40.4304
 10
15.9327
 20
-40.5359
 10
15.8574
 20
-40.6319
 10
15.7683
 20
-40.7185
 10
15.6667
 20
-40.7946
 10
15.5538
 20
-40.859
 10
15.4294
 20
-40.9117
 10
15.2937
 20
-40.9527
 10
15.1466
 20
-40.982
 10
14.9881
 20
-40.9995
 10
14.8183
 20
-41.0054
 10
12.9426
 20
-41.0054
  0
LWPOLYLINE
100
AcDbEntity
  8
0
100
AcDbPolyline
 90
12
 70
1
 10
22.6998
 20
-43.3653
 10
18.9607
 20
-43.3653
 10
18.9607
 20
-41.3675
 10
22.2889
 20
-41.3675
 10
22.2889
 20
-40.7409
 10
18.9607
 20
-40.7409
 10
18.9607
 20
-38.9019
 10
22.533
 20
-38.9019
 10
22.533
 20
-38.2671
 10
18.1836
 20
-38.2671
 10
18.1836
 20
-44
 10
22.6998
 20
-44
  0
LWPOLYLINE
100
AcDbEntity
  8
0
100
AcDbPolyline
 90
12
 70
1
 10
28.2581
 20
-43.3653
 10
24.519
 20
-43.3653
 10
24.519
 20
-41.3675
 10
27.8472
 20
-41.3675
 10
27.8472
 20
-40.7409
 10
24.519
 20
-40.7409
 10
24.519
 20
-38.9019
 10
28.0913
 20
-38.9019
 10
28.0913
 20
-38.2671
 10
23.7418
 20
-38.2671
 10
23.7418
 20
-44
 10
28.2581
 20
-44
  0
LWPOLYLINE
100
AcDbEntity
  8
0
100
AcDbPolyline
 90
19
 70
1
 10
29.9918
 20
-40.1916
 10
29.9715
 20
-39.5122
 10
29.9511
 20
-39.1175
 10
33.0189
 20
-44
 10
33.9547
 20
-44
 10
33.9547
 20
-38.2671
 10
33.2549
 20
-38.2671
 10
33.2549
 20
-42.0267
 10
33.2559
 20
-42.1379
 10
33.2589
 20
-42.2671
 10
33.2639
 20
-42.4143
 10
33.2708
 20
-42.5793
 10
33.2798
 20
-42.7624
 10
33.2908
 20
-42.9633
 10
33.3037
 20
-43.1822
 10
30.2034
 20
-38.2671
 10
29.3001
 20
-38.2671
 10
29.3001
 20
-44
 10
29.9918
 20
-44
  0
LWPOLYLINE
100
AcDbEntity
  8
0
100
AcDbPolyline
 90
33
 70
1
 10
38.4106
 20
-41.7663
 10
40.095
 20
-41.7663
 10
40.3477
 20
-41.7565
 10
40.5848
 20
-41.7271
 10
40.8063
 20
-41.6781
 10
41.0124
 20
-41.6095
 10
41.2029
 20
-41.5213
 10
41.3779
 20
-41.4135
 10
41.5374
 20
-41.2861
 10
41.6782
 20
-41.1422
 10
41.7974
 20
-40.9846
 10
41.895
 20
-40.8133
 10
41.9708
 20
-40.6285
 10
42.025
 20
-40.4301
 10
42.0575
 20
-40.218
 10
42.0684
 20
-39.9923
 10
42.0576
 20
-39.765
 10
42.0252
 20
-39.5529
 10
41.9712
 20
-39.3558
 10
41.8956
 20
-39.1739
 10
41.7985
 20
-39.0071
 10
41.6797
 20
-38.8554
 10
41.5394
 20
-38.7188
 10
41.3794
 20
-38.599
 10
41.2016
 20
-38.4976
 10
41.0061
 20
-38.4146
 10
40.7928
 20
-38.3501
 10
40.5617
 20
-38.304
 10
40.3128
 20
-38.2763
 10
40.0462
 20
-38.2671
 10
37.6335
 20
-38.2671
 10
37.6335
 20
-44
 10
38.4106
 20
-44
  0
LWPOLYLINE
100
AcDbEntity
  8
0
100
AcDbPolyline
 90
17
 70
1
 10
38.4106
 20
-38.8896
 10
39.9526
 20
-38.8896
 10
40.3067
 20
-38.9123
 10
40.6063
 20
-38.9803
 10
40.8514
 20
-39.0936
 10
41.042
 20
-39.2523
 10
41.1782
 20
-39.4563
 10
41.2599
 20
-39.7057
 10
41.2872
 20
-40.0004
 10
41.2606
 20
-40.3059
 10
41.1809
 20
-40.5644
 10
41.048
 20
-40.7759
 10
40.862
 20
-40.9404
 10
40.6229
 20
-41.0579
 10
40.3306
 20
-41.1284
 10
39.9852
 20
-41.1519
 10
38.4106
 20
-41.1519
  0
LWPOLYLINE
100
AcDbEntity
  8
0
100
AcDbPolyline
 90
6
 70
1
 10
46.8658
 20
-43.3653
 10
43.9689
 20
-43.3653
 10
43.9689
 20
-38.2671
 10
43.1917
 20
-38.2671
 10
43.1917
 20
-44
 10
46.8658
 20
-44
  0
LWPOLYLINE
100
AcDbEntity
  8
0
100
AcDbPolyline
 90
8
 70
1
 10
48.6238
 20
-42.3237
 10
51.2359
 20
-42.3237
 10
51.891
 20
-44
 10
52.6844
 20
-44
 10
50.3815
 20
-38.2671
 10
49.4985
 20
-38.2671
 10
47.159
 20
-44
 10
47.9646
 20
-44
  0
LWPOLYLINE
100
AcDbEntity
  8
0
100
AcDbPolyline
 90
19
 70
1
 10
49.5921
 20
-39.8336
 10
49.6471
 20
-39.6864
 10
49.6981
 20
-39.547
 10
49.7451
 20
-39.4153
 10
49.7881
 20
-39.2915
 10
49.8271
 20
-39.1755
 10
49.8621
 20
-39.0673
 10
49.8932
 20
-38.967
 10
49.9299
 20
-38.853
 10
50.0397
 20
-39.1908
 10
50.0723
 20
-39.2904
 10
50.1048
 20
-39.387
 10
50.1373
 20
-39.4807
 10
50.1699
 20
-39.5714
 10
50.2024
 20
-39.659
 10
50.235
 20
-39.7437
 10
50.2675
 20
-39.8254
 10
51.004
 20
-41.7174
 10
48.8598
 20
-41.7174
  0
LWPOLYLINE
100
AcDbEntity
  8
0
100
AcDbPolyline
 90
8
 70
1
 10
55.012
 20
-38.9019
 10
56.9813
 20
-38.9019
 10
56.9813
 20
-38.2671
 10
52.2697
 20
-38.2671
 10
52.2697
 20
-38.9019
 10
54.239
 20
-38.9019
 10
54.239
 20
-44
 10
55.012
 20
-44
  0
LWPOLYLINE
100
AcDbEntity
  8
0
100
AcDbPolyline
 90
12
 70
1
 10
62.3727
 20
-43.3653
 10
58.6336
 20
-43.3653
 10
58.6336
 20
-41.3675
 10
61.9618
 20
-41.3675
 10
61.9618
 20
-40.7409
 10
58.6336
 20
-40.7409
 10
58.6336
 20
-38.9019
 10
62.2059
 20
-38.9019
 10
62.2059
 20
-38.2671
 10
57.8565
 20
-38.2671
 10
57.8565
 20
-44
 10
62.3727
 20
-44
  0
LWPOLYLINE
100
AcDbEntity
  8
0
100
AcDbPolyline
 90
6
 70
1
 10
69.4041
 20
-43.3653
 10
66.5071
 20
-43.3653
 10
66.5071
 20
-38.2671
 10
65.73
 20
-38.2671
 10
65.73
 20
-44
 10
69.4041
 20
-44
  0
LWPOLYLINE
100
AcDbEntity
  8
0
100
AcDbPolyline
 90
12
 70
1
 10
74.8809
 20
-43.3653
 10
71.1417
 20
-43.3653
 10
71.1417
 20
-41.3675
 10
74.4699
 20
-41.3675
 10
74.4699
 20
-40.7409
 10
71.1417
 20
-40.7409
 10
71.1417
 20
-38.9019
 10
74.7141
 20
-38.9019
 10
74.7141
 20
-38.2671
 10
70.3646
 20
-38.2671
 10
70.3646
 20
-44
 10
74.8809
 20
-44
  0
LWPOLYLINE
100
AcDbEntity
  8
0
100
AcDbPolyline
 90
10
 70
1
 10
76.7
 20
-41.6767
 10
79.898
 20
-41.6767
 10
79.898
 20
-41.0339
 10
76.7
 20
-41.0339
 10
76.7
 20
-38.9019
 10
79.9957
 20
-38.9019
 10
79.9957
 20
-38.2671
 10
75.9229
 20
-38.2671
 10
75.9229
 20
-44
 10
76.7
 20
-44
  0
LWPOLYLINE
100
AcDbEntity
  8
0
100
AcDbPolyline
 90
8
 70
1
 10
83.2591
 20
-38.9019
 10
85.2284
 20
-38.9019
 10
85.2284
 20
-38.2671
 10
80.5168
 20
-38.2671
 10
80.5168
 20
-38.9019
 10
82.4861
 20
-38.9019
 10
82.4861
 20
-44
 10
83.2591
 20
-44
  0
LWPOLYLINE
100
AcDbEntity
  8
0
100
AcDbPolyline
 90
10
 70
1
 10
108.943
 20
-41.6767
 10
112.141
 20
-41.6767
 10
112.141
 20
-41.0339
 10
108.943
 20
-41.0339
 10
108.943
 20
-38.9019
 10
112.239
 20
-38.9019
 10
112.239
 20
-38.2671
 10
108.166
 20
-38.2671
 10
108.166
 20
-44
 10
108.943
 20
-44
  0
LWPOLYLINE
100
AcDbEntity
  8
0
100
AcDbPolyline
 90
36
 70
1
 10
114.033
 20
-41.6198
 10
115.819
 20
-41.6198
 10
117.309
 20
-44
 10
118.204
 20
-44
 10
116.576
 20
-41.5303
 10
116.758
 20
-41.4912
 10
116.927
 20
-41.4389
 10
117.086
 20
-41.3736
 10
117.233
 20
-41.2951
 10
117.368
 20
-41.2035
 10
117.491
 20
-41.0988
 10
117.604
 20
-40.981
 10
117.702
 20
-40.8524
 10
117.786
 20
-40.7156
 10
117.854
 20
-40.5705
 10
117.907
 20
-40.417
 10
117.945
 20
-40.2553
 10
117.968
 20
-40.0852
 10
117.976
 20
-39.9069
 10
117.965
 20
-39.6929
 10
117.933
 20
-39.4928
 10
117.879
 20
-39.3066
 10
117.804
 20
-39.1343
 10
117.707
 20
-38.9758
 10
117.589
 20
-38.8312
 10
117.449
 20
-38.7004
 10
117.289
 20
-38.5855
 10
117.112
 20
-38.4882
 10
116.916
 20
-38.4086
 10
116.703
 20
-38.3467
 10
116.471
 20
-38.3025
 10
116.221
 20
-38.276
 10
115.954
 20
-38.2671
 10
113.256
 20
-38.2671
 10
113.256
 20
-44
 10
114.033
 20
-44
  0
LWPOLYLINE
100
AcDbEntity
  8
0
100
AcDbPolyline
 90
31
 70
1
 10
114.033
 20
-38.8896
 10
115.876
 20
-38.8896
 10
116.053
 20
-38.895
 10
116.217
 20
-38.911
 10
116.369
 20
-38.9378
 10
116.509
 20
-38.9753
 10
116.636
 20
-39.0235
 10
116.752
 20
-39.0824
 10
116.855
 20
-39.1521
 10
116.945
 20
-39.2319
 10
117.021
 20
-39.3215
 10
117.084
 20
-39.4207
 10
117.132
 20
-39.5297
 10
117.167
 20
-39.6484
 10
117.188
 20
-39.7768
 10
117.195
 20
-39.915
 10
117.188
 20
-40.0579
 10
117.167
 20
-40.1915
 10
117.133
 20
-40.3156
 10
117.085
 20
-40.4304
 10
117.023
 20
-40.5359
 10
116.948
 20
-40.6319
 10
116.859
 20
-40.7185
 10
116.757
 20
-40.7946
 10
116.644
 20
-40.859
 10
116.52
 20
-40.9117
 10
116.384
 20
-40.9527
 10
116.237
 20
-40.982
 10
116.079
 20
-40.9995
 10
115.909
 20
-41.0054
 10
114.033
 20
-41.0054
  0
LWPOLYLINE
100
AcDbEntity
  8
0
100
AcDbPolyline
 90
19
 70
1
 10
126.448
 20
-40.1916
 10
126.427
 20
-39.5122
 10
126.407
 20
-39.1175
 10
129.475
 20
-44
 10
130.411
 20
-44
 10
130.411
 20
-38.2671
 10
129.711
 20
-38.2671
 10
129.711
 20
-42.0267
 10
129.712
 20
-42.1379
 10
129.715
 20
-42.2671
 10
129.72
 20
-42.4143
 10
129.727
 20
-42.5793
 10
129.736
 20
-42.7624
 10
129.747
 20
-42.9633
 10
129.76
 20
-43.1822
 10
126.659
 20
-38.2671
 10
125.756
 20
-38.2671
 10
125.756
 20
-44
 10
126.448
 20
-44
  0
LWPOLYLINE
100
AcDbEntity
  8
0
100
AcDbPolyline
 90
8
 70
1
 10
134.02
 20
-38.9019
 10
135.989
 20
-38.9019
 10
135.989
 20
-38.2671
 10
131.278
 20
-38.2671
 10
131.278
 20
-38.9019
 10
133.247
 20
-38.9019
 10
133.247
 20
-44
 10
134.02
 20
-44
  0
LWPOLYLINE
100
AcDbEntity
  8
0
100
AcDbPolyline
 90
12
 70
1
 10
145.365
 20
-41.3431
 10
148.465
 20
-41.3431
 10
148.465
 20
-44
 10
149.242
 20
-44
 10
149.242
 20
-38.2671
 10
148.465
 20
-38.2671
 10
148.465
 20
-40.6921
 10
145.365
 20
-40.6921
 10
145.365
 20
-38.2671
 10
144.588
 20
-38.2671
 10
144.588
 20
-44
 10
145.365
 20
-44
  0
LWPOLYLINE
100
AcDbEntity
  8
0
100
AcDbPolyline
 90
12
 70
1
 10
163.883
 20
-41.8029
 10
164.631
 20
-41.2332
 10
166.922
 20
-44
 10
167.886
 20
-44
 10
165.12
 20
-40.7572
 10
167.561
 20
-38.2671
 10
166.645
 20
-38.2671
 10
163.883
 20
-41.1397
 10
163.883
 20
-38.2671
 10
163.106
 20
-38.2671
 10
163.106
 20
-44
 10
163.883
 20
-44
  0
LWPOLYLINE
100
AcDbEntity
  8
0
100
AcDbPolyline
 90
12
 70
1
 10
175.495
 20
-43.3653
 10
171.756
 20
-43.3653
 10
171.756
 20
-41.3675
 10
175.084
 20
-41.3675
 10
175.084
 20
-40.7409
 10
171.756
 20
-40.7409
 10
171.756
 20
-38.9019
 10
175.329
 20
-38.9019
 10
175.329
 20
-38.2671
 10
170.979
 20
-38.2671
 10
170.979
 20
-44
 10
175.495
 20
-44
  0
LWPOLYLINE
100
AcDbEntity
  8
0
100
AcDbPolyline
 90
9
 70
1
 10
179.015
 20
-41.6238
 10
181.229
 20
-38.2671
 10
180.374
 20
-38.2671
 10
178.637
 20
-40.9972
 10
176.891
 20
-38.2671
 10
176.037
 20
-38.2671
 10
178.242
 20
-41.6238
 10
178.242
 20
-44
 10
179.015
 20
-44
  0
LWPOLYLINE
100
AcDbEntity
  8
0
100
AcDbPolyline
 90
12
 70
1
 10
186.612
 20
-43.3653
 10
182.873
 20
-43.3653
 10
182.873
 20
-41.3675
 10
186.201
 20
-41.3675
 10
186.201
 20
-40.7409
 10
182.873
 20
-40.7409
 10
182.873
 20
-38.9019
 10
186.445
 20
-38.9019
 10
186.445
 20
-38.2671
 10
182.096
 20
-38.2671
 10
182.096
 20
-44
 10
186.612
 20
-44
  0
LWPOLYLINE
100
AcDbEntity
  8
0
100
AcDbPolyline
 90
19
 70
1
 10
195.751
 20
-40.1916
 10
195.731
 20
-39.5122
 10
195.711
 20
-39.1175
 10
198.778
 20
-44
 10
199.714
 20
-44
 10
199.714
 20
-38.2671
 10
199.014
 20
-38.2671
 10
199.014
 20
-42.0267
 10
199.015
 20
-42.1379
 10
199.018
 20
-42.2671
 10
199.023
 20
-42.4143
 10
199.03
 20
-42.5793
 10
199.039
 20
-42.7624
 10
199.05
 20
-42.9633
 10
199.063
 20
-43.1822
 10
195.963
 20
-38.2671
 10
195.06
 20
-38.2671
 10
195.06
 20
-44
 10
195.751
 20
-44
  0
LWPOLYLINE
100
AcDbEntity
  8
0
100
AcDbPolyline
 90
76
 70
1
 10
218.389
 20
-44.0759
 10
218.586
 20
-44.0596
 10
218.776
 20
-44.0324
 10
218.957
 20
-43.9944
 10
219.131
 20
-43.9454
 10
219.297
 20
-43.8856
 10
219.455
 20
-43.8149
 10
219.604
 20
-43.7339
 10
219.743
 20
-43.6432
 10
219.872
 20
-43.5427
 10
219.992
 20
-43.4326
 10
220.101
 20
-43.3127
 10
220.2
 20
-43.1831
 10
220.289
 20
-43.0438
 10
220.367
 20
-42.8958
 10
220.434
 20
-42.7399
 10
220.488
 20
-42.5763
 10
220.53
 20
-42.4048
 10
220.56
 20
-42.2255
 10
220.578
 20
-42.0384
 10
220.584
 20
-41.8435
 10
220.584
 20
-38.2671
 10
219.811
 20
-38.2671
 10
219.811
 20
-41.7988
 10
219.802
 20
-42.0222
 10
219.776
 20
-42.2297
 10
219.732
 20
-42.4214
 10
219.671
 20
-42.5973
 10
219.592
 20
-42.7572
 10
219.496
 20
-42.9014
 10
219.382
 20
-43.0296
 10
219.252
 20
-43.1413
 10
219.109
 20
-43.2359
 10
218.951
 20
-43.3132
 10
218.779
 20
-43.3734
 10
218.593
 20
-43.4163
 10
218.393
 20
-43.4421
 10
218.18
 20
-43.4507
 10
217.972
 20
-43.4424
 10
217.778
 20
-43.4175
 10
217.599
 20
-43.376
 10
217.435
 20
-43.3178
 10
217.285
 20
-43.2431
 10
217.149
 20
-43.1518
 10
217.028
 20
-43.0438
 10
216.922
 20
-42.9199
 10
216.833
 20
-42.7805
 10
216.76
 20
-42.6256
 10
216.703
 20
-42.4553
 10
216.662
 20
-42.2695
 10
216.637
 20
-42.0683
 10
216.629
 20
-41.8517
 10
216.629
 20
-38.2671
 10
215.852
 20
-38.2671
 10
215.852
 20
-41.9168
 10
215.858
 20
-42.106
 10
215.876
 20
-42.2875
 10
215.905
 20
-42.4614
 10
215.947
 20
-42.6276
 10
216
 20
-42.7862
 10
216.064
 20
-42.9372
 10
216.141
 20
-43.0805
 10
216.228
 20
-43.2153
 10
216.325
 20
-43.3406
 10
216.432
 20
-43.4564
 10
216.548
 20
-43.5627
 10
216.674
 20
-43.6596
 10
216.81
 20
-43.7471
 10
216.955
 20
-43.825
 10
217.108
 20
-43.893
 10
217.269
 20
-43.9506
 10
217.438
 20
-43.9977
 10
217.613
 20
-44.0343
 10
217.796
 20
-44.0604
 10
217.986
 20
-44.0761
 10
218.184
 20
-44.0814
  0
LWPOLYLINE
100
AcDbEntity
  8
0
100
AcDbPolyline
 90
8
 70
1
 10
224.157
 20
-38.9019
 10
226.126
 20
-38.9019
 10
226.126
 20
-38.2671
 10
221.415
 20
-38.2671
 10
221.415
 20
-38.9019
 10
223.384
 20
-38.9019
 10
223.384
 20
-44
 10
224.157
 20
-44
  0
LWPOLYLINE
100
AcDbEntity
  8
0
100
AcDbPolyline
 90
10
 70
1
 10
96.8862
 20
-43.4344
 10
94.3351
 20
-43.4344
 10
96.8008
 20
-40.155
 10
96.8008
 20
-39.5976
 10
93.6109
 20
-39.5976
 10
93.6109
 20
-40.1632
 10
95.9341
 20
-40.1632
 10
93.4725
 20
-43.4426
 10
93.4725
 20
-44
 10
96.8862
 20
-44
  0
LWPOLYLINE
100
AcDbEntity
  8
0
100
AcDbPolyline
 90
4
 70
1
 10
92.7644
 20
-41.4611
 10
90.73
 20
-41.4611
 10
90.73
 20
-42.1121
 10
92.7644
 20
-42.1121
  0
LWPOLYLINE
100
AcDbEntity
  8
0
100
AcDbPolyline
 90
4
 70
1
 10
104.796
 20
-41.4611
 10
102.762
 20
-41.4611
 10
102.762
 20
-42.1121
 10
104.796
 20
-42.1121
  0
LWPOLYLINE
100
AcDbEntity
  8
0
100
AcDbPolyline
 90
4
 70
1
 10
191.69
 20
-41.4611
 10
189.656
 20
-41.4611
 10
189.656
 20
-42.1121
 10
191.69
 20
-42.1121
  0
LWPOLYLINE
100
AcDbEntity
  8
0
100
AcDbPolyline
 90
4
 70
1
 10
213
 20
-50
 10
5
 20
-50
 10
5
 20
-110
 10
213
 20
-110
  0
LWPOLYLINE
100
AcDbEntity
  8
0
100
AcDbPolyline
 90
38
 70
1
 10
191.969
 20
-71.0715
 10
191.313
 20
-70.8462
 10
190.703
 20
-70.5161
 10
190.155
 20
-70.09
 10
189.686
 20
-69.5797
 10
189.306
 20
-68.999
 10
189.028
 20
-68.3637
 10
188.857
 20
-67.6913
 10
188.8
 20
-67
 10
188.857
 20
-66.3087
 10
189.028
 20
-65.6363
 10
189.306
 20
-65.001
 10
189.686
 20
-64.4203
 10
190.155
 20
-63.91
 10
190.703
 20
-63.4839
 10
191.313
 20
-63.1538
 10
191.969
 20
-62.9285
 10
192.653
 20
-62.8143
 10
193.347
 20
-62.8143
 10
194.031
 20
-62.9285
 10
194.687
 20
-63.1538
 10
195.297
 20
-63.4839
 10
195.845
 20
-63.91
 10
196.314
 20
-64.4203
 10
196.694
 20
-65.001
 10
196.972
 20
-65.6363
 10
197.143
 20
-66.3087
 10
197.2
 20
-67
 10
197.143
 20
-67.6913
 10
196.972
 20
-68.3637
 10
196.694
 20
-68.999
 10
196.314
 20
-69.5797
 10
195.845
 20
-70.09
 10
195.297
 20
-70.5161
 10
194.687
 20
-70.8462
 10
194.031
 20
-71.0715
 10
193.347
 20
-71.1857
 10
192.653
 20
-71.1857
  0
LWPOLYLINE
100
AcDbEntity
  8
0
100
AcDbPolyline
 90
59
 70
1
 10
24.1373
 20
-86.4425
 10
23.4574
 20
-86.3143
 10
22.7949
 20
-86.1146
 10
22.1575
 20
-85.8455
 10
21.5523
 20
-85.5103
 10
20.9861
 20
-85.1126
 10
20.4654
 20
-84.657
 10
19.9961
 20
-84.1486
 10
19.5835
 20
-83.5932
 10
19.2322
 20
-82.9971
 10
18.9463
 20
-82.367
 10
18.729
 20
-81.7102
 10
18.5828
 20
-81.0339
 10
18.5092
 20
-80.3459
 10
18.5092
 20
-79.6541
 10
18.5828
 20
-78.9661
 10
18.729
 20
-78.2898
 10
18.9463
 20
-77.633
 10
19.2322
 20
-77.0029
 10
19.5835
 20
-76.4068
 10
19.9961
 20
-75.8514
 10
20.4654
 20
-75.343
 10
20.9861
 20
-74.8874
 10
21.5523
 20
-74.4897
 10
22.1575
 20
-74.1545
 10
22.7949
 20
-73.8854
 10
23.4574
 20
-73.6857
 10
24.1373
 20
-73.5575
 10
24.827
 20
-73.5023
 10
25.5186
 20
-73.5207
 10
26.2044
 20
-73.6126
 10
26.8765
 20
-73.7768
 10
27.5274
 20
-74.0115
 10
28.1496
 20
-74.314
 10
28.7361
 20
-74.681
 10
29.2803
 20
-75.1083
 10
29.776
 20
-75.591
 10
30.2176
 20
-76.1236
 10
30.6001
 20
-76.7002
 10
30.9191
 20
-77.3141
 10
31.1711
 20
-77.9585
 10
31.3531
 20
-78.626
 10
31.4632
 20
-79.3091
 10
31.5
 20
-80
 10
31.4632
 20
-80.6909
 10
31.3531
 20
-81.374
 10
31.1711
 20
-82.0415
 10
30.9191
 20
-82.6859
 10
30.6001
 20
-83.2998
 10
30.2176
 20
-83.8764
 10
29.776
 20
-84.409
 10
29.2803
 20
-84.8917
 10
28.7361
 20
-85.319
 10
28.1496
 20
-85.686
 10
27.5274
 20
-85.9885
 10
26.8765
 20
-86.2232
 10
26.2044
 20
-86.3874
 10
25.5186
 20
-86.4793
 10
24.827
 20
-86.4977
  0
LWPOLYLINE
100
AcDbEntity
  8
0
100
AcDbPolyline
 90
59
 70
1
 10
84.1373
 20
-86.4425
 10
83.4574
 20
-86.3143
 10
82.7949
 20
-86.1146
 10
82.1575
 20
-85.8455
 10
81.5523
 20
-85.5103
 10
80.9861
 20
-85.1126
 10
80.4654
 20
-84.657
 10
79.9961
 20
-84.1486
 10
79.5835
 20
-83.5932
 10
79.2322
 20
-82.9971
 10
78.9463
 20
-82.367
 10
78.729
 20
-81.7102
 10
78.5828
 20
-81.0339
 10
78.5092
 20
-80.3459
 10
78.5092
 20
-79.6541
 10
78.5828
 20
-78.9661
 10
78.729
 20
-78.2898
 10
78.9463
 20
-77.633
 10
79.2322
 20
-77.0029
 10
79.5835
 20
-76.4068
 10
79.9961
 20
-75.8514
 10
80.4654
 20
-75.343
 10
80.9861
 20
-74.8874
 10
81.5523
 20
-74.4897
 10
82.1575
 20
-74.1545
 10
82.7949
 20
-73.8854
 10
83.4574
 20
-73.6857
 10
84.1373
 20
-73.5575
 10
84.827
 20
-73.5023
 10
85.5186
 20
-73.5207
 10
86.2044
 20
-73.6126
 10
86.8765
 20
-73.7768
 10
87.5274
 20
-74.0115
 10
88.1496
 20
-74.314
 10
88.7361
 20
-74.681
 10
89.2803
 20
-75.1083
 10
89.776
 20
-75.591
 10
90.2176
 20
-76.1236
 10
90.6001
 20
-76.7002
 10
90.9191
 20
-77.3141
 10
91.1711
 20
-77.9585
 10
91.3531
 20
-78.626
 10
91.4632
 20
-79.3091
 10
91.5
 20
-80
 10
91.4632
 20
-80.6909
 10
91.3531
 20
-81.374
 10
91.1711
 20
-82.0415
 10
90.9191
 20
-82.6859
 10
90.6001
 20
-83.2998
 10
90.2176
 20
-83.8764
 10
89.776
 20
-84.409
 10
89.2803
 20
-84.8917
 10
88.7361
 20
-85.319
 10
88.1496
 20
-85.686
 10
87.5274
 20
-85.9885
 10
86.8765
 20
-86.2232
 10
86.2044
 20
-86.3874
 10
85.5186
 20
-86.4793
 10
84.827
 20
-86.4977
  0
LWPOLYLINE
100
AcDbEntity
  8
0
100
AcDbPolyline
 90
38
 70
1
 10
139.909
 20
-92.6324
 10
139.253
 20
-92.4071
 10
138.643
 20
-92.077
 10
138.096
 20
-91.6509
 10
137.626
 20
-91.1406
 10
137.246
 20
-90.5599
 10
136.968
 20
-89.9246
 10
136.798
 20
-89.2522
 10
136.74
 20
-88.5609
 10
136.798
 20
-87.8696
 10
136.968
 20
-87.1971
 10
137.246
 20
-86.5619
 10
137.626
 20
-85.9812
 10
138.096
 20
-85.4708
 10
138.643
 20
-85.0448
 10
139.253
 20
-84.7146
 10
139.909
 20
-84.4894
 10
140.593
 20
-84.3752
 10
141.287
 20
-84.3752
 10
141.971
 20
-84.4894
 10
142.627
 20
-84.7146
 10
143.237
 20
-85.0448
 10
143.785
 20
-85.4708
 10
144.255
 20
-85.9812
 10
144.634
 20
-86.5619
 10
144.913
 20
-87.1971
 10
145.083
 20
-87.8696
 10
145.14
 20
-88.5609
 10
145.083
 20
-89.2522
 10
144.913
 20
-89.9246
 10
144.634
 20
-90.5599
 10
144.255
 20
-91.1406
 10
143.785
 20
-91.6509
 10
143.237
 20
-92.077
 10
142.627
 20
-92.4071
 10
141.971
 20
-92.6324
 10
141.287
 20
-92.7465
 10
140.593
 20
-92.7465
  0
LWPOLYLINE
100
AcDbEntity
  8
0
100
AcDbPolyline
 90
35
 70
1
 10
190.202
 20
-95.383
 10
189.643
 20
-94.971
 10
189.143
 20
-94.4881
 10
188.713
 20
-93.9429
 10
188.359
 20
-93.3453
 10
188.088
 20
-92.7057
 10
187.904
 20
-92.0358
 10
187.812
 20
-91.3473
 10
187.812
 20
-90.6527
 10
187.904
 20
-89.9642
 10
188.088
 20
-89.2943
 10
188.359
 20
-88.6547
 10
188.713
 20
-88.0571
 10
189.143
 20
-87.5119
 10
189.643
 20
-87.029
 10
190.202
 20
-86.617
 10
190.324
 20
-86.55
 10
195.672
 20
-86.55
 10
196.085
 20
-86.8136
 10
196.615
 20
-87.2621
 10
197.081
 20
-87.7773
 10
197.474
 20
-88.35
 10
197.787
 20
-88.97
 10
198.015
 20
-89.6262
 10
198.154
 20
-90.3069
 10
198.2
 20
-91
 10
198.154
 20
-91.6931
 10
198.015
 20
-92.3738
 10
197.787
 20
-93.03
 10
197.474
 20
-93.65
 10
197.081
 20
-94.2227
 10
196.615
 20
-94.7379
 10
196.085
 20
-95.1864
 10
195.672
 20
-95.45
 10
190.324
 20
-95.45
  0
ENDSEC
  0
EOF
